%TF.GenerationSoftware,KiCad,Pcbnew,(6.0.9)*%
%TF.CreationDate,2023-03-24T10:36:20+01:00*%
%TF.ProjectId,bms_monitor,626d735f-6d6f-46e6-9974-6f722e6b6963,rev?*%
%TF.SameCoordinates,Original*%
%TF.FileFunction,Paste,Bot*%
%TF.FilePolarity,Positive*%
%FSLAX46Y46*%
G04 Gerber Fmt 4.6, Leading zero omitted, Abs format (unit mm)*
G04 Created by KiCad (PCBNEW (6.0.9)) date 2023-03-24 10:36:20*
%MOMM*%
%LPD*%
G01*
G04 APERTURE LIST*
G04 Aperture macros list*
%AMRoundRect*
0 Rectangle with rounded corners*
0 $1 Rounding radius*
0 $2 $3 $4 $5 $6 $7 $8 $9 X,Y pos of 4 corners*
0 Add a 4 corners polygon primitive as box body*
4,1,4,$2,$3,$4,$5,$6,$7,$8,$9,$2,$3,0*
0 Add four circle primitives for the rounded corners*
1,1,$1+$1,$2,$3*
1,1,$1+$1,$4,$5*
1,1,$1+$1,$6,$7*
1,1,$1+$1,$8,$9*
0 Add four rect primitives between the rounded corners*
20,1,$1+$1,$2,$3,$4,$5,0*
20,1,$1+$1,$4,$5,$6,$7,0*
20,1,$1+$1,$6,$7,$8,$9,0*
20,1,$1+$1,$8,$9,$2,$3,0*%
G04 Aperture macros list end*
%ADD10RoundRect,0.250000X0.362500X1.425000X-0.362500X1.425000X-0.362500X-1.425000X0.362500X-1.425000X0*%
%ADD11R,1.220000X0.650000*%
%ADD12RoundRect,0.250000X-0.362500X-1.425000X0.362500X-1.425000X0.362500X1.425000X-0.362500X1.425000X0*%
%ADD13RoundRect,0.200000X0.200000X0.275000X-0.200000X0.275000X-0.200000X-0.275000X0.200000X-0.275000X0*%
%ADD14R,0.500000X0.800000*%
%ADD15R,0.400000X0.800000*%
%ADD16RoundRect,0.250000X-0.475000X0.250000X-0.475000X-0.250000X0.475000X-0.250000X0.475000X0.250000X0*%
%ADD17RoundRect,0.200000X-0.275000X0.200000X-0.275000X-0.200000X0.275000X-0.200000X0.275000X0.200000X0*%
%ADD18RoundRect,0.200000X-0.200000X-0.275000X0.200000X-0.275000X0.200000X0.275000X-0.200000X0.275000X0*%
%ADD19RoundRect,0.225000X0.250000X-0.225000X0.250000X0.225000X-0.250000X0.225000X-0.250000X-0.225000X0*%
%ADD20RoundRect,0.225000X-0.225000X-0.250000X0.225000X-0.250000X0.225000X0.250000X-0.225000X0.250000X0*%
%ADD21R,2.000000X1.500000*%
%ADD22R,2.000000X3.800000*%
%ADD23RoundRect,0.187500X0.187500X-0.187500X0.187500X0.187500X-0.187500X0.187500X-0.187500X-0.187500X0*%
%ADD24RoundRect,0.200000X0.275000X-0.200000X0.275000X0.200000X-0.275000X0.200000X-0.275000X-0.200000X0*%
%ADD25RoundRect,0.225000X-0.250000X0.225000X-0.250000X-0.225000X0.250000X-0.225000X0.250000X0.225000X0*%
%ADD26RoundRect,0.250000X0.475000X-0.250000X0.475000X0.250000X-0.475000X0.250000X-0.475000X-0.250000X0*%
%ADD27RoundRect,0.225000X0.225000X0.250000X-0.225000X0.250000X-0.225000X-0.250000X0.225000X-0.250000X0*%
G04 APERTURE END LIST*
D10*
X108362500Y-69800000D03*
X102437500Y-69800000D03*
D11*
X162190000Y-120250000D03*
X162190000Y-118350000D03*
X164810000Y-119300000D03*
X112810000Y-73050000D03*
X112810000Y-74950000D03*
X110190000Y-74000000D03*
X162190000Y-111850000D03*
X162190000Y-109950000D03*
X164810000Y-110900000D03*
D12*
X154437500Y-115100000D03*
X160362500Y-115100000D03*
D13*
X134925000Y-96100000D03*
X133275000Y-96100000D03*
D14*
X169246400Y-86817200D03*
D15*
X168446400Y-86817200D03*
X167646400Y-86817200D03*
D14*
X166846400Y-86817200D03*
X166846400Y-85017200D03*
D15*
X167646400Y-85017200D03*
X168446400Y-85017200D03*
D14*
X169246400Y-85017200D03*
D16*
X116400000Y-105550000D03*
X116400000Y-107450000D03*
D12*
X154437500Y-106700000D03*
X160362500Y-106700000D03*
X166637500Y-119300000D03*
X172562500Y-119300000D03*
D14*
X175400000Y-91450000D03*
D15*
X174600000Y-91450000D03*
X173800000Y-91450000D03*
D14*
X173000000Y-91450000D03*
X173000000Y-89650000D03*
D15*
X173800000Y-89650000D03*
X174600000Y-89650000D03*
D14*
X175400000Y-89650000D03*
D17*
X123200000Y-105675000D03*
X123200000Y-107325000D03*
D11*
X162190000Y-124450000D03*
X162190000Y-122550000D03*
X164810000Y-123500000D03*
D12*
X166637500Y-110900000D03*
X172562500Y-110900000D03*
D17*
X136347200Y-120383800D03*
X136347200Y-122033800D03*
D18*
X140075000Y-68500000D03*
X141725000Y-68500000D03*
D14*
X159100000Y-88000000D03*
D15*
X158300000Y-88000000D03*
X157500000Y-88000000D03*
D14*
X156700000Y-88000000D03*
X156700000Y-86200000D03*
D15*
X157500000Y-86200000D03*
X158300000Y-86200000D03*
D14*
X159100000Y-86200000D03*
D19*
X130505200Y-120053400D03*
X130505200Y-118503400D03*
D18*
X133250000Y-111500000D03*
X134900000Y-111500000D03*
D12*
X154437500Y-123500000D03*
X160362500Y-123500000D03*
D11*
X125010000Y-77250000D03*
X125010000Y-79150000D03*
X122390000Y-78200000D03*
D14*
X179200000Y-91450000D03*
D15*
X178400000Y-91450000D03*
X177600000Y-91450000D03*
D14*
X176800000Y-91450000D03*
X176800000Y-89650000D03*
D15*
X177600000Y-89650000D03*
X178400000Y-89650000D03*
D14*
X179200000Y-89650000D03*
D10*
X108362500Y-74000000D03*
X102437500Y-74000000D03*
D11*
X112810000Y-77250000D03*
X112810000Y-79150000D03*
X110190000Y-78200000D03*
D20*
X143225000Y-66900000D03*
X144775000Y-66900000D03*
D10*
X108362500Y-78200000D03*
X102437500Y-78200000D03*
D13*
X141725000Y-66900000D03*
X140075000Y-66900000D03*
D11*
X112810000Y-68850000D03*
X112810000Y-70750000D03*
X110190000Y-69800000D03*
D10*
X120562500Y-82400000D03*
X114637500Y-82400000D03*
D14*
X99600000Y-97650000D03*
D15*
X100400000Y-97650000D03*
X101200000Y-97650000D03*
D14*
X102000000Y-97650000D03*
X102000000Y-99450000D03*
D15*
X101200000Y-99450000D03*
X100400000Y-99450000D03*
D14*
X99600000Y-99450000D03*
D11*
X149990000Y-107650000D03*
X149990000Y-105750000D03*
X152610000Y-106700000D03*
X125010000Y-68850000D03*
X125010000Y-70750000D03*
X122390000Y-69800000D03*
D14*
X95800000Y-97650000D03*
D15*
X96600000Y-97650000D03*
X97400000Y-97650000D03*
D14*
X98200000Y-97650000D03*
X98200000Y-99450000D03*
D15*
X97400000Y-99450000D03*
X96600000Y-99450000D03*
D14*
X95800000Y-99450000D03*
D11*
X149990000Y-116050000D03*
X149990000Y-114150000D03*
X152610000Y-115100000D03*
D12*
X154437500Y-102500000D03*
X160362500Y-102500000D03*
D11*
X112810000Y-64650000D03*
X112810000Y-66550000D03*
X110190000Y-65600000D03*
D14*
X115900000Y-101100000D03*
D15*
X116700000Y-101100000D03*
X117500000Y-101100000D03*
D14*
X118300000Y-101100000D03*
X118300000Y-102900000D03*
D15*
X117500000Y-102900000D03*
X116700000Y-102900000D03*
D14*
X115900000Y-102900000D03*
D12*
X154437500Y-110900000D03*
X160362500Y-110900000D03*
X166637500Y-106700000D03*
X172562500Y-106700000D03*
D14*
X155300000Y-88000000D03*
D15*
X154500000Y-88000000D03*
X153700000Y-88000000D03*
D14*
X152900000Y-88000000D03*
X152900000Y-86200000D03*
D15*
X153700000Y-86200000D03*
X154500000Y-86200000D03*
D14*
X155300000Y-86200000D03*
D16*
X118400000Y-105550000D03*
X118400000Y-107450000D03*
D19*
X134772400Y-118885000D03*
X134772400Y-117335000D03*
D14*
X102000000Y-94000000D03*
D15*
X101200000Y-94000000D03*
X100400000Y-94000000D03*
D14*
X99600000Y-94000000D03*
X99600000Y-92200000D03*
D15*
X100400000Y-92200000D03*
X101200000Y-92200000D03*
D14*
X102000000Y-92200000D03*
X105784800Y-102274800D03*
D15*
X106584800Y-102274800D03*
X107384800Y-102274800D03*
D14*
X108184800Y-102274800D03*
X108184800Y-104074800D03*
D15*
X107384800Y-104074800D03*
X106584800Y-104074800D03*
D14*
X105784800Y-104074800D03*
D13*
X134900000Y-109900000D03*
X133250000Y-109900000D03*
D21*
X98350000Y-114800000D03*
D22*
X104650000Y-112500000D03*
D21*
X98350000Y-112500000D03*
X98350000Y-110200000D03*
D23*
X131685800Y-116906200D03*
X130035800Y-116906200D03*
X130035800Y-115656200D03*
X131685800Y-115656200D03*
D20*
X143250000Y-80700000D03*
X144800000Y-80700000D03*
D11*
X125010000Y-64650000D03*
X125010000Y-66550000D03*
X122390000Y-65600000D03*
X149990000Y-124450000D03*
X149990000Y-122550000D03*
X152610000Y-123500000D03*
D24*
X125171200Y-124218200D03*
X125171200Y-122568200D03*
D14*
X176800000Y-95100000D03*
D15*
X177600000Y-95100000D03*
X178400000Y-95100000D03*
D14*
X179200000Y-95100000D03*
X179200000Y-96900000D03*
D15*
X178400000Y-96900000D03*
X177600000Y-96900000D03*
D14*
X176800000Y-96900000D03*
D20*
X143250000Y-82300000D03*
X144800000Y-82300000D03*
D11*
X112810000Y-81450000D03*
X112810000Y-83350000D03*
X110190000Y-82400000D03*
D25*
X134772400Y-120433800D03*
X134772400Y-121983800D03*
D12*
X166637500Y-102500000D03*
X172562500Y-102500000D03*
D26*
X160600000Y-83550000D03*
X160600000Y-81650000D03*
D11*
X162190000Y-103450000D03*
X162190000Y-101550000D03*
X164810000Y-102500000D03*
X125010000Y-73050000D03*
X125010000Y-74950000D03*
X122390000Y-74000000D03*
D14*
X119700000Y-101100000D03*
D15*
X120500000Y-101100000D03*
X121300000Y-101100000D03*
D14*
X122100000Y-101100000D03*
X122100000Y-102900000D03*
D15*
X121300000Y-102900000D03*
X120500000Y-102900000D03*
D14*
X119700000Y-102900000D03*
D12*
X154437500Y-119300000D03*
X160362500Y-119300000D03*
X166637500Y-123500000D03*
X172562500Y-123500000D03*
D27*
X131750000Y-109900000D03*
X130200000Y-109900000D03*
D11*
X162190000Y-107650000D03*
X162190000Y-105750000D03*
X164810000Y-106700000D03*
D19*
X129743200Y-124168200D03*
X129743200Y-122618200D03*
D11*
X112810000Y-85650000D03*
X112810000Y-87550000D03*
X110190000Y-86600000D03*
D14*
X162900000Y-88000000D03*
D15*
X162100000Y-88000000D03*
X161300000Y-88000000D03*
D14*
X160500000Y-88000000D03*
X160500000Y-86200000D03*
D15*
X161300000Y-86200000D03*
X162100000Y-86200000D03*
D14*
X162900000Y-86200000D03*
D11*
X149990000Y-103450000D03*
X149990000Y-101550000D03*
X152610000Y-102500000D03*
D14*
X173000000Y-95100000D03*
D15*
X173800000Y-95100000D03*
X174600000Y-95100000D03*
D14*
X175400000Y-95100000D03*
X175400000Y-96900000D03*
D15*
X174600000Y-96900000D03*
X173800000Y-96900000D03*
D14*
X173000000Y-96900000D03*
D27*
X131775000Y-97700000D03*
X130225000Y-97700000D03*
D25*
X153300000Y-81825000D03*
X153300000Y-83375000D03*
D13*
X141750000Y-80700000D03*
X140100000Y-80700000D03*
D11*
X125010000Y-81450000D03*
X125010000Y-83350000D03*
X122390000Y-82400000D03*
D10*
X108362500Y-82400000D03*
X102437500Y-82400000D03*
D11*
X149990000Y-120250000D03*
X149990000Y-118350000D03*
X152610000Y-119300000D03*
D10*
X120562500Y-86600000D03*
X114637500Y-86600000D03*
D24*
X151800000Y-83425000D03*
X151800000Y-81775000D03*
D14*
X98200000Y-94000000D03*
D15*
X97400000Y-94000000D03*
X96600000Y-94000000D03*
D14*
X95800000Y-94000000D03*
X95800000Y-92200000D03*
D15*
X96600000Y-92200000D03*
X97400000Y-92200000D03*
D14*
X98200000Y-92200000D03*
D27*
X131750000Y-111500000D03*
X130200000Y-111500000D03*
D19*
X121700000Y-107275000D03*
X121700000Y-105725000D03*
D24*
X120200000Y-107325000D03*
X120200000Y-105675000D03*
D20*
X143225000Y-68500000D03*
X144775000Y-68500000D03*
D24*
X150300000Y-83425000D03*
X150300000Y-81775000D03*
D25*
X126695200Y-122618200D03*
X126695200Y-124168200D03*
D12*
X166637500Y-115100000D03*
X172562500Y-115100000D03*
D10*
X120562500Y-69800000D03*
X114637500Y-69800000D03*
X108362500Y-65600000D03*
X102437500Y-65600000D03*
D17*
X154800000Y-81775000D03*
X154800000Y-83425000D03*
D25*
X132588000Y-118452600D03*
X132588000Y-120002600D03*
D10*
X108362500Y-86600000D03*
X102437500Y-86600000D03*
D27*
X131775000Y-96100000D03*
X130225000Y-96100000D03*
D10*
X120562500Y-65600000D03*
X114637500Y-65600000D03*
D21*
X176650000Y-74300000D03*
D22*
X170350000Y-76600000D03*
D21*
X176650000Y-76600000D03*
X176650000Y-78900000D03*
D18*
X133275000Y-97700000D03*
X134925000Y-97700000D03*
D17*
X124700000Y-105675000D03*
X124700000Y-107325000D03*
D26*
X156600000Y-83550000D03*
X156600000Y-81650000D03*
D10*
X120562500Y-78200000D03*
X114637500Y-78200000D03*
D11*
X125010000Y-85650000D03*
X125010000Y-87550000D03*
X122390000Y-86600000D03*
D24*
X128219200Y-124218200D03*
X128219200Y-122568200D03*
D18*
X140100000Y-82300000D03*
X141750000Y-82300000D03*
D11*
X149990000Y-111850000D03*
X149990000Y-109950000D03*
X152610000Y-110900000D03*
D26*
X158600000Y-83550000D03*
X158600000Y-81650000D03*
D16*
X114400000Y-105550000D03*
X114400000Y-107450000D03*
D11*
X162190000Y-116050000D03*
X162190000Y-114150000D03*
X164810000Y-115100000D03*
D14*
X112100000Y-101100000D03*
D15*
X112900000Y-101100000D03*
X113700000Y-101100000D03*
D14*
X114500000Y-101100000D03*
X114500000Y-102900000D03*
D15*
X113700000Y-102900000D03*
X112900000Y-102900000D03*
D14*
X112100000Y-102900000D03*
D10*
X120562500Y-74000000D03*
X114637500Y-74000000D03*
M02*
