M48
; DRILL file {KiCad (6.0.9)} date Fri Mar 24 10:37:17 2023
; FORMAT={-:-/ absolute / metric / decimal}
; #@! TF.CreationDate,2023-03-24T10:37:17+01:00
; #@! TF.GenerationSoftware,Kicad,Pcbnew,(6.0.9)
; #@! TF.FileFunction,Plated,1,2,PTH
FMAT,2
METRIC
; #@! TA.AperFunction,Plated,PTH,ViaDrill
T1C0.250
; #@! TA.AperFunction,Plated,PTH,ViaDrill
T2C0.400
; #@! TA.AperFunction,Plated,PTH,ComponentDrill
T3C1.000
; #@! TA.AperFunction,Plated,PTH,ComponentDrill
T4C1.020
; #@! TA.AperFunction,Plated,PTH,ComponentDrill
T5C1.200
%
G90
G05
T1
X94.725Y-93.575
X95.8Y-101.2
X95.9Y-90.2
X96.624Y-101.224
X96.75Y-90.45
X97.45Y-90.15
X97.524Y-101.024
X98.249Y-101.213
X98.55Y-90.65
X99.2Y-120.0
X99.3Y-90.6
X99.3Y-101.2
X100.1Y-101.2
X100.4Y-90.2
X101.0Y-101.2
X101.1Y-90.5
X101.799Y-89.981
X101.9Y-101.1
X102.45Y-90.634
X106.4Y-122.5
X106.533Y-106.485
X107.004Y-121.181
X107.056Y-105.949
X107.2Y-115.0
X107.635Y-105.471
X108.24Y-105.018
X109.38Y-118.462
X109.98Y-119.126
X110.624Y-97.776
X111.1Y-121.92
X111.45Y-89.4
X112.079Y-103.826
X112.447Y-108.317
X112.8Y-65.4
X112.8Y-69.6
X112.8Y-73.8
X112.8Y-78.0
X112.8Y-82.2
X112.8Y-86.4
X112.9Y-103.8
X113.474Y-89.2
X113.7Y-103.8
X113.741Y-121.412
X113.744Y-112.474
X114.5Y-103.8
X115.123Y-89.65
X115.57Y-110.625
X115.9Y-103.8
X116.176Y-109.684
X116.383Y-121.92
X116.7Y-103.8
X116.846Y-110.133
X117.074Y-90.099
X117.5Y-103.8
X118.099Y-109.866
X118.3Y-103.8
X118.821Y-117.5
X118.974Y-90.549
X119.278Y-122.072
X119.32Y-109.92
X119.7Y-103.8
X120.5Y-103.8
X120.955Y-118.584
X121.09Y-90.999
X121.3Y-103.8
X121.361Y-116.891
X121.615Y-121.9
X121.7Y-113.069
X122.1Y-103.8
X122.631Y-117.983
X123.457Y-112.625
X123.495Y-109.88
X123.495Y-111.15
X124.054Y-113.335
X124.343Y-117.346
X125.212Y-121.529
X125.834Y-123.442
X126.107Y-120.507
X128.329Y-106.535
X128.424Y-109.22
X129.046Y-121.921
X129.15Y-104.439
X129.59Y-125.12
X130.2Y-100.557
X130.21Y-93.71
X130.21Y-95.367
X130.674Y-116.234
X130.822Y-123.33
X130.896Y-112.217
X131.021Y-115.57
X131.216Y-113.335
X131.305Y-121.056
X131.572Y-119.717
X132.283Y-108.306
X132.298Y-123.517
X132.624Y-115.694
X132.994Y-121.056
X133.224Y-116.293
X133.874Y-116.747
X133.921Y-117.537
X135.179Y-125.578
X136.957Y-118.516
X136.957Y-121.199
X137.008Y-124.155
X140.727Y-119.329
X141.376Y-121.869
X143.231Y-85.8
X143.612Y-65.075
X143.662Y-70.206
X144.8Y-69.3
X144.8Y-78.3
X144.8Y-79.9
X144.8Y-84.7
X145.386Y-64.032
X148.818Y-71.05
X149.418Y-70.451
X150.012Y-69.925
X150.761Y-69.894
X150.911Y-67.264
X151.125Y-66.499
X151.359Y-71.018
X151.486Y-78.08
X151.553Y-69.95
X151.69Y-71.818
X151.794Y-79.219
X152.9Y-85.3
X153.287Y-71.651
X153.594Y-67.767
X153.619Y-75.819
X153.619Y-76.592
X153.7Y-85.3
X153.91Y-98.1
X154.5Y-85.3
X155.3Y-85.3
X155.68Y-79.18
X156.026Y-98.55
X156.7Y-85.3
X156.901Y-79.234
X157.376Y-71.052
X157.5Y-85.3
X157.926Y-99.001
X158.154Y-78.967
X158.3Y-85.3
X158.824Y-79.416
X158.896Y-78.6
X158.95Y-67.2
X159.1Y-85.3
X159.877Y-99.45
X160.3Y-84.0
X160.5Y-85.3
X161.188Y-76.675
X161.3Y-85.3
X161.526Y-99.9
X161.536Y-67.2
X162.1Y-85.3
X162.2Y-65.0
X162.2Y-102.7
X162.2Y-106.9
X162.2Y-111.1
X162.2Y-115.3
X162.2Y-119.5
X162.2Y-123.7
X162.6Y-80.7
X162.921Y-85.274
X163.549Y-99.7
X163.55Y-73.087
X164.376Y-91.324
X164.846Y-69.444
X166.438Y-65.6
X166.823Y-83.723
X167.488Y-83.261
X167.8Y-74.1
X168.09Y-82.816
X168.6Y-66.6
X168.678Y-82.351
X172.603Y-98.096
X173.1Y-88.0
X173.201Y-99.0
X173.9Y-98.6
X174.0Y-87.9
X174.6Y-98.9
X174.9Y-87.9
X175.7Y-87.9
X175.7Y-98.5
X175.8Y-69.1
X176.45Y-98.45
X176.751Y-87.887
X177.476Y-88.076
X177.55Y-98.95
X178.25Y-98.65
X178.376Y-87.876
X179.1Y-98.9
X179.2Y-87.9
X180.275Y-95.525
T2
X96.4Y-111.335
X96.4Y-119.8
X100.6Y-118.7
X101.5Y-119.4
X102.3Y-118.7
X103.6Y-74.0
X103.6Y-119.7
X103.8Y-118.7
X104.292Y-70.714
X104.5Y-97.5
X104.553Y-63.9
X104.65Y-104.05
X104.9Y-117.8
X104.9Y-119.3
X105.275Y-65.6
X105.512Y-78.334
X106.504Y-86.638
X106.524Y-119.3
X106.525Y-82.4
X106.6Y-117.8
X108.1Y-110.1
X108.1Y-111.0
X108.1Y-111.9
X110.2Y-64.675
X110.2Y-68.6
X110.2Y-72.8
X110.2Y-81.2
X110.2Y-85.4
X110.259Y-114.059
X110.66Y-77.0
X112.587Y-124.664
X112.929Y-104.674
X114.678Y-108.674
X125.8Y-95.574
X126.035Y-105.867
X141.173Y-123.698
X148.2Y-79.451
X149.2Y-92.6
X160.322Y-80.426
X164.741Y-75.041
X164.8Y-103.7
X164.8Y-107.9
X164.8Y-112.1
X164.8Y-116.3
X164.8Y-120.5
X164.8Y-124.425
X166.9Y-77.2
X166.9Y-78.1
X166.9Y-79.0
X168.4Y-71.3
X168.475Y-69.8
X168.656Y-102.462
X168.676Y-106.7
X169.875Y-122.225
X169.926Y-110.896
X169.926Y-115.113
X169.955Y-119.3
X170.1Y-69.8
X170.1Y-71.3
X170.332Y-86.614
X170.499Y-91.6
X170.812Y-125.2
X171.2Y-70.4
X171.4Y-69.4
X172.7Y-70.4
X173.5Y-69.7
X174.4Y-70.4
X177.0Y-80.1
X178.6Y-69.3
T3
X97.541Y-107.747
X100.081Y-107.747
T4
X133.096Y-78.915
X133.096Y-81.915
X133.1Y-66.2
X133.1Y-69.2
X141.9Y-95.4
X141.9Y-98.4
X141.9Y-108.102
X141.9Y-111.102
T5
X88.9Y-65.0
X88.9Y-67.5
X88.9Y-70.0
X88.9Y-72.5
X88.9Y-75.0
X88.9Y-77.5
X88.9Y-80.0
X88.9Y-84.5
X88.9Y-87.0
X88.9Y-89.5
X88.9Y-92.0
X88.9Y-94.5
X88.9Y-97.0
X88.9Y-99.5
X88.9Y-102.0
X88.9Y-106.5
X88.9Y-109.0
X88.9Y-111.5
X88.9Y-114.0
X88.9Y-116.5
X88.9Y-119.0
X88.9Y-121.5
X88.9Y-124.0
X91.4Y-65.0
X91.4Y-67.5
X91.4Y-70.0
X91.4Y-72.5
X91.4Y-75.0
X91.4Y-77.5
X91.4Y-80.0
X91.4Y-84.5
X91.4Y-87.0
X91.4Y-89.5
X91.4Y-92.0
X91.4Y-94.5
X91.4Y-97.0
X91.4Y-99.5
X91.4Y-102.0
X91.4Y-106.5
X91.4Y-109.0
X91.4Y-111.5
X91.4Y-114.0
X91.4Y-116.5
X91.4Y-119.0
X91.4Y-121.5
X91.4Y-124.0
X113.25Y-115.43
X115.75Y-115.43
X118.25Y-115.43
X120.75Y-115.43
X123.25Y-115.43
X125.75Y-115.43
X149.25Y-73.67
X151.75Y-73.67
X154.25Y-73.67
X156.75Y-73.67
X159.25Y-73.67
X161.75Y-73.67
X183.6Y-65.1
X183.6Y-67.6
X183.6Y-70.1
X183.6Y-72.6
X183.6Y-75.1
X183.6Y-77.6
X183.6Y-80.1
X183.6Y-82.6
X183.6Y-87.1
X183.6Y-89.6
X183.6Y-92.1
X183.6Y-94.6
X183.6Y-97.1
X183.6Y-99.6
X183.6Y-102.1
X183.6Y-104.6
X183.6Y-109.1
X183.6Y-111.6
X183.6Y-114.1
X183.6Y-116.6
X183.6Y-119.1
X183.6Y-121.6
X183.6Y-124.1
X186.1Y-65.1
X186.1Y-67.6
X186.1Y-70.1
X186.1Y-72.6
X186.1Y-75.1
X186.1Y-77.6
X186.1Y-80.1
X186.1Y-82.6
X186.1Y-87.1
X186.1Y-89.6
X186.1Y-92.1
X186.1Y-94.6
X186.1Y-97.1
X186.1Y-99.6
X186.1Y-102.1
X186.1Y-104.6
X186.1Y-109.1
X186.1Y-111.6
X186.1Y-114.1
X186.1Y-116.6
X186.1Y-119.1
X186.1Y-121.6
X186.1Y-124.1
T0
M30
