%TF.GenerationSoftware,KiCad,Pcbnew,(6.0.9)*%
%TF.CreationDate,2023-05-23T15:00:07+02:00*%
%TF.ProjectId,bms_monitor,626d735f-6d6f-46e6-9974-6f722e6b6963,rev?*%
%TF.SameCoordinates,Original*%
%TF.FileFunction,Copper,L2,Bot*%
%TF.FilePolarity,Positive*%
%FSLAX46Y46*%
G04 Gerber Fmt 4.6, Leading zero omitted, Abs format (unit mm)*
G04 Created by KiCad (PCBNEW (6.0.9)) date 2023-05-23 15:00:07*
%MOMM*%
%LPD*%
G01*
G04 APERTURE LIST*
G04 Aperture macros list*
%AMRoundRect*
0 Rectangle with rounded corners*
0 $1 Rounding radius*
0 $2 $3 $4 $5 $6 $7 $8 $9 X,Y pos of 4 corners*
0 Add a 4 corners polygon primitive as box body*
4,1,4,$2,$3,$4,$5,$6,$7,$8,$9,$2,$3,0*
0 Add four circle primitives for the rounded corners*
1,1,$1+$1,$2,$3*
1,1,$1+$1,$4,$5*
1,1,$1+$1,$6,$7*
1,1,$1+$1,$8,$9*
0 Add four rect primitives between the rounded corners*
20,1,$1+$1,$2,$3,$4,$5,0*
20,1,$1+$1,$4,$5,$6,$7,0*
20,1,$1+$1,$6,$7,$8,$9,0*
20,1,$1+$1,$8,$9,$2,$3,0*%
%AMFreePoly0*
4,1,22,0.500000,-0.750000,0.000000,-0.750000,0.000000,-0.745033,-0.079941,-0.743568,-0.215256,-0.701293,-0.333266,-0.622738,-0.424486,-0.514219,-0.481581,-0.384460,-0.499164,-0.250000,-0.500000,-0.250000,-0.500000,0.250000,-0.499164,0.250000,-0.499963,0.256109,-0.478152,0.396186,-0.417904,0.524511,-0.324060,0.630769,-0.204165,0.706417,-0.067858,0.745374,0.000000,0.744959,0.000000,0.750000,
0.500000,0.750000,0.500000,-0.750000,0.500000,-0.750000,$1*%
%AMFreePoly1*
4,1,20,0.000000,0.744959,0.073905,0.744508,0.209726,0.703889,0.328688,0.626782,0.421226,0.519385,0.479903,0.390333,0.500000,0.250000,0.500000,-0.250000,0.499851,-0.262216,0.476331,-0.402017,0.414519,-0.529596,0.319384,-0.634700,0.198574,-0.708877,0.061801,-0.746166,0.000000,-0.745033,0.000000,-0.750000,-0.500000,-0.750000,-0.500000,0.750000,0.000000,0.750000,0.000000,0.744959,
0.000000,0.744959,$1*%
%AMFreePoly2*
4,1,22,0.550000,-0.750000,0.000000,-0.750000,0.000000,-0.745033,-0.079941,-0.743568,-0.215256,-0.701293,-0.333266,-0.622738,-0.424486,-0.514219,-0.481581,-0.384460,-0.499164,-0.250000,-0.500000,-0.250000,-0.500000,0.250000,-0.499164,0.250000,-0.499963,0.256109,-0.478152,0.396186,-0.417904,0.524511,-0.324060,0.630769,-0.204165,0.706417,-0.067858,0.745374,0.000000,0.744959,0.000000,0.750000,
0.550000,0.750000,0.550000,-0.750000,0.550000,-0.750000,$1*%
%AMFreePoly3*
4,1,20,0.000000,0.744959,0.073905,0.744508,0.209726,0.703889,0.328688,0.626782,0.421226,0.519385,0.479903,0.390333,0.500000,0.250000,0.500000,-0.250000,0.499851,-0.262216,0.476331,-0.402017,0.414519,-0.529596,0.319384,-0.634700,0.198574,-0.708877,0.061801,-0.746166,0.000000,-0.745033,0.000000,-0.750000,-0.550000,-0.750000,-0.550000,0.750000,0.000000,0.750000,0.000000,0.744959,
0.000000,0.744959,$1*%
G04 Aperture macros list end*
%TA.AperFunction,SMDPad,CuDef*%
%ADD10R,2.000000X3.800000*%
%TD*%
%TA.AperFunction,SMDPad,CuDef*%
%ADD11R,2.000000X1.500000*%
%TD*%
%TA.AperFunction,SMDPad,CuDef*%
%ADD12RoundRect,0.225000X0.225000X0.250000X-0.225000X0.250000X-0.225000X-0.250000X0.225000X-0.250000X0*%
%TD*%
%TA.AperFunction,SMDPad,CuDef*%
%ADD13RoundRect,0.200000X-0.275000X0.200000X-0.275000X-0.200000X0.275000X-0.200000X0.275000X0.200000X0*%
%TD*%
%TA.AperFunction,SMDPad,CuDef*%
%ADD14RoundRect,0.200000X0.275000X-0.200000X0.275000X0.200000X-0.275000X0.200000X-0.275000X-0.200000X0*%
%TD*%
%TA.AperFunction,SMDPad,CuDef*%
%ADD15FreePoly0,180.000000*%
%TD*%
%TA.AperFunction,SMDPad,CuDef*%
%ADD16FreePoly1,180.000000*%
%TD*%
%TA.AperFunction,SMDPad,CuDef*%
%ADD17FreePoly0,0.000000*%
%TD*%
%TA.AperFunction,SMDPad,CuDef*%
%ADD18FreePoly1,0.000000*%
%TD*%
%TA.AperFunction,SMDPad,CuDef*%
%ADD19RoundRect,0.225000X0.225000X-0.275000X0.225000X0.275000X-0.225000X0.275000X-0.225000X-0.275000X0*%
%TD*%
%TA.AperFunction,ComponentPad*%
%ADD20RoundRect,0.250000X-0.600000X-0.600000X0.600000X-0.600000X0.600000X0.600000X-0.600000X0.600000X0*%
%TD*%
%TA.AperFunction,ComponentPad*%
%ADD21C,1.700000*%
%TD*%
%TA.AperFunction,ComponentPad*%
%ADD22RoundRect,0.250001X0.759999X-0.499999X0.759999X0.499999X-0.759999X0.499999X-0.759999X-0.499999X0*%
%TD*%
%TA.AperFunction,ComponentPad*%
%ADD23O,2.020000X1.500000*%
%TD*%
%TA.AperFunction,ComponentPad*%
%ADD24RoundRect,0.250000X0.600000X0.600000X-0.600000X0.600000X-0.600000X-0.600000X0.600000X-0.600000X0*%
%TD*%
%TA.AperFunction,ComponentPad*%
%ADD25RoundRect,0.250000X-0.600000X0.850000X-0.600000X-0.850000X0.600000X-0.850000X0.600000X0.850000X0*%
%TD*%
%TA.AperFunction,ComponentPad*%
%ADD26O,1.700000X2.200000*%
%TD*%
%TA.AperFunction,ComponentPad*%
%ADD27RoundRect,0.250000X0.600000X-0.850000X0.600000X0.850000X-0.600000X0.850000X-0.600000X-0.850000X0*%
%TD*%
%TA.AperFunction,ComponentPad*%
%ADD28RoundRect,0.250001X-0.759999X0.499999X-0.759999X-0.499999X0.759999X-0.499999X0.759999X0.499999X0*%
%TD*%
%TA.AperFunction,ComponentPad*%
%ADD29R,1.700000X1.700000*%
%TD*%
%TA.AperFunction,ComponentPad*%
%ADD30O,1.700000X1.700000*%
%TD*%
%TA.AperFunction,SMDPad,CuDef*%
%ADD31RoundRect,0.250000X0.362500X1.425000X-0.362500X1.425000X-0.362500X-1.425000X0.362500X-1.425000X0*%
%TD*%
%TA.AperFunction,SMDPad,CuDef*%
%ADD32R,1.220000X0.650000*%
%TD*%
%TA.AperFunction,SMDPad,CuDef*%
%ADD33FreePoly2,90.000000*%
%TD*%
%TA.AperFunction,SMDPad,CuDef*%
%ADD34R,1.500000X1.000000*%
%TD*%
%TA.AperFunction,SMDPad,CuDef*%
%ADD35FreePoly3,90.000000*%
%TD*%
%TA.AperFunction,SMDPad,CuDef*%
%ADD36RoundRect,0.250000X-0.362500X-1.425000X0.362500X-1.425000X0.362500X1.425000X-0.362500X1.425000X0*%
%TD*%
%TA.AperFunction,SMDPad,CuDef*%
%ADD37RoundRect,0.200000X0.200000X0.275000X-0.200000X0.275000X-0.200000X-0.275000X0.200000X-0.275000X0*%
%TD*%
%TA.AperFunction,SMDPad,CuDef*%
%ADD38R,0.500000X0.800000*%
%TD*%
%TA.AperFunction,SMDPad,CuDef*%
%ADD39R,0.400000X0.800000*%
%TD*%
%TA.AperFunction,SMDPad,CuDef*%
%ADD40RoundRect,0.250000X-0.475000X0.250000X-0.475000X-0.250000X0.475000X-0.250000X0.475000X0.250000X0*%
%TD*%
%TA.AperFunction,SMDPad,CuDef*%
%ADD41RoundRect,0.200000X-0.200000X-0.275000X0.200000X-0.275000X0.200000X0.275000X-0.200000X0.275000X0*%
%TD*%
%TA.AperFunction,SMDPad,CuDef*%
%ADD42RoundRect,0.225000X0.250000X-0.225000X0.250000X0.225000X-0.250000X0.225000X-0.250000X-0.225000X0*%
%TD*%
%TA.AperFunction,SMDPad,CuDef*%
%ADD43RoundRect,0.150000X0.587500X0.150000X-0.587500X0.150000X-0.587500X-0.150000X0.587500X-0.150000X0*%
%TD*%
%TA.AperFunction,SMDPad,CuDef*%
%ADD44RoundRect,0.225000X-0.225000X-0.250000X0.225000X-0.250000X0.225000X0.250000X-0.225000X0.250000X0*%
%TD*%
%TA.AperFunction,SMDPad,CuDef*%
%ADD45RoundRect,0.225000X-0.250000X0.225000X-0.250000X-0.225000X0.250000X-0.225000X0.250000X0.225000X0*%
%TD*%
%TA.AperFunction,SMDPad,CuDef*%
%ADD46FreePoly2,270.000000*%
%TD*%
%TA.AperFunction,SMDPad,CuDef*%
%ADD47FreePoly3,270.000000*%
%TD*%
%TA.AperFunction,SMDPad,CuDef*%
%ADD48RoundRect,0.250000X0.475000X-0.250000X0.475000X0.250000X-0.475000X0.250000X-0.475000X-0.250000X0*%
%TD*%
%TA.AperFunction,ViaPad*%
%ADD49C,0.550000*%
%TD*%
%TA.AperFunction,ViaPad*%
%ADD50C,0.800000*%
%TD*%
%TA.AperFunction,Conductor*%
%ADD51C,0.350000*%
%TD*%
%TA.AperFunction,Conductor*%
%ADD52C,0.250000*%
%TD*%
%TA.AperFunction,Conductor*%
%ADD53C,0.400000*%
%TD*%
%TA.AperFunction,Conductor*%
%ADD54C,0.500000*%
%TD*%
G04 APERTURE END LIST*
D10*
%TO.P,Q2,4,C*%
%TO.N,/StackB/PSU_INPUT*%
X170350000Y-76600000D03*
D11*
%TO.P,Q2,3,E*%
%TO.N,/StackB/VCC*%
X176650000Y-78900000D03*
%TO.P,Q2,2,C*%
%TO.N,/StackB/PSU_INPUT*%
X176650000Y-76600000D03*
%TO.P,Q2,1,B*%
%TO.N,/StackB/DRIVE*%
X176650000Y-74300000D03*
%TD*%
D12*
%TO.P,C18,1*%
%TO.N,Net-(C18-Pad1)*%
X131775000Y-97700000D03*
%TO.P,C18,2*%
%TO.N,GND*%
X130225000Y-97700000D03*
%TD*%
D13*
%TO.P,R33,1*%
%TO.N,/IB-_B*%
X138557000Y-66866000D03*
%TO.P,R33,2*%
%TO.N,/IB+_B*%
X138557000Y-68516000D03*
%TD*%
%TO.P,R32,1*%
%TO.N,/StackB/CSB*%
X138582400Y-80683600D03*
%TO.P,R32,2*%
%TO.N,/StackB/IA+*%
X138582400Y-82333600D03*
%TD*%
D14*
%TO.P,R31,1*%
%TO.N,/StackA/A2*%
X136601200Y-97726000D03*
%TO.P,R31,2*%
%TO.N,/StackA/A3*%
X136601200Y-96076000D03*
%TD*%
%TO.P,R30,1*%
%TO.N,/CS*%
X136448800Y-111518200D03*
%TO.P,R30,2*%
%TO.N,/IA+_A*%
X136448800Y-109868200D03*
%TD*%
D10*
%TO.P,Q1,4,C*%
%TO.N,/StackA/PSU_INPUT*%
X104724200Y-112598200D03*
D11*
%TO.P,Q1,3,E*%
%TO.N,+5V*%
X98424200Y-110298200D03*
%TO.P,Q1,2,C*%
%TO.N,/StackA/PSU_INPUT*%
X98424200Y-112598200D03*
%TO.P,Q1,1,B*%
%TO.N,/StackA/DRIVE*%
X98424200Y-114898200D03*
%TD*%
D15*
%TO.P,JP18,1,A*%
%TO.N,Net-(F13-Pad2)*%
X178907200Y-124104400D03*
D16*
%TO.P,JP18,2,B*%
%TO.N,Net-(Fb3-Pad2)*%
X177607200Y-124104400D03*
%TD*%
D17*
%TO.P,JP17,1,A*%
%TO.N,Net-(Fa12-Pad2)*%
X96073200Y-64973200D03*
D18*
%TO.P,JP17,2,B*%
%TO.N,Net-(Fa13-Pad2)*%
X97373200Y-64973200D03*
%TD*%
D19*
%TO.P,U3,1,OE*%
%TO.N,Net-(U1-Pad7)*%
X131902200Y-116408200D03*
%TO.P,U3,2,GND*%
%TO.N,GND*%
X129802200Y-116408200D03*
%TO.P,U3,3,OUT*%
%TO.N,/CLK*%
X129802200Y-114608200D03*
%TO.P,U3,4,VDD*%
%TO.N,+3.3V*%
X131902200Y-114608200D03*
%TD*%
D20*
%TO.P,J10,1,Pin_1*%
%TO.N,Net-(CN12-Pad5)*%
X183600000Y-65100000D03*
D21*
%TO.P,J10,2,Pin_2*%
%TO.N,Net-(CN12-Pad6)*%
X183600000Y-67600000D03*
%TO.P,J10,3,Pin_3*%
%TO.N,Net-(CN12-Pad7)*%
X183600000Y-70100000D03*
%TO.P,J10,4,Pin_4*%
%TO.N,Net-(CN12-Pad8)*%
X183600000Y-72600000D03*
%TO.P,J10,5,Pin_5*%
%TO.N,Net-(CN13-Pad5)*%
X183600000Y-75100000D03*
%TO.P,J10,6,Pin_6*%
%TO.N,Net-(CN13-Pad6)*%
X183600000Y-77600000D03*
%TO.P,J10,7,Pin_7*%
%TO.N,Net-(CN13-Pad7)*%
X183600000Y-80100000D03*
%TO.P,J10,8,Pin_8*%
%TO.N,Net-(CN13-Pad8)*%
X183600000Y-82600000D03*
%TO.P,J10,9,Pin_9*%
%TO.N,/StackB/GND*%
X186100000Y-65100000D03*
%TO.P,J10,10,Pin_10*%
X186100000Y-67600000D03*
%TO.P,J10,11,Pin_11*%
X186100000Y-70100000D03*
%TO.P,J10,12,Pin_12*%
X186100000Y-72600000D03*
%TO.P,J10,13,Pin_13*%
X186100000Y-75100000D03*
%TO.P,J10,14,Pin_14*%
X186100000Y-77600000D03*
%TO.P,J10,15,Pin_15*%
X186100000Y-80100000D03*
%TO.P,J10,16,Pin_16*%
X186100000Y-82600000D03*
%TD*%
D22*
%TO.P,J2,1,Pin_1*%
%TO.N,/STACK_B_IB+*%
X133100000Y-69200000D03*
D23*
%TO.P,J2,2,Pin_2*%
%TO.N,/STACK_B_IB-*%
X133100000Y-66200000D03*
%TD*%
D24*
%TO.P,J6,1,Pin_1*%
%TO.N,Net-(CN6-Pad5)*%
X91400000Y-124000000D03*
D21*
%TO.P,J6,2,Pin_2*%
%TO.N,Net-(CN6-Pad6)*%
X91400000Y-121500000D03*
%TO.P,J6,3,Pin_3*%
%TO.N,Net-(CN6-Pad7)*%
X91400000Y-119000000D03*
%TO.P,J6,4,Pin_4*%
%TO.N,Net-(CN6-Pad8)*%
X91400000Y-116500000D03*
%TO.P,J6,5,Pin_5*%
%TO.N,Net-(CN7-Pad5)*%
X91400000Y-114000000D03*
%TO.P,J6,6,Pin_6*%
%TO.N,Net-(CN7-Pad6)*%
X91400000Y-111500000D03*
%TO.P,J6,7,Pin_7*%
%TO.N,Net-(CN7-Pad7)*%
X91400000Y-109000000D03*
%TO.P,J6,8,Pin_8*%
%TO.N,Net-(CN7-Pad8)*%
X91400000Y-106500000D03*
%TO.P,J6,9,Pin_9*%
%TO.N,GND*%
X88900000Y-124000000D03*
%TO.P,J6,10,Pin_10*%
X88900000Y-121500000D03*
%TO.P,J6,11,Pin_11*%
X88900000Y-119000000D03*
%TO.P,J6,12,Pin_12*%
X88900000Y-116500000D03*
%TO.P,J6,13,Pin_13*%
X88900000Y-114000000D03*
%TO.P,J6,14,Pin_14*%
X88900000Y-111500000D03*
%TO.P,J6,15,Pin_15*%
X88900000Y-109000000D03*
%TO.P,J6,16,Pin_16*%
X88900000Y-106500000D03*
%TD*%
D24*
%TO.P,J5,1,Pin_1*%
%TO.N,Net-(Fa0-Pad2)*%
X91400000Y-80000000D03*
D21*
%TO.P,J5,2,Pin_2*%
%TO.N,Net-(Fa2-Pad2)*%
X91400000Y-77500000D03*
%TO.P,J5,3,Pin_3*%
%TO.N,Net-(Fa4-Pad2)*%
X91400000Y-75000000D03*
%TO.P,J5,4,Pin_4*%
%TO.N,Net-(Fa6-Pad2)*%
X91400000Y-72500000D03*
%TO.P,J5,5,Pin_5*%
%TO.N,Net-(Fa8-Pad2)*%
X91400000Y-70000000D03*
%TO.P,J5,6,Pin_6*%
%TO.N,Net-(Fa10-Pad2)*%
X91400000Y-67500000D03*
%TO.P,J5,7,Pin_7*%
%TO.N,Net-(Fa12-Pad2)*%
X91400000Y-65000000D03*
%TO.P,J5,8,Pin_8*%
%TO.N,Net-(Fa1-Pad2)*%
X88900000Y-80000000D03*
%TO.P,J5,9,Pin_9*%
%TO.N,Net-(Fa3-Pad2)*%
X88900000Y-77500000D03*
%TO.P,J5,10,Pin_10*%
%TO.N,Net-(Fa5-Pad2)*%
X88900000Y-75000000D03*
%TO.P,J5,11,Pin_11*%
%TO.N,Net-(Fa7-Pad2)*%
X88900000Y-72500000D03*
%TO.P,J5,12,Pin_12*%
%TO.N,Net-(Fa9-Pad2)*%
X88900000Y-70000000D03*
%TO.P,J5,13,Pin_13*%
%TO.N,Net-(Fa11-Pad2)*%
X88900000Y-67500000D03*
%TO.P,J5,14,Pin_14*%
%TO.N,Net-(Fa13-Pad2)*%
X88900000Y-65000000D03*
%TD*%
D20*
%TO.P,J9,1,Pin_1*%
%TO.N,Net-(F19-Pad2)*%
X183600000Y-109100000D03*
D21*
%TO.P,J9,2,Pin_2*%
%TO.N,Net-(F18-Pad2)*%
X183600000Y-111600000D03*
%TO.P,J9,3,Pin_3*%
%TO.N,Net-(F17-Pad2)*%
X183600000Y-114100000D03*
%TO.P,J9,4,Pin_4*%
%TO.N,Net-(F16-Pad2)*%
X183600000Y-116600000D03*
%TO.P,J9,5,Pin_5*%
%TO.N,Net-(F15-Pad2)*%
X183600000Y-119100000D03*
%TO.P,J9,6,Pin_6*%
%TO.N,Net-(F14-Pad2)*%
X183600000Y-121600000D03*
%TO.P,J9,7,Pin_7*%
%TO.N,Net-(F13-Pad2)*%
X183600000Y-124100000D03*
%TO.P,J9,8,Pin_8*%
%TO.N,Net-(F25-Pad2)*%
X186100000Y-109100000D03*
%TO.P,J9,9,Pin_9*%
%TO.N,Net-(F24-Pad2)*%
X186100000Y-111600000D03*
%TO.P,J9,10,Pin_10*%
%TO.N,Net-(F23-Pad2)*%
X186100000Y-114100000D03*
%TO.P,J9,11,Pin_11*%
%TO.N,Net-(F22-Pad2)*%
X186100000Y-116600000D03*
%TO.P,J9,12,Pin_12*%
%TO.N,Net-(F21-Pad2)*%
X186100000Y-119100000D03*
%TO.P,J9,13,Pin_13*%
%TO.N,Net-(F20-Pad2)*%
X186100000Y-121600000D03*
%TO.P,J9,14,Pin_14*%
%TO.N,Net-(Fb3-Pad2)*%
X186100000Y-124100000D03*
%TD*%
D22*
%TO.P,J1,1,Pin_1*%
%TO.N,/STACK_B_IA+*%
X133096000Y-81915000D03*
D23*
%TO.P,J1,2,Pin_2*%
%TO.N,/STACK_B_IA-*%
X133096000Y-78915000D03*
%TD*%
D25*
%TO.P,J8,1,Pin_1*%
%TO.N,+5V*%
X125750000Y-115430000D03*
D26*
%TO.P,J8,2,Pin_2*%
%TO.N,GND*%
X123250000Y-115430000D03*
%TO.P,J8,3,Pin_3*%
%TO.N,/MISO*%
X120750000Y-115430000D03*
%TO.P,J8,4,Pin_4*%
%TO.N,/MOSI*%
X118250000Y-115430000D03*
%TO.P,J8,5,Pin_5*%
%TO.N,/IA+_A*%
X115750000Y-115430000D03*
%TO.P,J8,6,Pin_6*%
%TO.N,/CS*%
X113250000Y-115430000D03*
%TD*%
D27*
%TO.P,J12,1,Pin_1*%
%TO.N,/StackB/VCC*%
X149250000Y-73670000D03*
D26*
%TO.P,J12,2,Pin_2*%
%TO.N,/StackB/GND*%
X151750000Y-73670000D03*
%TO.P,J12,3,Pin_3*%
%TO.N,/StackB/IBIAS_2*%
X154250000Y-73670000D03*
%TO.P,J12,4,Pin_4*%
%TO.N,/StackB/ICMP_2*%
X156750000Y-73670000D03*
%TO.P,J12,5,Pin_5*%
%TO.N,/StackB/IA+*%
X159250000Y-73670000D03*
%TO.P,J12,6,Pin_6*%
%TO.N,/StackB/CSB*%
X161750000Y-73670000D03*
%TD*%
D20*
%TO.P,J11,1,Pin_1*%
%TO.N,Net-(CN10-Pad5)*%
X183600000Y-87100000D03*
D21*
%TO.P,J11,2,Pin_2*%
%TO.N,Net-(CN10-Pad6)*%
X183600000Y-89600000D03*
%TO.P,J11,3,Pin_3*%
%TO.N,Net-(CN10-Pad7)*%
X183600000Y-92100000D03*
%TO.P,J11,4,Pin_4*%
%TO.N,Net-(CN10-Pad8)*%
X183600000Y-94600000D03*
%TO.P,J11,5,Pin_5*%
%TO.N,Net-(CN11-Pad5)*%
X183600000Y-97100000D03*
%TO.P,J11,6,Pin_6*%
%TO.N,Net-(CN11-Pad6)*%
X183600000Y-99600000D03*
%TO.P,J11,7,Pin_7*%
%TO.N,Net-(CN11-Pad7)*%
X183600000Y-102100000D03*
%TO.P,J11,8,Pin_8*%
%TO.N,Net-(CN11-Pad8)*%
X183600000Y-104600000D03*
%TO.P,J11,9,Pin_9*%
%TO.N,/StackB/GND*%
X186100000Y-87100000D03*
%TO.P,J11,10,Pin_10*%
X186100000Y-89600000D03*
%TO.P,J11,11,Pin_11*%
X186100000Y-92100000D03*
%TO.P,J11,12,Pin_12*%
X186100000Y-94600000D03*
%TO.P,J11,13,Pin_13*%
X186100000Y-97100000D03*
%TO.P,J11,14,Pin_14*%
X186100000Y-99600000D03*
%TO.P,J11,15,Pin_15*%
X186100000Y-102100000D03*
%TO.P,J11,16,Pin_16*%
X186100000Y-104600000D03*
%TD*%
D28*
%TO.P,J4,1,Pin_1*%
%TO.N,/STACK_A_IB+*%
X141900000Y-95400000D03*
D23*
%TO.P,J4,2,Pin_2*%
%TO.N,/STACK_A_IB-*%
X141900000Y-98400000D03*
%TD*%
D29*
%TO.P,J14,1,Pin_1*%
%TO.N,Net-(J14-Pad1)*%
X100081000Y-107746800D03*
D30*
%TO.P,J14,2,Pin_2*%
%TO.N,GND*%
X97541000Y-107746800D03*
%TD*%
D28*
%TO.P,J3,1,Pin_1*%
%TO.N,/STACK_A_IA+*%
X141900000Y-108102400D03*
D23*
%TO.P,J3,2,Pin_2*%
%TO.N,/STACK_A_IA-*%
X141900000Y-111102400D03*
%TD*%
D24*
%TO.P,J7,1,Pin_1*%
%TO.N,Net-(CN4-Pad5)*%
X91400000Y-102000000D03*
D21*
%TO.P,J7,2,Pin_2*%
%TO.N,Net-(CN4-Pad6)*%
X91400000Y-99500000D03*
%TO.P,J7,3,Pin_3*%
%TO.N,Net-(CN4-Pad7)*%
X91400000Y-97000000D03*
%TO.P,J7,4,Pin_4*%
%TO.N,Net-(CN4-Pad8)*%
X91400000Y-94500000D03*
%TO.P,J7,5,Pin_5*%
%TO.N,Net-(CN5-Pad5)*%
X91400000Y-92000000D03*
%TO.P,J7,6,Pin_6*%
%TO.N,Net-(CN5-Pad6)*%
X91400000Y-89500000D03*
%TO.P,J7,7,Pin_7*%
%TO.N,Net-(CN5-Pad7)*%
X91400000Y-87000000D03*
%TO.P,J7,8,Pin_8*%
%TO.N,Net-(CN5-Pad8)*%
X91400000Y-84500000D03*
%TO.P,J7,9,Pin_9*%
%TO.N,GND*%
X88900000Y-102000000D03*
%TO.P,J7,10,Pin_10*%
X88900000Y-99500000D03*
%TO.P,J7,11,Pin_11*%
X88900000Y-97000000D03*
%TO.P,J7,12,Pin_12*%
X88900000Y-94500000D03*
%TO.P,J7,13,Pin_13*%
X88900000Y-92000000D03*
%TO.P,J7,14,Pin_14*%
X88900000Y-89500000D03*
%TO.P,J7,15,Pin_15*%
X88900000Y-87000000D03*
%TO.P,J7,16,Pin_16*%
X88900000Y-84500000D03*
%TD*%
D31*
%TO.P,Rda8,1*%
%TO.N,Net-(Qda8-Pad3)*%
X108362500Y-69800000D03*
%TO.P,Rda8,2*%
%TO.N,/StackA/CC08*%
X102437500Y-69800000D03*
%TD*%
D32*
%TO.P,Qdb8,1,G*%
%TO.N,Net-(Qdb8-Pad1)*%
X162190000Y-120250000D03*
%TO.P,Qdb8,2,S*%
%TO.N,/StackB/CC09*%
X162190000Y-118350000D03*
%TO.P,Qdb8,3,D*%
%TO.N,Net-(Qdb8-Pad3)*%
X164810000Y-119300000D03*
%TD*%
%TO.P,Qda6,1,G*%
%TO.N,Net-(Qda6-Pad1)*%
X112810000Y-73050000D03*
%TO.P,Qda6,2,S*%
%TO.N,/StackA/CC07*%
X112810000Y-74950000D03*
%TO.P,Qda6,3,D*%
%TO.N,Net-(Qda6-Pad3)*%
X110190000Y-74000000D03*
%TD*%
D33*
%TO.P,JP13,1,A*%
%TO.N,/MISO*%
X115052100Y-123220000D03*
D34*
%TO.P,JP13,2,C*%
%TO.N,Net-(JP13-Pad2)*%
X115052100Y-121920000D03*
D35*
%TO.P,JP13,3,B*%
%TO.N,/StackA/A0*%
X115052100Y-120620000D03*
%TD*%
D32*
%TO.P,Qdb4,1,G*%
%TO.N,Net-(Qdb4-Pad1)*%
X162190000Y-111850000D03*
%TO.P,Qdb4,2,S*%
%TO.N,/StackB/CC05*%
X162190000Y-109950000D03*
%TO.P,Qdb4,3,D*%
%TO.N,Net-(Qdb4-Pad3)*%
X164810000Y-110900000D03*
%TD*%
D36*
%TO.P,Rdb7,1*%
%TO.N,Net-(Qdb7-Pad3)*%
X154437500Y-115100000D03*
%TO.P,Rdb7,2*%
%TO.N,/StackB/CC07*%
X160362500Y-115100000D03*
%TD*%
D37*
%TO.P,R12,1*%
%TO.N,Net-(C18-Pad1)*%
X134925000Y-96100000D03*
%TO.P,R12,2*%
%TO.N,/StackA/A3*%
X133275000Y-96100000D03*
%TD*%
D38*
%TO.P,RN22,1,R1.1*%
%TO.N,/StackB/VCC*%
X169246400Y-86817200D03*
D39*
%TO.P,RN22,2,R2.1*%
X168446400Y-86817200D03*
%TO.P,RN22,3,R3.1*%
X167646400Y-86817200D03*
D38*
%TO.P,RN22,4,R4.1*%
X166846400Y-86817200D03*
%TO.P,RN22,5,R4.2*%
%TO.N,/StackB/MUX_A3*%
X166846400Y-85017200D03*
D39*
%TO.P,RN22,6,R3.2*%
%TO.N,/StackB/MUX_A2*%
X167646400Y-85017200D03*
%TO.P,RN22,7,R2.2*%
%TO.N,/StackB/MUX_A1*%
X168446400Y-85017200D03*
D38*
%TO.P,RN22,8,R1.2*%
%TO.N,/StackB/MUX_A0*%
X169246400Y-85017200D03*
%TD*%
D40*
%TO.P,C13,1*%
%TO.N,GND*%
X116400000Y-105550000D03*
%TO.P,C13,2*%
%TO.N,Net-(C13-Pad2)*%
X116400000Y-107450000D03*
%TD*%
D36*
%TO.P,Rdb3,1*%
%TO.N,Net-(Qdb3-Pad3)*%
X154437500Y-106700000D03*
%TO.P,Rdb3,2*%
%TO.N,/StackB/CC03*%
X160362500Y-106700000D03*
%TD*%
%TO.P,Rdb8,1*%
%TO.N,Net-(Qdb8-Pad3)*%
X166637500Y-119300000D03*
%TO.P,Rdb8,2*%
%TO.N,/StackB/CC08*%
X172562500Y-119300000D03*
%TD*%
D38*
%TO.P,CN12,1,R1.1*%
%TO.N,/StackB/GND*%
X175400000Y-91450000D03*
D39*
%TO.P,CN12,2,R2.1*%
X174600000Y-91450000D03*
%TO.P,CN12,3,R3.1*%
X173800000Y-91450000D03*
D38*
%TO.P,CN12,4,R4.1*%
X173000000Y-91450000D03*
%TO.P,CN12,5,R4.2*%
%TO.N,Net-(CN12-Pad5)*%
X173000000Y-89650000D03*
D39*
%TO.P,CN12,6,R3.2*%
%TO.N,Net-(CN12-Pad6)*%
X173800000Y-89650000D03*
%TO.P,CN12,7,R2.2*%
%TO.N,Net-(CN12-Pad7)*%
X174600000Y-89650000D03*
D38*
%TO.P,CN12,8,R1.2*%
%TO.N,Net-(CN12-Pad8)*%
X175400000Y-89650000D03*
%TD*%
D33*
%TO.P,JP14,1,A*%
%TO.N,/StackA/A1*%
X117703600Y-123220000D03*
D34*
%TO.P,JP14,2,C*%
%TO.N,Net-(JP14-Pad2)*%
X117703600Y-121920000D03*
D35*
%TO.P,JP14,3,B*%
%TO.N,/MOSI*%
X117703600Y-120620000D03*
%TD*%
D13*
%TO.P,R6,1*%
%TO.N,GND*%
X123200000Y-105675000D03*
%TO.P,R6,2*%
%TO.N,Net-(JP14-Pad2)*%
X123200000Y-107325000D03*
%TD*%
D32*
%TO.P,Qdb10,1,G*%
%TO.N,Net-(Qdb10-Pad1)*%
X162190000Y-124450000D03*
%TO.P,Qdb10,2,S*%
%TO.N,/StackB/CC11*%
X162190000Y-122550000D03*
%TO.P,Qdb10,3,D*%
%TO.N,Net-(Qdb10-Pad3)*%
X164810000Y-123500000D03*
%TD*%
D36*
%TO.P,Rdb4,1*%
%TO.N,Net-(Qdb4-Pad3)*%
X166637500Y-110900000D03*
%TO.P,Rdb4,2*%
%TO.N,/StackB/CC04*%
X172562500Y-110900000D03*
%TD*%
D13*
%TO.P,R29,1*%
%TO.N,Net-(D1-Pad1)*%
X136347200Y-120383800D03*
%TO.P,R29,2*%
%TO.N,GND*%
X136347200Y-122033800D03*
%TD*%
D41*
%TO.P,R25,1*%
%TO.N,Net-(C38-Pad1)*%
X140075000Y-68500000D03*
%TO.P,R25,2*%
%TO.N,/IB+_B*%
X141725000Y-68500000D03*
%TD*%
D38*
%TO.P,RN12,1,R1.1*%
%TO.N,Net-(Qdb4-Pad1)*%
X159100000Y-88000000D03*
D39*
%TO.P,RN12,2,R2.1*%
%TO.N,Net-(Qdb5-Pad1)*%
X158300000Y-88000000D03*
%TO.P,RN12,3,R3.1*%
%TO.N,Net-(Qdb6-Pad1)*%
X157500000Y-88000000D03*
D38*
%TO.P,RN12,4,R4.1*%
%TO.N,Net-(Qdb7-Pad1)*%
X156700000Y-88000000D03*
%TO.P,RN12,5,R4.2*%
%TO.N,/StackB/S07*%
X156700000Y-86200000D03*
D39*
%TO.P,RN12,6,R3.2*%
%TO.N,/StackB/S06*%
X157500000Y-86200000D03*
%TO.P,RN12,7,R2.2*%
%TO.N,/StackB/S05*%
X158300000Y-86200000D03*
D38*
%TO.P,RN12,8,R1.2*%
%TO.N,/StackB/S04*%
X159100000Y-86200000D03*
%TD*%
D42*
%TO.P,C4,1*%
%TO.N,GND*%
X130505200Y-120053400D03*
%TO.P,C4,2*%
%TO.N,/~{RESET}*%
X130505200Y-118503400D03*
%TD*%
D41*
%TO.P,R9,1*%
%TO.N,/CS*%
X133250000Y-111500000D03*
%TO.P,R9,2*%
%TO.N,Net-(C17-Pad1)*%
X134900000Y-111500000D03*
%TD*%
D43*
%TO.P,Q3,1,G*%
%TO.N,GND*%
X103401100Y-102377200D03*
%TO.P,Q3,2,S*%
%TO.N,+5V*%
X103401100Y-104277200D03*
%TO.P,Q3,3,D*%
%TO.N,Net-(J14-Pad1)*%
X101526100Y-103327200D03*
%TD*%
D36*
%TO.P,Rdb11,1*%
%TO.N,Net-(Qdb11-Pad3)*%
X154437500Y-123500000D03*
%TO.P,Rdb11,2*%
%TO.N,/StackB/CC11*%
X160362500Y-123500000D03*
%TD*%
D32*
%TO.P,Qda5,1,G*%
%TO.N,Net-(Qda5-Pad1)*%
X125010000Y-77250000D03*
%TO.P,Qda5,2,S*%
%TO.N,/StackA/CC06*%
X125010000Y-79150000D03*
%TO.P,Qda5,3,D*%
%TO.N,Net-(Qda5-Pad3)*%
X122390000Y-78200000D03*
%TD*%
D38*
%TO.P,CN13,1,R1.1*%
%TO.N,/StackB/GND*%
X179200000Y-91450000D03*
D39*
%TO.P,CN13,2,R2.1*%
X178400000Y-91450000D03*
%TO.P,CN13,3,R3.1*%
X177600000Y-91450000D03*
D38*
%TO.P,CN13,4,R4.1*%
X176800000Y-91450000D03*
%TO.P,CN13,5,R4.2*%
%TO.N,Net-(CN13-Pad5)*%
X176800000Y-89650000D03*
D39*
%TO.P,CN13,6,R3.2*%
%TO.N,Net-(CN13-Pad6)*%
X177600000Y-89650000D03*
%TO.P,CN13,7,R2.2*%
%TO.N,Net-(CN13-Pad7)*%
X178400000Y-89650000D03*
D38*
%TO.P,CN13,8,R1.2*%
%TO.N,Net-(CN13-Pad8)*%
X179200000Y-89650000D03*
%TD*%
D31*
%TO.P,Rda6,1*%
%TO.N,Net-(Qda6-Pad3)*%
X108362500Y-74000000D03*
%TO.P,Rda6,2*%
%TO.N,/StackA/CC06*%
X102437500Y-74000000D03*
%TD*%
D32*
%TO.P,Qda4,1,G*%
%TO.N,Net-(Qda4-Pad1)*%
X112810000Y-77250000D03*
%TO.P,Qda4,2,S*%
%TO.N,/StackA/CC05*%
X112810000Y-79150000D03*
%TO.P,Qda4,3,D*%
%TO.N,Net-(Qda4-Pad3)*%
X110190000Y-78200000D03*
%TD*%
D44*
%TO.P,C38,1*%
%TO.N,Net-(C38-Pad1)*%
X143225000Y-66900000D03*
%TO.P,C38,2*%
%TO.N,/StackB/GND*%
X144775000Y-66900000D03*
%TD*%
D31*
%TO.P,Rda4,1*%
%TO.N,Net-(Qda4-Pad3)*%
X108362500Y-78200000D03*
%TO.P,Rda4,2*%
%TO.N,/StackA/CC04*%
X102437500Y-78200000D03*
%TD*%
D37*
%TO.P,R24,1*%
%TO.N,/IB-_B*%
X141725000Y-66900000D03*
%TO.P,R24,2*%
%TO.N,Net-(C38-Pad1)*%
X140075000Y-66900000D03*
%TD*%
D32*
%TO.P,Qda8,1,G*%
%TO.N,Net-(Qda8-Pad1)*%
X112810000Y-68850000D03*
%TO.P,Qda8,2,S*%
%TO.N,/StackA/CC09*%
X112810000Y-70750000D03*
%TO.P,Qda8,3,D*%
%TO.N,Net-(Qda8-Pad3)*%
X110190000Y-69800000D03*
%TD*%
D31*
%TO.P,Rda3,1*%
%TO.N,Net-(Qda3-Pad3)*%
X120562500Y-82400000D03*
%TO.P,Rda3,2*%
%TO.N,/StackA/CC03*%
X114637500Y-82400000D03*
%TD*%
D38*
%TO.P,CN6,1,R1.1*%
%TO.N,GND*%
X99600000Y-97650000D03*
D39*
%TO.P,CN6,2,R2.1*%
X100400000Y-97650000D03*
%TO.P,CN6,3,R3.1*%
X101200000Y-97650000D03*
D38*
%TO.P,CN6,4,R4.1*%
X102000000Y-97650000D03*
%TO.P,CN6,5,R4.2*%
%TO.N,Net-(CN6-Pad5)*%
X102000000Y-99450000D03*
D39*
%TO.P,CN6,6,R3.2*%
%TO.N,Net-(CN6-Pad6)*%
X101200000Y-99450000D03*
%TO.P,CN6,7,R2.2*%
%TO.N,Net-(CN6-Pad7)*%
X100400000Y-99450000D03*
D38*
%TO.P,CN6,8,R1.2*%
%TO.N,Net-(CN6-Pad8)*%
X99600000Y-99450000D03*
%TD*%
D32*
%TO.P,Qdb3,1,G*%
%TO.N,Net-(Qdb3-Pad1)*%
X149990000Y-107650000D03*
%TO.P,Qdb3,2,S*%
%TO.N,/StackB/CC04*%
X149990000Y-105750000D03*
%TO.P,Qdb3,3,D*%
%TO.N,Net-(Qdb3-Pad3)*%
X152610000Y-106700000D03*
%TD*%
%TO.P,Qda9,1,G*%
%TO.N,Net-(Qda9-Pad1)*%
X125010000Y-68850000D03*
%TO.P,Qda9,2,S*%
%TO.N,/StackA/CC10*%
X125010000Y-70750000D03*
%TO.P,Qda9,3,D*%
%TO.N,Net-(Qda9-Pad3)*%
X122390000Y-69800000D03*
%TD*%
D38*
%TO.P,CN7,1,R1.1*%
%TO.N,GND*%
X95800000Y-97650000D03*
D39*
%TO.P,CN7,2,R2.1*%
X96600000Y-97650000D03*
%TO.P,CN7,3,R3.1*%
X97400000Y-97650000D03*
D38*
%TO.P,CN7,4,R4.1*%
X98200000Y-97650000D03*
%TO.P,CN7,5,R4.2*%
%TO.N,Net-(CN7-Pad5)*%
X98200000Y-99450000D03*
D39*
%TO.P,CN7,6,R3.2*%
%TO.N,Net-(CN7-Pad6)*%
X97400000Y-99450000D03*
%TO.P,CN7,7,R2.2*%
%TO.N,Net-(CN7-Pad7)*%
X96600000Y-99450000D03*
D38*
%TO.P,CN7,8,R1.2*%
%TO.N,Net-(CN7-Pad8)*%
X95800000Y-99450000D03*
%TD*%
D32*
%TO.P,Qdb7,1,G*%
%TO.N,Net-(Qdb7-Pad1)*%
X149990000Y-116050000D03*
%TO.P,Qdb7,2,S*%
%TO.N,/StackB/CC08*%
X149990000Y-114150000D03*
%TO.P,Qdb7,3,D*%
%TO.N,Net-(Qdb7-Pad3)*%
X152610000Y-115100000D03*
%TD*%
D36*
%TO.P,Rdb1,1*%
%TO.N,Net-(Qdb1-Pad3)*%
X154437500Y-102500000D03*
%TO.P,Rdb1,2*%
%TO.N,/StackB/CC01*%
X160362500Y-102500000D03*
%TD*%
D32*
%TO.P,Qda10,1,G*%
%TO.N,Net-(Qda10-Pad1)*%
X112810000Y-64650000D03*
%TO.P,Qda10,2,S*%
%TO.N,/StackA/CC11*%
X112810000Y-66550000D03*
%TO.P,Qda10,3,D*%
%TO.N,Net-(Qda10-Pad3)*%
X110190000Y-65600000D03*
%TD*%
D38*
%TO.P,RN2,1,R1.1*%
%TO.N,Net-(Qda4-Pad1)*%
X115900000Y-101100000D03*
D39*
%TO.P,RN2,2,R2.1*%
%TO.N,Net-(Qda5-Pad1)*%
X116700000Y-101100000D03*
%TO.P,RN2,3,R3.1*%
%TO.N,Net-(Qda6-Pad1)*%
X117500000Y-101100000D03*
D38*
%TO.P,RN2,4,R4.1*%
%TO.N,Net-(Qda7-Pad1)*%
X118300000Y-101100000D03*
%TO.P,RN2,5,R4.2*%
%TO.N,/StackA/S07*%
X118300000Y-102900000D03*
D39*
%TO.P,RN2,6,R3.2*%
%TO.N,/StackA/S06*%
X117500000Y-102900000D03*
%TO.P,RN2,7,R2.2*%
%TO.N,/StackA/S05*%
X116700000Y-102900000D03*
D38*
%TO.P,RN2,8,R1.2*%
%TO.N,/StackA/S04*%
X115900000Y-102900000D03*
%TD*%
D36*
%TO.P,Rdb5,1*%
%TO.N,Net-(Qdb5-Pad3)*%
X154437500Y-110900000D03*
%TO.P,Rdb5,2*%
%TO.N,/StackB/CC05*%
X160362500Y-110900000D03*
%TD*%
%TO.P,Rdb2,1*%
%TO.N,Net-(Qdb2-Pad3)*%
X166637500Y-106700000D03*
%TO.P,Rdb2,2*%
%TO.N,/StackB/CC02*%
X172562500Y-106700000D03*
%TD*%
D38*
%TO.P,RN11,1,R1.1*%
%TO.N,Net-(Qdb8-Pad1)*%
X155300000Y-88000000D03*
D39*
%TO.P,RN11,2,R2.1*%
%TO.N,Net-(Qdb9-Pad1)*%
X154500000Y-88000000D03*
%TO.P,RN11,3,R3.1*%
%TO.N,Net-(Qdb10-Pad1)*%
X153700000Y-88000000D03*
D38*
%TO.P,RN11,4,R4.1*%
%TO.N,Net-(Qdb11-Pad1)*%
X152900000Y-88000000D03*
%TO.P,RN11,5,R4.2*%
%TO.N,/StackB/S11*%
X152900000Y-86200000D03*
D39*
%TO.P,RN11,6,R3.2*%
%TO.N,/StackB/S10*%
X153700000Y-86200000D03*
%TO.P,RN11,7,R2.2*%
%TO.N,/StackB/S09*%
X154500000Y-86200000D03*
D38*
%TO.P,RN11,8,R1.2*%
%TO.N,/StackB/S08*%
X155300000Y-86200000D03*
%TD*%
D40*
%TO.P,C12,1*%
%TO.N,GND*%
X118400000Y-105550000D03*
%TO.P,C12,2*%
%TO.N,+5V*%
X118400000Y-107450000D03*
%TD*%
D42*
%TO.P,C7,1*%
%TO.N,+3.3V*%
X134772400Y-118885000D03*
%TO.P,C7,2*%
%TO.N,GND*%
X134772400Y-117335000D03*
%TD*%
D38*
%TO.P,CN5,1,R1.1*%
%TO.N,GND*%
X102000000Y-94000000D03*
D39*
%TO.P,CN5,2,R2.1*%
X101200000Y-94000000D03*
%TO.P,CN5,3,R3.1*%
X100400000Y-94000000D03*
D38*
%TO.P,CN5,4,R4.1*%
X99600000Y-94000000D03*
%TO.P,CN5,5,R4.2*%
%TO.N,Net-(CN5-Pad5)*%
X99600000Y-92200000D03*
D39*
%TO.P,CN5,6,R3.2*%
%TO.N,Net-(CN5-Pad6)*%
X100400000Y-92200000D03*
%TO.P,CN5,7,R2.2*%
%TO.N,Net-(CN5-Pad7)*%
X101200000Y-92200000D03*
D38*
%TO.P,CN5,8,R1.2*%
%TO.N,Net-(CN5-Pad8)*%
X102000000Y-92200000D03*
%TD*%
%TO.P,RN17,1,R1.1*%
%TO.N,+5V*%
X105784800Y-102274800D03*
D39*
%TO.P,RN17,2,R2.1*%
X106584800Y-102274800D03*
%TO.P,RN17,3,R3.1*%
X107384800Y-102274800D03*
D38*
%TO.P,RN17,4,R4.1*%
X108184800Y-102274800D03*
%TO.P,RN17,5,R4.2*%
%TO.N,/StackA/MUX_A3*%
X108184800Y-104074800D03*
D39*
%TO.P,RN17,6,R3.2*%
%TO.N,/StackA/MUX_A2*%
X107384800Y-104074800D03*
%TO.P,RN17,7,R2.2*%
%TO.N,/StackA/MUX_A1*%
X106584800Y-104074800D03*
D38*
%TO.P,RN17,8,R1.2*%
%TO.N,/StackA/MUX_A0*%
X105784800Y-104074800D03*
%TD*%
D37*
%TO.P,R10,1*%
%TO.N,Net-(C17-Pad1)*%
X134900000Y-109900000D03*
%TO.P,R10,2*%
%TO.N,/IA+_A*%
X133250000Y-109900000D03*
%TD*%
D44*
%TO.P,C42,1*%
%TO.N,/StackB/GND*%
X143250000Y-80700000D03*
%TO.P,C42,2*%
%TO.N,/StackB/IAC*%
X144800000Y-80700000D03*
%TD*%
D32*
%TO.P,Qda11,1,G*%
%TO.N,Net-(Qda11-Pad1)*%
X125010000Y-64650000D03*
%TO.P,Qda11,2,S*%
%TO.N,/StackA/CC12*%
X125010000Y-66550000D03*
%TO.P,Qda11,3,D*%
%TO.N,Net-(Qda11-Pad3)*%
X122390000Y-65600000D03*
%TD*%
%TO.P,Qdb11,1,G*%
%TO.N,Net-(Qdb11-Pad1)*%
X149990000Y-124450000D03*
%TO.P,Qdb11,2,S*%
%TO.N,/StackB/CC12*%
X149990000Y-122550000D03*
%TO.P,Qdb11,3,D*%
%TO.N,Net-(Qdb11-Pad3)*%
X152610000Y-123500000D03*
%TD*%
D14*
%TO.P,R1,1*%
%TO.N,Net-(R1-Pad1)*%
X125171200Y-124218200D03*
%TO.P,R1,2*%
%TO.N,+5V*%
X125171200Y-122568200D03*
%TD*%
D38*
%TO.P,CN10,1,R1.1*%
%TO.N,/StackB/GND*%
X176800000Y-95100000D03*
D39*
%TO.P,CN10,2,R2.1*%
X177600000Y-95100000D03*
%TO.P,CN10,3,R3.1*%
X178400000Y-95100000D03*
D38*
%TO.P,CN10,4,R4.1*%
X179200000Y-95100000D03*
%TO.P,CN10,5,R4.2*%
%TO.N,Net-(CN10-Pad5)*%
X179200000Y-96900000D03*
D39*
%TO.P,CN10,6,R3.2*%
%TO.N,Net-(CN10-Pad6)*%
X178400000Y-96900000D03*
%TO.P,CN10,7,R2.2*%
%TO.N,Net-(CN10-Pad7)*%
X177600000Y-96900000D03*
D38*
%TO.P,CN10,8,R1.2*%
%TO.N,Net-(CN10-Pad8)*%
X176800000Y-96900000D03*
%TD*%
D44*
%TO.P,C37,1*%
%TO.N,Net-(C37-Pad1)*%
X143250000Y-82300000D03*
%TO.P,C37,2*%
%TO.N,/StackB/GND*%
X144800000Y-82300000D03*
%TD*%
D32*
%TO.P,Qda2,1,G*%
%TO.N,Net-(Qda2-Pad1)*%
X112810000Y-81450000D03*
%TO.P,Qda2,2,S*%
%TO.N,/StackA/CC03*%
X112810000Y-83350000D03*
%TO.P,Qda2,3,D*%
%TO.N,Net-(Qda2-Pad3)*%
X110190000Y-82400000D03*
%TD*%
D45*
%TO.P,C6,1*%
%TO.N,+3.3V*%
X134772400Y-120433800D03*
%TO.P,C6,2*%
%TO.N,GND*%
X134772400Y-121983800D03*
%TD*%
D36*
%TO.P,Rdb0,1*%
%TO.N,Net-(Qdb0-Pad3)*%
X166637500Y-102500000D03*
%TO.P,Rdb0,2*%
%TO.N,/StackB/CC00*%
X172562500Y-102500000D03*
%TD*%
D46*
%TO.P,JP16,1,A*%
%TO.N,/StackB/A1*%
X155000700Y-65883000D03*
D34*
%TO.P,JP16,2,C*%
%TO.N,Net-(JP16-Pad2)*%
X155000700Y-67183000D03*
D47*
%TO.P,JP16,3,B*%
%TO.N,/StackB/ICMP_2*%
X155000700Y-68483000D03*
%TD*%
D48*
%TO.P,C34,1*%
%TO.N,/StackB/GND*%
X160600000Y-83550000D03*
%TO.P,C34,2*%
%TO.N,Net-(C34-Pad2)*%
X160600000Y-81650000D03*
%TD*%
D32*
%TO.P,Qdb0,1,G*%
%TO.N,Net-(Qdb0-Pad1)*%
X162190000Y-103450000D03*
%TO.P,Qdb0,2,S*%
%TO.N,/StackB/CC01*%
X162190000Y-101550000D03*
%TO.P,Qdb0,3,D*%
%TO.N,Net-(Qdb0-Pad3)*%
X164810000Y-102500000D03*
%TD*%
%TO.P,Qda7,1,G*%
%TO.N,Net-(Qda7-Pad1)*%
X125010000Y-73050000D03*
%TO.P,Qda7,2,S*%
%TO.N,/StackA/CC08*%
X125010000Y-74950000D03*
%TO.P,Qda7,3,D*%
%TO.N,Net-(Qda7-Pad3)*%
X122390000Y-74000000D03*
%TD*%
D38*
%TO.P,RN1,1,R1.1*%
%TO.N,Net-(Qda8-Pad1)*%
X119700000Y-101100000D03*
D39*
%TO.P,RN1,2,R2.1*%
%TO.N,Net-(Qda9-Pad1)*%
X120500000Y-101100000D03*
%TO.P,RN1,3,R3.1*%
%TO.N,Net-(Qda10-Pad1)*%
X121300000Y-101100000D03*
D38*
%TO.P,RN1,4,R4.1*%
%TO.N,Net-(Qda11-Pad1)*%
X122100000Y-101100000D03*
%TO.P,RN1,5,R4.2*%
%TO.N,/StackA/S11*%
X122100000Y-102900000D03*
D39*
%TO.P,RN1,6,R3.2*%
%TO.N,/StackA/S10*%
X121300000Y-102900000D03*
%TO.P,RN1,7,R2.2*%
%TO.N,/StackA/S09*%
X120500000Y-102900000D03*
D38*
%TO.P,RN1,8,R1.2*%
%TO.N,/StackA/S08*%
X119700000Y-102900000D03*
%TD*%
D36*
%TO.P,Rdb9,1*%
%TO.N,Net-(Qdb9-Pad3)*%
X154437500Y-119300000D03*
%TO.P,Rdb9,2*%
%TO.N,/StackB/CC09*%
X160362500Y-119300000D03*
%TD*%
%TO.P,Rdb10,1*%
%TO.N,Net-(Qdb10-Pad3)*%
X166637500Y-123500000D03*
%TO.P,Rdb10,2*%
%TO.N,/StackB/CC10*%
X172562500Y-123500000D03*
%TD*%
D12*
%TO.P,C17,1*%
%TO.N,Net-(C17-Pad1)*%
X131750000Y-109900000D03*
%TO.P,C17,2*%
%TO.N,GND*%
X130200000Y-109900000D03*
%TD*%
D32*
%TO.P,Qdb2,1,G*%
%TO.N,Net-(Qdb2-Pad1)*%
X162190000Y-107650000D03*
%TO.P,Qdb2,2,S*%
%TO.N,/StackB/CC03*%
X162190000Y-105750000D03*
%TO.P,Qdb2,3,D*%
%TO.N,Net-(Qdb2-Pad3)*%
X164810000Y-106700000D03*
%TD*%
D42*
%TO.P,C8,1*%
%TO.N,Net-(C8-Pad1)*%
X129743200Y-124168200D03*
%TO.P,C8,2*%
%TO.N,GND*%
X129743200Y-122618200D03*
%TD*%
D32*
%TO.P,Qda0,1,G*%
%TO.N,Net-(Qda0-Pad1)*%
X112810000Y-85650000D03*
%TO.P,Qda0,2,S*%
%TO.N,/StackA/CC01*%
X112810000Y-87550000D03*
%TO.P,Qda0,3,D*%
%TO.N,Net-(Qda0-Pad3)*%
X110190000Y-86600000D03*
%TD*%
D38*
%TO.P,RN13,1,R1.1*%
%TO.N,Net-(Qdb0-Pad1)*%
X162900000Y-88000000D03*
D39*
%TO.P,RN13,2,R2.1*%
%TO.N,Net-(Qdb1-Pad1)*%
X162100000Y-88000000D03*
%TO.P,RN13,3,R3.1*%
%TO.N,Net-(Qdb2-Pad1)*%
X161300000Y-88000000D03*
D38*
%TO.P,RN13,4,R4.1*%
%TO.N,Net-(Qdb3-Pad1)*%
X160500000Y-88000000D03*
%TO.P,RN13,5,R4.2*%
%TO.N,/StackB/S03*%
X160500000Y-86200000D03*
D39*
%TO.P,RN13,6,R3.2*%
%TO.N,/StackB/S02*%
X161300000Y-86200000D03*
%TO.P,RN13,7,R2.2*%
%TO.N,/StackB/S01*%
X162100000Y-86200000D03*
D38*
%TO.P,RN13,8,R1.2*%
%TO.N,/StackB/S00*%
X162900000Y-86200000D03*
%TD*%
D32*
%TO.P,Qdb1,1,G*%
%TO.N,Net-(Qdb1-Pad1)*%
X149990000Y-103450000D03*
%TO.P,Qdb1,2,S*%
%TO.N,/StackB/CC02*%
X149990000Y-101550000D03*
%TO.P,Qdb1,3,D*%
%TO.N,Net-(Qdb1-Pad3)*%
X152610000Y-102500000D03*
%TD*%
D38*
%TO.P,CN11,1,R1.1*%
%TO.N,/StackB/GND*%
X173000000Y-95100000D03*
D39*
%TO.P,CN11,2,R2.1*%
X173800000Y-95100000D03*
%TO.P,CN11,3,R3.1*%
X174600000Y-95100000D03*
D38*
%TO.P,CN11,4,R4.1*%
X175400000Y-95100000D03*
%TO.P,CN11,5,R4.2*%
%TO.N,Net-(CN11-Pad5)*%
X175400000Y-96900000D03*
D39*
%TO.P,CN11,6,R3.2*%
%TO.N,Net-(CN11-Pad6)*%
X174600000Y-96900000D03*
%TO.P,CN11,7,R2.2*%
%TO.N,Net-(CN11-Pad7)*%
X173800000Y-96900000D03*
D38*
%TO.P,CN11,8,R1.2*%
%TO.N,Net-(CN11-Pad8)*%
X173000000Y-96900000D03*
%TD*%
D45*
%TO.P,C36,1*%
%TO.N,/StackB/WDT*%
X153300000Y-81825000D03*
%TO.P,C36,2*%
%TO.N,/StackB/GND*%
X153300000Y-83375000D03*
%TD*%
D37*
%TO.P,R22,1*%
%TO.N,/StackB/CSB*%
X141750000Y-80700000D03*
%TO.P,R22,2*%
%TO.N,Net-(C37-Pad1)*%
X140100000Y-80700000D03*
%TD*%
D32*
%TO.P,Qda3,1,G*%
%TO.N,Net-(Qda3-Pad1)*%
X125010000Y-81450000D03*
%TO.P,Qda3,2,S*%
%TO.N,/StackA/CC04*%
X125010000Y-83350000D03*
%TO.P,Qda3,3,D*%
%TO.N,Net-(Qda3-Pad3)*%
X122390000Y-82400000D03*
%TD*%
D31*
%TO.P,Rda2,1*%
%TO.N,Net-(Qda2-Pad3)*%
X108362500Y-82400000D03*
%TO.P,Rda2,2*%
%TO.N,/StackA/CC02*%
X102437500Y-82400000D03*
%TD*%
D32*
%TO.P,Qdb9,1,G*%
%TO.N,Net-(Qdb9-Pad1)*%
X149990000Y-120250000D03*
%TO.P,Qdb9,2,S*%
%TO.N,/StackB/CC10*%
X149990000Y-118350000D03*
%TO.P,Qdb9,3,D*%
%TO.N,Net-(Qdb9-Pad3)*%
X152610000Y-119300000D03*
%TD*%
D31*
%TO.P,Rda1,1*%
%TO.N,Net-(Qda1-Pad3)*%
X120562500Y-86600000D03*
%TO.P,Rda1,2*%
%TO.N,/StackA/CC01*%
X114637500Y-86600000D03*
%TD*%
D14*
%TO.P,R19,1*%
%TO.N,/StackB/GND*%
X151800000Y-83425000D03*
%TO.P,R19,2*%
%TO.N,Net-(JP16-Pad2)*%
X151800000Y-81775000D03*
%TD*%
D38*
%TO.P,CN4,1,R1.1*%
%TO.N,GND*%
X98200000Y-94000000D03*
D39*
%TO.P,CN4,2,R2.1*%
X97400000Y-94000000D03*
%TO.P,CN4,3,R3.1*%
X96600000Y-94000000D03*
D38*
%TO.P,CN4,4,R4.1*%
X95800000Y-94000000D03*
%TO.P,CN4,5,R4.2*%
%TO.N,Net-(CN4-Pad5)*%
X95800000Y-92200000D03*
D39*
%TO.P,CN4,6,R3.2*%
%TO.N,Net-(CN4-Pad6)*%
X96600000Y-92200000D03*
%TO.P,CN4,7,R2.2*%
%TO.N,Net-(CN4-Pad7)*%
X97400000Y-92200000D03*
D38*
%TO.P,CN4,8,R1.2*%
%TO.N,Net-(CN4-Pad8)*%
X98200000Y-92200000D03*
%TD*%
D46*
%TO.P,JP15,1,A*%
%TO.N,/StackB/IBIAS_2*%
X157642300Y-65908400D03*
D34*
%TO.P,JP15,2,C*%
%TO.N,Net-(JP15-Pad2)*%
X157642300Y-67208400D03*
D47*
%TO.P,JP15,3,B*%
%TO.N,/StackB/A0*%
X157642300Y-68508400D03*
%TD*%
D12*
%TO.P,C22,1*%
%TO.N,GND*%
X131750000Y-111500000D03*
%TO.P,C22,2*%
%TO.N,/IAC_A*%
X130200000Y-111500000D03*
%TD*%
D42*
%TO.P,C16,1*%
%TO.N,/StackA/WDT*%
X121700000Y-107275000D03*
%TO.P,C16,2*%
%TO.N,GND*%
X121700000Y-105725000D03*
%TD*%
D14*
%TO.P,R7,1*%
%TO.N,+5V*%
X120200000Y-107325000D03*
%TO.P,R7,2*%
%TO.N,/StackA/WDT*%
X120200000Y-105675000D03*
%TD*%
D44*
%TO.P,C43,1*%
%TO.N,/StackB/GND*%
X143225000Y-68500000D03*
%TO.P,C43,2*%
%TO.N,/IBC_B*%
X144775000Y-68500000D03*
%TD*%
D14*
%TO.P,R18,1*%
%TO.N,Net-(JP16-Pad2)*%
X150300000Y-83425000D03*
%TO.P,R18,2*%
%TO.N,Net-(JP15-Pad2)*%
X150300000Y-81775000D03*
%TD*%
D45*
%TO.P,C9,1*%
%TO.N,+5V*%
X126695200Y-122618200D03*
%TO.P,C9,2*%
%TO.N,GND*%
X126695200Y-124168200D03*
%TD*%
D36*
%TO.P,Rdb6,1*%
%TO.N,Net-(Qdb6-Pad3)*%
X166637500Y-115100000D03*
%TO.P,Rdb6,2*%
%TO.N,/StackB/CC06*%
X172562500Y-115100000D03*
%TD*%
D31*
%TO.P,Rda9,1*%
%TO.N,Net-(Qda9-Pad3)*%
X120562500Y-69800000D03*
%TO.P,Rda9,2*%
%TO.N,/StackA/CC09*%
X114637500Y-69800000D03*
%TD*%
%TO.P,Rda10,1*%
%TO.N,Net-(Qda10-Pad3)*%
X108362500Y-65600000D03*
%TO.P,Rda10,2*%
%TO.N,/StackA/CC10*%
X102437500Y-65600000D03*
%TD*%
D13*
%TO.P,R20,1*%
%TO.N,/StackB/VCC*%
X154800000Y-81775000D03*
%TO.P,R20,2*%
%TO.N,/StackB/WDT*%
X154800000Y-83425000D03*
%TD*%
D45*
%TO.P,C5,1*%
%TO.N,+3.3V*%
X132588000Y-118452600D03*
%TO.P,C5,2*%
%TO.N,GND*%
X132588000Y-120002600D03*
%TD*%
D31*
%TO.P,Rda0,1*%
%TO.N,Net-(Qda0-Pad3)*%
X108362500Y-86600000D03*
%TO.P,Rda0,2*%
%TO.N,/StackA/CC00*%
X102437500Y-86600000D03*
%TD*%
D12*
%TO.P,C23,1*%
%TO.N,GND*%
X131775000Y-96100000D03*
%TO.P,C23,2*%
%TO.N,/StackA/IBC*%
X130225000Y-96100000D03*
%TD*%
D31*
%TO.P,Rda11,1*%
%TO.N,Net-(Qda11-Pad3)*%
X120562500Y-65600000D03*
%TO.P,Rda11,2*%
%TO.N,/StackA/CC11*%
X114637500Y-65600000D03*
%TD*%
D41*
%TO.P,R11,1*%
%TO.N,/StackA/A2*%
X133275000Y-97700000D03*
%TO.P,R11,2*%
%TO.N,Net-(C18-Pad1)*%
X134925000Y-97700000D03*
%TD*%
D13*
%TO.P,R5,1*%
%TO.N,Net-(JP14-Pad2)*%
X124700000Y-105675000D03*
%TO.P,R5,2*%
%TO.N,Net-(JP13-Pad2)*%
X124700000Y-107325000D03*
%TD*%
D48*
%TO.P,C32,1*%
%TO.N,/StackB/GND*%
X156600000Y-83550000D03*
%TO.P,C32,2*%
%TO.N,/StackB/VCC*%
X156600000Y-81650000D03*
%TD*%
D31*
%TO.P,Rda5,1*%
%TO.N,Net-(Qda5-Pad3)*%
X120562500Y-78200000D03*
%TO.P,Rda5,2*%
%TO.N,/StackA/CC05*%
X114637500Y-78200000D03*
%TD*%
D32*
%TO.P,Qda1,1,G*%
%TO.N,Net-(Qda1-Pad1)*%
X125010000Y-85650000D03*
%TO.P,Qda1,2,S*%
%TO.N,/StackA/CC02*%
X125010000Y-87550000D03*
%TO.P,Qda1,3,D*%
%TO.N,Net-(Qda1-Pad3)*%
X122390000Y-86600000D03*
%TD*%
D14*
%TO.P,R2,1*%
%TO.N,Net-(C8-Pad1)*%
X128219200Y-124218200D03*
%TO.P,R2,2*%
%TO.N,+5V*%
X128219200Y-122568200D03*
%TD*%
D41*
%TO.P,R23,1*%
%TO.N,Net-(C37-Pad1)*%
X140100000Y-82300000D03*
%TO.P,R23,2*%
%TO.N,/StackB/IA+*%
X141750000Y-82300000D03*
%TD*%
D32*
%TO.P,Qdb5,1,G*%
%TO.N,Net-(Qdb5-Pad1)*%
X149990000Y-111850000D03*
%TO.P,Qdb5,2,S*%
%TO.N,/StackB/CC06*%
X149990000Y-109950000D03*
%TO.P,Qdb5,3,D*%
%TO.N,Net-(Qdb5-Pad3)*%
X152610000Y-110900000D03*
%TD*%
D48*
%TO.P,C33,1*%
%TO.N,/StackB/GND*%
X158600000Y-83550000D03*
%TO.P,C33,2*%
%TO.N,Net-(C33-Pad2)*%
X158600000Y-81650000D03*
%TD*%
D40*
%TO.P,C14,1*%
%TO.N,GND*%
X114400000Y-105550000D03*
%TO.P,C14,2*%
%TO.N,Net-(C14-Pad2)*%
X114400000Y-107450000D03*
%TD*%
D32*
%TO.P,Qdb6,1,G*%
%TO.N,Net-(Qdb6-Pad1)*%
X162190000Y-116050000D03*
%TO.P,Qdb6,2,S*%
%TO.N,/StackB/CC07*%
X162190000Y-114150000D03*
%TO.P,Qdb6,3,D*%
%TO.N,Net-(Qdb6-Pad3)*%
X164810000Y-115100000D03*
%TD*%
D38*
%TO.P,RN3,1,R1.1*%
%TO.N,Net-(Qda0-Pad1)*%
X112100000Y-101100000D03*
D39*
%TO.P,RN3,2,R2.1*%
%TO.N,Net-(Qda1-Pad1)*%
X112900000Y-101100000D03*
%TO.P,RN3,3,R3.1*%
%TO.N,Net-(Qda2-Pad1)*%
X113700000Y-101100000D03*
D38*
%TO.P,RN3,4,R4.1*%
%TO.N,Net-(Qda3-Pad1)*%
X114500000Y-101100000D03*
%TO.P,RN3,5,R4.2*%
%TO.N,/StackA/S03*%
X114500000Y-102900000D03*
D39*
%TO.P,RN3,6,R3.2*%
%TO.N,/StackA/S02*%
X113700000Y-102900000D03*
%TO.P,RN3,7,R2.2*%
%TO.N,/StackA/S01*%
X112900000Y-102900000D03*
D38*
%TO.P,RN3,8,R1.2*%
%TO.N,/StackA/S00*%
X112100000Y-102900000D03*
%TD*%
D31*
%TO.P,Rda7,1*%
%TO.N,Net-(Qda7-Pad3)*%
X120562500Y-74000000D03*
%TO.P,Rda7,2*%
%TO.N,/StackA/CC07*%
X114637500Y-74000000D03*
%TD*%
D49*
%TO.N,/CLK*%
X130759200Y-116078000D03*
D50*
%TO.N,/StackA/PSU_INPUT*%
X99297149Y-112047702D03*
X99400500Y-113148698D03*
%TO.N,/StackB/PSU_INPUT*%
X175599500Y-76048225D03*
X175768000Y-77150498D03*
D49*
%TO.N,/StackB/CSB*%
X144800000Y-78300000D03*
X149418339Y-70451000D03*
X151552863Y-69950198D03*
D50*
%TO.N,+3.3V*%
X141173200Y-123698000D03*
D49*
X132816600Y-115519200D03*
X133873651Y-116747444D03*
D50*
%TO.N,GND*%
X114678314Y-108674203D03*
X112929271Y-104674012D03*
D49*
X128328500Y-104447982D03*
D50*
X106600000Y-117800000D03*
X112586800Y-124663700D03*
D49*
X129045973Y-121920973D03*
D50*
X101500000Y-119400000D03*
X126034800Y-105867200D03*
X103800000Y-118700000D03*
D49*
X133921500Y-117536618D03*
D50*
X103600000Y-119700000D03*
X102300000Y-118700000D03*
X104500500Y-97500000D03*
X104900000Y-117800000D03*
D49*
X94725000Y-93575000D03*
X131572000Y-119717200D03*
X137007600Y-124155200D03*
X131305000Y-121056400D03*
D50*
X106524500Y-119300000D03*
X104900000Y-119300000D03*
X100600000Y-118700000D03*
D49*
X141376400Y-121869200D03*
X125833813Y-123441787D03*
X132994400Y-121056400D03*
X110623911Y-97776089D03*
%TO.N,/~{RESET}*%
X133224151Y-116338870D03*
%TO.N,Net-(C8-Pad1)*%
X135178800Y-125577600D03*
%TO.N,+5V*%
X107200000Y-115000000D03*
X118099000Y-109866063D03*
D50*
X104650000Y-103278400D03*
D49*
X125211800Y-121528800D03*
D50*
X110258932Y-114058932D03*
X105359200Y-108915200D03*
D49*
X106400353Y-122499647D03*
X109980000Y-119126000D03*
%TO.N,Net-(C13-Pad2)*%
X116846334Y-110132542D03*
%TO.N,Net-(C14-Pad2)*%
X116176376Y-109684251D03*
%TO.N,Net-(CN5-Pad5)*%
X99300000Y-90600000D03*
%TO.N,Net-(CN7-Pad6)*%
X97523911Y-101023911D03*
%TO.N,/StackA/WDT*%
X119320023Y-109920022D03*
D50*
%TO.N,/StackB/GND*%
X170100000Y-71300000D03*
X171200000Y-70400000D03*
X170499500Y-91600000D03*
X168400000Y-71300000D03*
X172700000Y-70400000D03*
D49*
X162200000Y-65000000D03*
D50*
X171400000Y-69400000D03*
X170100000Y-69800000D03*
D49*
X180275000Y-95525000D03*
D50*
X168475500Y-69800000D03*
D49*
X145385534Y-64031504D03*
D50*
X160321686Y-80425797D03*
X148199500Y-79451200D03*
D49*
X160300000Y-84000000D03*
D50*
X174400000Y-70400000D03*
D49*
X164376089Y-91323911D03*
D50*
X173500000Y-69700000D03*
D49*
%TO.N,Net-(C33-Pad2)*%
X158153666Y-78967458D03*
%TO.N,Net-(C34-Pad2)*%
X158823624Y-79415749D03*
%TO.N,/StackB/WDT*%
X155679977Y-79179978D03*
%TO.N,/StackA/A2*%
X119278400Y-122072400D03*
X122631200Y-117983000D03*
X130200000Y-100482000D03*
%TO.N,/StackA/A3*%
X121615200Y-121900000D03*
X124342642Y-117345769D03*
X130210000Y-93710000D03*
%TO.N,/CS*%
X131216400Y-113334800D03*
X126107305Y-120507051D03*
%TO.N,/MOSI*%
X118821200Y-117500400D03*
%TO.N,/MISO*%
X120954800Y-118584500D03*
%TO.N,/StackB/IBIAS_2*%
X153287000Y-71651400D03*
%TO.N,/StackA/A0*%
X121700000Y-113069500D03*
X113741200Y-121412000D03*
%TO.N,/StackA/A1*%
X116382800Y-121920000D03*
X121361200Y-116890800D03*
%TO.N,/StackA/DTEN*%
X113743911Y-112473911D03*
X115570000Y-110625500D03*
%TO.N,/StackA/ISOMD*%
X111099600Y-121920000D03*
X109380500Y-118461505D03*
%TO.N,/StackB/A0*%
X153619200Y-76592300D03*
X158950497Y-67200000D03*
%TO.N,/StackB/A1*%
X151689994Y-71818305D03*
X153593800Y-67767200D03*
%TO.N,/StackB/DTEN*%
X158895627Y-78600000D03*
X161188400Y-76675500D03*
%TO.N,/StackB/ISOMD*%
X164846000Y-69443600D03*
X161535600Y-67200000D03*
D50*
%TO.N,/StackA/CC02*%
X106525200Y-82400000D03*
%TO.N,/StackA/CC00*%
X106503899Y-86637701D03*
%TO.N,/StackA/CC03*%
X110200000Y-81200000D03*
%TO.N,/StackA/CC01*%
X110200000Y-85400000D03*
%TO.N,/StackB/CC02*%
X168676000Y-106700000D03*
%TO.N,/StackB/CC00*%
X168656000Y-102462299D03*
%TO.N,/StackB/CC03*%
X164800000Y-107900000D03*
%TO.N,/StackB/CC01*%
X164800000Y-103700000D03*
D49*
%TO.N,Net-(Qda0-Pad1)*%
X111450500Y-89400000D03*
X112800000Y-86400000D03*
%TO.N,Net-(Qda2-Pad1)*%
X113474161Y-89200000D03*
X112800000Y-82200000D03*
%TO.N,Net-(Qda4-Pad1)*%
X115123026Y-89650490D03*
X112800000Y-78000000D03*
%TO.N,Net-(Qda6-Pad1)*%
X112800000Y-73800000D03*
X117073661Y-90099500D03*
%TO.N,Net-(Qda8-Pad1)*%
X118973911Y-90549500D03*
X112800000Y-69600000D03*
%TO.N,Net-(Qda10-Pad1)*%
X121089562Y-90999500D03*
X112800000Y-65400000D03*
%TO.N,Net-(Qdb0-Pad1)*%
X162200000Y-102700000D03*
X163549500Y-99700000D03*
%TO.N,Net-(Qdb2-Pad1)*%
X162200000Y-106900000D03*
X161525839Y-99900000D03*
%TO.N,Net-(Qdb4-Pad1)*%
X162200000Y-111100000D03*
X159876974Y-99449510D03*
%TO.N,Net-(Qdb6-Pad1)*%
X157926339Y-99000500D03*
X162200000Y-115300000D03*
%TO.N,Net-(Qdb8-Pad1)*%
X156026089Y-98550500D03*
X162200000Y-119500000D03*
%TO.N,Net-(Qdb10-Pad1)*%
X162200000Y-123700000D03*
X153910438Y-98100500D03*
%TO.N,Net-(R1-Pad1)*%
X129590421Y-125120021D03*
%TO.N,/StackA/S09*%
X120500000Y-103800000D03*
%TO.N,/StackA/S10*%
X121300000Y-103800000D03*
%TO.N,/StackA/S11*%
X122100000Y-103800000D03*
%TO.N,/StackA/S04*%
X115900000Y-103800000D03*
%TO.N,/StackA/S05*%
X116700000Y-103800000D03*
%TO.N,/StackA/S06*%
X117500000Y-103800000D03*
%TO.N,/StackA/S07*%
X118300000Y-103800000D03*
%TO.N,/StackA/S00*%
X112078668Y-103826491D03*
%TO.N,/StackA/S01*%
X112900000Y-103800000D03*
%TO.N,/StackA/S02*%
X113700000Y-103800000D03*
%TO.N,/StackA/S03*%
X114500000Y-103800000D03*
D50*
%TO.N,/StackA/CC12*%
X104552800Y-63900000D03*
%TO.N,/StackA/CC11*%
X110200000Y-64675498D03*
%TO.N,/StackA/CC10*%
X105274800Y-65600000D03*
%TO.N,/StackA/CC09*%
X110200000Y-68600000D03*
%TO.N,/StackA/CC08*%
X104292400Y-70713600D03*
%TO.N,/StackA/CC07*%
X110200000Y-72800000D03*
%TO.N,/StackA/CC06*%
X103600000Y-74000000D03*
%TO.N,/StackA/CC05*%
X110660000Y-77000000D03*
%TO.N,/StackA/CC04*%
X105511600Y-78333600D03*
D49*
%TO.N,/StackB/S09*%
X154500000Y-85300000D03*
%TO.N,/StackB/S10*%
X153700000Y-85300000D03*
%TO.N,/StackB/S11*%
X152900000Y-85300000D03*
%TO.N,/StackB/S04*%
X159100000Y-85300000D03*
%TO.N,/StackB/S05*%
X158300000Y-85300000D03*
%TO.N,/StackB/S06*%
X157500000Y-85300000D03*
%TO.N,/StackB/S07*%
X156700000Y-85300000D03*
%TO.N,/StackB/S00*%
X162921332Y-85273509D03*
%TO.N,/StackB/S01*%
X162100000Y-85300000D03*
%TO.N,/StackB/S02*%
X161300000Y-85300000D03*
%TO.N,/StackB/S03*%
X160500000Y-85300000D03*
D50*
%TO.N,/StackB/CC12*%
X170812000Y-125200500D03*
%TO.N,/StackB/CC11*%
X164800000Y-124424502D03*
%TO.N,/StackB/CC10*%
X169875200Y-122224800D03*
%TO.N,/StackB/CC09*%
X164800000Y-120500000D03*
%TO.N,/StackB/CC08*%
X169955200Y-119300000D03*
%TO.N,/StackB/CC07*%
X164800000Y-116300000D03*
%TO.N,/StackB/CC06*%
X169926000Y-115112800D03*
%TO.N,/StackB/CC05*%
X164800000Y-112100000D03*
%TO.N,/StackB/CC04*%
X169926000Y-110896400D03*
D49*
%TO.N,Net-(U1-Pad7)*%
X131025663Y-115377464D03*
%TO.N,Net-(CN7-Pad7)*%
X96623911Y-101223911D03*
%TO.N,Net-(CN7-Pad8)*%
X95800000Y-101200000D03*
%TO.N,/StackA/S08*%
X119700000Y-103800000D03*
%TO.N,/StackA/DRIVE*%
X99200000Y-120000000D03*
X107004298Y-121180868D03*
%TO.N,/StackA/MUX_OUT*%
X112447231Y-108316835D03*
X102449500Y-90634100D03*
%TO.N,/StackA/MUX_A0*%
X106532518Y-106485139D03*
%TO.N,/StackA/MUX_A1*%
X107055804Y-105948551D03*
%TO.N,/StackA/MUX_A3*%
X108240485Y-105018154D03*
%TO.N,/StackA/MUX_A2*%
X107634802Y-105471198D03*
%TO.N,/StackB/S08*%
X155300000Y-85300000D03*
%TO.N,/StackB/DRIVE*%
X166438000Y-65600000D03*
X175800000Y-69100000D03*
%TO.N,/StackB/MUX_OUT*%
X172603100Y-98095975D03*
X162600000Y-80700000D03*
%TO.N,/StackB/MUX_A0*%
X168678028Y-82350550D03*
%TO.N,/StackB/MUX_A1*%
X168090332Y-82815702D03*
%TO.N,/StackB/MUX_A3*%
X166822800Y-83722800D03*
%TO.N,/StackB/MUX_A2*%
X167487600Y-83261200D03*
D50*
%TO.N,/StackA/VDD*%
X96400000Y-119800000D03*
X125800000Y-95574000D03*
%TO.N,/StackB/VDD*%
X178600000Y-69300000D03*
X149200000Y-92600000D03*
D49*
%TO.N,Net-(CN11-Pad5)*%
X175700000Y-98500000D03*
%TO.N,Net-(CN5-Pad6)*%
X100400000Y-90200000D03*
%TO.N,Net-(CN5-Pad7)*%
X101100000Y-90500000D03*
%TO.N,Net-(CN5-Pad8)*%
X101799500Y-89980568D03*
%TO.N,Net-(CN6-Pad5)*%
X101900000Y-101100000D03*
%TO.N,Net-(CN6-Pad6)*%
X101000000Y-101200000D03*
%TO.N,Net-(CN6-Pad7)*%
X100100000Y-101200000D03*
%TO.N,Net-(CN6-Pad8)*%
X99300000Y-101200000D03*
%TO.N,Net-(CN7-Pad5)*%
X98249216Y-101212818D03*
%TO.N,Net-(CN13-Pad6)*%
X177476089Y-88076089D03*
%TO.N,Net-(CN13-Pad7)*%
X178376089Y-87876089D03*
%TO.N,Net-(CN13-Pad8)*%
X179200000Y-87900000D03*
%TO.N,Net-(D1-Pad1)*%
X136956800Y-118516400D03*
%TO.N,Net-(CN11-Pad6)*%
X174600000Y-98900000D03*
%TO.N,Net-(CN11-Pad7)*%
X173900000Y-98600000D03*
%TO.N,Net-(CN11-Pad8)*%
X173200500Y-98999592D03*
%TO.N,Net-(CN12-Pad5)*%
X173100000Y-88000000D03*
%TO.N,Net-(CN12-Pad6)*%
X174000000Y-87900000D03*
%TO.N,Net-(CN12-Pad7)*%
X174900000Y-87900000D03*
%TO.N,Net-(CN12-Pad8)*%
X175700000Y-87900000D03*
%TO.N,Net-(CN13-Pad5)*%
X176750784Y-87887182D03*
%TO.N,Net-(CN4-Pad5)*%
X95900000Y-90200000D03*
%TO.N,Net-(CN4-Pad6)*%
X96750000Y-90450000D03*
%TO.N,Net-(CN4-Pad7)*%
X97450000Y-90150000D03*
%TO.N,Net-(CN4-Pad8)*%
X98550000Y-90650000D03*
%TO.N,Net-(CN10-Pad5)*%
X179100000Y-98900000D03*
%TO.N,Net-(CN10-Pad6)*%
X178250000Y-98650000D03*
%TO.N,Net-(CN10-Pad7)*%
X177550000Y-98950000D03*
%TO.N,Net-(CN10-Pad8)*%
X176450000Y-98450000D03*
%TO.N,/StackB/IA+*%
X148818339Y-71050500D03*
X144800000Y-84700000D03*
X151358600Y-71018400D03*
X143230500Y-85800000D03*
%TO.N,/IAC_A*%
X130896371Y-112217200D03*
%TO.N,/StackA/IBC*%
X130210000Y-95366502D03*
%TO.N,/StackB/IAC*%
X144800000Y-79900000D03*
%TO.N,/IBC_B*%
X144800000Y-69300000D03*
%TO.N,/IA+_A*%
X128328689Y-106535489D03*
X132283200Y-108305600D03*
X128424500Y-109220000D03*
%TO.N,/IB-_B*%
X150761260Y-69893979D03*
X151124700Y-66499500D03*
X143611600Y-65074800D03*
%TO.N,/IB+_B*%
X143662400Y-70205600D03*
X150012400Y-69925000D03*
X150910808Y-67264291D03*
D50*
%TO.N,/StackB/VCC*%
X170332400Y-86614000D03*
D49*
X163550000Y-73086924D03*
D50*
X164741068Y-75041068D03*
X169418000Y-80264000D03*
D49*
X156901000Y-79233937D03*
X167800000Y-74100000D03*
X168599647Y-66600353D03*
%TO.N,/TDI*%
X136956800Y-121198700D03*
X140726900Y-119329200D03*
%TO.N,Net-(U1-Pad19)*%
X130822000Y-123330400D03*
X132298400Y-123516577D03*
%TO.N,Net-(JP13-Pad2)*%
X123456706Y-112624994D03*
X123494800Y-111150400D03*
%TO.N,Net-(JP14-Pad2)*%
X123494800Y-109880400D03*
X124053600Y-113334800D03*
%TO.N,Net-(JP15-Pad2)*%
X151485600Y-78079600D03*
X157376378Y-71051900D03*
%TO.N,Net-(JP16-Pad2)*%
X151794447Y-79218552D03*
X153619200Y-75819000D03*
%TD*%
D51*
%TO.N,+3.3V*%
X132826349Y-115528949D02*
X132816600Y-115519200D01*
X133873651Y-115528949D02*
X133873651Y-115306251D01*
X133873651Y-116747444D02*
X133873651Y-115528949D01*
X133873651Y-115528949D02*
X132826349Y-115528949D01*
D52*
%TO.N,Net-(U1-Pad7)*%
X131902200Y-116357400D02*
X131902200Y-116408200D01*
X131025663Y-115480863D02*
X131902200Y-116357400D01*
X131025663Y-115377464D02*
X131025663Y-115480863D01*
%TO.N,/CLK*%
X129802200Y-115121000D02*
X129802200Y-114608200D01*
X130759200Y-116078000D02*
X129802200Y-115121000D01*
%TO.N,/~{RESET}*%
X130505200Y-118033800D02*
X130505200Y-118503400D01*
X130987800Y-117551200D02*
X130505200Y-118033800D01*
X132257800Y-117551200D02*
X130987800Y-117551200D01*
X133224151Y-116338870D02*
X133224151Y-116584849D01*
X133224151Y-116584849D02*
X132257800Y-117551200D01*
D53*
%TO.N,/StackB/PSU_INPUT*%
X175870225Y-76048225D02*
X175599500Y-76048225D01*
X176422000Y-76600000D02*
X175870225Y-76048225D01*
X175833502Y-77150498D02*
X175768000Y-77150498D01*
X176384000Y-76600000D02*
X175833502Y-77150498D01*
%TO.N,Net-(F13-Pad2)*%
X178911600Y-124100000D02*
X183600000Y-124100000D01*
D52*
%TO.N,/IA+_A*%
X133197600Y-108305600D02*
X133250000Y-108358000D01*
X133250000Y-108358000D02*
X133250000Y-109900000D01*
X135483600Y-108305600D02*
X132283200Y-108305600D01*
X136448800Y-109270800D02*
X135483600Y-108305600D01*
X136448800Y-109868200D02*
X136448800Y-109270800D01*
%TO.N,/CS*%
X136044000Y-112622000D02*
X133250000Y-112622000D01*
X136448800Y-112217200D02*
X136044000Y-112622000D01*
X136448800Y-111518200D02*
X136448800Y-112217200D01*
X131954600Y-112622000D02*
X133250000Y-112622000D01*
X131241800Y-113334800D02*
X131954600Y-112622000D01*
X131216400Y-113334800D02*
X131241800Y-113334800D01*
X133250000Y-112622000D02*
X133250000Y-111500000D01*
%TO.N,/StackB/CSB*%
X143344000Y-79756000D02*
X144800000Y-78300000D01*
X141732000Y-79756000D02*
X143344000Y-79756000D01*
X141750000Y-80700000D02*
X141750000Y-79774000D01*
X141750000Y-79774000D02*
X141732000Y-79756000D01*
X139192000Y-79756000D02*
X141732000Y-79756000D01*
X138582400Y-80365600D02*
X139192000Y-79756000D01*
X138582400Y-80683600D02*
X138582400Y-80365600D01*
%TO.N,/StackB/IA+*%
X138875500Y-83249500D02*
X141796500Y-83249500D01*
X138582400Y-82956400D02*
X138875500Y-83249500D01*
X138582400Y-82333600D02*
X138582400Y-82956400D01*
X141750000Y-83203000D02*
X141796500Y-83249500D01*
X141750000Y-82300000D02*
X141750000Y-83203000D01*
X141796500Y-83249500D02*
X142699500Y-83249500D01*
%TO.N,/IB-_B*%
X141725000Y-66900000D02*
X141725000Y-65920000D01*
X141732000Y-65913000D02*
X138938000Y-65913000D01*
X142773400Y-65913000D02*
X141732000Y-65913000D01*
X141725000Y-65920000D02*
X141732000Y-65913000D01*
X138938000Y-65913000D02*
X138557000Y-66294000D01*
X143611600Y-65074800D02*
X142773400Y-65913000D01*
X138557000Y-66294000D02*
X138557000Y-66866000D01*
%TO.N,/IB+_B*%
X141732000Y-69469000D02*
X141732000Y-68507000D01*
X141732000Y-69469000D02*
X138938000Y-69469000D01*
X142925800Y-69469000D02*
X141732000Y-69469000D01*
X138557000Y-69088000D02*
X138557000Y-68516000D01*
X138938000Y-69469000D02*
X138557000Y-69088000D01*
X143662400Y-70205600D02*
X142925800Y-69469000D01*
D53*
%TO.N,/StackB/VCC*%
X175286000Y-80264000D02*
X169418000Y-80264000D01*
X176650000Y-78900000D02*
X175286000Y-80264000D01*
%TO.N,Net-(Fa13-Pad2)*%
X96215200Y-63195200D02*
X97373200Y-64353200D01*
X89865200Y-63195200D02*
X96215200Y-63195200D01*
X97373200Y-64353200D02*
X97373200Y-64973200D01*
X88900000Y-64160400D02*
X89865200Y-63195200D01*
X88900000Y-65000000D02*
X88900000Y-64160400D01*
%TO.N,Net-(Fb3-Pad2)*%
X186100000Y-124948400D02*
X186100000Y-124100000D01*
X185369200Y-125679200D02*
X186100000Y-124948400D01*
X178003200Y-125679200D02*
X185369200Y-125679200D01*
X177607200Y-125283200D02*
X178003200Y-125679200D01*
X177607200Y-124104400D02*
X177607200Y-125283200D01*
D52*
%TO.N,/StackA/A2*%
X130759200Y-99009200D02*
X133299200Y-99009200D01*
X130200000Y-99568400D02*
X130759200Y-99009200D01*
X130200000Y-100482000D02*
X130200000Y-99568400D01*
%TO.N,/StackA/A3*%
X133275000Y-94969400D02*
X133299200Y-94945200D01*
X133275000Y-96100000D02*
X133275000Y-94969400D01*
X133299200Y-94945200D02*
X136093200Y-94945200D01*
X132120200Y-94945200D02*
X133299200Y-94945200D01*
X136601200Y-95453200D02*
X136601200Y-96152200D01*
X136093200Y-94945200D02*
X136601200Y-95453200D01*
X130885000Y-93710000D02*
X132120200Y-94945200D01*
%TO.N,/StackA/A2*%
X133275000Y-98985000D02*
X133299200Y-99009200D01*
X133275000Y-97700000D02*
X133275000Y-98985000D01*
X133299200Y-99009200D02*
X136093200Y-99009200D01*
X136093200Y-99009200D02*
X136601200Y-98501200D01*
X136601200Y-97802200D02*
X136601200Y-98501200D01*
%TO.N,GND*%
X128328500Y-99596500D02*
X130225000Y-97700000D01*
X128328500Y-104447982D02*
X128328500Y-99596500D01*
X128328500Y-104960500D02*
X128328500Y-104447982D01*
X129184400Y-105918000D02*
X129184400Y-105816400D01*
X129184400Y-105816400D02*
X128328500Y-104960500D01*
X129184400Y-108884400D02*
X129184400Y-105918000D01*
D51*
%TO.N,+3.3V*%
X133175600Y-114608200D02*
X131902200Y-114608200D01*
X133873651Y-115306251D02*
X133175600Y-114608200D01*
X133271500Y-117267379D02*
X133791435Y-116747444D01*
X132778800Y-118452600D02*
X133271500Y-117959900D01*
X133271500Y-117959900D02*
X133271500Y-117267379D01*
X133791435Y-116747444D02*
X133873651Y-116747444D01*
X134340000Y-118452600D02*
X134772400Y-118885000D01*
X132588000Y-118452600D02*
X134340000Y-118452600D01*
D53*
%TO.N,Net-(Fa12-Pad2)*%
X96046400Y-65000000D02*
X91400000Y-65000000D01*
D54*
%TO.N,+5V*%
X104650000Y-106301000D02*
X104650000Y-103278400D01*
X105359200Y-108915200D02*
X105359200Y-107010200D01*
X105359200Y-107010200D02*
X104650000Y-106301000D01*
X103454200Y-108915200D02*
X105359200Y-108915200D01*
X102071200Y-110298200D02*
X103454200Y-108915200D01*
X98424200Y-110298200D02*
X102071200Y-110298200D01*
X103401100Y-104277200D02*
X104616400Y-104277200D01*
D52*
%TO.N,/StackB/CSB*%
X150978061Y-70525000D02*
X149492339Y-70525000D01*
X149492339Y-70525000D02*
X149418339Y-70451000D01*
X151552863Y-69950198D02*
X150978061Y-70525000D01*
D53*
%TO.N,+3.3V*%
X140766800Y-117652800D02*
X136004600Y-117652800D01*
X142189200Y-122377200D02*
X142189200Y-119075200D01*
X141173200Y-123393200D02*
X142189200Y-122377200D01*
X142189200Y-119075200D02*
X140766800Y-117652800D01*
X141173200Y-123698000D02*
X141173200Y-123393200D01*
D52*
X134772400Y-120433800D02*
X134772400Y-118885000D01*
D53*
X136004600Y-117652800D02*
X134772400Y-118885000D01*
D51*
%TO.N,GND*%
X133921800Y-121983800D02*
X137260800Y-121983800D01*
D53*
X113100000Y-108147000D02*
X113653000Y-108700000D01*
X95800000Y-97650000D02*
X95800000Y-95300000D01*
D51*
X137260800Y-121983800D02*
X137261600Y-121983000D01*
D53*
X112929271Y-104674012D02*
X111532012Y-104674012D01*
X106524500Y-119529300D02*
X111695200Y-124700000D01*
D51*
X131305000Y-121056400D02*
X129743200Y-122618200D01*
D53*
X114199012Y-104674012D02*
X114400000Y-104875000D01*
D52*
X110693200Y-97845378D02*
X110623911Y-97776089D01*
D53*
X103401100Y-102135700D02*
X104648000Y-100888800D01*
D52*
X133921500Y-117536618D02*
X134224718Y-117233400D01*
D53*
X125017642Y-117806358D02*
X125017642Y-117042042D01*
X107700000Y-117800000D02*
X109300000Y-116200000D01*
X95800000Y-95300000D02*
X94725000Y-94225000D01*
X121121200Y-124700000D02*
X122783600Y-123037600D01*
X104648000Y-97647500D02*
X104500500Y-97500000D01*
X131305000Y-121056400D02*
X130505200Y-120256600D01*
D51*
X137261600Y-121983000D02*
X141262600Y-121983000D01*
D53*
X105628000Y-97500000D02*
X104500500Y-97500000D01*
X95150000Y-94000000D02*
X94725000Y-93575000D01*
X94725000Y-94225000D02*
X94725000Y-93575000D01*
X106600000Y-117800000D02*
X107700000Y-117800000D01*
X131857400Y-120002600D02*
X131572000Y-119717200D01*
X111695200Y-124700000D02*
X121121200Y-124700000D01*
X104500500Y-97500000D02*
X104350500Y-97650000D01*
X122783600Y-120040400D02*
X125017642Y-117806358D01*
X121700000Y-105725000D02*
X123150000Y-105725000D01*
X109300000Y-116200000D02*
X109300000Y-101172000D01*
X94650000Y-101050000D02*
X94650000Y-96450000D01*
D51*
X132994400Y-121056400D02*
X131914600Y-121056400D01*
D53*
X129908600Y-120053400D02*
X130505200Y-120053400D01*
X123200000Y-105196800D02*
X123799600Y-104597200D01*
X109300000Y-101172000D02*
X105628000Y-97500000D01*
X102000000Y-94000000D02*
X95800000Y-94000000D01*
X114400000Y-105550000D02*
X118400000Y-105550000D01*
D51*
X132994400Y-121056400D02*
X133921800Y-121983800D01*
D52*
X137007600Y-124155200D02*
X136347200Y-123494800D01*
D53*
X132588000Y-120002600D02*
X131857400Y-120002600D01*
X94650000Y-96450000D02*
X95800000Y-95300000D01*
D51*
X131927600Y-121056400D02*
X131305000Y-121056400D01*
D53*
X124943161Y-116992400D02*
X123380761Y-115430000D01*
X126556839Y-116992400D02*
X124943161Y-116992400D01*
X129387600Y-119532400D02*
X129908600Y-120053400D01*
D52*
X129500000Y-109200000D02*
X129184400Y-108884400D01*
D53*
X122783600Y-123037600D02*
X122783600Y-120040400D01*
X127000000Y-116549239D02*
X126556839Y-116992400D01*
D51*
X141262600Y-121983000D02*
X141376400Y-121869200D01*
D53*
X113100000Y-105975000D02*
X113100000Y-108147000D01*
X113653000Y-108700000D02*
X114652517Y-108700000D01*
D52*
X129500000Y-109200000D02*
X130200000Y-109900000D01*
D53*
X129387600Y-118008400D02*
X129387600Y-119532400D01*
X126034800Y-105034800D02*
X126034800Y-105867200D01*
X114400000Y-104875000D02*
X114400000Y-105550000D01*
X114652517Y-108700000D02*
X114678314Y-108674203D01*
X111532012Y-104674012D02*
X110693200Y-103835200D01*
X88900000Y-104300000D02*
X88900000Y-124000000D01*
X127000000Y-114310761D02*
X127000000Y-116549239D01*
X123799600Y-104597200D02*
X125597200Y-104597200D01*
X126034800Y-105867200D02*
X126034800Y-113345561D01*
X110693200Y-103835200D02*
X110693200Y-97845378D01*
D51*
X129045973Y-121920973D02*
X129743200Y-122618200D01*
D53*
X130035800Y-117360200D02*
X129387600Y-118008400D01*
X88900000Y-104300000D02*
X88900000Y-84500000D01*
X126034800Y-113345561D02*
X127000000Y-114310761D01*
D52*
X134224718Y-117233400D02*
X134670800Y-117233400D01*
D53*
X104648000Y-100888800D02*
X104648000Y-97647500D01*
X125597200Y-104597200D02*
X126034800Y-105034800D01*
D52*
X125981787Y-123441787D02*
X126695200Y-124155200D01*
D53*
X95800000Y-94000000D02*
X95150000Y-94000000D01*
D52*
X125833813Y-123441787D02*
X125981787Y-123441787D01*
D53*
X123200000Y-105675000D02*
X123200000Y-105196800D01*
X114400000Y-105550000D02*
X113525000Y-105550000D01*
X103401100Y-102377200D02*
X103401100Y-102135700D01*
X112929271Y-104674012D02*
X114199012Y-104674012D01*
D52*
X130225000Y-97650000D02*
X131775000Y-96100000D01*
X136347200Y-123494800D02*
X136347200Y-122033800D01*
D53*
X102000000Y-97650000D02*
X95800000Y-97650000D01*
X130035800Y-116906200D02*
X130035800Y-117360200D01*
X106524500Y-119300000D02*
X106524500Y-119529300D01*
D52*
X130200000Y-109950000D02*
X131750000Y-111500000D01*
D53*
X91400000Y-104300000D02*
X88900000Y-104300000D01*
X113525000Y-105550000D02*
X113100000Y-105975000D01*
X91400000Y-104300000D02*
X94650000Y-101050000D01*
X104350500Y-97650000D02*
X102000000Y-97650000D01*
D52*
%TO.N,Net-(C8-Pad1)*%
X128219200Y-124218200D02*
X129693200Y-124218200D01*
X129743200Y-124168200D02*
X133769400Y-124168200D01*
X133769400Y-124168200D02*
X135178800Y-125577600D01*
%TO.N,+5V*%
X105800000Y-116400000D02*
X107200000Y-115000000D01*
X128219200Y-122568200D02*
X125171200Y-122568200D01*
D53*
X125750000Y-115430000D02*
X125750000Y-113964400D01*
X111168953Y-113148911D02*
X110258932Y-114058932D01*
X118400000Y-108100000D02*
X118099000Y-108401000D01*
X118400000Y-107450000D02*
X118400000Y-108100000D01*
D52*
X109980500Y-119125500D02*
X109980500Y-114337364D01*
D53*
X104616400Y-104277200D02*
X104650000Y-104243600D01*
D52*
X118400000Y-107450000D02*
X120075000Y-107450000D01*
D53*
X118099000Y-108401000D02*
X118099000Y-109866063D01*
D52*
X109980000Y-119126000D02*
X109980500Y-119125500D01*
X125171200Y-121569400D02*
X125211800Y-121528800D01*
D53*
X125750000Y-113964400D02*
X123698000Y-111912400D01*
X115570000Y-111912400D02*
X114333489Y-113148911D01*
D52*
X109980500Y-114337364D02*
X110258932Y-114058932D01*
D53*
X114333489Y-113148911D02*
X111168953Y-113148911D01*
X104650000Y-103278400D02*
X105653600Y-102274800D01*
D52*
X105800000Y-121899294D02*
X105800000Y-116400000D01*
X125171200Y-122568200D02*
X125171200Y-121569400D01*
D53*
X123698000Y-111912400D02*
X115570000Y-111912400D01*
X105653600Y-102274800D02*
X108184800Y-102274800D01*
D52*
X106400353Y-122499647D02*
X105800000Y-121899294D01*
%TO.N,Net-(C13-Pad2)*%
X116846334Y-110132542D02*
X116846334Y-107896334D01*
X116846334Y-107896334D02*
X116400000Y-107450000D01*
%TO.N,Net-(C14-Pad2)*%
X116176376Y-109146960D02*
X116176376Y-109684251D01*
X114479416Y-107450000D02*
X116176376Y-109146960D01*
%TO.N,Net-(CN5-Pad5)*%
X92575000Y-90825000D02*
X92575000Y-89329416D01*
X99300000Y-89900000D02*
X99300000Y-90600000D01*
X99600000Y-92200000D02*
X99600000Y-90900000D01*
X92575000Y-89329416D02*
X94004416Y-87900000D01*
X97300000Y-87900000D02*
X99300000Y-89900000D01*
X99600000Y-90900000D02*
X99300000Y-90600000D01*
X94004416Y-87900000D02*
X97300000Y-87900000D01*
X91400000Y-92000000D02*
X92575000Y-90825000D01*
%TO.N,Net-(CN7-Pad6)*%
X97400000Y-99450000D02*
X97400000Y-100900000D01*
X97523911Y-101176089D02*
X97523911Y-101023911D01*
X97400000Y-100900000D02*
X97523911Y-101023911D01*
X91400000Y-111500000D02*
X93025000Y-109875000D01*
X93025000Y-105675000D02*
X97523911Y-101176089D01*
X93025000Y-109875000D02*
X93025000Y-105675000D01*
%TO.N,/StackA/WDT*%
X119320023Y-109579977D02*
X121625000Y-107275000D01*
X119320023Y-109920022D02*
X119320023Y-109579977D01*
X120200000Y-105775000D02*
X121700000Y-107275000D01*
%TO.N,Net-(C17-Pad1)*%
X134900000Y-111500000D02*
X134900000Y-110675000D01*
X132375000Y-110700000D02*
X134875000Y-110700000D01*
X134875000Y-110700000D02*
X134900000Y-110675000D01*
X134900000Y-110675000D02*
X134900000Y-109900000D01*
X131750000Y-109900000D02*
X131750000Y-110075000D01*
X131750000Y-110075000D02*
X132375000Y-110700000D01*
%TO.N,Net-(C18-Pad1)*%
X134925000Y-96875000D02*
X134925000Y-97700000D01*
X132575000Y-96900000D02*
X134900000Y-96900000D01*
X134925000Y-96100000D02*
X134925000Y-96875000D01*
X131775000Y-97700000D02*
X132575000Y-96900000D01*
D53*
%TO.N,/StackB/GND*%
X179200000Y-93800000D02*
X180275000Y-94875000D01*
X150717800Y-71800000D02*
X151750000Y-72832200D01*
X148900000Y-64400000D02*
X148000000Y-65300000D01*
X161000000Y-80400000D02*
X160347483Y-80400000D01*
D52*
X153300000Y-83375000D02*
X151850000Y-83375000D01*
D53*
X148199500Y-83327900D02*
X149656800Y-84785200D01*
X170499500Y-91600000D02*
X170649500Y-91450000D01*
X149656800Y-84785200D02*
X151384000Y-84785200D01*
X148000000Y-79251700D02*
X148000000Y-71800000D01*
D52*
X162200000Y-65000000D02*
X162200000Y-64400000D01*
D53*
X148199500Y-79451200D02*
X148000000Y-79251700D01*
D52*
X163600000Y-85103648D02*
X162496352Y-84000000D01*
X143250000Y-80700000D02*
X144800000Y-82250000D01*
D53*
X180350000Y-92650000D02*
X179200000Y-93800000D01*
X163075500Y-64400000D02*
X162200000Y-64400000D01*
D52*
X162496352Y-84000000D02*
X160300000Y-84000000D01*
D53*
X162200000Y-64400000D02*
X148900000Y-64400000D01*
D52*
X163600000Y-90547822D02*
X163600000Y-85103648D01*
D53*
X180350000Y-88050000D02*
X180350000Y-92650000D01*
X165700000Y-72900000D02*
X165700000Y-88331600D01*
X168400000Y-71300000D02*
X167300000Y-71300000D01*
X160600000Y-83300000D02*
X161900000Y-82000000D01*
X179200000Y-91450000D02*
X179200000Y-93800000D01*
X148000000Y-71800000D02*
X150717800Y-71800000D01*
X168475500Y-69800000D02*
X163075500Y-64400000D01*
X173000000Y-91450000D02*
X179200000Y-91450000D01*
X186100000Y-84800000D02*
X186100000Y-65100000D01*
X161900000Y-81300000D02*
X161000000Y-80400000D01*
D52*
X144800000Y-82250000D02*
X145575000Y-81475000D01*
D53*
X183600000Y-84800000D02*
X186100000Y-84800000D01*
X179200000Y-95100000D02*
X179850000Y-95100000D01*
D52*
X145575000Y-67700000D02*
X144775000Y-66900000D01*
D53*
X165700000Y-88331600D02*
X168968400Y-91600000D01*
X186100000Y-84800000D02*
X186100000Y-104600000D01*
D52*
X164376089Y-91323911D02*
X163600000Y-90547822D01*
D53*
X168968400Y-91600000D02*
X170499500Y-91600000D01*
X179850000Y-95100000D02*
X180275000Y-95525000D01*
D52*
X145400500Y-66324500D02*
X144775000Y-66950000D01*
D53*
X161900000Y-82000000D02*
X161900000Y-81300000D01*
X167300000Y-71300000D02*
X165700000Y-72900000D01*
X180275000Y-94875000D02*
X180275000Y-95525000D01*
D52*
X145400500Y-64251471D02*
X145400500Y-66324500D01*
D53*
X173000000Y-95100000D02*
X179200000Y-95100000D01*
X160600000Y-83550000D02*
X156600000Y-83550000D01*
X151384000Y-84785200D02*
X151800000Y-84369200D01*
X160347483Y-80400000D02*
X160321686Y-80425797D01*
D52*
X145385534Y-64236505D02*
X145400500Y-64251471D01*
D53*
X148000000Y-65300000D02*
X148000000Y-71800000D01*
X170649500Y-91450000D02*
X173000000Y-91450000D01*
D52*
X144775000Y-66950000D02*
X143225000Y-68500000D01*
D53*
X148199500Y-79451200D02*
X148199500Y-83327900D01*
X151800000Y-84369200D02*
X151800000Y-83425000D01*
X183600000Y-84800000D02*
X180350000Y-88050000D01*
X160300000Y-84000000D02*
X160300000Y-83850000D01*
D52*
X145385534Y-64031504D02*
X145385534Y-64236505D01*
X145575000Y-81475000D02*
X145575000Y-67700000D01*
%TO.N,Net-(C33-Pad2)*%
X158153666Y-78967458D02*
X158153666Y-81203666D01*
X158153666Y-81203666D02*
X158600000Y-81650000D01*
%TO.N,Net-(C34-Pad2)*%
X158823624Y-79953040D02*
X158823624Y-79415749D01*
X160520584Y-81650000D02*
X158823624Y-79953040D01*
%TO.N,/StackB/WDT*%
X155679977Y-79179978D02*
X155679977Y-79520023D01*
X155679977Y-79520023D02*
X153375000Y-81825000D01*
X154800000Y-83325000D02*
X153300000Y-81825000D01*
%TO.N,Net-(C37-Pad1)*%
X142625000Y-81500000D02*
X140125000Y-81500000D01*
X143250000Y-82300000D02*
X143250000Y-82125000D01*
X143250000Y-82125000D02*
X142625000Y-81500000D01*
X140100000Y-80700000D02*
X140100000Y-81525000D01*
X140125000Y-81500000D02*
X140100000Y-81525000D01*
X140100000Y-81525000D02*
X140100000Y-82300000D01*
%TO.N,Net-(C38-Pad1)*%
X140075000Y-67725000D02*
X140075000Y-66900000D01*
X143225000Y-66900000D02*
X142425000Y-67700000D01*
X140075000Y-68500000D02*
X140075000Y-67725000D01*
X142425000Y-67700000D02*
X140100000Y-67700000D01*
%TO.N,/StackA/A2*%
X122631200Y-117983000D02*
X122629700Y-117984500D01*
X120267500Y-117984500D02*
X119329200Y-118922800D01*
X122629700Y-117984500D02*
X120267500Y-117984500D01*
X119329200Y-122021600D02*
X119278400Y-122072400D01*
X119329200Y-118922800D02*
X119329200Y-122021600D01*
%TO.N,/StackA/A3*%
X130885000Y-93710000D02*
X130210000Y-93710000D01*
X121615200Y-121900000D02*
X121564400Y-121849200D01*
X121564400Y-121849200D02*
X121564400Y-120108922D01*
X124327553Y-117345769D02*
X124342642Y-117345769D01*
X121564400Y-120108922D02*
X124327553Y-117345769D01*
%TO.N,/CS*%
X126107305Y-120507051D02*
X128925000Y-117689356D01*
X128925000Y-117689356D02*
X128925000Y-113899000D01*
X128925000Y-113899000D02*
X129489200Y-113334800D01*
X129489200Y-113334800D02*
X131216400Y-113334800D01*
%TO.N,/MOSI*%
X117703600Y-118618000D02*
X118821200Y-117500400D01*
X117703600Y-120620000D02*
X117703600Y-118618000D01*
%TO.N,/MISO*%
X115671600Y-124104400D02*
X115052100Y-123484900D01*
X120954800Y-122834400D02*
X119684800Y-124104400D01*
X120954800Y-118584500D02*
X120954800Y-122834400D01*
X119684800Y-124104400D02*
X115671600Y-124104400D01*
%TO.N,/StackB/ICMP_2*%
X154975300Y-68483000D02*
X154975300Y-71895300D01*
X154975300Y-71895300D02*
X156750000Y-73670000D01*
%TO.N,/StackB/IBIAS_2*%
X153915400Y-65058000D02*
X156807400Y-65058000D01*
X152831800Y-66141600D02*
X153915400Y-65058000D01*
X156807400Y-65058000D02*
X157657800Y-65908400D01*
X152831800Y-71196200D02*
X152831800Y-66141600D01*
X153287000Y-71651400D02*
X152831800Y-71196200D01*
%TO.N,/StackA/A0*%
X118364000Y-113030000D02*
X121660500Y-113030000D01*
X113741200Y-121412000D02*
X113741200Y-120650000D01*
X115052100Y-120620000D02*
X113771200Y-120620000D01*
X113741200Y-119684800D02*
X116992400Y-116433600D01*
X113771200Y-120620000D02*
X113741200Y-120650000D01*
X116992400Y-114401600D02*
X118364000Y-113030000D01*
X116992400Y-116433600D02*
X116992400Y-114401600D01*
X113741200Y-120650000D02*
X113741200Y-119684800D01*
X121660500Y-113030000D02*
X121700000Y-113069500D01*
%TO.N,/StackA/A1*%
X118465600Y-116890800D02*
X116382800Y-118973600D01*
X116382800Y-122402600D02*
X116382800Y-121920000D01*
X117200200Y-123220000D02*
X116382800Y-122402600D01*
X116382800Y-118973600D02*
X116382800Y-121920000D01*
X121361200Y-116890800D02*
X118465600Y-116890800D01*
%TO.N,/StackA/DTEN*%
X115180500Y-110625500D02*
X113743911Y-112062089D01*
X115570000Y-110625500D02*
X115180500Y-110625500D01*
X113743911Y-112062089D02*
X113743911Y-112473911D01*
%TO.N,/StackA/ISOMD*%
X111099600Y-121920000D02*
X109380500Y-120200900D01*
X109380500Y-120200900D02*
X109380500Y-118461505D01*
%TO.N,/StackB/A0*%
X158830800Y-68508400D02*
X158950497Y-68628097D01*
X158950497Y-70253697D02*
X158950497Y-68628097D01*
X157657800Y-68508400D02*
X158830800Y-68508400D01*
X160502600Y-71805800D02*
X158950497Y-70253697D01*
X158877000Y-76581000D02*
X160502600Y-74955400D01*
X160502600Y-74955400D02*
X160502600Y-71805800D01*
X158950497Y-67200000D02*
X158950497Y-68628097D01*
X153619200Y-76592300D02*
X153630500Y-76581000D01*
X153630500Y-76581000D02*
X158877000Y-76581000D01*
%TO.N,/StackB/A1*%
X153593800Y-67767200D02*
X153593800Y-66497200D01*
X153593800Y-67767200D02*
X153593800Y-69291200D01*
X154228800Y-71780400D02*
X153746200Y-72263000D01*
X152134689Y-72263000D02*
X151689994Y-71818305D01*
X153593800Y-66497200D02*
X154208000Y-65883000D01*
X153746200Y-72263000D02*
X152134689Y-72263000D01*
X154208000Y-65883000D02*
X154975300Y-65883000D01*
X153593800Y-69291200D02*
X154228800Y-69926200D01*
X154228800Y-69926200D02*
X154228800Y-71780400D01*
%TO.N,/StackB/DTEN*%
X161144700Y-76675500D02*
X159220200Y-78600000D01*
X161188400Y-76675500D02*
X161144700Y-76675500D01*
X159220200Y-78600000D02*
X158895627Y-78600000D01*
%TO.N,/StackB/ISOMD*%
X162602400Y-67200000D02*
X161535600Y-67200000D01*
X164846000Y-69443600D02*
X162602400Y-67200000D01*
D53*
%TO.N,/StackA/CC02*%
X121935000Y-84475000D02*
X125010000Y-87550000D01*
X106525200Y-82400000D02*
X106525200Y-83269439D01*
X107730761Y-84475000D02*
X121935000Y-84475000D01*
X102437500Y-82400000D02*
X106525200Y-82400000D01*
X106525200Y-83269439D02*
X107730761Y-84475000D01*
%TO.N,/StackA/CC00*%
X106503899Y-86637701D02*
X106466198Y-86600000D01*
X106466198Y-86600000D02*
X102437500Y-86600000D01*
%TO.N,/StackA/CC03*%
X114637500Y-82400000D02*
X113760000Y-82400000D01*
X110660000Y-81200000D02*
X110200000Y-81200000D01*
X113760000Y-82400000D02*
X112810000Y-83350000D01*
X112810000Y-83350000D02*
X110660000Y-81200000D01*
%TO.N,/StackA/CC01*%
X112810000Y-87550000D02*
X110660000Y-85400000D01*
X113760000Y-86600000D02*
X112810000Y-87550000D01*
X114637500Y-86600000D02*
X113760000Y-86600000D01*
X110660000Y-85400000D02*
X110200000Y-85400000D01*
%TO.N,/StackB/CC02*%
X172562500Y-106700000D02*
X168676000Y-106700000D01*
X168676000Y-106031761D02*
X167269239Y-104625000D01*
X168676000Y-106700000D02*
X168676000Y-106031761D01*
X167269239Y-104625000D02*
X153065000Y-104625000D01*
X153065000Y-104625000D02*
X149990000Y-101550000D01*
%TO.N,/StackB/CC00*%
X168693701Y-102500000D02*
X172562500Y-102500000D01*
X168656000Y-102462299D02*
X168693701Y-102500000D01*
%TO.N,/StackB/CC03*%
X161240000Y-106700000D02*
X162190000Y-105750000D01*
X162190000Y-105750000D02*
X164340000Y-107900000D01*
X160362500Y-106700000D02*
X161240000Y-106700000D01*
X164340000Y-107900000D02*
X164800000Y-107900000D01*
%TO.N,/StackB/CC01*%
X161240000Y-102500000D02*
X162190000Y-101550000D01*
X160362500Y-102500000D02*
X161240000Y-102500000D01*
X162190000Y-101550000D02*
X164340000Y-103700000D01*
X164340000Y-103700000D02*
X164800000Y-103700000D01*
D52*
%TO.N,Net-(Qda0-Pad1)*%
X112800000Y-86400000D02*
X112800000Y-85660000D01*
X112100000Y-101100000D02*
X112100000Y-90049500D01*
X112100000Y-90049500D02*
X111450500Y-89400000D01*
D53*
%TO.N,Net-(Qda0-Pad3)*%
X108362500Y-86600000D02*
X110190000Y-86600000D01*
D52*
%TO.N,Net-(Qda1-Pad1)*%
X125400000Y-88600000D02*
X125945000Y-88055000D01*
X113225632Y-88600000D02*
X125400000Y-88600000D01*
X125945000Y-88055000D02*
X125945000Y-86585000D01*
X112900000Y-89474368D02*
X112874161Y-89448529D01*
X125945000Y-86585000D02*
X125010000Y-85650000D01*
X112874161Y-89448529D02*
X112874161Y-88951471D01*
X112900000Y-101100000D02*
X112900000Y-89474368D01*
X112874161Y-88951471D02*
X113225632Y-88600000D01*
D53*
%TO.N,Net-(Qda1-Pad3)*%
X120562500Y-86600000D02*
X122390000Y-86600000D01*
D52*
%TO.N,Net-(Qda2-Pad1)*%
X112800000Y-82200000D02*
X112800000Y-81460000D01*
X113700000Y-89425839D02*
X113700000Y-101100000D01*
X113474161Y-89200000D02*
X113700000Y-89425839D01*
D53*
%TO.N,Net-(Qda2-Pad3)*%
X108362500Y-82400000D02*
X110190000Y-82400000D01*
D52*
%TO.N,Net-(Qda3-Pad1)*%
X114750000Y-89050000D02*
X125586396Y-89050000D01*
X126395000Y-82835000D02*
X125010000Y-81450000D01*
X114500000Y-89300000D02*
X114750000Y-89050000D01*
X114500000Y-101100000D02*
X114500000Y-89300000D01*
X125586396Y-89050000D02*
X126395000Y-88241396D01*
X126395000Y-88241396D02*
X126395000Y-82835000D01*
D53*
%TO.N,Net-(Qda3-Pad3)*%
X122390000Y-82400000D02*
X120562500Y-82400000D01*
D52*
%TO.N,Net-(Qda4-Pad1)*%
X112800000Y-78000000D02*
X112800000Y-77260000D01*
X115900000Y-90427464D02*
X115900000Y-101100000D01*
X115123026Y-89650490D02*
X115900000Y-90427464D01*
D53*
%TO.N,Net-(Qda4-Pad3)*%
X108362500Y-78200000D02*
X110190000Y-78200000D01*
D52*
%TO.N,Net-(Qda5-Pad1)*%
X116700000Y-90574368D02*
X116700000Y-101100000D01*
X126845000Y-79085000D02*
X125010000Y-77250000D01*
X116473661Y-90348029D02*
X116700000Y-90574368D01*
X116473661Y-89850971D02*
X116824632Y-89500000D01*
X116473661Y-90348029D02*
X116473661Y-89850971D01*
X126845000Y-88427792D02*
X126845000Y-79085000D01*
X116824632Y-89500000D02*
X125772792Y-89500000D01*
X125772792Y-89500000D02*
X126845000Y-88427792D01*
D53*
%TO.N,Net-(Qda5-Pad3)*%
X122390000Y-78200000D02*
X120562500Y-78200000D01*
D52*
%TO.N,Net-(Qda6-Pad1)*%
X112800000Y-73800000D02*
X112800000Y-73060000D01*
X117073661Y-90099500D02*
X117500000Y-90525839D01*
X117500000Y-90525839D02*
X117500000Y-101100000D01*
D53*
%TO.N,Net-(Qda6-Pad3)*%
X108362500Y-74000000D02*
X110190000Y-74000000D01*
D52*
%TO.N,Net-(Qda7-Pad1)*%
X127295000Y-75095000D02*
X125250000Y-73050000D01*
X118300000Y-101100000D02*
X118300000Y-90300000D01*
X125959188Y-89950000D02*
X127295000Y-88614188D01*
X118300000Y-90300000D02*
X118650000Y-89950000D01*
X127295000Y-88614188D02*
X127295000Y-75095000D01*
X118650000Y-89950000D02*
X125959188Y-89950000D01*
D53*
%TO.N,Net-(Qda7-Pad3)*%
X122390000Y-74000000D02*
X120562500Y-74000000D01*
D52*
%TO.N,Net-(Qda8-Pad1)*%
X112800000Y-69600000D02*
X112800000Y-68860000D01*
X119700000Y-101100000D02*
X119700000Y-91275589D01*
X119700000Y-91275589D02*
X118973911Y-90549500D01*
D53*
%TO.N,Net-(Qda8-Pad3)*%
X108362500Y-69800000D02*
X110190000Y-69800000D01*
D52*
%TO.N,Net-(Qda9-Pad1)*%
X120500000Y-101100000D02*
X120500000Y-91258467D01*
X126145584Y-90400000D02*
X127745000Y-88800584D01*
X127745000Y-71585000D02*
X125010000Y-68850000D01*
X120489562Y-91248029D02*
X120489562Y-90750971D01*
X120840533Y-90400000D02*
X126145584Y-90400000D01*
X120500000Y-91258467D02*
X120489562Y-91248029D01*
X127745000Y-88800584D02*
X127745000Y-71585000D01*
X120489562Y-90750971D02*
X120840533Y-90400000D01*
D53*
%TO.N,Net-(Qda9-Pad3)*%
X122390000Y-69800000D02*
X120562500Y-69800000D01*
D52*
%TO.N,Net-(Qda10-Pad1)*%
X112800000Y-65400000D02*
X112800000Y-64660000D01*
X121089562Y-90999500D02*
X121300000Y-91209938D01*
X121300000Y-91209938D02*
X121300000Y-101100000D01*
D53*
%TO.N,Net-(Qda10-Pad3)*%
X108362500Y-65600000D02*
X110190000Y-65600000D01*
D52*
%TO.N,Net-(Qda11-Pad1)*%
X122100000Y-91500000D02*
X122750000Y-90850000D01*
X128200000Y-88981980D02*
X128200000Y-67840000D01*
X128200000Y-67840000D02*
X125010000Y-64650000D01*
X122750000Y-90850000D02*
X126331980Y-90850000D01*
X122100000Y-101100000D02*
X122100000Y-91500000D01*
X126331980Y-90850000D02*
X128200000Y-88981980D01*
D53*
%TO.N,Net-(Qda11-Pad3)*%
X122390000Y-65600000D02*
X120562500Y-65600000D01*
D52*
%TO.N,Net-(Qdb0-Pad1)*%
X162200000Y-102700000D02*
X162200000Y-103440000D01*
X162900000Y-88000000D02*
X162900000Y-99050500D01*
X162900000Y-99050500D02*
X163549500Y-99700000D01*
D53*
%TO.N,Net-(Qdb0-Pad3)*%
X166637500Y-102500000D02*
X164810000Y-102500000D01*
D52*
%TO.N,Net-(Qdb1-Pad1)*%
X161800000Y-100500000D02*
X149600000Y-100500000D01*
X162100000Y-99625632D02*
X162125839Y-99651471D01*
X162125839Y-99651471D02*
X162125839Y-100174161D01*
X162100000Y-88000000D02*
X162100000Y-99625632D01*
X149600000Y-100500000D02*
X149055000Y-101045000D01*
X162125839Y-100174161D02*
X161800000Y-100500000D01*
X149055000Y-102515000D02*
X149990000Y-103450000D01*
X149055000Y-101045000D02*
X149055000Y-102515000D01*
D53*
%TO.N,Net-(Qdb1-Pad3)*%
X154437500Y-102500000D02*
X152610000Y-102500000D01*
D52*
%TO.N,Net-(Qdb2-Pad1)*%
X161525839Y-99900000D02*
X161300000Y-99674161D01*
X161300000Y-99674161D02*
X161300000Y-88000000D01*
X162200000Y-106900000D02*
X162200000Y-107640000D01*
D53*
%TO.N,Net-(Qdb2-Pad3)*%
X166637500Y-106700000D02*
X164810000Y-106700000D01*
D52*
%TO.N,Net-(Qdb3-Pad1)*%
X149413604Y-100050000D02*
X148605000Y-100858604D01*
X160500000Y-99800000D02*
X160250000Y-100050000D01*
X148605000Y-100858604D02*
X148605000Y-106265000D01*
X160500000Y-88000000D02*
X160500000Y-99800000D01*
X160250000Y-100050000D02*
X149413604Y-100050000D01*
X148605000Y-106265000D02*
X149990000Y-107650000D01*
D53*
%TO.N,Net-(Qdb3-Pad3)*%
X152610000Y-106700000D02*
X154437500Y-106700000D01*
D52*
%TO.N,Net-(Qdb4-Pad1)*%
X162200000Y-111100000D02*
X162200000Y-111840000D01*
X159100000Y-98672536D02*
X159100000Y-88000000D01*
X159876974Y-99449510D02*
X159100000Y-98672536D01*
D53*
%TO.N,Net-(Qdb4-Pad3)*%
X166637500Y-110900000D02*
X164810000Y-110900000D01*
D52*
%TO.N,Net-(Qdb5-Pad1)*%
X158526339Y-98751971D02*
X158526339Y-99249029D01*
X158300000Y-98525632D02*
X158300000Y-88000000D01*
X148155000Y-110015000D02*
X149990000Y-111850000D01*
X148155000Y-100672208D02*
X148155000Y-110015000D01*
X158175368Y-99600000D02*
X149227208Y-99600000D01*
X158526339Y-99249029D02*
X158175368Y-99600000D01*
X158526339Y-98751971D02*
X158300000Y-98525632D01*
X149227208Y-99600000D02*
X148155000Y-100672208D01*
D53*
%TO.N,Net-(Qdb5-Pad3)*%
X152610000Y-110900000D02*
X154437500Y-110900000D01*
D52*
%TO.N,Net-(Qdb6-Pad1)*%
X157500000Y-98574161D02*
X157500000Y-88000000D01*
X157926339Y-99000500D02*
X157500000Y-98574161D01*
X162200000Y-115300000D02*
X162200000Y-116040000D01*
D53*
%TO.N,Net-(Qdb6-Pad3)*%
X166637500Y-115100000D02*
X164810000Y-115100000D01*
D52*
%TO.N,Net-(Qdb7-Pad1)*%
X156350000Y-99150000D02*
X149040812Y-99150000D01*
X147705000Y-114005000D02*
X149750000Y-116050000D01*
X149040812Y-99150000D02*
X147705000Y-100485812D01*
X147705000Y-100485812D02*
X147705000Y-114005000D01*
X156700000Y-98800000D02*
X156350000Y-99150000D01*
X156700000Y-88000000D02*
X156700000Y-98800000D01*
D53*
%TO.N,Net-(Qdb7-Pad3)*%
X152610000Y-115100000D02*
X154437500Y-115100000D01*
D52*
%TO.N,Net-(Qdb8-Pad1)*%
X155300000Y-97824411D02*
X156026089Y-98550500D01*
X155300000Y-88000000D02*
X155300000Y-97824411D01*
X162200000Y-119500000D02*
X162200000Y-120240000D01*
D53*
%TO.N,Net-(Qdb8-Pad3)*%
X166637500Y-119300000D02*
X164810000Y-119300000D01*
D52*
%TO.N,Net-(Qdb9-Pad1)*%
X148854416Y-98700000D02*
X147255000Y-100299416D01*
X147255000Y-117515000D02*
X149990000Y-120250000D01*
X154500000Y-88000000D02*
X154500000Y-97841533D01*
X147255000Y-100299416D02*
X147255000Y-117515000D01*
X154500000Y-97841533D02*
X154510438Y-97851971D01*
X154510438Y-98349029D02*
X154159467Y-98700000D01*
X154159467Y-98700000D02*
X148854416Y-98700000D01*
X154510438Y-97851971D02*
X154510438Y-98349029D01*
D53*
%TO.N,Net-(Qdb9-Pad3)*%
X152610000Y-119300000D02*
X154437500Y-119300000D01*
D52*
%TO.N,Net-(Qdb10-Pad1)*%
X153910438Y-98100500D02*
X153700000Y-97890062D01*
X153700000Y-97890062D02*
X153700000Y-88000000D01*
X162200000Y-123700000D02*
X162200000Y-124440000D01*
D53*
%TO.N,Net-(Qdb10-Pad3)*%
X166637500Y-123500000D02*
X164810000Y-123500000D01*
D52*
%TO.N,Net-(Qdb11-Pad1)*%
X152250000Y-98250000D02*
X148668020Y-98250000D01*
X148668020Y-98250000D02*
X146800000Y-100118020D01*
X152900000Y-88000000D02*
X152900000Y-97600000D01*
X146800000Y-121400000D02*
X149850000Y-124450000D01*
X146800000Y-100118020D02*
X146800000Y-121400000D01*
X152900000Y-97600000D02*
X152250000Y-98250000D01*
D53*
%TO.N,Net-(Qdb11-Pad3)*%
X152610000Y-123500000D02*
X154437500Y-123500000D01*
D52*
%TO.N,Net-(R1-Pad1)*%
X126073021Y-125120021D02*
X125171200Y-124218200D01*
X129590421Y-125120021D02*
X126073021Y-125120021D01*
%TO.N,/StackA/S09*%
X120500000Y-103800000D02*
X120500000Y-102900000D01*
%TO.N,/StackA/S10*%
X121300000Y-103800000D02*
X121300000Y-102900000D01*
%TO.N,/StackA/S11*%
X122100000Y-103800000D02*
X122100000Y-102900000D01*
%TO.N,/StackA/S04*%
X115900000Y-103800000D02*
X115900000Y-102900000D01*
%TO.N,/StackA/S05*%
X116700000Y-103800000D02*
X116700000Y-102900000D01*
%TO.N,/StackA/S06*%
X117500000Y-103800000D02*
X117500000Y-102900000D01*
%TO.N,/StackA/S07*%
X118300000Y-103800000D02*
X118300000Y-102900000D01*
%TO.N,/StackA/S00*%
X112100000Y-103805159D02*
X112100000Y-102900000D01*
X112078668Y-103826491D02*
X112100000Y-103805159D01*
%TO.N,/StackA/S01*%
X112900000Y-103800000D02*
X112900000Y-102900000D01*
%TO.N,/StackA/S02*%
X113700000Y-103800000D02*
X113700000Y-102900000D01*
%TO.N,/StackA/S03*%
X114500000Y-103800000D02*
X114500000Y-102900000D01*
D53*
%TO.N,/StackA/CC12*%
X121960000Y-63500000D02*
X125010000Y-66550000D01*
X104952800Y-63500000D02*
X121960000Y-63500000D01*
X104552800Y-63900000D02*
X104952800Y-63500000D01*
%TO.N,/StackA/CC11*%
X110935498Y-64675498D02*
X112810000Y-66550000D01*
X110200000Y-64675498D02*
X110935498Y-64675498D01*
X114637500Y-65600000D02*
X113760000Y-65600000D01*
X113760000Y-65600000D02*
X112810000Y-66550000D01*
%TO.N,/StackA/CC10*%
X121935000Y-67675000D02*
X125010000Y-70750000D01*
X102437500Y-65600000D02*
X105274800Y-65600000D01*
X105274800Y-65600000D02*
X107349800Y-67675000D01*
X107349800Y-67675000D02*
X121935000Y-67675000D01*
%TO.N,/StackA/CC09*%
X112810000Y-70750000D02*
X110660000Y-68600000D01*
X113760000Y-69800000D02*
X112810000Y-70750000D01*
X110660000Y-68600000D02*
X110200000Y-68600000D01*
X114637500Y-69800000D02*
X113760000Y-69800000D01*
%TO.N,/StackA/CC08*%
X104292400Y-70713600D02*
X103378800Y-69800000D01*
X105453800Y-71875000D02*
X121935000Y-71875000D01*
X104292400Y-70713600D02*
X105453800Y-71875000D01*
X103378800Y-69800000D02*
X102437500Y-69800000D01*
X121935000Y-71875000D02*
X125010000Y-74950000D01*
%TO.N,/StackA/CC07*%
X110660000Y-72800000D02*
X110200000Y-72800000D01*
X112810000Y-74950000D02*
X110660000Y-72800000D01*
X113760000Y-74000000D02*
X112810000Y-74950000D01*
X114637500Y-74000000D02*
X113760000Y-74000000D01*
%TO.N,/StackA/CC06*%
X102437500Y-74000000D02*
X103600000Y-74000000D01*
X121935000Y-76075000D02*
X125010000Y-79150000D01*
X103600000Y-74000000D02*
X105675000Y-76075000D01*
X105675000Y-76075000D02*
X121935000Y-76075000D01*
%TO.N,/StackA/CC05*%
X113760000Y-78200000D02*
X112810000Y-79150000D01*
X110660000Y-77000000D02*
X112810000Y-79150000D01*
X114637500Y-78200000D02*
X113760000Y-78200000D01*
%TO.N,/StackA/CC04*%
X102437500Y-78200000D02*
X105378000Y-78200000D01*
X105378000Y-78200000D02*
X105511600Y-78333600D01*
X107453000Y-80275000D02*
X121935000Y-80275000D01*
X105511600Y-78333600D02*
X107453000Y-80275000D01*
X121935000Y-80275000D02*
X125010000Y-83350000D01*
D52*
%TO.N,/StackB/S09*%
X154500000Y-85300000D02*
X154500000Y-86200000D01*
%TO.N,/StackB/S10*%
X153700000Y-85300000D02*
X153700000Y-86200000D01*
%TO.N,/StackB/S11*%
X152900000Y-85300000D02*
X152900000Y-86200000D01*
%TO.N,/StackB/S04*%
X159100000Y-85300000D02*
X159100000Y-86200000D01*
%TO.N,/StackB/S05*%
X158300000Y-85300000D02*
X158300000Y-86200000D01*
%TO.N,/StackB/S06*%
X157500000Y-85300000D02*
X157500000Y-86200000D01*
%TO.N,/StackB/S07*%
X156700000Y-85300000D02*
X156700000Y-86200000D01*
%TO.N,/StackB/S00*%
X162900000Y-85294841D02*
X162900000Y-86200000D01*
X162921332Y-85273509D02*
X162900000Y-85294841D01*
%TO.N,/StackB/S01*%
X162100000Y-85300000D02*
X162100000Y-86200000D01*
%TO.N,/StackB/S02*%
X161300000Y-85300000D02*
X161300000Y-86200000D01*
%TO.N,/StackB/S03*%
X160500000Y-85300000D02*
X160500000Y-86200000D01*
D53*
%TO.N,/StackB/CC12*%
X149990000Y-122608800D02*
X153263600Y-125882400D01*
X170130100Y-125882400D02*
X170812000Y-125200500D01*
X153263600Y-125882400D02*
X170130100Y-125882400D01*
%TO.N,/StackB/CC11*%
X164800000Y-124424502D02*
X164064502Y-124424502D01*
X160362500Y-123500000D02*
X161240000Y-123500000D01*
X164064502Y-124424502D02*
X162190000Y-122550000D01*
X161240000Y-123500000D02*
X162190000Y-122550000D01*
%TO.N,/StackB/CC10*%
X171150400Y-123500000D02*
X172562500Y-123500000D01*
X169875200Y-122224800D02*
X169075400Y-121425000D01*
X169075400Y-121425000D02*
X153065000Y-121425000D01*
X153065000Y-121425000D02*
X149990000Y-118350000D01*
X169875200Y-122224800D02*
X171150400Y-123500000D01*
%TO.N,/StackB/CC09*%
X162190000Y-118350000D02*
X164340000Y-120500000D01*
X164340000Y-120500000D02*
X164800000Y-120500000D01*
X160362500Y-119300000D02*
X161240000Y-119300000D01*
X161240000Y-119300000D02*
X162190000Y-118350000D01*
%TO.N,/StackB/CC08*%
X167880200Y-117225000D02*
X153065000Y-117225000D01*
X169955200Y-119300000D02*
X167880200Y-117225000D01*
X172562500Y-119300000D02*
X169955200Y-119300000D01*
X153065000Y-117225000D02*
X149990000Y-114150000D01*
%TO.N,/StackB/CC07*%
X162190000Y-114150000D02*
X164340000Y-116300000D01*
X160362500Y-115100000D02*
X161240000Y-115100000D01*
X164340000Y-116300000D02*
X164800000Y-116300000D01*
X161240000Y-115100000D02*
X162190000Y-114150000D01*
%TO.N,/StackB/CC06*%
X169926000Y-115112800D02*
X167838200Y-113025000D01*
X169926000Y-115112800D02*
X169938800Y-115100000D01*
X169938800Y-115100000D02*
X172562500Y-115100000D01*
X167838200Y-113025000D02*
X153065000Y-113025000D01*
X153065000Y-113025000D02*
X149990000Y-109950000D01*
%TO.N,/StackB/CC05*%
X164340000Y-112100000D02*
X164800000Y-112100000D01*
X161240000Y-110900000D02*
X162190000Y-109950000D01*
X162190000Y-109950000D02*
X164340000Y-112100000D01*
X160362500Y-110900000D02*
X161240000Y-110900000D01*
%TO.N,/StackB/CC04*%
X153065000Y-108825000D02*
X149990000Y-105750000D01*
X169929600Y-110900000D02*
X169926000Y-110896400D01*
X169926000Y-110896400D02*
X167854600Y-108825000D01*
X172562500Y-110900000D02*
X169929600Y-110900000D01*
X167854600Y-108825000D02*
X153065000Y-108825000D01*
D52*
%TO.N,Net-(CN7-Pad7)*%
X92575000Y-105272822D02*
X96623911Y-101223911D01*
X92575000Y-107825000D02*
X92575000Y-105272822D01*
X96600000Y-99450000D02*
X96600000Y-101200000D01*
X96600000Y-101200000D02*
X96623911Y-101223911D01*
X91400000Y-109000000D02*
X92575000Y-107825000D01*
%TO.N,Net-(CN7-Pad8)*%
X91400000Y-106500000D02*
X91400000Y-105600000D01*
X95800000Y-99450000D02*
X95800000Y-101200000D01*
X91400000Y-105600000D02*
X95800000Y-101200000D01*
%TO.N,/StackA/S08*%
X119700000Y-103800000D02*
X119700000Y-102900000D01*
%TO.N,/StackA/DRIVE*%
X98962000Y-119762000D02*
X98962000Y-116262000D01*
X106248529Y-123500000D02*
X102700000Y-123500000D01*
X102700000Y-123500000D02*
X99200000Y-120000000D01*
X107000353Y-122748176D02*
X106248529Y-123500000D01*
X99200000Y-120000000D02*
X98962000Y-119762000D01*
X98962000Y-116262000D02*
X98350000Y-115650000D01*
X98350000Y-115650000D02*
X98350000Y-114800000D01*
X107000353Y-121184813D02*
X107000353Y-122748176D01*
X107004298Y-121180868D02*
X107000353Y-121184813D01*
%TO.N,/StackA/MUX_OUT*%
X112316835Y-108316835D02*
X109880400Y-105880400D01*
X109880400Y-105880400D02*
X109880400Y-100279200D01*
X109880400Y-100279200D02*
X102692200Y-93091000D01*
X112447231Y-108316835D02*
X112316835Y-108316835D01*
X102692200Y-90876800D02*
X102449500Y-90634100D01*
X102692200Y-93091000D02*
X102692200Y-90876800D01*
%TO.N,/StackA/MUX_A0*%
X105784800Y-105737421D02*
X105784800Y-104074800D01*
X106532518Y-106485139D02*
X105784800Y-105737421D01*
%TO.N,/StackA/MUX_A1*%
X107055804Y-105948551D02*
X106584800Y-105477547D01*
X106584800Y-105477547D02*
X106584800Y-104074800D01*
%TO.N,/StackA/MUX_A3*%
X108240485Y-105018154D02*
X108184800Y-104962469D01*
X108184800Y-104962469D02*
X108184800Y-104074800D01*
%TO.N,/StackA/MUX_A2*%
X107634802Y-105471198D02*
X107384800Y-105221196D01*
X107384800Y-105221196D02*
X107384800Y-104074800D01*
%TO.N,/StackB/S08*%
X155300000Y-85300000D02*
X155300000Y-86200000D01*
%TO.N,/StackB/DRIVE*%
X176038000Y-69338000D02*
X176038000Y-72838000D01*
X176038000Y-72838000D02*
X176650000Y-73450000D01*
X172300000Y-65600000D02*
X175800000Y-69100000D01*
X176650000Y-73450000D02*
X176650000Y-74300000D01*
X175800000Y-69100000D02*
X176038000Y-69338000D01*
X166438000Y-65600000D02*
X172300000Y-65600000D01*
%TO.N,/StackB/MUX_OUT*%
X164100000Y-82200000D02*
X162600000Y-80700000D01*
X164100000Y-87773000D02*
X164100000Y-82200000D01*
X172603100Y-98095975D02*
X171932600Y-97425475D01*
X171932600Y-97425475D02*
X171932600Y-95605600D01*
X171932600Y-95605600D02*
X164100000Y-87773000D01*
%TO.N,/StackB/MUX_A0*%
X169246400Y-82918922D02*
X169246400Y-85017200D01*
X168678028Y-82350550D02*
X169246400Y-82918922D01*
%TO.N,/StackB/MUX_A1*%
X168090332Y-82815702D02*
X168446400Y-83171770D01*
X168446400Y-83171770D02*
X168446400Y-85017200D01*
%TO.N,/StackB/MUX_A3*%
X166822800Y-83722800D02*
X166846400Y-83746400D01*
X166846400Y-83746400D02*
X166846400Y-85017200D01*
%TO.N,/StackB/MUX_A2*%
X167487600Y-83261200D02*
X167646400Y-83420000D01*
X167646400Y-83420000D02*
X167646400Y-85017200D01*
D53*
%TO.N,/StackA/VDD*%
X102463200Y-125863200D02*
X96400000Y-119800000D01*
X125800000Y-95574000D02*
X125800000Y-102990800D01*
X128000000Y-113896547D02*
X128000000Y-116963453D01*
X123783600Y-123451814D02*
X121372214Y-125863200D01*
X123783600Y-121179853D02*
X123783600Y-123451814D01*
X121372214Y-125863200D02*
X102463200Y-125863200D01*
X128000000Y-116963453D02*
X123783600Y-121179853D01*
X125800000Y-102990800D02*
X127254000Y-104444800D01*
X127254000Y-104444800D02*
X127254000Y-113150547D01*
X127254000Y-113150547D02*
X128000000Y-113896547D01*
%TO.N,/StackB/VDD*%
X148485786Y-63400000D02*
X147000000Y-64885786D01*
X175999999Y-64199999D02*
X175200000Y-63400000D01*
X175200000Y-63400000D02*
X148485786Y-63400000D01*
X175999999Y-66499999D02*
X175999999Y-64199999D01*
X178600000Y-69300000D02*
X178600000Y-69100000D01*
X178600000Y-69100000D02*
X175999999Y-66499999D01*
X147000000Y-64885786D02*
X147000000Y-90400000D01*
X147000000Y-90400000D02*
X149200000Y-92600000D01*
D52*
%TO.N,Net-(CN11-Pad5)*%
X182425000Y-98275000D02*
X182425000Y-99770584D01*
X182425000Y-99770584D02*
X180995584Y-101200000D01*
X180995584Y-101200000D02*
X177700000Y-101200000D01*
X177700000Y-101200000D02*
X175700000Y-99200000D01*
X175700000Y-99200000D02*
X175700000Y-98500000D01*
X175400000Y-98200000D02*
X175700000Y-98500000D01*
X175400000Y-96900000D02*
X175400000Y-98200000D01*
X183600000Y-97100000D02*
X182425000Y-98275000D01*
%TO.N,Net-(CN5-Pad6)*%
X100400000Y-92200000D02*
X100400000Y-90200000D01*
X93800000Y-87450000D02*
X97650000Y-87450000D01*
X91750000Y-89500000D02*
X93800000Y-87450000D01*
X97650000Y-87450000D02*
X100400000Y-90200000D01*
%TO.N,Net-(CN5-Pad7)*%
X101100000Y-90500000D02*
X101100000Y-90051471D01*
X101200000Y-92200000D02*
X101200000Y-90600000D01*
X101100000Y-90051471D02*
X98048529Y-87000000D01*
X101200000Y-90600000D02*
X101100000Y-90500000D01*
X98048529Y-87000000D02*
X91400000Y-87000000D01*
%TO.N,Net-(CN5-Pad8)*%
X101768068Y-89980568D02*
X98337500Y-86550000D01*
X101799500Y-89980568D02*
X101768068Y-89980568D01*
X101799500Y-90832629D02*
X101799500Y-89980568D01*
X93450000Y-86550000D02*
X91400000Y-84500000D01*
X101981000Y-92181000D02*
X101981000Y-91014129D01*
X101981000Y-91014129D02*
X101799500Y-90832629D01*
X98337500Y-86550000D02*
X93450000Y-86550000D01*
%TO.N,Net-(CN6-Pad5)*%
X102000000Y-101000000D02*
X101900000Y-101100000D01*
X92700000Y-122700000D02*
X92700000Y-120836396D01*
X95275000Y-118261396D02*
X95275000Y-107925000D01*
X91400000Y-124000000D02*
X92700000Y-122700000D01*
X102000000Y-99450000D02*
X102000000Y-101000000D01*
X92700000Y-120836396D02*
X95275000Y-118261396D01*
X95275000Y-107925000D02*
X101900000Y-101300000D01*
X101900000Y-101300000D02*
X101900000Y-101100000D01*
%TO.N,Net-(CN6-Pad6)*%
X91400000Y-121500000D02*
X94825000Y-118075000D01*
X94825000Y-118075000D02*
X94825000Y-107375000D01*
X101200000Y-99450000D02*
X101200000Y-101000000D01*
X94825000Y-107375000D02*
X101000000Y-101200000D01*
X101200000Y-101000000D02*
X101000000Y-101200000D01*
%TO.N,Net-(CN6-Pad7)*%
X100100000Y-101248529D02*
X100100000Y-101200000D01*
X100400000Y-100900000D02*
X100100000Y-101200000D01*
X94375000Y-116025000D02*
X94375000Y-106973529D01*
X94375000Y-106973529D02*
X100100000Y-101248529D01*
X91400000Y-119000000D02*
X94375000Y-116025000D01*
X100400000Y-99450000D02*
X100400000Y-100900000D01*
%TO.N,Net-(CN6-Pad8)*%
X99600000Y-100400000D02*
X99300000Y-100700000D01*
X93925000Y-113975000D02*
X93925000Y-106575000D01*
X99600000Y-99450000D02*
X99600000Y-100400000D01*
X91400000Y-116500000D02*
X93925000Y-113975000D01*
X93925000Y-106575000D02*
X99300000Y-101200000D01*
X99300000Y-100700000D02*
X99300000Y-101200000D01*
%TO.N,Net-(CN7-Pad5)*%
X91400000Y-114000000D02*
X93475000Y-111925000D01*
X93475000Y-105987034D02*
X98249216Y-101212818D01*
X98200000Y-99450000D02*
X98200000Y-101163602D01*
X98200000Y-101163602D02*
X98249216Y-101212818D01*
X93475000Y-111925000D02*
X93475000Y-105987034D01*
%TO.N,Net-(CN13-Pad6)*%
X177600000Y-89650000D02*
X177600000Y-88200000D01*
X181975000Y-83425000D02*
X177476089Y-87923911D01*
X181975000Y-79225000D02*
X181975000Y-83425000D01*
X177476089Y-87923911D02*
X177476089Y-88076089D01*
X177600000Y-88200000D02*
X177476089Y-88076089D01*
X183600000Y-77600000D02*
X181975000Y-79225000D01*
%TO.N,Net-(CN13-Pad7)*%
X182425000Y-81275000D02*
X182425000Y-83827178D01*
X182425000Y-83827178D02*
X178376089Y-87876089D01*
X183600000Y-80100000D02*
X182425000Y-81275000D01*
X178400000Y-87900000D02*
X178376089Y-87876089D01*
X178400000Y-89650000D02*
X178400000Y-87900000D01*
%TO.N,Net-(CN13-Pad8)*%
X183600000Y-83500000D02*
X179200000Y-87900000D01*
X183600000Y-82600000D02*
X183600000Y-83500000D01*
X179200000Y-89650000D02*
X179200000Y-87900000D01*
%TO.N,Net-(D1-Pad1)*%
X136956800Y-119774200D02*
X136347200Y-120383800D01*
X136956800Y-118516400D02*
X136956800Y-119774200D01*
%TO.N,Net-(CN11-Pad6)*%
X177350000Y-101650000D02*
X174600000Y-98900000D01*
X183250000Y-99600000D02*
X181200000Y-101650000D01*
X181200000Y-101650000D02*
X177350000Y-101650000D01*
X174600000Y-96900000D02*
X174600000Y-98900000D01*
%TO.N,Net-(CN11-Pad7)*%
X173800000Y-98500000D02*
X173900000Y-98600000D01*
X173800000Y-96900000D02*
X173800000Y-98500000D01*
X176951471Y-102100000D02*
X183600000Y-102100000D01*
X173900000Y-98600000D02*
X173900000Y-99048529D01*
X173900000Y-99048529D02*
X176951471Y-102100000D01*
%TO.N,Net-(CN11-Pad8)*%
X173200500Y-98999592D02*
X173200500Y-99088000D01*
X176662500Y-102550000D02*
X181550000Y-102550000D01*
X181550000Y-102550000D02*
X183600000Y-104600000D01*
X173202600Y-98997492D02*
X173200500Y-98999592D01*
X173200500Y-99088000D02*
X176662500Y-102550000D01*
X173000000Y-96900000D02*
X173202600Y-97102600D01*
X173202600Y-97102600D02*
X173202600Y-98997492D01*
%TO.N,Net-(CN12-Pad5)*%
X173100000Y-87800000D02*
X173100000Y-88000000D01*
X179725000Y-81175000D02*
X173100000Y-87800000D01*
X173000000Y-88100000D02*
X173100000Y-88000000D01*
X182300000Y-68263604D02*
X179725000Y-70838604D01*
X183600000Y-65100000D02*
X182300000Y-66400000D01*
X182300000Y-66400000D02*
X182300000Y-68263604D01*
X179725000Y-70838604D02*
X179725000Y-81175000D01*
X173000000Y-89650000D02*
X173000000Y-88100000D01*
%TO.N,Net-(CN12-Pad6)*%
X180175000Y-81725000D02*
X174000000Y-87900000D01*
X173800000Y-88100000D02*
X174000000Y-87900000D01*
X173800000Y-89650000D02*
X173800000Y-88100000D01*
X180175000Y-71025000D02*
X180175000Y-81725000D01*
X183600000Y-67600000D02*
X180175000Y-71025000D01*
%TO.N,Net-(CN12-Pad7)*%
X183600000Y-70100000D02*
X180625000Y-73075000D01*
X174600000Y-89650000D02*
X174600000Y-88200000D01*
X174600000Y-88200000D02*
X174900000Y-87900000D01*
X180625000Y-82126471D02*
X174900000Y-87851471D01*
X174900000Y-87851471D02*
X174900000Y-87900000D01*
X180625000Y-73075000D02*
X180625000Y-82126471D01*
%TO.N,Net-(CN12-Pad8)*%
X175400000Y-88700000D02*
X175700000Y-88400000D01*
X175400000Y-89650000D02*
X175400000Y-88700000D01*
X183600000Y-72600000D02*
X181075000Y-75125000D01*
X181075000Y-75125000D02*
X181075000Y-82525000D01*
X175700000Y-88400000D02*
X175700000Y-87900000D01*
X181075000Y-82525000D02*
X175700000Y-87900000D01*
%TO.N,Net-(CN13-Pad5)*%
X181525000Y-77175000D02*
X181525000Y-83112966D01*
X183600000Y-75100000D02*
X181525000Y-77175000D01*
X176800000Y-87936398D02*
X176750784Y-87887182D01*
X181525000Y-83112966D02*
X176750784Y-87887182D01*
X176800000Y-89650000D02*
X176800000Y-87936398D01*
%TO.N,Net-(CN4-Pad5)*%
X94750000Y-89700000D02*
X95500000Y-89700000D01*
X93925000Y-99475000D02*
X93925000Y-92020584D01*
X95900000Y-90100000D02*
X95900000Y-90200000D01*
X95800000Y-90300000D02*
X95900000Y-90200000D01*
X93925000Y-92020584D02*
X94375000Y-91570584D01*
X95800000Y-92200000D02*
X95800000Y-90300000D01*
X91400000Y-102000000D02*
X93925000Y-99475000D01*
X94375000Y-90075000D02*
X94750000Y-89700000D01*
X95500000Y-89700000D02*
X95900000Y-90100000D01*
X94375000Y-91570584D02*
X94375000Y-90075000D01*
%TO.N,Net-(CN4-Pad6)*%
X94563604Y-89250000D02*
X96250000Y-89250000D01*
X93475000Y-97425000D02*
X93475000Y-91834188D01*
X93475000Y-91834188D02*
X93925000Y-91384188D01*
X91400000Y-99500000D02*
X93475000Y-97425000D01*
X93925000Y-91384188D02*
X93925000Y-89888604D01*
X96600000Y-90600000D02*
X96750000Y-90450000D01*
X93925000Y-89888604D02*
X94563604Y-89250000D01*
X96750000Y-89750000D02*
X96750000Y-90450000D01*
X96250000Y-89250000D02*
X96750000Y-89750000D01*
X96600000Y-92200000D02*
X96600000Y-90600000D01*
%TO.N,Net-(CN4-Pad7)*%
X97400000Y-92200000D02*
X97400000Y-90200000D01*
X93025000Y-91647792D02*
X93475000Y-91197792D01*
X93025000Y-95375000D02*
X93025000Y-91647792D01*
X93475000Y-89702208D02*
X94377208Y-88800000D01*
X96613604Y-88800000D02*
X97450000Y-89636396D01*
X94377208Y-88800000D02*
X96613604Y-88800000D01*
X97450000Y-89636396D02*
X97450000Y-90150000D01*
X91400000Y-97000000D02*
X93025000Y-95375000D01*
X93475000Y-91197792D02*
X93475000Y-89702208D01*
X97400000Y-90200000D02*
X97450000Y-90150000D01*
%TO.N,Net-(CN4-Pad8)*%
X96800000Y-88350000D02*
X98550000Y-90100000D01*
X92575000Y-91461396D02*
X93025000Y-91011396D01*
X93025000Y-89515812D02*
X94190812Y-88350000D01*
X98200000Y-91000000D02*
X98550000Y-90650000D01*
X92575000Y-93325000D02*
X92575000Y-91461396D01*
X98550000Y-90100000D02*
X98550000Y-90650000D01*
X98200000Y-92200000D02*
X98200000Y-91000000D01*
X94190812Y-88350000D02*
X96800000Y-88350000D01*
X91400000Y-94500000D02*
X92575000Y-93325000D01*
X93025000Y-91011396D02*
X93025000Y-89515812D01*
%TO.N,Net-(CN10-Pad5)*%
X179100000Y-99000000D02*
X179100000Y-98900000D01*
X179200000Y-98800000D02*
X179100000Y-98900000D01*
X179500000Y-99400000D02*
X179100000Y-99000000D01*
X183600000Y-87100000D02*
X181075000Y-89625000D01*
X180250000Y-99400000D02*
X179500000Y-99400000D01*
X180625000Y-97529416D02*
X180625000Y-99025000D01*
X181075000Y-97079416D02*
X180625000Y-97529416D01*
X179200000Y-96900000D02*
X179200000Y-98800000D01*
X181075000Y-89625000D02*
X181075000Y-97079416D01*
X180625000Y-99025000D02*
X180250000Y-99400000D01*
%TO.N,Net-(CN10-Pad6)*%
X178250000Y-99350000D02*
X178250000Y-98650000D01*
X181525000Y-91675000D02*
X181525000Y-97265812D01*
X178750000Y-99850000D02*
X178250000Y-99350000D01*
X181075000Y-97715812D02*
X181075000Y-99211396D01*
X178400000Y-96900000D02*
X178400000Y-98500000D01*
X183600000Y-89600000D02*
X181525000Y-91675000D01*
X178400000Y-98500000D02*
X178250000Y-98650000D01*
X181525000Y-97265812D02*
X181075000Y-97715812D01*
X180436396Y-99850000D02*
X178750000Y-99850000D01*
X181075000Y-99211396D02*
X180436396Y-99850000D01*
%TO.N,Net-(CN10-Pad7)*%
X181975000Y-97452208D02*
X181525000Y-97902208D01*
X181975000Y-93725000D02*
X181975000Y-97452208D01*
X177600000Y-98900000D02*
X177550000Y-98950000D01*
X181525000Y-97902208D02*
X181525000Y-99397792D01*
X177600000Y-96900000D02*
X177600000Y-98900000D01*
X180622792Y-100300000D02*
X178386396Y-100300000D01*
X181525000Y-99397792D02*
X180622792Y-100300000D01*
X178386396Y-100300000D02*
X177550000Y-99463604D01*
X177550000Y-99463604D02*
X177550000Y-98950000D01*
X183600000Y-92100000D02*
X181975000Y-93725000D01*
%TO.N,Net-(CN10-Pad8)*%
X176800000Y-96900000D02*
X176800000Y-98100000D01*
X181975000Y-98088604D02*
X181975000Y-99584188D01*
X176800000Y-98100000D02*
X176450000Y-98450000D01*
X182425000Y-95775000D02*
X182425000Y-97638604D01*
X182425000Y-97638604D02*
X181975000Y-98088604D01*
X180809188Y-100750000D02*
X178200000Y-100750000D01*
X178200000Y-100750000D02*
X176450000Y-99000000D01*
X176450000Y-99000000D02*
X176450000Y-98450000D01*
X181975000Y-99584188D02*
X180809188Y-100750000D01*
X183600000Y-94600000D02*
X182425000Y-95775000D01*
%TO.N,/StackB/IA+*%
X151326500Y-71050500D02*
X148818339Y-71050500D01*
X143230500Y-85800000D02*
X144330500Y-84700000D01*
X151358600Y-71018400D02*
X151326500Y-71050500D01*
X144330500Y-84700000D02*
X144800000Y-84700000D01*
X143349500Y-83249500D02*
X142699500Y-83249500D01*
X144800000Y-84700000D02*
X143349500Y-83249500D01*
%TO.N,/IAC_A*%
X130896371Y-112196371D02*
X130200000Y-111500000D01*
X130896371Y-112217200D02*
X130896371Y-112196371D01*
%TO.N,/StackA/IBC*%
X130200000Y-95320000D02*
X130200000Y-96075000D01*
X130200000Y-96075000D02*
X130225000Y-96100000D01*
%TO.N,/StackB/IAC*%
X144800000Y-80700000D02*
X144800000Y-79900000D01*
%TO.N,/IBC_B*%
X144775000Y-69275000D02*
X144800000Y-69300000D01*
X144775000Y-68500000D02*
X144775000Y-69275000D01*
%TO.N,/IA+_A*%
X128328689Y-109124189D02*
X128328689Y-106535489D01*
X128424500Y-109220000D02*
X128328689Y-109124189D01*
%TO.N,/IB-_B*%
X151510808Y-69144431D02*
X151510808Y-66885608D01*
X151510808Y-66885608D02*
X151124700Y-66499500D01*
X150761260Y-69893979D02*
X151510808Y-69144431D01*
%TO.N,/IB+_B*%
X150012400Y-69925000D02*
X150012400Y-68162699D01*
X150012400Y-68162699D02*
X150910808Y-67264291D01*
%TO.N,/StackB/VCC*%
X168599647Y-66600353D02*
X169200000Y-67200706D01*
D53*
X149250000Y-74904200D02*
X151612600Y-77266800D01*
X156600000Y-81000000D02*
X156901000Y-80699000D01*
X159435800Y-77266800D02*
X161502600Y-75200000D01*
X156600000Y-81650000D02*
X156600000Y-81000000D01*
D52*
X163550000Y-73086924D02*
X164741068Y-74277992D01*
D53*
X149250000Y-73670000D02*
X149250000Y-74904200D01*
X156901000Y-80699000D02*
X156901000Y-79233937D01*
X164582136Y-75200000D02*
X164741068Y-75041068D01*
D52*
X164741068Y-74277992D02*
X164741068Y-75041068D01*
X169200000Y-67200706D02*
X169200000Y-72700000D01*
X169200000Y-72700000D02*
X167800000Y-74100000D01*
D53*
X151612600Y-77266800D02*
X159435800Y-77266800D01*
X170129200Y-86817200D02*
X166846400Y-86817200D01*
X170332400Y-86614000D02*
X170129200Y-86817200D01*
X161502600Y-75200000D02*
X164582136Y-75200000D01*
D52*
X156600000Y-81650000D02*
X154925000Y-81650000D01*
%TO.N,/TDI*%
X140726900Y-120435900D02*
X140726900Y-119329200D01*
X136956800Y-121198700D02*
X139964100Y-121198700D01*
X139964100Y-121198700D02*
X140726900Y-120435900D01*
%TO.N,Net-(U1-Pad19)*%
X132298400Y-123516577D02*
X131008177Y-123516577D01*
X131008177Y-123516577D02*
X130822000Y-123330400D01*
%TO.N,Net-(JP13-Pad2)*%
X113141200Y-119648404D02*
X113141200Y-121660529D01*
X116001800Y-112437400D02*
X114503200Y-113936000D01*
X123456706Y-112624994D02*
X123269112Y-112437400D01*
X113141200Y-121660529D02*
X113492671Y-122012000D01*
X113492671Y-122012000D02*
X114960100Y-122012000D01*
X114503200Y-113936000D02*
X114503200Y-118286404D01*
X123494800Y-111150400D02*
X124700000Y-109945200D01*
X114503200Y-118286404D02*
X113141200Y-119648404D01*
X123269112Y-112437400D02*
X116001800Y-112437400D01*
X124700000Y-109945200D02*
X124700000Y-107325000D01*
%TO.N,Net-(JP14-Pad2)*%
X121970800Y-114096800D02*
X122732800Y-113334800D01*
X120050000Y-117490800D02*
X121624800Y-117490800D01*
X123200000Y-109585600D02*
X123200000Y-107325000D01*
X118465600Y-121920000D02*
X118879200Y-121506400D01*
X121970800Y-117144800D02*
X121970800Y-114096800D01*
X121624800Y-117490800D02*
X121970800Y-117144800D01*
X122732800Y-113334800D02*
X124053600Y-113334800D01*
X118879200Y-121506400D02*
X118879200Y-118661600D01*
X123494800Y-109880400D02*
X123200000Y-109585600D01*
X117703600Y-121920000D02*
X118465600Y-121920000D01*
X124700000Y-105825000D02*
X123200000Y-107325000D01*
X118879200Y-118661600D02*
X120050000Y-117490800D01*
%TO.N,Net-(JP15-Pad2)*%
X151485600Y-78079600D02*
X150300000Y-79265200D01*
X150300000Y-79265200D02*
X150300000Y-81775000D01*
X157376378Y-71051900D02*
X156565600Y-70241122D01*
X156565600Y-67818000D02*
X157175200Y-67208400D01*
X156565600Y-70241122D02*
X156565600Y-67818000D01*
%TO.N,Net-(JP16-Pad2)*%
X154540800Y-76054800D02*
X157472800Y-76054800D01*
X151800000Y-79224105D02*
X151800000Y-81775000D01*
X157472800Y-76054800D02*
X158013400Y-75514200D01*
X158013400Y-75514200D02*
X158013400Y-72745600D01*
X158013400Y-72745600D02*
X156091200Y-70823400D01*
X151794447Y-79218552D02*
X151800000Y-79224105D01*
X156091200Y-70823400D02*
X156091200Y-67798380D01*
X154305000Y-75819000D02*
X154540800Y-76054800D01*
X156091200Y-67798380D02*
X155475820Y-67183000D01*
X150300000Y-83275000D02*
X151800000Y-81775000D01*
X153619200Y-75819000D02*
X154305000Y-75819000D01*
D53*
%TO.N,Net-(J14-Pad1)*%
X100081000Y-107746800D02*
X100081000Y-103881000D01*
X100634800Y-103327200D02*
X101526100Y-103327200D01*
X100081000Y-103881000D02*
X100634800Y-103327200D01*
%TD*%
%TA.AperFunction,Conductor*%
%TO.N,GND*%
G36*
X105416621Y-117521602D02*
G01*
X105463114Y-117575258D01*
X105474500Y-117627600D01*
X105474500Y-121879584D01*
X105474020Y-121890566D01*
X105470736Y-121928101D01*
X105473590Y-121938750D01*
X105480491Y-121964504D01*
X105482870Y-121975236D01*
X105489412Y-122012339D01*
X105494923Y-122021884D01*
X105496115Y-122025160D01*
X105497592Y-122028328D01*
X105500446Y-122038978D01*
X105506770Y-122048009D01*
X105522055Y-122069838D01*
X105527961Y-122079109D01*
X105541293Y-122102200D01*
X105546806Y-122111749D01*
X105555252Y-122118836D01*
X105562337Y-122127280D01*
X105561322Y-122128132D01*
X105594318Y-122177727D01*
X105600000Y-122215139D01*
X105600000Y-123048500D01*
X105579998Y-123116621D01*
X105526342Y-123163114D01*
X105474000Y-123174500D01*
X102887017Y-123174500D01*
X102818896Y-123154498D01*
X102797922Y-123137595D01*
X99713425Y-120053099D01*
X99679399Y-119990787D01*
X99677793Y-119981866D01*
X99662354Y-119874057D01*
X99662353Y-119874054D01*
X99661081Y-119865171D01*
X99604706Y-119741180D01*
X99530547Y-119655115D01*
X99501233Y-119590453D01*
X99500000Y-119572867D01*
X99500000Y-117627600D01*
X99520002Y-117559479D01*
X99573658Y-117512986D01*
X99626000Y-117501600D01*
X105348500Y-117501600D01*
X105416621Y-117521602D01*
G37*
%TD.AperFunction*%
%TD*%
%TA.AperFunction,Conductor*%
%TO.N,/StackB/GND*%
G36*
X172181105Y-65945502D02*
G01*
X172202079Y-65962405D01*
X175287229Y-69047556D01*
X175321255Y-69109868D01*
X175323069Y-69120308D01*
X175337306Y-69229186D01*
X175392162Y-69353856D01*
X175397939Y-69360729D01*
X175397940Y-69360730D01*
X175470451Y-69446992D01*
X175498972Y-69512007D01*
X175500000Y-69528067D01*
X175500000Y-71574000D01*
X175479998Y-71642121D01*
X175426342Y-71688614D01*
X175374000Y-71700000D01*
X169651500Y-71700000D01*
X169583379Y-71679998D01*
X169536886Y-71626342D01*
X169525500Y-71574000D01*
X169525500Y-67220416D01*
X169525980Y-67209434D01*
X169528303Y-67182881D01*
X169528303Y-67182876D01*
X169529263Y-67171899D01*
X169519508Y-67135489D01*
X169517133Y-67124778D01*
X169512501Y-67098512D01*
X169510588Y-67087661D01*
X169505078Y-67078117D01*
X169503886Y-67074841D01*
X169502407Y-67071670D01*
X169499554Y-67061022D01*
X169477940Y-67030154D01*
X169472036Y-67020885D01*
X169458707Y-66997798D01*
X169458704Y-66997794D01*
X169453194Y-66988251D01*
X169444751Y-66981166D01*
X169437665Y-66972722D01*
X169438680Y-66971870D01*
X169405682Y-66922272D01*
X169400000Y-66884861D01*
X169400000Y-66051500D01*
X169420002Y-65983379D01*
X169473658Y-65936886D01*
X169526000Y-65925500D01*
X172112984Y-65925500D01*
X172181105Y-65945502D01*
G37*
%TD.AperFunction*%
%TD*%
%TA.AperFunction,Conductor*%
%TO.N,/StackA/PSU_INPUT*%
G36*
X105936321Y-110586202D02*
G01*
X105982814Y-110639858D01*
X105994200Y-110692200D01*
X105994200Y-114504200D01*
X105974198Y-114572321D01*
X105920542Y-114618814D01*
X105868200Y-114630200D01*
X101040200Y-114630200D01*
X100972079Y-114610198D01*
X100925586Y-114556542D01*
X100914200Y-114504200D01*
X100914200Y-113714200D01*
X100884911Y-113643489D01*
X100875071Y-113639413D01*
X100825666Y-113618949D01*
X100825665Y-113618949D01*
X100814200Y-113614200D01*
X99729256Y-113614200D01*
X99681038Y-113604609D01*
X99588591Y-113566316D01*
X99580962Y-113563156D01*
X99463561Y-113547700D01*
X99380759Y-113547700D01*
X97484200Y-113547701D01*
X97416079Y-113527699D01*
X97369586Y-113474043D01*
X97358200Y-113421701D01*
X97358200Y-111774700D01*
X97378202Y-111706579D01*
X97431858Y-111660086D01*
X97484200Y-111648700D01*
X99380740Y-111648699D01*
X99463560Y-111648699D01*
X99467644Y-111648161D01*
X99467650Y-111648161D01*
X99572775Y-111634322D01*
X99572777Y-111634322D01*
X99580962Y-111633244D01*
X99681038Y-111591791D01*
X99729256Y-111582200D01*
X100814200Y-111582200D01*
X100825665Y-111577451D01*
X100825666Y-111577451D01*
X100843511Y-111570059D01*
X100884911Y-111552911D01*
X100914200Y-111482200D01*
X100914200Y-111274700D01*
X100934202Y-111206579D01*
X100987858Y-111160086D01*
X101040200Y-111148700D01*
X102030138Y-111148700D01*
X102040679Y-111149142D01*
X102092102Y-111153460D01*
X102098862Y-111152558D01*
X102098866Y-111152558D01*
X102171859Y-111142819D01*
X102174913Y-111142449D01*
X102248128Y-111134495D01*
X102248131Y-111134494D01*
X102254909Y-111133758D01*
X102261369Y-111131584D01*
X102264417Y-111130914D01*
X102264878Y-111130833D01*
X102265029Y-111130797D01*
X102265488Y-111130664D01*
X102268507Y-111129922D01*
X102275269Y-111129020D01*
X102281679Y-111126687D01*
X102281683Y-111126686D01*
X102350871Y-111101503D01*
X102353777Y-111100485D01*
X102423577Y-111076995D01*
X102423579Y-111076994D01*
X102430048Y-111074817D01*
X102435902Y-111071300D01*
X102438714Y-111070000D01*
X102439157Y-111069818D01*
X102439316Y-111069742D01*
X102439734Y-111069514D01*
X102442503Y-111068151D01*
X102448915Y-111065818D01*
X102454673Y-111062164D01*
X102454679Y-111062161D01*
X102516844Y-111022710D01*
X102519463Y-111021092D01*
X102582593Y-110983159D01*
X102582595Y-110983158D01*
X102588444Y-110979643D01*
X102593403Y-110974954D01*
X102595882Y-110973072D01*
X102596659Y-110972532D01*
X102600569Y-110969575D01*
X102604938Y-110966802D01*
X102609172Y-110963017D01*
X102662678Y-110909511D01*
X102665200Y-110907058D01*
X102717749Y-110857365D01*
X102717751Y-110857363D01*
X102722707Y-110852676D01*
X102726541Y-110847034D01*
X102730967Y-110841834D01*
X102731371Y-110842178D01*
X102737907Y-110834282D01*
X102969084Y-110603105D01*
X103031396Y-110569079D01*
X103058179Y-110566200D01*
X105868200Y-110566200D01*
X105936321Y-110586202D01*
G37*
%TD.AperFunction*%
%TD*%
%TA.AperFunction,Conductor*%
%TO.N,/StackB/PSU_INPUT*%
G36*
X174135321Y-74645202D02*
G01*
X174181814Y-74698858D01*
X174193200Y-74751200D01*
X174193200Y-75541200D01*
X174222489Y-75611911D01*
X174232329Y-75615987D01*
X174281734Y-75636451D01*
X174281735Y-75636451D01*
X174293200Y-75641200D01*
X175531740Y-75641200D01*
X175548186Y-75642278D01*
X175610639Y-75650500D01*
X175732555Y-75650500D01*
X177623200Y-75650499D01*
X177691321Y-75670501D01*
X177737814Y-75724157D01*
X177749200Y-75776499D01*
X177749200Y-77423500D01*
X177729198Y-77491621D01*
X177675542Y-77538114D01*
X177623200Y-77549500D01*
X175732582Y-77549501D01*
X175610640Y-77549501D01*
X175606556Y-77550039D01*
X175606550Y-77550039D01*
X175501425Y-77563878D01*
X175501423Y-77563878D01*
X175493238Y-77564956D01*
X175347159Y-77625464D01*
X175340608Y-77630491D01*
X175340604Y-77630493D01*
X175318879Y-77647163D01*
X175252659Y-77672763D01*
X175242176Y-77673200D01*
X174293200Y-77673200D01*
X174281735Y-77677949D01*
X174281734Y-77677949D01*
X174263889Y-77685341D01*
X174222489Y-77702489D01*
X174193200Y-77773200D01*
X174193200Y-78563200D01*
X174173198Y-78631321D01*
X174119542Y-78677814D01*
X174067200Y-78689200D01*
X169239200Y-78689200D01*
X169171079Y-78669198D01*
X169124586Y-78615542D01*
X169113200Y-78563200D01*
X169113200Y-74751200D01*
X169133202Y-74683079D01*
X169186858Y-74636586D01*
X169239200Y-74625200D01*
X174067200Y-74625200D01*
X174135321Y-74645202D01*
G37*
%TD.AperFunction*%
%TD*%
M02*
