%TF.GenerationSoftware,KiCad,Pcbnew,(6.0.11)*%
%TF.CreationDate,2023-03-28T12:14:42+02:00*%
%TF.ProjectId,bms_monitor,626d735f-6d6f-46e6-9974-6f722e6b6963,rev?*%
%TF.SameCoordinates,Original*%
%TF.FileFunction,Copper,L1,Top*%
%TF.FilePolarity,Positive*%
%FSLAX46Y46*%
G04 Gerber Fmt 4.6, Leading zero omitted, Abs format (unit mm)*
G04 Created by KiCad (PCBNEW (6.0.11)) date 2023-03-28 12:14:42*
%MOMM*%
%LPD*%
G01*
G04 APERTURE LIST*
G04 Aperture macros list*
%AMRoundRect*
0 Rectangle with rounded corners*
0 $1 Rounding radius*
0 $2 $3 $4 $5 $6 $7 $8 $9 X,Y pos of 4 corners*
0 Add a 4 corners polygon primitive as box body*
4,1,4,$2,$3,$4,$5,$6,$7,$8,$9,$2,$3,0*
0 Add four circle primitives for the rounded corners*
1,1,$1+$1,$2,$3*
1,1,$1+$1,$4,$5*
1,1,$1+$1,$6,$7*
1,1,$1+$1,$8,$9*
0 Add four rect primitives between the rounded corners*
20,1,$1+$1,$2,$3,$4,$5,0*
20,1,$1+$1,$4,$5,$6,$7,0*
20,1,$1+$1,$6,$7,$8,$9,0*
20,1,$1+$1,$8,$9,$2,$3,0*%
%AMFreePoly0*
4,1,22,0.550000,-0.750000,0.000000,-0.750000,0.000000,-0.745033,-0.079941,-0.743568,-0.215256,-0.701293,-0.333266,-0.622738,-0.424486,-0.514219,-0.481581,-0.384460,-0.499164,-0.250000,-0.500000,-0.250000,-0.500000,0.250000,-0.499164,0.250000,-0.499963,0.256109,-0.478152,0.396186,-0.417904,0.524511,-0.324060,0.630769,-0.204165,0.706417,-0.067858,0.745374,0.000000,0.744959,0.000000,0.750000,
0.550000,0.750000,0.550000,-0.750000,0.550000,-0.750000,$1*%
%AMFreePoly1*
4,1,20,0.000000,0.744959,0.073905,0.744508,0.209726,0.703889,0.328688,0.626782,0.421226,0.519385,0.479903,0.390333,0.500000,0.250000,0.500000,-0.250000,0.499851,-0.262216,0.476331,-0.402017,0.414519,-0.529596,0.319384,-0.634700,0.198574,-0.708877,0.061801,-0.746166,0.000000,-0.745033,0.000000,-0.750000,-0.550000,-0.750000,-0.550000,0.750000,0.000000,0.750000,0.000000,0.744959,
0.000000,0.744959,$1*%
G04 Aperture macros list end*
%TA.AperFunction,NonConductor*%
%ADD10C,0.150000*%
%TD*%
%TA.AperFunction,NonConductor*%
%ADD11C,0.275000*%
%TD*%
%TA.AperFunction,SMDPad,CuDef*%
%ADD12RoundRect,0.062500X-0.062500X0.375000X-0.062500X-0.375000X0.062500X-0.375000X0.062500X0.375000X0*%
%TD*%
%TA.AperFunction,SMDPad,CuDef*%
%ADD13RoundRect,0.062500X-0.375000X0.062500X-0.375000X-0.062500X0.375000X-0.062500X0.375000X0.062500X0*%
%TD*%
%TA.AperFunction,SMDPad,CuDef*%
%ADD14R,3.450000X3.450000*%
%TD*%
%TA.AperFunction,SMDPad,CuDef*%
%ADD15RoundRect,0.250000X-0.450000X0.262500X-0.450000X-0.262500X0.450000X-0.262500X0.450000X0.262500X0*%
%TD*%
%TA.AperFunction,SMDPad,CuDef*%
%ADD16FreePoly0,270.000000*%
%TD*%
%TA.AperFunction,SMDPad,CuDef*%
%ADD17R,1.500000X1.000000*%
%TD*%
%TA.AperFunction,SMDPad,CuDef*%
%ADD18FreePoly1,270.000000*%
%TD*%
%TA.AperFunction,SMDPad,CuDef*%
%ADD19R,0.500000X0.800000*%
%TD*%
%TA.AperFunction,SMDPad,CuDef*%
%ADD20R,0.400000X0.800000*%
%TD*%
%TA.AperFunction,SMDPad,CuDef*%
%ADD21RoundRect,0.250000X-0.375000X-0.625000X0.375000X-0.625000X0.375000X0.625000X-0.375000X0.625000X0*%
%TD*%
%TA.AperFunction,SMDPad,CuDef*%
%ADD22RoundRect,0.250000X0.450000X-0.262500X0.450000X0.262500X-0.450000X0.262500X-0.450000X-0.262500X0*%
%TD*%
%TA.AperFunction,SMDPad,CuDef*%
%ADD23RoundRect,0.250000X0.375000X0.625000X-0.375000X0.625000X-0.375000X-0.625000X0.375000X-0.625000X0*%
%TD*%
%TA.AperFunction,SMDPad,CuDef*%
%ADD24RoundRect,0.225000X0.225000X0.250000X-0.225000X0.250000X-0.225000X-0.250000X0.225000X-0.250000X0*%
%TD*%
%TA.AperFunction,SMDPad,CuDef*%
%ADD25R,1.270000X0.760000*%
%TD*%
%TA.AperFunction,SMDPad,CuDef*%
%ADD26RoundRect,0.250000X0.475000X-0.250000X0.475000X0.250000X-0.475000X0.250000X-0.475000X-0.250000X0*%
%TD*%
%TA.AperFunction,ComponentPad*%
%ADD27RoundRect,0.250000X-0.600000X-0.600000X0.600000X-0.600000X0.600000X0.600000X-0.600000X0.600000X0*%
%TD*%
%TA.AperFunction,ComponentPad*%
%ADD28C,1.700000*%
%TD*%
%TA.AperFunction,ComponentPad*%
%ADD29RoundRect,0.250001X0.759999X-0.499999X0.759999X0.499999X-0.759999X0.499999X-0.759999X-0.499999X0*%
%TD*%
%TA.AperFunction,ComponentPad*%
%ADD30O,2.020000X1.500000*%
%TD*%
%TA.AperFunction,SMDPad,CuDef*%
%ADD31RoundRect,0.225000X-0.250000X0.225000X-0.250000X-0.225000X0.250000X-0.225000X0.250000X0.225000X0*%
%TD*%
%TA.AperFunction,SMDPad,CuDef*%
%ADD32RoundRect,0.250000X-0.325000X-0.650000X0.325000X-0.650000X0.325000X0.650000X-0.325000X0.650000X0*%
%TD*%
%TA.AperFunction,SMDPad,CuDef*%
%ADD33RoundRect,0.250000X-0.325000X-1.100000X0.325000X-1.100000X0.325000X1.100000X-0.325000X1.100000X0*%
%TD*%
%TA.AperFunction,ComponentPad*%
%ADD34RoundRect,0.250000X0.600000X0.600000X-0.600000X0.600000X-0.600000X-0.600000X0.600000X-0.600000X0*%
%TD*%
%TA.AperFunction,SMDPad,CuDef*%
%ADD35RoundRect,0.150000X-0.150000X0.662500X-0.150000X-0.662500X0.150000X-0.662500X0.150000X0.662500X0*%
%TD*%
%TA.AperFunction,SMDPad,CuDef*%
%ADD36R,3.200000X2.514000*%
%TD*%
%TA.AperFunction,SMDPad,CuDef*%
%ADD37RoundRect,0.250000X-0.375000X-1.075000X0.375000X-1.075000X0.375000X1.075000X-0.375000X1.075000X0*%
%TD*%
%TA.AperFunction,SMDPad,CuDef*%
%ADD38RoundRect,0.150000X0.587500X0.150000X-0.587500X0.150000X-0.587500X-0.150000X0.587500X-0.150000X0*%
%TD*%
%TA.AperFunction,SMDPad,CuDef*%
%ADD39FreePoly0,90.000000*%
%TD*%
%TA.AperFunction,SMDPad,CuDef*%
%ADD40FreePoly1,90.000000*%
%TD*%
%TA.AperFunction,SMDPad,CuDef*%
%ADD41RoundRect,0.250000X-0.250000X-0.475000X0.250000X-0.475000X0.250000X0.475000X-0.250000X0.475000X0*%
%TD*%
%TA.AperFunction,SMDPad,CuDef*%
%ADD42RoundRect,0.250000X0.262500X0.450000X-0.262500X0.450000X-0.262500X-0.450000X0.262500X-0.450000X0*%
%TD*%
%TA.AperFunction,SMDPad,CuDef*%
%ADD43RoundRect,0.200000X-0.275000X0.200000X-0.275000X-0.200000X0.275000X-0.200000X0.275000X0.200000X0*%
%TD*%
%TA.AperFunction,SMDPad,CuDef*%
%ADD44RoundRect,0.150000X0.150000X-0.662500X0.150000X0.662500X-0.150000X0.662500X-0.150000X-0.662500X0*%
%TD*%
%TA.AperFunction,ComponentPad*%
%ADD45RoundRect,0.250000X-0.600000X0.850000X-0.600000X-0.850000X0.600000X-0.850000X0.600000X0.850000X0*%
%TD*%
%TA.AperFunction,ComponentPad*%
%ADD46O,1.700000X2.200000*%
%TD*%
%TA.AperFunction,SMDPad,CuDef*%
%ADD47RoundRect,0.200000X0.275000X-0.200000X0.275000X0.200000X-0.275000X0.200000X-0.275000X-0.200000X0*%
%TD*%
%TA.AperFunction,SMDPad,CuDef*%
%ADD48RoundRect,0.250000X0.325000X0.650000X-0.325000X0.650000X-0.325000X-0.650000X0.325000X-0.650000X0*%
%TD*%
%TA.AperFunction,SMDPad,CuDef*%
%ADD49R,0.450000X1.750000*%
%TD*%
%TA.AperFunction,SMDPad,CuDef*%
%ADD50RoundRect,0.250000X0.250000X0.475000X-0.250000X0.475000X-0.250000X-0.475000X0.250000X-0.475000X0*%
%TD*%
%TA.AperFunction,SMDPad,CuDef*%
%ADD51RoundRect,0.225000X0.250000X-0.225000X0.250000X0.225000X-0.250000X0.225000X-0.250000X-0.225000X0*%
%TD*%
%TA.AperFunction,SMDPad,CuDef*%
%ADD52RoundRect,0.250000X0.375000X1.075000X-0.375000X1.075000X-0.375000X-1.075000X0.375000X-1.075000X0*%
%TD*%
%TA.AperFunction,SMDPad,CuDef*%
%ADD53RoundRect,0.225000X-0.450000X-0.225000X0.450000X-0.225000X0.450000X0.225000X-0.450000X0.225000X0*%
%TD*%
%TA.AperFunction,SMDPad,CuDef*%
%ADD54RoundRect,0.075000X0.075000X-0.875000X0.075000X0.875000X-0.075000X0.875000X-0.075000X-0.875000X0*%
%TD*%
%TA.AperFunction,ComponentPad*%
%ADD55RoundRect,0.250000X0.600000X-0.850000X0.600000X0.850000X-0.600000X0.850000X-0.600000X-0.850000X0*%
%TD*%
%TA.AperFunction,SMDPad,CuDef*%
%ADD56RoundRect,0.250000X-0.475000X0.250000X-0.475000X-0.250000X0.475000X-0.250000X0.475000X0.250000X0*%
%TD*%
%TA.AperFunction,SMDPad,CuDef*%
%ADD57RoundRect,0.225000X-0.225000X-0.250000X0.225000X-0.250000X0.225000X0.250000X-0.225000X0.250000X0*%
%TD*%
%TA.AperFunction,SMDPad,CuDef*%
%ADD58RoundRect,0.250000X-1.100000X0.325000X-1.100000X-0.325000X1.100000X-0.325000X1.100000X0.325000X0*%
%TD*%
%TA.AperFunction,ComponentPad*%
%ADD59RoundRect,0.250001X-0.759999X0.499999X-0.759999X-0.499999X0.759999X-0.499999X0.759999X0.499999X0*%
%TD*%
%TA.AperFunction,SMDPad,CuDef*%
%ADD60RoundRect,0.075000X-0.075000X0.875000X-0.075000X-0.875000X0.075000X-0.875000X0.075000X0.875000X0*%
%TD*%
%TA.AperFunction,ComponentPad*%
%ADD61R,1.700000X1.700000*%
%TD*%
%TA.AperFunction,ComponentPad*%
%ADD62O,1.700000X1.700000*%
%TD*%
%TA.AperFunction,SMDPad,CuDef*%
%ADD63R,2.790000X0.740000*%
%TD*%
%TA.AperFunction,SMDPad,CuDef*%
%ADD64RoundRect,0.250000X-0.262500X-0.450000X0.262500X-0.450000X0.262500X0.450000X-0.262500X0.450000X0*%
%TD*%
%TA.AperFunction,SMDPad,CuDef*%
%ADD65RoundRect,0.218750X-0.256250X0.218750X-0.256250X-0.218750X0.256250X-0.218750X0.256250X0.218750X0*%
%TD*%
%TA.AperFunction,SMDPad,CuDef*%
%ADD66RoundRect,0.250000X1.100000X-0.325000X1.100000X0.325000X-1.100000X0.325000X-1.100000X-0.325000X0*%
%TD*%
%TA.AperFunction,SMDPad,CuDef*%
%ADD67RoundRect,0.160000X-0.160000X-0.475000X0.160000X-0.475000X0.160000X0.475000X-0.160000X0.475000X0*%
%TD*%
%TA.AperFunction,ViaPad*%
%ADD68C,0.550000*%
%TD*%
%TA.AperFunction,ViaPad*%
%ADD69C,0.800000*%
%TD*%
%TA.AperFunction,Conductor*%
%ADD70C,0.250000*%
%TD*%
%TA.AperFunction,Conductor*%
%ADD71C,0.350000*%
%TD*%
%TA.AperFunction,Conductor*%
%ADD72C,0.400000*%
%TD*%
G04 APERTURE END LIST*
D10*
X107300000Y-100800000D02*
X108900000Y-101200000D01*
X167700000Y-89900000D02*
X166100000Y-89500000D01*
D11*
X167037500Y-85800000D02*
G75*
G03*
X167037500Y-85800000I-137500J0D01*
G01*
D10*
X108900000Y-99600000D02*
X107300000Y-100000000D01*
X166100000Y-88700000D02*
X167700000Y-88300000D01*
X166100000Y-87100000D02*
X166900000Y-86700000D01*
D11*
X108237500Y-103300000D02*
G75*
G03*
X108237500Y-103300000I-137500J0D01*
G01*
D10*
X107300000Y-99200000D02*
X108900000Y-99600000D01*
X167700000Y-87500000D02*
X166100000Y-87100000D01*
X108900000Y-102000000D02*
X108100000Y-102400000D01*
X166900000Y-90300000D02*
X167700000Y-89900000D01*
X166900000Y-91200000D02*
X166900000Y-90300000D01*
X108900000Y-101200000D02*
X107300000Y-101600000D01*
X167700000Y-88300000D02*
X166100000Y-87900000D01*
X108900000Y-100400000D02*
X107300000Y-100800000D01*
D11*
X167037500Y-91200000D02*
G75*
G03*
X167037500Y-91200000I-137500J0D01*
G01*
X108237500Y-97900000D02*
G75*
G03*
X108237500Y-97900000I-137500J0D01*
G01*
D10*
X108100000Y-98800000D02*
X107300000Y-99200000D01*
X166100000Y-87900000D02*
X167700000Y-87500000D01*
X108100000Y-102400000D02*
X108100000Y-103300000D01*
X166900000Y-86700000D02*
X166900000Y-85800000D01*
X167700000Y-89100000D02*
X166100000Y-88700000D01*
X166100000Y-89500000D02*
X167700000Y-89100000D01*
X107300000Y-100000000D02*
X108900000Y-100400000D01*
X107300000Y-101600000D02*
X108900000Y-102000000D01*
X108100000Y-97900000D02*
X108100000Y-98800000D01*
D12*
%TO.P,U1,1,VDD*%
%TO.N,+3.3V*%
X133322000Y-117279700D03*
%TO.P,U1,2,PC14*%
%TO.N,unconnected-(U1-Pad2)*%
X132822000Y-117279700D03*
%TO.P,U1,3,PC15*%
%TO.N,unconnected-(U1-Pad3)*%
X132322000Y-117279700D03*
%TO.P,U1,4,NRST*%
%TO.N,/~{RESET}*%
X131822000Y-117279700D03*
%TO.P,U1,5,VDDA*%
%TO.N,+3.3V*%
X131322000Y-117279700D03*
%TO.P,U1,6,PA0*%
%TO.N,/CLK*%
X130822000Y-117279700D03*
%TO.P,U1,7,PA1*%
%TO.N,Net-(U1-Pad7)*%
X130322000Y-117279700D03*
%TO.P,U1,8,PA2*%
%TO.N,/UART2_TX*%
X129822000Y-117279700D03*
D13*
%TO.P,U1,9,PA3*%
%TO.N,/UART2_RX*%
X129134500Y-117967200D03*
%TO.P,U1,10,PA4*%
%TO.N,unconnected-(U1-Pad10)*%
X129134500Y-118467200D03*
%TO.P,U1,11,PA5*%
%TO.N,/IA+_A*%
X129134500Y-118967200D03*
%TO.P,U1,12,PA6*%
%TO.N,/MISO*%
X129134500Y-119467200D03*
%TO.P,U1,13,PA7*%
%TO.N,/MOSI*%
X129134500Y-119967200D03*
%TO.P,U1,14,PB0*%
%TO.N,/CS*%
X129134500Y-120467200D03*
%TO.P,U1,15,PB1*%
%TO.N,unconnected-(U1-Pad15)*%
X129134500Y-120967200D03*
%TO.P,U1,16,VSS*%
%TO.N,GND*%
X129134500Y-121467200D03*
D12*
%TO.P,U1,17,VDD*%
%TO.N,+3.3V*%
X129822000Y-122154700D03*
%TO.P,U1,18,PA8*%
%TO.N,Net-(U1-Pad18)*%
X130322000Y-122154700D03*
%TO.P,U1,19,PA9*%
%TO.N,Net-(U1-Pad19)*%
X130822000Y-122154700D03*
%TO.P,U1,20,PA10*%
%TO.N,Net-(U1-Pad20)*%
X131322000Y-122154700D03*
%TO.P,U1,21,PA11*%
%TO.N,unconnected-(U1-Pad21)*%
X131822000Y-122154700D03*
%TO.P,U1,22,PA12*%
%TO.N,unconnected-(U1-Pad22)*%
X132322000Y-122154700D03*
%TO.P,U1,23,PA13*%
%TO.N,/SWDIO*%
X132822000Y-122154700D03*
%TO.P,U1,24,PA14*%
%TO.N,/SWCLK*%
X133322000Y-122154700D03*
D13*
%TO.P,U1,25,PA15*%
%TO.N,/TDI*%
X134009500Y-121467200D03*
%TO.P,U1,26,PB3*%
%TO.N,/SWO*%
X134009500Y-120967200D03*
%TO.P,U1,27,PB4*%
%TO.N,unconnected-(U1-Pad27)*%
X134009500Y-120467200D03*
%TO.P,U1,28,PB5*%
%TO.N,unconnected-(U1-Pad28)*%
X134009500Y-119967200D03*
%TO.P,U1,29,PB6*%
%TO.N,unconnected-(U1-Pad29)*%
X134009500Y-119467200D03*
%TO.P,U1,30,PB7*%
%TO.N,Net-(D1-Pad2)*%
X134009500Y-118967200D03*
%TO.P,U1,31,PH3*%
%TO.N,GND*%
X134009500Y-118467200D03*
%TO.P,U1,32,VSS*%
X134009500Y-117967200D03*
D14*
%TO.P,U1,33,VSS*%
X131572000Y-119717200D03*
%TD*%
D15*
%TO.P,R3,1*%
%TO.N,/StackA/CC00*%
X110439200Y-91848300D03*
%TO.P,R3,2*%
%TO.N,/StackA/C00*%
X110439200Y-93673300D03*
%TD*%
D16*
%TO.P,JP3,1,A*%
%TO.N,+5V*%
X120335300Y-120620000D03*
D17*
%TO.P,JP3,2,C*%
%TO.N,/StackA/A2*%
X120335300Y-121920000D03*
D18*
%TO.P,JP3,3,B*%
%TO.N,GND*%
X120335300Y-123220000D03*
%TD*%
D19*
%TO.P,RN8,1,R1.1*%
%TO.N,+5V*%
X102000000Y-87500000D03*
D20*
%TO.P,RN8,2,R2.1*%
X101200000Y-87500000D03*
%TO.P,RN8,3,R3.1*%
X100400000Y-87500000D03*
D19*
%TO.P,RN8,4,R4.1*%
X99600000Y-87500000D03*
%TO.P,RN8,5,R4.2*%
%TO.N,Net-(CN5-Pad5)*%
X99600000Y-89300000D03*
D20*
%TO.P,RN8,6,R3.2*%
%TO.N,Net-(CN5-Pad6)*%
X100400000Y-89300000D03*
%TO.P,RN8,7,R2.2*%
%TO.N,Net-(CN5-Pad7)*%
X101200000Y-89300000D03*
D19*
%TO.P,RN8,8,R1.2*%
%TO.N,Net-(CN5-Pad8)*%
X102000000Y-89300000D03*
%TD*%
D21*
%TO.P,F21,1*%
%TO.N,/StackB/CC09*%
X172968000Y-119634000D03*
%TO.P,F21,2*%
%TO.N,Net-(F21-Pad2)*%
X175768000Y-119634000D03*
%TD*%
D22*
%TO.P,R16,1*%
%TO.N,/StackB/CC00*%
X164592000Y-97229300D03*
%TO.P,R16,2*%
%TO.N,/StackB/C00*%
X164592000Y-95404300D03*
%TD*%
D23*
%TO.P,Fa10,1*%
%TO.N,/StackA/CC10*%
X96954800Y-67564000D03*
%TO.P,Fa10,2*%
%TO.N,Net-(Fa10-Pad2)*%
X94154800Y-67564000D03*
%TD*%
D16*
%TO.P,JP5,1,A*%
%TO.N,+5V*%
X109768900Y-120620000D03*
D17*
%TO.P,JP5,2,C*%
%TO.N,/StackA/DTEN*%
X109768900Y-121920000D03*
D18*
%TO.P,JP5,3,B*%
%TO.N,GND*%
X109768900Y-123220000D03*
%TD*%
D23*
%TO.P,Fa8,1*%
%TO.N,/StackA/CC08*%
X96954800Y-70154800D03*
%TO.P,Fa8,2*%
%TO.N,Net-(Fa8-Pad2)*%
X94154800Y-70154800D03*
%TD*%
%TO.P,Fa3,1*%
%TO.N,/StackA/CC03*%
X101984000Y-77266800D03*
%TO.P,Fa3,2*%
%TO.N,Net-(Fa3-Pad2)*%
X99184000Y-77266800D03*
%TD*%
D24*
%TO.P,C25,1*%
%TO.N,Net-(C25-Pad1)*%
X104275000Y-113800000D03*
%TO.P,C25,2*%
%TO.N,Net-(C25-Pad2)*%
X102725000Y-113800000D03*
%TD*%
D15*
%TO.P,R4,1*%
%TO.N,/StackA/VDD*%
X125800000Y-97687500D03*
%TO.P,R4,2*%
%TO.N,Net-(C11-Pad1)*%
X125800000Y-99512500D03*
%TD*%
D19*
%TO.P,CN3,1,R1.1*%
%TO.N,/StackA/C00*%
X112100000Y-97000000D03*
D20*
%TO.P,CN3,2,R2.1*%
%TO.N,/StackA/C01*%
X112900000Y-97000000D03*
%TO.P,CN3,3,R3.1*%
%TO.N,/StackA/C02*%
X113700000Y-97000000D03*
D19*
%TO.P,CN3,4,R4.1*%
%TO.N,/StackA/C03*%
X114500000Y-97000000D03*
%TO.P,CN3,5,R4.2*%
%TO.N,/StackA/C04*%
X114500000Y-95200000D03*
D20*
%TO.P,CN3,6,R3.2*%
%TO.N,/StackA/C03*%
X113700000Y-95200000D03*
%TO.P,CN3,7,R2.2*%
%TO.N,/StackA/C02*%
X112900000Y-95200000D03*
D19*
%TO.P,CN3,8,R1.2*%
%TO.N,/StackA/C01*%
X112100000Y-95200000D03*
%TD*%
D21*
%TO.P,F22,1*%
%TO.N,/StackB/CC07*%
X172996400Y-116992400D03*
%TO.P,F22,2*%
%TO.N,Net-(F22-Pad2)*%
X175796400Y-116992400D03*
%TD*%
D25*
%TO.P,U8,1*%
%TO.N,/STACK_A_IA-*%
X138590000Y-113334800D03*
%TO.P,U8,2*%
%TO.N,unconnected-(U8-Pad2)*%
X138590000Y-110794800D03*
%TO.P,U8,3*%
%TO.N,/STACK_A_IA+*%
X138590000Y-108254800D03*
%TO.P,U8,4*%
%TO.N,/IA+_A*%
X130210000Y-108254800D03*
%TO.P,U8,5*%
%TO.N,/IAC_A*%
X130210000Y-110794800D03*
%TO.P,U8,6*%
%TO.N,/CS*%
X130210000Y-113334800D03*
%TD*%
D26*
%TO.P,C40,1*%
%TO.N,Net-(C40-Pad1)*%
X175100000Y-65750000D03*
%TO.P,C40,2*%
%TO.N,/StackB/GND*%
X175100000Y-63850000D03*
%TD*%
D19*
%TO.P,RN15,1,R1.1*%
%TO.N,/StackB/C05*%
X159100000Y-95300000D03*
D20*
%TO.P,RN15,2,R2.1*%
%TO.N,/StackB/C06*%
X158300000Y-95300000D03*
%TO.P,RN15,3,R3.1*%
%TO.N,/StackB/C07*%
X157500000Y-95300000D03*
D19*
%TO.P,RN15,4,R4.1*%
%TO.N,/StackB/C08*%
X156700000Y-95300000D03*
%TO.P,RN15,5,R4.2*%
%TO.N,/StackB/CC08*%
X156700000Y-97100000D03*
D20*
%TO.P,RN15,6,R3.2*%
%TO.N,/StackB/CC07*%
X157500000Y-97100000D03*
%TO.P,RN15,7,R2.2*%
%TO.N,/StackB/CC06*%
X158300000Y-97100000D03*
D19*
%TO.P,RN15,8,R1.2*%
%TO.N,/StackB/CC05*%
X159100000Y-97100000D03*
%TD*%
D27*
%TO.P,J10,1,Pin_1*%
%TO.N,Net-(CN12-Pad5)*%
X183600000Y-65100000D03*
D28*
%TO.P,J10,2,Pin_2*%
%TO.N,Net-(CN12-Pad6)*%
X183600000Y-67600000D03*
%TO.P,J10,3,Pin_3*%
%TO.N,Net-(CN12-Pad7)*%
X183600000Y-70100000D03*
%TO.P,J10,4,Pin_4*%
%TO.N,Net-(CN12-Pad8)*%
X183600000Y-72600000D03*
%TO.P,J10,5,Pin_5*%
%TO.N,Net-(CN13-Pad5)*%
X183600000Y-75100000D03*
%TO.P,J10,6,Pin_6*%
%TO.N,Net-(CN13-Pad6)*%
X183600000Y-77600000D03*
%TO.P,J10,7,Pin_7*%
%TO.N,Net-(CN13-Pad7)*%
X183600000Y-80100000D03*
%TO.P,J10,8,Pin_8*%
%TO.N,Net-(CN13-Pad8)*%
X183600000Y-82600000D03*
%TO.P,J10,9,Pin_9*%
%TO.N,/StackB/GND*%
X186100000Y-65100000D03*
%TO.P,J10,10,Pin_10*%
X186100000Y-67600000D03*
%TO.P,J10,11,Pin_11*%
X186100000Y-70100000D03*
%TO.P,J10,12,Pin_12*%
X186100000Y-72600000D03*
%TO.P,J10,13,Pin_13*%
X186100000Y-75100000D03*
%TO.P,J10,14,Pin_14*%
X186100000Y-77600000D03*
%TO.P,J10,15,Pin_15*%
X186100000Y-80100000D03*
%TO.P,J10,16,Pin_16*%
X186100000Y-82600000D03*
%TD*%
D22*
%TO.P,R17,1*%
%TO.N,/StackB/VDD*%
X149200000Y-91412500D03*
%TO.P,R17,2*%
%TO.N,Net-(C31-Pad1)*%
X149200000Y-89587500D03*
%TD*%
D29*
%TO.P,J2,1,Pin_1*%
%TO.N,/STACK_B_IB+*%
X133100000Y-69200000D03*
D30*
%TO.P,J2,2,Pin_2*%
%TO.N,/STACK_B_IB-*%
X133100000Y-66200000D03*
%TD*%
D31*
%TO.P,C15,1*%
%TO.N,GND*%
X103600000Y-97525000D03*
%TO.P,C15,2*%
%TO.N,+5V*%
X103600000Y-99075000D03*
%TD*%
D19*
%TO.P,RN6,1,R1.1*%
%TO.N,/StackA/C01*%
X112100000Y-93800000D03*
D20*
%TO.P,RN6,2,R2.1*%
%TO.N,/StackA/C02*%
X112900000Y-93800000D03*
%TO.P,RN6,3,R3.1*%
%TO.N,/StackA/C03*%
X113700000Y-93800000D03*
D19*
%TO.P,RN6,4,R4.1*%
%TO.N,/StackA/C04*%
X114500000Y-93800000D03*
%TO.P,RN6,5,R4.2*%
%TO.N,/StackA/CC04*%
X114500000Y-92000000D03*
D20*
%TO.P,RN6,6,R3.2*%
%TO.N,/StackA/CC03*%
X113700000Y-92000000D03*
%TO.P,RN6,7,R2.2*%
%TO.N,/StackA/CC02*%
X112900000Y-92000000D03*
D19*
%TO.P,RN6,8,R1.2*%
%TO.N,/StackA/CC01*%
X112100000Y-92000000D03*
%TD*%
D32*
%TO.P,C21,1*%
%TO.N,/StackA/PSU_INPUT*%
X98025000Y-113600000D03*
%TO.P,C21,2*%
%TO.N,GND*%
X100975000Y-113600000D03*
%TD*%
D22*
%TO.P,R14,1*%
%TO.N,/StackA/VDD*%
X96400000Y-118812500D03*
%TO.P,R14,2*%
%TO.N,/StackA/PSU_INPUT*%
X96400000Y-116987500D03*
%TD*%
D16*
%TO.P,JP6,1,A*%
%TO.N,+5V*%
X112410500Y-120620000D03*
D17*
%TO.P,JP6,2,C*%
%TO.N,/StackA/ISOMD*%
X112410500Y-121920000D03*
D18*
%TO.P,JP6,3,B*%
%TO.N,GND*%
X112410500Y-123220000D03*
%TD*%
D33*
%TO.P,C1,1*%
%TO.N,/StackA/A3*%
X131900400Y-87401400D03*
%TO.P,C1,2*%
%TO.N,Net-(C1-Pad2)*%
X134850400Y-87401400D03*
%TD*%
D34*
%TO.P,J6,1,Pin_1*%
%TO.N,Net-(CN6-Pad5)*%
X91400000Y-124000000D03*
D28*
%TO.P,J6,2,Pin_2*%
%TO.N,Net-(CN6-Pad6)*%
X91400000Y-121500000D03*
%TO.P,J6,3,Pin_3*%
%TO.N,Net-(CN6-Pad7)*%
X91400000Y-119000000D03*
%TO.P,J6,4,Pin_4*%
%TO.N,Net-(CN6-Pad8)*%
X91400000Y-116500000D03*
%TO.P,J6,5,Pin_5*%
%TO.N,Net-(CN7-Pad5)*%
X91400000Y-114000000D03*
%TO.P,J6,6,Pin_6*%
%TO.N,Net-(CN7-Pad6)*%
X91400000Y-111500000D03*
%TO.P,J6,7,Pin_7*%
%TO.N,Net-(CN7-Pad7)*%
X91400000Y-109000000D03*
%TO.P,J6,8,Pin_8*%
%TO.N,Net-(CN7-Pad8)*%
X91400000Y-106500000D03*
%TO.P,J6,9,Pin_9*%
%TO.N,GND*%
X88900000Y-124000000D03*
%TO.P,J6,10,Pin_10*%
X88900000Y-121500000D03*
%TO.P,J6,11,Pin_11*%
X88900000Y-119000000D03*
%TO.P,J6,12,Pin_12*%
X88900000Y-116500000D03*
%TO.P,J6,13,Pin_13*%
X88900000Y-114000000D03*
%TO.P,J6,14,Pin_14*%
X88900000Y-111500000D03*
%TO.P,J6,15,Pin_15*%
X88900000Y-109000000D03*
%TO.P,J6,16,Pin_16*%
X88900000Y-106500000D03*
%TD*%
D35*
%TO.P,U11,1,EN*%
%TO.N,/StackB/DRIVE*%
X175305000Y-67762500D03*
%TO.P,U11,2,VCC*%
%TO.N,Net-(C40-Pad1)*%
X174035000Y-67762500D03*
%TO.P,U11,3,FREQ*%
%TO.N,Net-(R21-Pad2)*%
X172765000Y-67762500D03*
%TO.P,U11,4,FB*%
%TO.N,Net-(C46-Pad2)*%
X171495000Y-67762500D03*
%TO.P,U11,5,BST*%
%TO.N,Net-(C45-Pad1)*%
X171495000Y-73037500D03*
%TO.P,U11,6,SW*%
%TO.N,Net-(C45-Pad2)*%
X172765000Y-73037500D03*
%TO.P,U11,7,GND*%
%TO.N,/StackB/GND*%
X174035000Y-73037500D03*
%TO.P,U11,8,VIN*%
%TO.N,/StackB/PSU_INPUT*%
X175305000Y-73037500D03*
D36*
%TO.P,U11,9,EP*%
%TO.N,/StackB/GND*%
X173400000Y-70400000D03*
%TD*%
D19*
%TO.P,CN9,1,R1.1*%
%TO.N,/StackB/C04*%
X159100000Y-92100000D03*
D20*
%TO.P,CN9,2,R2.1*%
%TO.N,/StackB/C05*%
X158300000Y-92100000D03*
%TO.P,CN9,3,R3.1*%
%TO.N,/StackB/C06*%
X157500000Y-92100000D03*
D19*
%TO.P,CN9,4,R4.1*%
%TO.N,/StackB/C07*%
X156700000Y-92100000D03*
%TO.P,CN9,5,R4.2*%
%TO.N,/StackB/C08*%
X156700000Y-93900000D03*
D20*
%TO.P,CN9,6,R3.2*%
%TO.N,/StackB/C07*%
X157500000Y-93900000D03*
%TO.P,CN9,7,R2.2*%
%TO.N,/StackB/C06*%
X158300000Y-93900000D03*
D19*
%TO.P,CN9,8,R1.2*%
%TO.N,/StackB/C05*%
X159100000Y-93900000D03*
%TD*%
D37*
%TO.P,L2,1,1*%
%TO.N,Net-(C25-Pad2)*%
X102900000Y-111200000D03*
%TO.P,L2,2,2*%
%TO.N,+5V*%
X105700000Y-111200000D03*
%TD*%
D25*
%TO.P,U13,1*%
%TO.N,/STACK_B_IA-*%
X136410000Y-78960000D03*
%TO.P,U13,2*%
%TO.N,unconnected-(U13-Pad2)*%
X136410000Y-81500000D03*
%TO.P,U13,3*%
%TO.N,/STACK_B_IA+*%
X136410000Y-84040000D03*
%TO.P,U13,4*%
%TO.N,/StackB/IA+*%
X144790000Y-84040000D03*
%TO.P,U13,5*%
%TO.N,/StackB/IAC*%
X144790000Y-81500000D03*
%TO.P,U13,6*%
%TO.N,/StackB/CSB*%
X144790000Y-78960000D03*
%TD*%
D38*
%TO.P,U2,1,Vout*%
%TO.N,+3.3V*%
X127429500Y-123428800D03*
%TO.P,U2,2,Vin*%
%TO.N,+5V*%
X127429500Y-121528800D03*
%TO.P,U2,3,GND*%
%TO.N,GND*%
X125554500Y-122478800D03*
%TD*%
D34*
%TO.P,J5,1,Pin_1*%
%TO.N,Net-(Fa0-Pad2)*%
X91400000Y-80000000D03*
D28*
%TO.P,J5,2,Pin_2*%
%TO.N,Net-(Fa2-Pad2)*%
X91400000Y-77500000D03*
%TO.P,J5,3,Pin_3*%
%TO.N,Net-(Fa4-Pad2)*%
X91400000Y-75000000D03*
%TO.P,J5,4,Pin_4*%
%TO.N,Net-(Fa6-Pad2)*%
X91400000Y-72500000D03*
%TO.P,J5,5,Pin_5*%
%TO.N,Net-(Fa8-Pad2)*%
X91400000Y-70000000D03*
%TO.P,J5,6,Pin_6*%
%TO.N,Net-(Fa10-Pad2)*%
X91400000Y-67500000D03*
%TO.P,J5,7,Pin_7*%
%TO.N,Net-(Fa12-Pad2)*%
X91400000Y-65000000D03*
%TO.P,J5,8,Pin_8*%
%TO.N,Net-(Fa1-Pad2)*%
X88900000Y-80000000D03*
%TO.P,J5,9,Pin_9*%
%TO.N,Net-(Fa3-Pad2)*%
X88900000Y-77500000D03*
%TO.P,J5,10,Pin_10*%
%TO.N,Net-(Fa5-Pad2)*%
X88900000Y-75000000D03*
%TO.P,J5,11,Pin_11*%
%TO.N,Net-(Fa7-Pad2)*%
X88900000Y-72500000D03*
%TO.P,J5,12,Pin_12*%
%TO.N,Net-(Fa9-Pad2)*%
X88900000Y-70000000D03*
%TO.P,J5,13,Pin_13*%
%TO.N,Net-(Fa11-Pad2)*%
X88900000Y-67500000D03*
%TO.P,J5,14,Pin_14*%
%TO.N,unconnected-(J5-Pad14)*%
X88900000Y-65000000D03*
%TD*%
D32*
%TO.P,C19,1*%
%TO.N,/StackA/PSU_INPUT*%
X98025000Y-111200000D03*
%TO.P,C19,2*%
%TO.N,GND*%
X100975000Y-111200000D03*
%TD*%
D23*
%TO.P,Fa2,1*%
%TO.N,/StackA/CC02*%
X96954800Y-77927200D03*
%TO.P,Fa2,2*%
%TO.N,Net-(Fa2-Pad2)*%
X94154800Y-77927200D03*
%TD*%
%TO.P,Fa13,1*%
%TO.N,/StackA/VDD*%
X102034800Y-63703200D03*
%TO.P,Fa13,2*%
%TO.N,Net-(Fa12-Pad2)*%
X99234800Y-63703200D03*
%TD*%
%TO.P,Fa7,1*%
%TO.N,/StackA/CC07*%
X101984000Y-72085200D03*
%TO.P,Fa7,2*%
%TO.N,Net-(Fa7-Pad2)*%
X99184000Y-72085200D03*
%TD*%
D39*
%TO.P,JP12,1,A*%
%TO.N,/StackB/VCC*%
X160283900Y-68500000D03*
D17*
%TO.P,JP12,2,C*%
%TO.N,/StackB/ISOMD*%
X160283900Y-67200000D03*
D40*
%TO.P,JP12,3,B*%
%TO.N,/StackB/GND*%
X160283900Y-65900000D03*
%TD*%
D23*
%TO.P,Fa11,1*%
%TO.N,/StackA/CC11*%
X102034800Y-66802000D03*
%TO.P,Fa11,2*%
%TO.N,Net-(Fa11-Pad2)*%
X99234800Y-66802000D03*
%TD*%
D19*
%TO.P,RN18,1,R1.1*%
%TO.N,/StackB/VCC*%
X176800000Y-101600000D03*
D20*
%TO.P,RN18,2,R2.1*%
X177600000Y-101600000D03*
%TO.P,RN18,3,R3.1*%
X178400000Y-101600000D03*
D19*
%TO.P,RN18,4,R4.1*%
X179200000Y-101600000D03*
%TO.P,RN18,5,R4.2*%
%TO.N,Net-(CN10-Pad5)*%
X179200000Y-99800000D03*
D20*
%TO.P,RN18,6,R3.2*%
%TO.N,Net-(CN10-Pad6)*%
X178400000Y-99800000D03*
%TO.P,RN18,7,R2.2*%
%TO.N,Net-(CN10-Pad7)*%
X177600000Y-99800000D03*
D19*
%TO.P,RN18,8,R1.2*%
%TO.N,Net-(CN10-Pad8)*%
X176800000Y-99800000D03*
%TD*%
D41*
%TO.P,C49,1*%
%TO.N,/StackB/VCC*%
X167150000Y-73000000D03*
%TO.P,C49,2*%
%TO.N,/StackB/GND*%
X169050000Y-73000000D03*
%TD*%
D42*
%TO.P,FB1,1*%
%TO.N,Net-(FB1-Pad1)*%
X102106100Y-84836000D03*
%TO.P,FB1,2*%
%TO.N,GND*%
X100281100Y-84836000D03*
%TD*%
D27*
%TO.P,J9,1,Pin_1*%
%TO.N,Net-(F19-Pad2)*%
X183600000Y-109100000D03*
D28*
%TO.P,J9,2,Pin_2*%
%TO.N,Net-(F18-Pad2)*%
X183600000Y-111600000D03*
%TO.P,J9,3,Pin_3*%
%TO.N,Net-(F17-Pad2)*%
X183600000Y-114100000D03*
%TO.P,J9,4,Pin_4*%
%TO.N,Net-(F16-Pad2)*%
X183600000Y-116600000D03*
%TO.P,J9,5,Pin_5*%
%TO.N,Net-(F15-Pad2)*%
X183600000Y-119100000D03*
%TO.P,J9,6,Pin_6*%
%TO.N,Net-(F14-Pad2)*%
X183600000Y-121600000D03*
%TO.P,J9,7,Pin_7*%
%TO.N,Net-(F13-Pad2)*%
X183600000Y-124100000D03*
%TO.P,J9,8,Pin_8*%
%TO.N,Net-(F25-Pad2)*%
X186100000Y-109100000D03*
%TO.P,J9,9,Pin_9*%
%TO.N,Net-(F24-Pad2)*%
X186100000Y-111600000D03*
%TO.P,J9,10,Pin_10*%
%TO.N,Net-(F23-Pad2)*%
X186100000Y-114100000D03*
%TO.P,J9,11,Pin_11*%
%TO.N,Net-(F22-Pad2)*%
X186100000Y-116600000D03*
%TO.P,J9,12,Pin_12*%
%TO.N,Net-(F21-Pad2)*%
X186100000Y-119100000D03*
%TO.P,J9,13,Pin_13*%
%TO.N,Net-(F20-Pad2)*%
X186100000Y-121600000D03*
%TO.P,J9,14,Pin_14*%
%TO.N,unconnected-(J9-Pad14)*%
X186100000Y-124100000D03*
%TD*%
D29*
%TO.P,J1,1,Pin_1*%
%TO.N,/STACK_B_IA+*%
X133096000Y-81915000D03*
D30*
%TO.P,J1,2,Pin_2*%
%TO.N,/STACK_B_IA-*%
X133096000Y-78915000D03*
%TD*%
D43*
%TO.P,R21,1*%
%TO.N,/StackB/GND*%
X173300000Y-63975000D03*
%TO.P,R21,2*%
%TO.N,Net-(R21-Pad2)*%
X173300000Y-65625000D03*
%TD*%
D44*
%TO.P,U7,1,EN*%
%TO.N,/StackA/DRIVE*%
X99695000Y-121337500D03*
%TO.P,U7,2,VCC*%
%TO.N,Net-(C20-Pad1)*%
X100965000Y-121337500D03*
%TO.P,U7,3,FREQ*%
%TO.N,Net-(R8-Pad2)*%
X102235000Y-121337500D03*
%TO.P,U7,4,FB*%
%TO.N,Net-(C26-Pad2)*%
X103505000Y-121337500D03*
%TO.P,U7,5,BST*%
%TO.N,Net-(C25-Pad1)*%
X103505000Y-116062500D03*
%TO.P,U7,6,SW*%
%TO.N,Net-(C25-Pad2)*%
X102235000Y-116062500D03*
%TO.P,U7,7,GND*%
%TO.N,GND*%
X100965000Y-116062500D03*
%TO.P,U7,8,VIN*%
%TO.N,/StackA/PSU_INPUT*%
X99695000Y-116062500D03*
D36*
%TO.P,U7,9,EP*%
%TO.N,GND*%
X101600000Y-118700000D03*
%TD*%
D45*
%TO.P,J8,1,Pin_1*%
%TO.N,+5V*%
X125750000Y-115430000D03*
D46*
%TO.P,J8,2,Pin_2*%
%TO.N,GND*%
X123250000Y-115430000D03*
%TO.P,J8,3,Pin_3*%
%TO.N,/MISO*%
X120750000Y-115430000D03*
%TO.P,J8,4,Pin_4*%
%TO.N,/MOSI*%
X118250000Y-115430000D03*
%TO.P,J8,5,Pin_5*%
%TO.N,/IA+_A*%
X115750000Y-115430000D03*
%TO.P,J8,6,Pin_6*%
%TO.N,/CS*%
X113250000Y-115430000D03*
%TD*%
D47*
%TO.P,R8,1*%
%TO.N,GND*%
X101700000Y-125335800D03*
%TO.P,R8,2*%
%TO.N,Net-(R8-Pad2)*%
X101700000Y-123685800D03*
%TD*%
D19*
%TO.P,CN2,1,R1.1*%
%TO.N,/StackA/C04*%
X115900000Y-97000000D03*
D20*
%TO.P,CN2,2,R2.1*%
%TO.N,/StackA/C05*%
X116700000Y-97000000D03*
%TO.P,CN2,3,R3.1*%
%TO.N,/StackA/C06*%
X117500000Y-97000000D03*
D19*
%TO.P,CN2,4,R4.1*%
%TO.N,/StackA/C07*%
X118300000Y-97000000D03*
%TO.P,CN2,5,R4.2*%
%TO.N,/StackA/C08*%
X118300000Y-95200000D03*
D20*
%TO.P,CN2,6,R3.2*%
%TO.N,/StackA/C07*%
X117500000Y-95200000D03*
%TO.P,CN2,7,R2.2*%
%TO.N,/StackA/C06*%
X116700000Y-95200000D03*
D19*
%TO.P,CN2,8,R1.2*%
%TO.N,/StackA/C05*%
X115900000Y-95200000D03*
%TD*%
D48*
%TO.P,C41,1*%
%TO.N,/StackB/PSU_INPUT*%
X176975000Y-75500000D03*
%TO.P,C41,2*%
%TO.N,/StackB/GND*%
X174025000Y-75500000D03*
%TD*%
D21*
%TO.P,F16,1*%
%TO.N,/StackB/CC06*%
X178025600Y-116332000D03*
%TO.P,F16,2*%
%TO.N,Net-(F16-Pad2)*%
X180825600Y-116332000D03*
%TD*%
D49*
%TO.P,U10,1,COM*%
%TO.N,/StackB/MUX_OUT*%
X173125000Y-96900000D03*
%TO.P,U10,2,I7*%
%TO.N,Net-(CN11-Pad8)*%
X173775000Y-96900000D03*
%TO.P,U10,3,I6*%
%TO.N,Net-(CN11-Pad7)*%
X174425000Y-96900000D03*
%TO.P,U10,4,I5*%
%TO.N,Net-(CN11-Pad6)*%
X175075000Y-96900000D03*
%TO.P,U10,5,I4*%
%TO.N,Net-(CN11-Pad5)*%
X175725000Y-96900000D03*
%TO.P,U10,6,I3*%
%TO.N,Net-(CN10-Pad8)*%
X176375000Y-96900000D03*
%TO.P,U10,7,I2*%
%TO.N,Net-(CN10-Pad7)*%
X177025000Y-96900000D03*
%TO.P,U10,8,I1*%
%TO.N,Net-(CN10-Pad6)*%
X177675000Y-96900000D03*
%TO.P,U10,9,I0*%
%TO.N,Net-(CN10-Pad5)*%
X178325000Y-96900000D03*
%TO.P,U10,10,S0*%
%TO.N,/StackB/MUX_A0*%
X178975000Y-96900000D03*
%TO.P,U10,11,S1*%
%TO.N,/StackB/MUX_A1*%
X179625000Y-96900000D03*
%TO.P,U10,12,GND*%
%TO.N,/StackB/GND*%
X180275000Y-96900000D03*
%TO.P,U10,13,S3*%
%TO.N,/StackB/MUX_A3*%
X180275000Y-89700000D03*
%TO.P,U10,14,S2*%
%TO.N,/StackB/MUX_A2*%
X179625000Y-89700000D03*
%TO.P,U10,15,~{E}*%
%TO.N,/StackB/VCC*%
X178975000Y-89700000D03*
%TO.P,U10,16,I15*%
%TO.N,Net-(CN13-Pad8)*%
X178325000Y-89700000D03*
%TO.P,U10,17,I14*%
%TO.N,Net-(CN13-Pad7)*%
X177675000Y-89700000D03*
%TO.P,U10,18,I13*%
%TO.N,Net-(CN13-Pad6)*%
X177025000Y-89700000D03*
%TO.P,U10,19,I12*%
%TO.N,Net-(CN13-Pad5)*%
X176375000Y-89700000D03*
%TO.P,U10,20,I11*%
%TO.N,Net-(CN12-Pad8)*%
X175725000Y-89700000D03*
%TO.P,U10,21,I10*%
%TO.N,Net-(CN12-Pad7)*%
X175075000Y-89700000D03*
%TO.P,U10,22,I9*%
%TO.N,Net-(CN12-Pad6)*%
X174425000Y-89700000D03*
%TO.P,U10,23,I8*%
%TO.N,Net-(CN12-Pad5)*%
X173775000Y-89700000D03*
%TO.P,U10,24,VCC*%
%TO.N,/StackB/VCC*%
X173125000Y-89700000D03*
%TD*%
D19*
%TO.P,CN1,1,R1.1*%
%TO.N,/StackA/C08*%
X119700000Y-97000000D03*
D20*
%TO.P,CN1,2,R2.1*%
%TO.N,/StackA/C09*%
X120500000Y-97000000D03*
%TO.P,CN1,3,R3.1*%
%TO.N,/StackA/C10*%
X121300000Y-97000000D03*
D19*
%TO.P,CN1,4,R4.1*%
%TO.N,/StackA/C11*%
X122100000Y-97000000D03*
%TO.P,CN1,5,R4.2*%
%TO.N,/StackA/C12*%
X122100000Y-95200000D03*
D20*
%TO.P,CN1,6,R3.2*%
%TO.N,/StackA/C11*%
X121300000Y-95200000D03*
%TO.P,CN1,7,R2.2*%
%TO.N,/StackA/C10*%
X120500000Y-95200000D03*
D19*
%TO.P,CN1,8,R1.2*%
%TO.N,/StackA/C09*%
X119700000Y-95200000D03*
%TD*%
D50*
%TO.P,C29,1*%
%TO.N,+5V*%
X107850000Y-116100000D03*
%TO.P,C29,2*%
%TO.N,GND*%
X105950000Y-116100000D03*
%TD*%
D43*
%TO.P,R26,1*%
%TO.N,/StackB/GND*%
X171700000Y-63975000D03*
%TO.P,R26,2*%
%TO.N,Net-(C46-Pad2)*%
X171700000Y-65625000D03*
%TD*%
D51*
%TO.P,C46,1*%
%TO.N,/StackB/VCC*%
X170100000Y-65575000D03*
%TO.P,C46,2*%
%TO.N,Net-(C46-Pad2)*%
X170100000Y-64025000D03*
%TD*%
D49*
%TO.P,U6,1,COM*%
%TO.N,/StackA/MUX_OUT*%
X101875000Y-92200000D03*
%TO.P,U6,2,I7*%
%TO.N,Net-(CN5-Pad8)*%
X101225000Y-92200000D03*
%TO.P,U6,3,I6*%
%TO.N,Net-(CN5-Pad7)*%
X100575000Y-92200000D03*
%TO.P,U6,4,I5*%
%TO.N,Net-(CN5-Pad6)*%
X99925000Y-92200000D03*
%TO.P,U6,5,I4*%
%TO.N,Net-(CN5-Pad5)*%
X99275000Y-92200000D03*
%TO.P,U6,6,I3*%
%TO.N,Net-(CN4-Pad8)*%
X98625000Y-92200000D03*
%TO.P,U6,7,I2*%
%TO.N,Net-(CN4-Pad7)*%
X97975000Y-92200000D03*
%TO.P,U6,8,I1*%
%TO.N,Net-(CN4-Pad6)*%
X97325000Y-92200000D03*
%TO.P,U6,9,I0*%
%TO.N,Net-(CN4-Pad5)*%
X96675000Y-92200000D03*
%TO.P,U6,10,S0*%
%TO.N,/StackA/MUX_A0*%
X96025000Y-92200000D03*
%TO.P,U6,11,S1*%
%TO.N,/StackA/MUX_A1*%
X95375000Y-92200000D03*
%TO.P,U6,12,GND*%
%TO.N,GND*%
X94725000Y-92200000D03*
%TO.P,U6,13,S3*%
%TO.N,/StackA/MUX_A3*%
X94725000Y-99400000D03*
%TO.P,U6,14,S2*%
%TO.N,/StackA/MUX_A2*%
X95375000Y-99400000D03*
%TO.P,U6,15,~{E}*%
%TO.N,+5V*%
X96025000Y-99400000D03*
%TO.P,U6,16,I15*%
%TO.N,Net-(CN7-Pad8)*%
X96675000Y-99400000D03*
%TO.P,U6,17,I14*%
%TO.N,Net-(CN7-Pad7)*%
X97325000Y-99400000D03*
%TO.P,U6,18,I13*%
%TO.N,Net-(CN7-Pad6)*%
X97975000Y-99400000D03*
%TO.P,U6,19,I12*%
%TO.N,Net-(CN7-Pad5)*%
X98625000Y-99400000D03*
%TO.P,U6,20,I11*%
%TO.N,Net-(CN6-Pad8)*%
X99275000Y-99400000D03*
%TO.P,U6,21,I10*%
%TO.N,Net-(CN6-Pad7)*%
X99925000Y-99400000D03*
%TO.P,U6,22,I9*%
%TO.N,Net-(CN6-Pad6)*%
X100575000Y-99400000D03*
%TO.P,U6,23,I8*%
%TO.N,Net-(CN6-Pad5)*%
X101225000Y-99400000D03*
%TO.P,U6,24,VCC*%
%TO.N,+5V*%
X101875000Y-99400000D03*
%TD*%
D19*
%TO.P,CN14,1,R1.1*%
%TO.N,/StackB/C00*%
X162900000Y-92100000D03*
D20*
%TO.P,CN14,2,R2.1*%
%TO.N,/StackB/C01*%
X162100000Y-92100000D03*
%TO.P,CN14,3,R3.1*%
%TO.N,/StackB/C02*%
X161300000Y-92100000D03*
D19*
%TO.P,CN14,4,R4.1*%
%TO.N,/StackB/C03*%
X160500000Y-92100000D03*
%TO.P,CN14,5,R4.2*%
%TO.N,/StackB/C04*%
X160500000Y-93900000D03*
D20*
%TO.P,CN14,6,R3.2*%
%TO.N,/StackB/C03*%
X161300000Y-93900000D03*
%TO.P,CN14,7,R2.2*%
%TO.N,/StackB/C02*%
X162100000Y-93900000D03*
D19*
%TO.P,CN14,8,R1.2*%
%TO.N,/StackB/C01*%
X162900000Y-93900000D03*
%TD*%
%TO.P,RN9,1,R1.1*%
%TO.N,+5V*%
X99600000Y-104100000D03*
D20*
%TO.P,RN9,2,R2.1*%
X100400000Y-104100000D03*
%TO.P,RN9,3,R3.1*%
X101200000Y-104100000D03*
D19*
%TO.P,RN9,4,R4.1*%
X102000000Y-104100000D03*
%TO.P,RN9,5,R4.2*%
%TO.N,Net-(CN6-Pad5)*%
X102000000Y-102300000D03*
D20*
%TO.P,RN9,6,R3.2*%
%TO.N,Net-(CN6-Pad6)*%
X101200000Y-102300000D03*
%TO.P,RN9,7,R2.2*%
%TO.N,Net-(CN6-Pad7)*%
X100400000Y-102300000D03*
D19*
%TO.P,RN9,8,R1.2*%
%TO.N,Net-(CN6-Pad8)*%
X99600000Y-102300000D03*
%TD*%
D52*
%TO.P,L3,1,1*%
%TO.N,Net-(C45-Pad2)*%
X172100000Y-77900000D03*
%TO.P,L3,2,2*%
%TO.N,/StackB/VCC*%
X169300000Y-77900000D03*
%TD*%
D53*
%TO.P,FL1,1,1*%
%TO.N,Net-(C1-Pad2)*%
X136925000Y-88250000D03*
%TO.P,FL1,2,2*%
%TO.N,Net-(C2-Pad2)*%
X136925000Y-90750000D03*
%TO.P,FL1,3,3*%
%TO.N,/StackB/CSB*%
X141475000Y-90750000D03*
%TO.P,FL1,4,4*%
%TO.N,/StackB/IA+*%
X141475000Y-88250000D03*
%TD*%
D19*
%TO.P,CN8,1,R1.1*%
%TO.N,/StackB/C08*%
X155300000Y-92100000D03*
D20*
%TO.P,CN8,2,R2.1*%
%TO.N,/StackB/C09*%
X154500000Y-92100000D03*
%TO.P,CN8,3,R3.1*%
%TO.N,/StackB/C10*%
X153700000Y-92100000D03*
D19*
%TO.P,CN8,4,R4.1*%
%TO.N,/StackB/C11*%
X152900000Y-92100000D03*
%TO.P,CN8,5,R4.2*%
%TO.N,/StackB/C12*%
X152900000Y-93900000D03*
D20*
%TO.P,CN8,6,R3.2*%
%TO.N,/StackB/C11*%
X153700000Y-93900000D03*
%TO.P,CN8,7,R2.2*%
%TO.N,/StackB/C10*%
X154500000Y-93900000D03*
D19*
%TO.P,CN8,8,R1.2*%
%TO.N,/StackB/C09*%
X155300000Y-93900000D03*
%TD*%
D21*
%TO.P,F13,1*%
%TO.N,/StackB/CC12*%
X178025600Y-124104400D03*
%TO.P,F13,2*%
%TO.N,Net-(F13-Pad2)*%
X180825600Y-124104400D03*
%TD*%
D54*
%TO.P,U9,1,V+*%
%TO.N,Net-(C31-Pad1)*%
X151550000Y-89600000D03*
%TO.P,U9,2,C12*%
%TO.N,/StackB/C12*%
X152050000Y-89600000D03*
%TO.P,U9,3,S12*%
%TO.N,/StackB/S11*%
X152550000Y-89600000D03*
%TO.P,U9,4,C11*%
%TO.N,/StackB/C11*%
X153050000Y-89600000D03*
%TO.P,U9,5,S11*%
%TO.N,/StackB/S10*%
X153550000Y-89600000D03*
%TO.P,U9,6,C10*%
%TO.N,/StackB/C10*%
X154050000Y-89600000D03*
%TO.P,U9,7,S10*%
%TO.N,/StackB/S09*%
X154550000Y-89600000D03*
%TO.P,U9,8,C9*%
%TO.N,/StackB/C09*%
X155050000Y-89600000D03*
%TO.P,U9,9,S9*%
%TO.N,/StackB/S08*%
X155550000Y-89600000D03*
%TO.P,U9,10,C8*%
%TO.N,/StackB/C08*%
X156050000Y-89600000D03*
%TO.P,U9,11,S8*%
%TO.N,/StackB/S07*%
X156550000Y-89600000D03*
%TO.P,U9,12,C7*%
%TO.N,/StackB/C07*%
X157050000Y-89600000D03*
%TO.P,U9,13,S7*%
%TO.N,/StackB/S06*%
X157550000Y-89600000D03*
%TO.P,U9,14,C6*%
%TO.N,/StackB/C06*%
X158050000Y-89600000D03*
%TO.P,U9,15,S6*%
%TO.N,/StackB/S05*%
X158550000Y-89600000D03*
%TO.P,U9,16,C5*%
%TO.N,/StackB/C05*%
X159050000Y-89600000D03*
%TO.P,U9,17,S5*%
%TO.N,/StackB/S04*%
X159550000Y-89600000D03*
%TO.P,U9,18,C4*%
%TO.N,/StackB/C04*%
X160050000Y-89600000D03*
%TO.P,U9,19,S4*%
%TO.N,/StackB/S03*%
X160550000Y-89600000D03*
%TO.P,U9,20,C3*%
%TO.N,/StackB/C03*%
X161050000Y-89600000D03*
%TO.P,U9,21,S3*%
%TO.N,/StackB/S02*%
X161550000Y-89600000D03*
%TO.P,U9,22,C2*%
%TO.N,/StackB/C02*%
X162050000Y-89600000D03*
%TO.P,U9,23,S2*%
%TO.N,/StackB/S01*%
X162550000Y-89600000D03*
%TO.P,U9,24,C1*%
%TO.N,/StackB/C01*%
X163050000Y-89600000D03*
%TO.P,U9,25,S1*%
%TO.N,/StackB/S00*%
X163050000Y-82600000D03*
%TO.P,U9,26,C0*%
%TO.N,/StackB/C00*%
X162550000Y-82600000D03*
%TO.P,U9,27,GPIO1*%
%TO.N,/StackB/MUX_OUT*%
X162050000Y-82600000D03*
%TO.P,U9,28,GPIO2*%
%TO.N,/StackB/MUX_A3*%
X161550000Y-82600000D03*
%TO.P,U9,29,GPIO3*%
%TO.N,/StackB/MUX_A2*%
X161050000Y-82600000D03*
%TO.P,U9,30,V-*%
%TO.N,/StackB/GND*%
X160550000Y-82600000D03*
%TO.P,U9,31,V-*%
X160050000Y-82600000D03*
%TO.P,U9,32,GPIO4*%
%TO.N,/StackB/MUX_A1*%
X159550000Y-82600000D03*
%TO.P,U9,33,GPIO5*%
%TO.N,/StackB/MUX_A0*%
X159050000Y-82600000D03*
%TO.P,U9,34,VREF2*%
%TO.N,Net-(C34-Pad2)*%
X158550000Y-82600000D03*
%TO.P,U9,35,VREF1*%
%TO.N,Net-(C33-Pad2)*%
X158050000Y-82600000D03*
%TO.P,U9,36,SWTEN*%
%TO.N,/StackB/DTEN*%
X157550000Y-82600000D03*
%TO.P,U9,37,VREG*%
%TO.N,/StackB/VCC*%
X157050000Y-82600000D03*
%TO.P,U9,38,DRIVE*%
%TO.N,/StackB/DRIVE*%
X156550000Y-82600000D03*
%TO.P,U9,39,WDT*%
%TO.N,/StackB/WDT*%
X156050000Y-82600000D03*
%TO.P,U9,40,ISOMD*%
%TO.N,/StackB/ISOMD*%
X155550000Y-82600000D03*
%TO.P,U9,41,CSB(IMA)*%
%TO.N,/StackB/CSB*%
X155050000Y-82600000D03*
%TO.P,U9,42,SCK(IPA)*%
%TO.N,/StackB/IA+*%
X154550000Y-82600000D03*
%TO.P,U9,43,SDI(NC)*%
%TO.N,/StackB/ICMP_2*%
X154050000Y-82600000D03*
%TO.P,U9,44,SDO(NC)*%
%TO.N,/StackB/IBIAS_2*%
X153550000Y-82600000D03*
%TO.P,U9,45,IBIAS*%
%TO.N,/StackB/A0*%
X153050000Y-82600000D03*
%TO.P,U9,46,ICMP*%
%TO.N,/StackB/A1*%
X152550000Y-82600000D03*
%TO.P,U9,47,IMB*%
%TO.N,/IB-_B*%
X152050000Y-82600000D03*
%TO.P,U9,48,IPB*%
%TO.N,/IB+_B*%
X151550000Y-82600000D03*
%TD*%
D47*
%TO.P,R13,1*%
%TO.N,GND*%
X103276400Y-125335800D03*
%TO.P,R13,2*%
%TO.N,Net-(C26-Pad2)*%
X103276400Y-123685800D03*
%TD*%
D48*
%TO.P,C39,1*%
%TO.N,/StackB/PSU_INPUT*%
X176975000Y-77900000D03*
%TO.P,C39,2*%
%TO.N,/StackB/GND*%
X174025000Y-77900000D03*
%TD*%
D55*
%TO.P,J12,1,Pin_1*%
%TO.N,/StackB/VCC*%
X149250000Y-73670000D03*
D46*
%TO.P,J12,2,Pin_2*%
%TO.N,/StackB/GND*%
X151750000Y-73670000D03*
%TO.P,J12,3,Pin_3*%
%TO.N,/StackB/IBIAS_2*%
X154250000Y-73670000D03*
%TO.P,J12,4,Pin_4*%
%TO.N,/StackB/ICMP_2*%
X156750000Y-73670000D03*
%TO.P,J12,5,Pin_5*%
%TO.N,/StackB/IA+*%
X159250000Y-73670000D03*
%TO.P,J12,6,Pin_6*%
%TO.N,/StackB/CSB*%
X161750000Y-73670000D03*
%TD*%
D23*
%TO.P,Fa4,1*%
%TO.N,/StackA/CC04*%
X96954800Y-75336400D03*
%TO.P,Fa4,2*%
%TO.N,Net-(Fa4-Pad2)*%
X94154800Y-75336400D03*
%TD*%
%TO.P,Fa6,1*%
%TO.N,/StackA/CC06*%
X96954800Y-72745600D03*
%TO.P,Fa6,2*%
%TO.N,Net-(Fa6-Pad2)*%
X94154800Y-72745600D03*
%TD*%
D25*
%TO.P,U14,1*%
%TO.N,/STACK_B_IB-*%
X136410000Y-65160000D03*
%TO.P,U14,2*%
%TO.N,unconnected-(U14-Pad2)*%
X136410000Y-67700000D03*
%TO.P,U14,3*%
%TO.N,/STACK_B_IB+*%
X136410000Y-70240000D03*
%TO.P,U14,4*%
%TO.N,/IB+_B*%
X144790000Y-70240000D03*
%TO.P,U14,5*%
%TO.N,/IBC_B*%
X144790000Y-67700000D03*
%TO.P,U14,6*%
%TO.N,/IB-_B*%
X144790000Y-65160000D03*
%TD*%
D21*
%TO.P,F18,1*%
%TO.N,/StackB/CC02*%
X178025600Y-111150400D03*
%TO.P,F18,2*%
%TO.N,Net-(F18-Pad2)*%
X180825600Y-111150400D03*
%TD*%
D23*
%TO.P,Fa14,1*%
%TO.N,Net-(FB1-Pad1)*%
X101984000Y-82550000D03*
%TO.P,Fa14,2*%
%TO.N,Net-(Fa0-Pad2)*%
X99184000Y-82550000D03*
%TD*%
D56*
%TO.P,C20,1*%
%TO.N,Net-(C20-Pad1)*%
X99900000Y-123350000D03*
%TO.P,C20,2*%
%TO.N,GND*%
X99900000Y-125250000D03*
%TD*%
D19*
%TO.P,RN20,1,R1.1*%
%TO.N,/StackB/VCC*%
X175400000Y-85000000D03*
D20*
%TO.P,RN20,2,R2.1*%
X174600000Y-85000000D03*
%TO.P,RN20,3,R3.1*%
X173800000Y-85000000D03*
D19*
%TO.P,RN20,4,R4.1*%
X173000000Y-85000000D03*
%TO.P,RN20,5,R4.2*%
%TO.N,Net-(CN12-Pad5)*%
X173000000Y-86800000D03*
D20*
%TO.P,RN20,6,R3.2*%
%TO.N,Net-(CN12-Pad6)*%
X173800000Y-86800000D03*
%TO.P,RN20,7,R2.2*%
%TO.N,Net-(CN12-Pad7)*%
X174600000Y-86800000D03*
D19*
%TO.P,RN20,8,R1.2*%
%TO.N,Net-(CN12-Pad8)*%
X175400000Y-86800000D03*
%TD*%
%TO.P,RN19,1,R1.1*%
%TO.N,/StackB/VCC*%
X173000000Y-101600000D03*
D20*
%TO.P,RN19,2,R2.1*%
X173800000Y-101600000D03*
%TO.P,RN19,3,R3.1*%
X174600000Y-101600000D03*
D19*
%TO.P,RN19,4,R4.1*%
X175400000Y-101600000D03*
%TO.P,RN19,5,R4.2*%
%TO.N,Net-(CN11-Pad5)*%
X175400000Y-99800000D03*
D20*
%TO.P,RN19,6,R3.2*%
%TO.N,Net-(CN11-Pad6)*%
X174600000Y-99800000D03*
%TO.P,RN19,7,R2.2*%
%TO.N,Net-(CN11-Pad7)*%
X173800000Y-99800000D03*
D19*
%TO.P,RN19,8,R1.2*%
%TO.N,Net-(CN11-Pad8)*%
X173000000Y-99800000D03*
%TD*%
%TO.P,RN21,1,R1.1*%
%TO.N,/StackB/VCC*%
X179200000Y-85000000D03*
D20*
%TO.P,RN21,2,R2.1*%
X178400000Y-85000000D03*
%TO.P,RN21,3,R3.1*%
X177600000Y-85000000D03*
D19*
%TO.P,RN21,4,R4.1*%
X176800000Y-85000000D03*
%TO.P,RN21,5,R4.2*%
%TO.N,Net-(CN13-Pad5)*%
X176800000Y-86800000D03*
D20*
%TO.P,RN21,6,R3.2*%
%TO.N,Net-(CN13-Pad6)*%
X177600000Y-86800000D03*
%TO.P,RN21,7,R2.2*%
%TO.N,Net-(CN13-Pad7)*%
X178400000Y-86800000D03*
D19*
%TO.P,RN21,8,R1.2*%
%TO.N,Net-(CN13-Pad8)*%
X179200000Y-86800000D03*
%TD*%
D39*
%TO.P,JP10,1,A*%
%TO.N,/StackB/VCC*%
X149700000Y-68500000D03*
D17*
%TO.P,JP10,2,C*%
%TO.N,/IB+_B*%
X149700000Y-67200000D03*
D40*
%TO.P,JP10,3,B*%
%TO.N,/StackB/GND*%
X149700000Y-65900000D03*
%TD*%
D21*
%TO.P,F25,1*%
%TO.N,/StackB/CC01*%
X172996400Y-109169200D03*
%TO.P,F25,2*%
%TO.N,Net-(F25-Pad2)*%
X175796400Y-109169200D03*
%TD*%
D19*
%TO.P,RN7,1,R1.1*%
%TO.N,+5V*%
X98200000Y-87500000D03*
D20*
%TO.P,RN7,2,R2.1*%
X97400000Y-87500000D03*
%TO.P,RN7,3,R3.1*%
X96600000Y-87500000D03*
D19*
%TO.P,RN7,4,R4.1*%
X95800000Y-87500000D03*
%TO.P,RN7,5,R4.2*%
%TO.N,Net-(CN4-Pad5)*%
X95800000Y-89300000D03*
D20*
%TO.P,RN7,6,R3.2*%
%TO.N,Net-(CN4-Pad6)*%
X96600000Y-89300000D03*
%TO.P,RN7,7,R2.2*%
%TO.N,Net-(CN4-Pad7)*%
X97400000Y-89300000D03*
D19*
%TO.P,RN7,8,R1.2*%
%TO.N,Net-(CN4-Pad8)*%
X98200000Y-89300000D03*
%TD*%
D57*
%TO.P,C45,1*%
%TO.N,Net-(C45-Pad1)*%
X170725000Y-75300000D03*
%TO.P,C45,2*%
%TO.N,Net-(C45-Pad2)*%
X172275000Y-75300000D03*
%TD*%
D21*
%TO.P,F24,1*%
%TO.N,/StackB/CC03*%
X172996400Y-111810800D03*
%TO.P,F24,2*%
%TO.N,Net-(F24-Pad2)*%
X175796400Y-111810800D03*
%TD*%
D23*
%TO.P,Fa5,1*%
%TO.N,/StackA/CC05*%
X101984000Y-74676000D03*
%TO.P,Fa5,2*%
%TO.N,Net-(Fa5-Pad2)*%
X99184000Y-74676000D03*
%TD*%
D58*
%TO.P,C11,1*%
%TO.N,Net-(C11-Pad1)*%
X126034800Y-101496600D03*
%TO.P,C11,2*%
%TO.N,GND*%
X126034800Y-104446600D03*
%TD*%
D27*
%TO.P,J11,1,Pin_1*%
%TO.N,Net-(CN10-Pad5)*%
X183600000Y-87100000D03*
D28*
%TO.P,J11,2,Pin_2*%
%TO.N,Net-(CN10-Pad6)*%
X183600000Y-89600000D03*
%TO.P,J11,3,Pin_3*%
%TO.N,Net-(CN10-Pad7)*%
X183600000Y-92100000D03*
%TO.P,J11,4,Pin_4*%
%TO.N,Net-(CN10-Pad8)*%
X183600000Y-94600000D03*
%TO.P,J11,5,Pin_5*%
%TO.N,Net-(CN11-Pad5)*%
X183600000Y-97100000D03*
%TO.P,J11,6,Pin_6*%
%TO.N,Net-(CN11-Pad6)*%
X183600000Y-99600000D03*
%TO.P,J11,7,Pin_7*%
%TO.N,Net-(CN11-Pad7)*%
X183600000Y-102100000D03*
%TO.P,J11,8,Pin_8*%
%TO.N,Net-(CN11-Pad8)*%
X183600000Y-104600000D03*
%TO.P,J11,9,Pin_9*%
%TO.N,/StackB/GND*%
X186100000Y-87100000D03*
%TO.P,J11,10,Pin_10*%
X186100000Y-89600000D03*
%TO.P,J11,11,Pin_11*%
X186100000Y-92100000D03*
%TO.P,J11,12,Pin_12*%
X186100000Y-94600000D03*
%TO.P,J11,13,Pin_13*%
X186100000Y-97100000D03*
%TO.P,J11,14,Pin_14*%
X186100000Y-99600000D03*
%TO.P,J11,15,Pin_15*%
X186100000Y-102100000D03*
%TO.P,J11,16,Pin_16*%
X186100000Y-104600000D03*
%TD*%
D19*
%TO.P,RN14,1,R1.1*%
%TO.N,/StackB/C09*%
X155300000Y-95300000D03*
D20*
%TO.P,RN14,2,R2.1*%
%TO.N,/StackB/C10*%
X154500000Y-95300000D03*
%TO.P,RN14,3,R3.1*%
%TO.N,/StackB/C11*%
X153700000Y-95300000D03*
D19*
%TO.P,RN14,4,R4.1*%
%TO.N,/StackB/C12*%
X152900000Y-95300000D03*
%TO.P,RN14,5,R4.2*%
%TO.N,/StackB/CC12*%
X152900000Y-97100000D03*
D20*
%TO.P,RN14,6,R3.2*%
%TO.N,/StackB/CC11*%
X153700000Y-97100000D03*
%TO.P,RN14,7,R2.2*%
%TO.N,/StackB/CC10*%
X154500000Y-97100000D03*
D19*
%TO.P,RN14,8,R1.2*%
%TO.N,/StackB/CC09*%
X155300000Y-97100000D03*
%TD*%
D39*
%TO.P,JP11,1,A*%
%TO.N,/StackB/VCC*%
X162925500Y-68500000D03*
D17*
%TO.P,JP11,2,C*%
%TO.N,/StackB/DTEN*%
X162925500Y-67200000D03*
D40*
%TO.P,JP11,3,B*%
%TO.N,/StackB/GND*%
X162925500Y-65900000D03*
%TD*%
D59*
%TO.P,J4,1,Pin_1*%
%TO.N,/STACK_A_IB+*%
X141900000Y-95400000D03*
D30*
%TO.P,J4,2,Pin_2*%
%TO.N,/STACK_A_IB-*%
X141900000Y-98400000D03*
%TD*%
D41*
%TO.P,C47,1*%
%TO.N,/StackB/VCC*%
X167150000Y-75100000D03*
%TO.P,C47,2*%
%TO.N,/StackB/GND*%
X169050000Y-75100000D03*
%TD*%
D60*
%TO.P,U5,1,V+*%
%TO.N,Net-(C11-Pad1)*%
X123450000Y-99500000D03*
%TO.P,U5,2,C12*%
%TO.N,/StackA/C12*%
X122950000Y-99500000D03*
%TO.P,U5,3,S12*%
%TO.N,/StackA/S11*%
X122450000Y-99500000D03*
%TO.P,U5,4,C11*%
%TO.N,/StackA/C11*%
X121950000Y-99500000D03*
%TO.P,U5,5,S11*%
%TO.N,/StackA/S10*%
X121450000Y-99500000D03*
%TO.P,U5,6,C10*%
%TO.N,/StackA/C10*%
X120950000Y-99500000D03*
%TO.P,U5,7,S10*%
%TO.N,/StackA/S09*%
X120450000Y-99500000D03*
%TO.P,U5,8,C9*%
%TO.N,/StackA/C09*%
X119950000Y-99500000D03*
%TO.P,U5,9,S9*%
%TO.N,/StackA/S08*%
X119450000Y-99500000D03*
%TO.P,U5,10,C8*%
%TO.N,/StackA/C08*%
X118950000Y-99500000D03*
%TO.P,U5,11,S8*%
%TO.N,/StackA/S07*%
X118450000Y-99500000D03*
%TO.P,U5,12,C7*%
%TO.N,/StackA/C07*%
X117950000Y-99500000D03*
%TO.P,U5,13,S7*%
%TO.N,/StackA/S06*%
X117450000Y-99500000D03*
%TO.P,U5,14,C6*%
%TO.N,/StackA/C06*%
X116950000Y-99500000D03*
%TO.P,U5,15,S6*%
%TO.N,/StackA/S05*%
X116450000Y-99500000D03*
%TO.P,U5,16,C5*%
%TO.N,/StackA/C05*%
X115950000Y-99500000D03*
%TO.P,U5,17,S5*%
%TO.N,/StackA/S04*%
X115450000Y-99500000D03*
%TO.P,U5,18,C4*%
%TO.N,/StackA/C04*%
X114950000Y-99500000D03*
%TO.P,U5,19,S4*%
%TO.N,/StackA/S03*%
X114450000Y-99500000D03*
%TO.P,U5,20,C3*%
%TO.N,/StackA/C03*%
X113950000Y-99500000D03*
%TO.P,U5,21,S3*%
%TO.N,/StackA/S02*%
X113450000Y-99500000D03*
%TO.P,U5,22,C2*%
%TO.N,/StackA/C02*%
X112950000Y-99500000D03*
%TO.P,U5,23,S2*%
%TO.N,/StackA/S01*%
X112450000Y-99500000D03*
%TO.P,U5,24,C1*%
%TO.N,/StackA/C01*%
X111950000Y-99500000D03*
%TO.P,U5,25,S1*%
%TO.N,/StackA/S00*%
X111950000Y-106500000D03*
%TO.P,U5,26,C0*%
%TO.N,/StackA/C00*%
X112450000Y-106500000D03*
%TO.P,U5,27,GPIO1*%
%TO.N,/StackA/MUX_OUT*%
X112950000Y-106500000D03*
%TO.P,U5,28,GPIO2*%
%TO.N,/StackA/MUX_A3*%
X113450000Y-106500000D03*
%TO.P,U5,29,GPIO3*%
%TO.N,/StackA/MUX_A2*%
X113950000Y-106500000D03*
%TO.P,U5,30,V-*%
%TO.N,GND*%
X114450000Y-106500000D03*
%TO.P,U5,31,V-*%
X114950000Y-106500000D03*
%TO.P,U5,32,GPIO4*%
%TO.N,/StackA/MUX_A1*%
X115450000Y-106500000D03*
%TO.P,U5,33,GPIO5*%
%TO.N,/StackA/MUX_A0*%
X115950000Y-106500000D03*
%TO.P,U5,34,VREF2*%
%TO.N,Net-(C14-Pad2)*%
X116450000Y-106500000D03*
%TO.P,U5,35,VREF1*%
%TO.N,Net-(C13-Pad2)*%
X116950000Y-106500000D03*
%TO.P,U5,36,SWTEN*%
%TO.N,/StackA/DTEN*%
X117450000Y-106500000D03*
%TO.P,U5,37,VREG*%
%TO.N,+5V*%
X117950000Y-106500000D03*
%TO.P,U5,38,DRIVE*%
%TO.N,/StackA/DRIVE*%
X118450000Y-106500000D03*
%TO.P,U5,39,WDT*%
%TO.N,/StackA/WDT*%
X118950000Y-106500000D03*
%TO.P,U5,40,ISOMD*%
%TO.N,/StackA/ISOMD*%
X119450000Y-106500000D03*
%TO.P,U5,41,CSB(IMA)*%
%TO.N,/CS*%
X119950000Y-106500000D03*
%TO.P,U5,42,SCK(IPA)*%
%TO.N,/IA+_A*%
X120450000Y-106500000D03*
%TO.P,U5,43,SDI(NC)*%
%TO.N,/MOSI*%
X120950000Y-106500000D03*
%TO.P,U5,44,SDO(NC)*%
%TO.N,/MISO*%
X121450000Y-106500000D03*
%TO.P,U5,45,IBIAS*%
%TO.N,/StackA/A0*%
X121950000Y-106500000D03*
%TO.P,U5,46,ICMP*%
%TO.N,/StackA/A1*%
X122450000Y-106500000D03*
%TO.P,U5,47,IMB*%
%TO.N,/StackA/A2*%
X122950000Y-106500000D03*
%TO.P,U5,48,IPB*%
%TO.N,/StackA/A3*%
X123450000Y-106500000D03*
%TD*%
D31*
%TO.P,C30,1*%
%TO.N,/StackB/GND*%
X164400000Y-92225000D03*
%TO.P,C30,2*%
%TO.N,/StackB/C00*%
X164400000Y-93775000D03*
%TD*%
D19*
%TO.P,RN5,1,R1.1*%
%TO.N,/StackA/C05*%
X115900000Y-93800000D03*
D20*
%TO.P,RN5,2,R2.1*%
%TO.N,/StackA/C06*%
X116700000Y-93800000D03*
%TO.P,RN5,3,R3.1*%
%TO.N,/StackA/C07*%
X117500000Y-93800000D03*
D19*
%TO.P,RN5,4,R4.1*%
%TO.N,/StackA/C08*%
X118300000Y-93800000D03*
%TO.P,RN5,5,R4.2*%
%TO.N,/StackA/CC08*%
X118300000Y-92000000D03*
D20*
%TO.P,RN5,6,R3.2*%
%TO.N,/StackA/CC07*%
X117500000Y-92000000D03*
%TO.P,RN5,7,R2.2*%
%TO.N,/StackA/CC06*%
X116700000Y-92000000D03*
D19*
%TO.P,RN5,8,R1.2*%
%TO.N,/StackA/CC05*%
X115900000Y-92000000D03*
%TD*%
D61*
%TO.P,J14,1,Pin_1*%
%TO.N,Net-(J14-Pad1)*%
X100081000Y-107746800D03*
D62*
%TO.P,J14,2,Pin_2*%
%TO.N,GND*%
X97541000Y-107746800D03*
%TD*%
D51*
%TO.P,C35,1*%
%TO.N,/StackB/GND*%
X171400000Y-91575000D03*
%TO.P,C35,2*%
%TO.N,/StackB/VCC*%
X171400000Y-90025000D03*
%TD*%
D33*
%TO.P,C2,1*%
%TO.N,/StackA/A2*%
X131900400Y-91516200D03*
%TO.P,C2,2*%
%TO.N,Net-(C2-Pad2)*%
X134850400Y-91516200D03*
%TD*%
D31*
%TO.P,C26,1*%
%TO.N,+5V*%
X104900000Y-123735800D03*
%TO.P,C26,2*%
%TO.N,Net-(C26-Pad2)*%
X104900000Y-125285800D03*
%TD*%
D23*
%TO.P,Fa9,1*%
%TO.N,/StackA/CC09*%
X102012400Y-69443600D03*
%TO.P,Fa9,2*%
%TO.N,Net-(Fa9-Pad2)*%
X99212400Y-69443600D03*
%TD*%
D43*
%TO.P,R15,1*%
%TO.N,+5V*%
X106500000Y-123475000D03*
%TO.P,R15,2*%
%TO.N,Net-(C26-Pad2)*%
X106500000Y-125125000D03*
%TD*%
D25*
%TO.P,U12,1*%
%TO.N,/STACK_A_IB-*%
X138590000Y-99592000D03*
%TO.P,U12,2*%
%TO.N,unconnected-(U12-Pad2)*%
X138590000Y-97052000D03*
%TO.P,U12,3*%
%TO.N,/STACK_A_IB+*%
X138590000Y-94512000D03*
%TO.P,U12,4*%
%TO.N,/StackA/A3*%
X130210000Y-94512000D03*
%TO.P,U12,5*%
%TO.N,/StackA/IBC*%
X130210000Y-97052000D03*
%TO.P,U12,6*%
%TO.N,/StackA/A2*%
X130210000Y-99592000D03*
%TD*%
D16*
%TO.P,JP1,1,A*%
%TO.N,+5V*%
X115052100Y-120620000D03*
D17*
%TO.P,JP1,2,C*%
%TO.N,/StackA/A0*%
X115052100Y-121920000D03*
D18*
%TO.P,JP1,3,B*%
%TO.N,GND*%
X115052100Y-123220000D03*
%TD*%
D21*
%TO.P,F19,1*%
%TO.N,/StackB/CC00*%
X178025600Y-108508800D03*
%TO.P,F19,2*%
%TO.N,Net-(F19-Pad2)*%
X180825600Y-108508800D03*
%TD*%
%TO.P,Fb14,1*%
%TO.N,Net-(FB2-Pad1)*%
X172996400Y-106527600D03*
%TO.P,Fb14,2*%
%TO.N,Net-(F19-Pad2)*%
X175796400Y-106527600D03*
%TD*%
D39*
%TO.P,JP7,1,A*%
%TO.N,/StackB/VCC*%
X157642300Y-68500000D03*
D17*
%TO.P,JP7,2,C*%
%TO.N,/StackB/A0*%
X157642300Y-67200000D03*
D40*
%TO.P,JP7,3,B*%
%TO.N,/StackB/GND*%
X157642300Y-65900000D03*
%TD*%
D21*
%TO.P,F23,1*%
%TO.N,/StackB/CC05*%
X172996400Y-114401600D03*
%TO.P,F23,2*%
%TO.N,Net-(F23-Pad2)*%
X175796400Y-114401600D03*
%TD*%
D19*
%TO.P,RN16,1,R1.1*%
%TO.N,/StackB/C01*%
X162900000Y-95300000D03*
D20*
%TO.P,RN16,2,R2.1*%
%TO.N,/StackB/C02*%
X162100000Y-95300000D03*
%TO.P,RN16,3,R3.1*%
%TO.N,/StackB/C03*%
X161300000Y-95300000D03*
D19*
%TO.P,RN16,4,R4.1*%
%TO.N,/StackB/C04*%
X160500000Y-95300000D03*
%TO.P,RN16,5,R4.2*%
%TO.N,/StackB/CC04*%
X160500000Y-97100000D03*
D20*
%TO.P,RN16,6,R3.2*%
%TO.N,/StackB/CC03*%
X161300000Y-97100000D03*
%TO.P,RN16,7,R2.2*%
%TO.N,/StackB/CC02*%
X162100000Y-97100000D03*
D19*
%TO.P,RN16,8,R1.2*%
%TO.N,/StackB/CC01*%
X162900000Y-97100000D03*
%TD*%
D16*
%TO.P,JP4,1,A*%
%TO.N,+5V*%
X122986800Y-120600000D03*
D17*
%TO.P,JP4,2,C*%
%TO.N,/StackA/A3*%
X122986800Y-121900000D03*
D18*
%TO.P,JP4,3,B*%
%TO.N,GND*%
X122986800Y-123200000D03*
%TD*%
D21*
%TO.P,F20,1*%
%TO.N,/StackB/CC11*%
X172973650Y-122275600D03*
%TO.P,F20,2*%
%TO.N,Net-(F20-Pad2)*%
X175773650Y-122275600D03*
%TD*%
D63*
%TO.P,J15,1,NC*%
%TO.N,unconnected-(J15-Pad1)*%
X143208200Y-124409200D03*
%TO.P,J15,2,NC*%
%TO.N,unconnected-(J15-Pad2)*%
X139138200Y-124409200D03*
%TO.P,J15,3,VCC*%
%TO.N,+3.3V*%
X143208200Y-123139200D03*
%TO.P,J15,4,JTMS/SWDIO*%
%TO.N,/SWDIO*%
X139138200Y-123139200D03*
%TO.P,J15,5,GND*%
%TO.N,GND*%
X143208200Y-121869200D03*
%TO.P,J15,6,JCLK/SWCLK*%
%TO.N,/SWCLK*%
X139138200Y-121869200D03*
%TO.P,J15,7,GND*%
%TO.N,GND*%
X143208200Y-120599200D03*
%TO.P,J15,8,JTDO/SWO*%
%TO.N,/SWO*%
X139138200Y-120599200D03*
%TO.P,J15,9,JRCLK/NC*%
%TO.N,unconnected-(J15-Pad9)*%
X143208200Y-119329200D03*
%TO.P,J15,10,JTDI/NC*%
%TO.N,/TDI*%
X139138200Y-119329200D03*
%TO.P,J15,11,GNDDetect*%
%TO.N,GND*%
X143208200Y-118059200D03*
%TO.P,J15,12,~{RST}*%
%TO.N,/~{RESET}*%
X139138200Y-118059200D03*
%TO.P,J15,13,VCP_RX*%
%TO.N,/UART2_RX*%
X143208200Y-116789200D03*
%TO.P,J15,14,VCP_TX*%
%TO.N,/UART2_TX*%
X139138200Y-116789200D03*
%TD*%
D21*
%TO.P,F15,1*%
%TO.N,/StackB/CC08*%
X178029250Y-118922800D03*
%TO.P,F15,2*%
%TO.N,Net-(F15-Pad2)*%
X180829250Y-118922800D03*
%TD*%
D59*
%TO.P,J3,1,Pin_1*%
%TO.N,/STACK_A_IA+*%
X141900000Y-108102400D03*
D30*
%TO.P,J3,2,Pin_2*%
%TO.N,/STACK_A_IA-*%
X141900000Y-111102400D03*
%TD*%
D39*
%TO.P,JP8,1,A*%
%TO.N,/StackB/VCC*%
X154990800Y-68483000D03*
D17*
%TO.P,JP8,2,C*%
%TO.N,/StackB/A1*%
X154990800Y-67183000D03*
D40*
%TO.P,JP8,3,B*%
%TO.N,/StackB/GND*%
X154990800Y-65883000D03*
%TD*%
D23*
%TO.P,Fa12,1*%
%TO.N,/StackA/CC12*%
X96954800Y-64973200D03*
%TO.P,Fa12,2*%
%TO.N,Net-(Fa12-Pad2)*%
X94154800Y-64973200D03*
%TD*%
D19*
%TO.P,RN10,1,R1.1*%
%TO.N,+5V*%
X95800000Y-104100000D03*
D20*
%TO.P,RN10,2,R2.1*%
X96600000Y-104100000D03*
%TO.P,RN10,3,R3.1*%
X97400000Y-104100000D03*
D19*
%TO.P,RN10,4,R4.1*%
X98200000Y-104100000D03*
%TO.P,RN10,5,R4.2*%
%TO.N,Net-(CN7-Pad5)*%
X98200000Y-102300000D03*
D20*
%TO.P,RN10,6,R3.2*%
%TO.N,Net-(CN7-Pad6)*%
X97400000Y-102300000D03*
%TO.P,RN10,7,R2.2*%
%TO.N,Net-(CN7-Pad7)*%
X96600000Y-102300000D03*
D19*
%TO.P,RN10,8,R1.2*%
%TO.N,Net-(CN7-Pad8)*%
X95800000Y-102300000D03*
%TD*%
D50*
%TO.P,C27,1*%
%TO.N,+5V*%
X107850000Y-114000000D03*
%TO.P,C27,2*%
%TO.N,GND*%
X105950000Y-114000000D03*
%TD*%
D21*
%TO.P,F17,1*%
%TO.N,/StackB/CC04*%
X178025600Y-113741200D03*
%TO.P,F17,2*%
%TO.N,Net-(F17-Pad2)*%
X180825600Y-113741200D03*
%TD*%
D23*
%TO.P,Fa1,1*%
%TO.N,/StackA/CC01*%
X101984000Y-79908400D03*
%TO.P,Fa1,2*%
%TO.N,Net-(Fa1-Pad2)*%
X99184000Y-79908400D03*
%TD*%
D15*
%TO.P,R27,1*%
%TO.N,/StackB/VDD*%
X178600000Y-70287500D03*
%TO.P,R27,2*%
%TO.N,/StackB/PSU_INPUT*%
X178600000Y-72112500D03*
%TD*%
D51*
%TO.P,C10,1*%
%TO.N,GND*%
X110600000Y-96875000D03*
%TO.P,C10,2*%
%TO.N,/StackA/C00*%
X110600000Y-95325000D03*
%TD*%
D47*
%TO.P,R28,1*%
%TO.N,/StackB/VCC*%
X168500000Y-65625000D03*
%TO.P,R28,2*%
%TO.N,Net-(C46-Pad2)*%
X168500000Y-63975000D03*
%TD*%
D64*
%TO.P,FB2,1*%
%TO.N,Net-(FB2-Pad1)*%
X172874300Y-104241600D03*
%TO.P,FB2,2*%
%TO.N,/StackB/GND*%
X174699300Y-104241600D03*
%TD*%
D21*
%TO.P,F14,1*%
%TO.N,/StackB/CC10*%
X178025600Y-121513600D03*
%TO.P,F14,2*%
%TO.N,Net-(F14-Pad2)*%
X180825600Y-121513600D03*
%TD*%
D34*
%TO.P,J7,1,Pin_1*%
%TO.N,Net-(CN4-Pad5)*%
X91400000Y-102000000D03*
D28*
%TO.P,J7,2,Pin_2*%
%TO.N,Net-(CN4-Pad6)*%
X91400000Y-99500000D03*
%TO.P,J7,3,Pin_3*%
%TO.N,Net-(CN4-Pad7)*%
X91400000Y-97000000D03*
%TO.P,J7,4,Pin_4*%
%TO.N,Net-(CN4-Pad8)*%
X91400000Y-94500000D03*
%TO.P,J7,5,Pin_5*%
%TO.N,Net-(CN5-Pad5)*%
X91400000Y-92000000D03*
%TO.P,J7,6,Pin_6*%
%TO.N,Net-(CN5-Pad6)*%
X91400000Y-89500000D03*
%TO.P,J7,7,Pin_7*%
%TO.N,Net-(CN5-Pad7)*%
X91400000Y-87000000D03*
%TO.P,J7,8,Pin_8*%
%TO.N,Net-(CN5-Pad8)*%
X91400000Y-84500000D03*
%TO.P,J7,9,Pin_9*%
%TO.N,GND*%
X88900000Y-102000000D03*
%TO.P,J7,10,Pin_10*%
X88900000Y-99500000D03*
%TO.P,J7,11,Pin_11*%
X88900000Y-97000000D03*
%TO.P,J7,12,Pin_12*%
X88900000Y-94500000D03*
%TO.P,J7,13,Pin_13*%
X88900000Y-92000000D03*
%TO.P,J7,14,Pin_14*%
X88900000Y-89500000D03*
%TO.P,J7,15,Pin_15*%
X88900000Y-87000000D03*
%TO.P,J7,16,Pin_16*%
X88900000Y-84500000D03*
%TD*%
D39*
%TO.P,JP9,1,A*%
%TO.N,/StackB/VCC*%
X152349200Y-68500000D03*
D17*
%TO.P,JP9,2,C*%
%TO.N,/IB-_B*%
X152349200Y-67200000D03*
D40*
%TO.P,JP9,3,B*%
%TO.N,/StackB/GND*%
X152349200Y-65900000D03*
%TD*%
D16*
%TO.P,JP2,1,A*%
%TO.N,+5V*%
X117693700Y-120620000D03*
D17*
%TO.P,JP2,2,C*%
%TO.N,/StackA/A1*%
X117693700Y-121920000D03*
D18*
%TO.P,JP2,3,B*%
%TO.N,GND*%
X117693700Y-123220000D03*
%TD*%
D65*
%TO.P,D1,1,K*%
%TO.N,Net-(D1-Pad1)*%
X135763000Y-118186100D03*
%TO.P,D1,2,A*%
%TO.N,Net-(D1-Pad2)*%
X135763000Y-119761100D03*
%TD*%
D23*
%TO.P,Fa0,1*%
%TO.N,/StackA/CC00*%
X96954800Y-80568800D03*
%TO.P,Fa0,2*%
%TO.N,Net-(Fa0-Pad2)*%
X94154800Y-80568800D03*
%TD*%
D66*
%TO.P,C31,1*%
%TO.N,Net-(C31-Pad1)*%
X149200000Y-87575000D03*
%TO.P,C31,2*%
%TO.N,/StackB/GND*%
X149200000Y-84625000D03*
%TD*%
D67*
%TO.P,U4,1,IREDA*%
%TO.N,Net-(R1-Pad1)*%
X130398400Y-124600000D03*
%TO.P,U4,2,RXD*%
%TO.N,Net-(U1-Pad20)*%
X131348400Y-124600000D03*
%TO.P,U4,3,TXD*%
%TO.N,Net-(U1-Pad19)*%
X132298400Y-124600000D03*
%TO.P,U4,4,SD*%
%TO.N,Net-(U1-Pad18)*%
X133248400Y-124600000D03*
%TO.P,U4,5,VCCIO*%
%TO.N,+3.3V*%
X134198400Y-124600000D03*
%TO.P,U4,6,VCC*%
%TO.N,Net-(C8-Pad1)*%
X135148400Y-124600000D03*
%TO.P,U4,7,GND*%
%TO.N,GND*%
X136098400Y-124600000D03*
%TD*%
D19*
%TO.P,RN4,1,R1.1*%
%TO.N,/StackA/C09*%
X119700000Y-93800000D03*
D20*
%TO.P,RN4,2,R2.1*%
%TO.N,/StackA/C10*%
X120500000Y-93800000D03*
%TO.P,RN4,3,R3.1*%
%TO.N,/StackA/C11*%
X121300000Y-93800000D03*
D19*
%TO.P,RN4,4,R4.1*%
%TO.N,/StackA/C12*%
X122100000Y-93800000D03*
%TO.P,RN4,5,R4.2*%
%TO.N,/StackA/CC12*%
X122100000Y-92000000D03*
D20*
%TO.P,RN4,6,R3.2*%
%TO.N,/StackA/CC11*%
X121300000Y-92000000D03*
%TO.P,RN4,7,R2.2*%
%TO.N,/StackA/CC10*%
X120500000Y-92000000D03*
D19*
%TO.P,RN4,8,R1.2*%
%TO.N,/StackA/CC09*%
X119700000Y-92000000D03*
%TD*%
D21*
%TO.P,Fb3,1*%
%TO.N,/StackB/VDD*%
X172973650Y-125369400D03*
%TO.P,Fb3,2*%
%TO.N,Net-(F13-Pad2)*%
X175773650Y-125369400D03*
%TD*%
D68*
%TO.N,/StackB/CSB*%
X144800000Y-78300000D03*
X149418339Y-70451000D03*
X151552863Y-69950198D03*
D69*
%TO.N,+3.3V*%
X141173200Y-123698000D03*
D68*
X131021427Y-115569771D03*
X133873651Y-116747444D03*
D69*
%TO.N,GND*%
X114678314Y-108674203D03*
X112929271Y-104674012D03*
D68*
X129150500Y-104439401D03*
D69*
X106600000Y-117800000D03*
X112586800Y-124663700D03*
D68*
X129045973Y-121920973D03*
D69*
X101500000Y-119400000D03*
X126034800Y-105867200D03*
X103800000Y-118700000D03*
D68*
X133921500Y-117536618D03*
D69*
X103600000Y-119700000D03*
X102300000Y-118700000D03*
X104500500Y-97500000D03*
X104900000Y-117800000D03*
D68*
X94725000Y-93575000D03*
X131572000Y-119717200D03*
X137007600Y-124155200D03*
X131305000Y-121056400D03*
D69*
X106524500Y-119300000D03*
X104900000Y-119300000D03*
X100600000Y-118700000D03*
D68*
X141376400Y-121869200D03*
X125833813Y-123441787D03*
X132994400Y-121056400D03*
X110623911Y-97776089D03*
%TO.N,/~{RESET}*%
X133224151Y-116293119D03*
%TO.N,Net-(C8-Pad1)*%
X135178800Y-125577600D03*
%TO.N,+5V*%
X107200000Y-115000000D03*
D69*
X108100000Y-111900000D03*
D68*
X118099000Y-109866063D03*
D69*
X104650000Y-103278400D03*
D68*
X125211800Y-121528800D03*
D69*
X110258932Y-114058932D03*
X108100000Y-110100000D03*
D68*
X106400353Y-122499647D03*
D69*
X108100000Y-111000000D03*
D68*
X109980000Y-119126000D03*
%TO.N,Net-(C13-Pad2)*%
X116846334Y-110132542D03*
%TO.N,Net-(C14-Pad2)*%
X116176376Y-109684251D03*
%TO.N,Net-(CN5-Pad5)*%
X99300000Y-90600000D03*
%TO.N,Net-(CN7-Pad6)*%
X97523911Y-101023911D03*
%TO.N,/StackA/WDT*%
X119320023Y-109920022D03*
D69*
%TO.N,/StackB/GND*%
X170100000Y-71300000D03*
X171200000Y-70400000D03*
X170499500Y-91600000D03*
X168400000Y-71300000D03*
X172700000Y-70400000D03*
D68*
X162200000Y-65000000D03*
D69*
X171400000Y-69400000D03*
X170100000Y-69800000D03*
D68*
X180275000Y-95525000D03*
D69*
X168475500Y-69800000D03*
D68*
X145385534Y-64031504D03*
D69*
X160321686Y-80425797D03*
X148199500Y-79451200D03*
D68*
X160300000Y-84000000D03*
D69*
X174400000Y-70400000D03*
D68*
X164376089Y-91323911D03*
D69*
X173500000Y-69700000D03*
D68*
%TO.N,Net-(C33-Pad2)*%
X158153666Y-78967458D03*
%TO.N,Net-(C34-Pad2)*%
X158823624Y-79415749D03*
%TO.N,/StackB/WDT*%
X155679977Y-79179978D03*
D69*
%TO.N,/StackA/PSU_INPUT*%
X96400000Y-111335200D03*
D68*
%TO.N,/StackA/A2*%
X119278400Y-122072400D03*
X122631200Y-117983000D03*
X130200000Y-100557200D03*
%TO.N,/StackA/A3*%
X121615200Y-121900000D03*
X124342642Y-117345769D03*
X130210000Y-93710000D03*
%TO.N,/CS*%
X131216400Y-113334800D03*
X126107305Y-120507051D03*
%TO.N,/MOSI*%
X118821200Y-117500400D03*
%TO.N,/MISO*%
X120954800Y-118584500D03*
%TO.N,/StackB/IBIAS_2*%
X153287000Y-71651400D03*
%TO.N,/StackA/A0*%
X121700000Y-113069500D03*
X113741200Y-121412000D03*
%TO.N,/StackA/A1*%
X116382800Y-121920000D03*
X121361200Y-116890800D03*
%TO.N,/StackA/DTEN*%
X113743911Y-112473911D03*
X115570000Y-110625500D03*
%TO.N,/StackA/ISOMD*%
X111099600Y-121920000D03*
X109380500Y-118461505D03*
%TO.N,/StackB/A0*%
X153619200Y-76592300D03*
X158950497Y-67200000D03*
%TO.N,/StackB/A1*%
X151689994Y-71818305D03*
X153593800Y-67767200D03*
%TO.N,/StackB/DTEN*%
X158895627Y-78600000D03*
X161188400Y-76675500D03*
%TO.N,/StackB/ISOMD*%
X164846000Y-69443600D03*
X161535600Y-67200000D03*
D69*
%TO.N,/StackA/CC02*%
X106525200Y-82400000D03*
%TO.N,/StackA/CC00*%
X106503899Y-86637701D03*
%TO.N,/StackA/CC03*%
X110200000Y-81200000D03*
%TO.N,/StackA/CC01*%
X110200000Y-85400000D03*
%TO.N,/StackB/CC02*%
X168676000Y-106700000D03*
%TO.N,/StackB/CC00*%
X168656000Y-102462299D03*
%TO.N,/StackB/CC03*%
X164800000Y-107900000D03*
%TO.N,/StackB/CC01*%
X164800000Y-103700000D03*
D68*
%TO.N,Net-(Qda0-Pad1)*%
X111450500Y-89400000D03*
X112800000Y-86400000D03*
%TO.N,Net-(Qda2-Pad1)*%
X113474161Y-89200000D03*
X112800000Y-82200000D03*
%TO.N,Net-(Qda4-Pad1)*%
X115123026Y-89650490D03*
X112800000Y-78000000D03*
%TO.N,Net-(Qda6-Pad1)*%
X112800000Y-73800000D03*
X117073661Y-90099500D03*
%TO.N,Net-(Qda8-Pad1)*%
X118973911Y-90549500D03*
X112800000Y-69600000D03*
%TO.N,Net-(Qda10-Pad1)*%
X121089562Y-90999500D03*
X112800000Y-65400000D03*
%TO.N,Net-(Qdb0-Pad1)*%
X162200000Y-102700000D03*
X163549500Y-99700000D03*
%TO.N,Net-(Qdb2-Pad1)*%
X162200000Y-106900000D03*
X161525839Y-99900000D03*
%TO.N,Net-(Qdb4-Pad1)*%
X162200000Y-111100000D03*
X159876974Y-99449510D03*
%TO.N,Net-(Qdb6-Pad1)*%
X157926339Y-99000500D03*
X162200000Y-115300000D03*
%TO.N,Net-(Qdb8-Pad1)*%
X156026089Y-98550500D03*
X162200000Y-119500000D03*
%TO.N,Net-(Qdb10-Pad1)*%
X162200000Y-123700000D03*
X153910438Y-98100500D03*
%TO.N,Net-(R1-Pad1)*%
X129590421Y-125120021D03*
%TO.N,/StackA/S09*%
X120500000Y-103800000D03*
%TO.N,/StackA/S10*%
X121300000Y-103800000D03*
%TO.N,/StackA/S11*%
X122100000Y-103800000D03*
%TO.N,/StackA/S04*%
X115900000Y-103800000D03*
%TO.N,/StackA/S05*%
X116700000Y-103800000D03*
%TO.N,/StackA/S06*%
X117500000Y-103800000D03*
%TO.N,/StackA/S07*%
X118300000Y-103800000D03*
%TO.N,/StackA/S00*%
X112078668Y-103826491D03*
%TO.N,/StackA/S01*%
X112900000Y-103800000D03*
%TO.N,/StackA/S02*%
X113700000Y-103800000D03*
%TO.N,/StackA/S03*%
X114500000Y-103800000D03*
D69*
%TO.N,/StackA/CC12*%
X104552800Y-63900000D03*
%TO.N,/StackA/CC11*%
X110200000Y-64675498D03*
%TO.N,/StackA/CC10*%
X105274800Y-65600000D03*
%TO.N,/StackA/CC09*%
X110200000Y-68600000D03*
%TO.N,/StackA/CC08*%
X104292400Y-70713600D03*
%TO.N,/StackA/CC07*%
X110200000Y-72800000D03*
%TO.N,/StackA/CC06*%
X103600000Y-74000000D03*
%TO.N,/StackA/CC05*%
X110660000Y-77000000D03*
%TO.N,/StackA/CC04*%
X105511600Y-78333600D03*
D68*
%TO.N,/StackB/S09*%
X154500000Y-85300000D03*
%TO.N,/StackB/S10*%
X153700000Y-85300000D03*
%TO.N,/StackB/S11*%
X152900000Y-85300000D03*
%TO.N,/StackB/S04*%
X159100000Y-85300000D03*
%TO.N,/StackB/S05*%
X158300000Y-85300000D03*
%TO.N,/StackB/S06*%
X157500000Y-85300000D03*
%TO.N,/StackB/S07*%
X156700000Y-85300000D03*
%TO.N,/StackB/S00*%
X162921332Y-85273509D03*
%TO.N,/StackB/S01*%
X162100000Y-85300000D03*
%TO.N,/StackB/S02*%
X161300000Y-85300000D03*
%TO.N,/StackB/S03*%
X160500000Y-85300000D03*
D69*
%TO.N,/StackB/CC12*%
X170812000Y-125200500D03*
%TO.N,/StackB/CC11*%
X164800000Y-124424502D03*
%TO.N,/StackB/CC10*%
X169875200Y-122224800D03*
%TO.N,/StackB/CC09*%
X164800000Y-120500000D03*
%TO.N,/StackB/CC08*%
X169955200Y-119300000D03*
%TO.N,/StackB/CC07*%
X164800000Y-116300000D03*
%TO.N,/StackB/CC06*%
X169926000Y-115112800D03*
%TO.N,/StackB/CC05*%
X164800000Y-112100000D03*
%TO.N,/StackB/CC04*%
X169926000Y-110896400D03*
D68*
%TO.N,/CLK*%
X130674179Y-116233980D03*
%TO.N,Net-(U1-Pad7)*%
X132624151Y-115693619D03*
%TO.N,Net-(CN7-Pad7)*%
X96623911Y-101223911D03*
%TO.N,Net-(CN7-Pad8)*%
X95800000Y-101200000D03*
%TO.N,/StackA/S08*%
X119700000Y-103800000D03*
%TO.N,/StackA/DRIVE*%
X99200000Y-120000000D03*
X107004298Y-121180868D03*
%TO.N,/StackA/MUX_OUT*%
X112447231Y-108316835D03*
X102449500Y-90634100D03*
%TO.N,/StackA/MUX_A0*%
X106532518Y-106485139D03*
%TO.N,/StackA/MUX_A1*%
X107055804Y-105948551D03*
%TO.N,/StackA/MUX_A3*%
X108240485Y-105018154D03*
%TO.N,/StackA/MUX_A2*%
X107634802Y-105471198D03*
%TO.N,/StackB/S08*%
X155300000Y-85300000D03*
%TO.N,/StackB/DRIVE*%
X166438000Y-65600000D03*
X175800000Y-69100000D03*
%TO.N,/StackB/MUX_OUT*%
X172603100Y-98095975D03*
X162600000Y-80700000D03*
%TO.N,/StackB/MUX_A0*%
X168678028Y-82350550D03*
%TO.N,/StackB/MUX_A1*%
X168090332Y-82815702D03*
%TO.N,/StackB/MUX_A3*%
X166822800Y-83722800D03*
%TO.N,/StackB/MUX_A2*%
X167487600Y-83261200D03*
D69*
%TO.N,/StackA/VDD*%
X96400000Y-119800000D03*
X125800000Y-95574000D03*
%TO.N,/StackB/VDD*%
X178600000Y-69300000D03*
X149200000Y-92600000D03*
%TO.N,/StackB/PSU_INPUT*%
X177000000Y-80100000D03*
D68*
%TO.N,Net-(CN11-Pad5)*%
X175700000Y-98500000D03*
%TO.N,Net-(CN5-Pad6)*%
X100400000Y-90200000D03*
%TO.N,Net-(CN5-Pad7)*%
X101100000Y-90500000D03*
%TO.N,Net-(CN5-Pad8)*%
X101799500Y-89980568D03*
%TO.N,Net-(CN6-Pad5)*%
X101900000Y-101100000D03*
%TO.N,Net-(CN6-Pad6)*%
X101000000Y-101200000D03*
%TO.N,Net-(CN6-Pad7)*%
X100100000Y-101200000D03*
%TO.N,Net-(CN6-Pad8)*%
X99300000Y-101200000D03*
%TO.N,Net-(CN7-Pad5)*%
X98249216Y-101212818D03*
%TO.N,Net-(CN13-Pad6)*%
X177476089Y-88076089D03*
%TO.N,Net-(CN13-Pad7)*%
X178376089Y-87876089D03*
%TO.N,Net-(CN13-Pad8)*%
X179200000Y-87900000D03*
%TO.N,Net-(D1-Pad1)*%
X136956800Y-118516400D03*
%TO.N,Net-(CN11-Pad6)*%
X174600000Y-98900000D03*
%TO.N,Net-(CN11-Pad7)*%
X173900000Y-98600000D03*
%TO.N,Net-(CN11-Pad8)*%
X173200500Y-98999592D03*
%TO.N,Net-(CN12-Pad5)*%
X173100000Y-88000000D03*
%TO.N,Net-(CN12-Pad6)*%
X174000000Y-87900000D03*
%TO.N,Net-(CN12-Pad7)*%
X174900000Y-87900000D03*
%TO.N,Net-(CN12-Pad8)*%
X175700000Y-87900000D03*
%TO.N,Net-(CN13-Pad5)*%
X176750784Y-87887182D03*
%TO.N,Net-(CN4-Pad5)*%
X95900000Y-90200000D03*
%TO.N,Net-(CN4-Pad6)*%
X96750000Y-90450000D03*
%TO.N,Net-(CN4-Pad7)*%
X97450000Y-90150000D03*
%TO.N,Net-(CN4-Pad8)*%
X98550000Y-90650000D03*
%TO.N,Net-(CN10-Pad5)*%
X179100000Y-98900000D03*
%TO.N,Net-(CN10-Pad6)*%
X178250000Y-98650000D03*
%TO.N,Net-(CN10-Pad7)*%
X177550000Y-98950000D03*
%TO.N,Net-(CN10-Pad8)*%
X176450000Y-98450000D03*
%TO.N,/StackB/IA+*%
X148818339Y-71050500D03*
X144800000Y-84700000D03*
X151358600Y-71018400D03*
X143230500Y-85800000D03*
%TO.N,/IAC_A*%
X130896371Y-112217200D03*
%TO.N,/StackA/IBC*%
X130210000Y-95366502D03*
%TO.N,/StackB/IAC*%
X144800000Y-79900000D03*
%TO.N,/IBC_B*%
X144800000Y-69300000D03*
%TO.N,/IA+_A*%
X128328689Y-106535489D03*
X132283200Y-108305600D03*
X128424500Y-109220000D03*
%TO.N,/IB-_B*%
X150761260Y-69893979D03*
X151124700Y-66499500D03*
X143611600Y-65074800D03*
%TO.N,/IB+_B*%
X143662400Y-70205600D03*
X150012400Y-69925000D03*
X150910808Y-67264291D03*
D69*
%TO.N,/StackB/VCC*%
X166900000Y-78100000D03*
X170332400Y-86614000D03*
D68*
X163550000Y-73086924D03*
D69*
X164741068Y-75041068D03*
X166900000Y-77200000D03*
X166900000Y-79000000D03*
D68*
X156901000Y-79233937D03*
X167800000Y-74100000D03*
X168599647Y-66600353D03*
%TO.N,/TDI*%
X136956800Y-121198700D03*
X140726900Y-119329200D03*
%TO.N,Net-(U1-Pad19)*%
X130822000Y-123330400D03*
X132298400Y-123516577D03*
%TO.N,Net-(JP13-Pad2)*%
X123456706Y-112624994D03*
X123494800Y-111150400D03*
%TO.N,Net-(JP14-Pad2)*%
X123494800Y-109880400D03*
X124053600Y-113334800D03*
%TO.N,Net-(JP15-Pad2)*%
X151485600Y-78079600D03*
X157376378Y-71051900D03*
%TO.N,Net-(JP16-Pad2)*%
X151794447Y-79218552D03*
X153619200Y-75819000D03*
%TD*%
D70*
%TO.N,Net-(C1-Pad2)*%
X135175000Y-88300000D02*
X136875000Y-88300000D01*
X136875000Y-88300000D02*
X136925000Y-88250000D01*
%TO.N,Net-(C2-Pad2)*%
X136775000Y-90600000D02*
X136925000Y-90750000D01*
X135175000Y-90600000D02*
X136775000Y-90600000D01*
%TO.N,/StackB/CSB*%
X141475000Y-90225000D02*
X141475000Y-90750000D01*
X154583128Y-79673075D02*
X154583128Y-78792609D01*
X155050000Y-80139947D02*
X154583128Y-79673075D01*
X155050000Y-82600000D02*
X155050000Y-80139947D01*
X145540000Y-78960000D02*
X144790000Y-78960000D01*
X151627661Y-69875400D02*
X159842200Y-69875400D01*
X145750000Y-72877208D02*
X148176208Y-70451000D01*
X161750000Y-71783200D02*
X161750000Y-73670000D01*
X145750000Y-78750000D02*
X145750000Y-72900000D01*
X145600000Y-78900000D02*
X145750000Y-78750000D01*
X159332132Y-76087868D02*
X161750000Y-73670000D01*
X145600000Y-78900000D02*
X145540000Y-78960000D01*
X144790000Y-78960000D02*
X143830000Y-79920000D01*
X157287869Y-76087868D02*
X159332132Y-76087868D01*
X144790000Y-78310000D02*
X144790000Y-78960000D01*
X143830000Y-87806396D02*
X143830000Y-87870000D01*
X159842200Y-69875400D02*
X161750000Y-71783200D01*
X143830000Y-87806396D02*
X143830000Y-79920000D01*
X145750000Y-72900000D02*
X145750000Y-72877208D01*
X151552863Y-69950198D02*
X151627661Y-69875400D01*
X143830000Y-87870000D02*
X141475000Y-90225000D01*
X148176208Y-70451000D02*
X149418339Y-70451000D01*
X154583128Y-78792609D02*
X157287869Y-76087868D01*
D71*
%TO.N,+3.3V*%
X128820800Y-126230000D02*
X127254000Y-124663200D01*
D70*
X129056133Y-123428800D02*
X129822000Y-122662933D01*
D71*
X141528800Y-123139200D02*
X143208200Y-123139200D01*
X141173200Y-123494800D02*
X141528800Y-123139200D01*
D70*
X131021427Y-115569771D02*
X131021427Y-115578227D01*
X131322000Y-115878800D02*
X131322000Y-117279700D01*
D71*
X133561200Y-126230000D02*
X133563600Y-126227600D01*
X133561200Y-126230000D02*
X128820800Y-126230000D01*
D70*
X131021427Y-115578227D02*
X131322000Y-115878800D01*
X133873651Y-116747444D02*
X133854256Y-116747444D01*
D71*
X134203200Y-126227600D02*
X140828000Y-126227600D01*
D70*
X134198400Y-124600000D02*
X134198400Y-126222800D01*
X134198400Y-126222800D02*
X134203200Y-126227600D01*
X133854256Y-116747444D02*
X133322000Y-117279700D01*
D71*
X141173200Y-125882400D02*
X141173200Y-123494800D01*
D70*
X129822000Y-122662933D02*
X129822000Y-122154700D01*
X127277100Y-123428800D02*
X129056133Y-123428800D01*
D71*
X133563600Y-126227600D02*
X134203200Y-126227600D01*
X140828000Y-126227600D02*
X141173200Y-125882400D01*
X127254000Y-124663200D02*
X127254000Y-123451900D01*
D72*
%TO.N,GND*%
X129143301Y-104446600D02*
X126034800Y-104446600D01*
D70*
X134009500Y-117624618D02*
X134009500Y-117967200D01*
X133921500Y-117536618D02*
X134009500Y-117624618D01*
D72*
X106654595Y-121800000D02*
X105700000Y-121800000D01*
X112586800Y-124663700D02*
X112586800Y-123200000D01*
X114700000Y-107900000D02*
X114700000Y-108652517D01*
D71*
X124508587Y-123441787D02*
X124266800Y-123200000D01*
D72*
X104475500Y-97525000D02*
X104500500Y-97500000D01*
D70*
X110600000Y-97752178D02*
X110600000Y-96875000D01*
X114800000Y-107800000D02*
X114600000Y-107800000D01*
D71*
X125833813Y-122758113D02*
X125554500Y-122478800D01*
D72*
X114106800Y-123200000D02*
X120617000Y-123200000D01*
X112929271Y-104674012D02*
X125508988Y-104674012D01*
X104076400Y-126135800D02*
X106812728Y-126135800D01*
D70*
X94725000Y-93575000D02*
X94725000Y-92200000D01*
D72*
X96215200Y-84836000D02*
X94183200Y-82804000D01*
X100975000Y-110779400D02*
X100975000Y-110068200D01*
X112586800Y-123200000D02*
X114106800Y-123200000D01*
X120617000Y-123200000D02*
X123117000Y-123200000D01*
X103600000Y-97525000D02*
X104475500Y-97525000D01*
D71*
X141681200Y-118059200D02*
X143208200Y-118059200D01*
D72*
X99900000Y-125250000D02*
X101575000Y-125250000D01*
D70*
X103600000Y-96000000D02*
X102800000Y-95200000D01*
D72*
X103325000Y-125384400D02*
X104076400Y-126135800D01*
X89458800Y-82804000D02*
X88900000Y-83362800D01*
X114700000Y-108652517D02*
X114678314Y-108674203D01*
X107400000Y-125548528D02*
X107400000Y-122545405D01*
X88900000Y-83362800D02*
X88900000Y-84500000D01*
D70*
X129134500Y-121832446D02*
X129134500Y-121467200D01*
D71*
X125833813Y-123441787D02*
X125833813Y-122758113D01*
D70*
X114450000Y-107650000D02*
X114450000Y-106500000D01*
X114950000Y-106500000D02*
X114950000Y-107650000D01*
D71*
X143208200Y-120599200D02*
X143208200Y-121869200D01*
D70*
X102800000Y-95200000D02*
X95900000Y-95200000D01*
X94725000Y-94025000D02*
X94725000Y-93575000D01*
D71*
X141376400Y-118364000D02*
X141681200Y-118059200D01*
D70*
X134009500Y-118467200D02*
X132738800Y-118467200D01*
X110623911Y-97776089D02*
X110600000Y-97752178D01*
D72*
X106812728Y-126135800D02*
X107400000Y-125548528D01*
X109679300Y-123200000D02*
X114106800Y-123200000D01*
D70*
X137007600Y-124155200D02*
X136562800Y-124600000D01*
D71*
X128488146Y-122478800D02*
X125402100Y-122478800D01*
X129045973Y-121920973D02*
X128488146Y-122478800D01*
X141376400Y-121869200D02*
X141376400Y-118364000D01*
D72*
X107400000Y-122545405D02*
X106654595Y-121800000D01*
X98450400Y-109169200D02*
X97541000Y-108259800D01*
D70*
X114600000Y-107800000D02*
X114450000Y-107650000D01*
D72*
X100076000Y-109169200D02*
X98450400Y-109169200D01*
D70*
X103600000Y-97525000D02*
X103600000Y-96000000D01*
D72*
X106524500Y-119300000D02*
X105924500Y-118700000D01*
X125508988Y-104674012D02*
X125708000Y-104475000D01*
D71*
X125554500Y-122478800D02*
X125443874Y-122478800D01*
D72*
X101700000Y-125125000D02*
X103300000Y-125125000D01*
X103800000Y-118700000D02*
X101600000Y-118700000D01*
X103600000Y-119700000D02*
X102600000Y-118700000D01*
X94183200Y-82804000D02*
X89458800Y-82804000D01*
D70*
X95900000Y-95200000D02*
X94725000Y-94025000D01*
D71*
X125833813Y-123441787D02*
X124508587Y-123441787D01*
D72*
X100281100Y-84836000D02*
X96215200Y-84836000D01*
D71*
X125443874Y-122478800D02*
X125402100Y-122520574D01*
D70*
X129045973Y-121920973D02*
X129134500Y-121832446D01*
D72*
X103325000Y-125125000D02*
X103325000Y-125384400D01*
X126034800Y-105034800D02*
X125800000Y-104800000D01*
X129150500Y-104439401D02*
X129143301Y-104446600D01*
X126034800Y-105867200D02*
X126034800Y-105034800D01*
X105700000Y-121800000D02*
X103600000Y-119700000D01*
D70*
X136562800Y-124600000D02*
X136098400Y-124600000D01*
D72*
X100965000Y-116062500D02*
X100965000Y-118065000D01*
X105924500Y-118700000D02*
X103800000Y-118700000D01*
X100975000Y-110068200D02*
X100076000Y-109169200D01*
D71*
X141376400Y-121869200D02*
X143208200Y-121869200D01*
X124266800Y-123200000D02*
X123117000Y-123200000D01*
D70*
X134009500Y-117967200D02*
X134009500Y-118467200D01*
X114950000Y-107650000D02*
X114800000Y-107800000D01*
%TO.N,/~{RESET}*%
X133915996Y-115928007D02*
X135208989Y-117221000D01*
X137033000Y-117221000D02*
X137871200Y-118059200D01*
X131822000Y-116794192D02*
X131822000Y-117279700D01*
X132323073Y-116293119D02*
X131822000Y-116794192D01*
X133589263Y-115928007D02*
X133915996Y-115928007D01*
X133224151Y-116293119D02*
X132323073Y-116293119D01*
X135208989Y-117221000D02*
X137033000Y-117221000D01*
X133224151Y-116293119D02*
X133589263Y-115928007D01*
%TO.N,Net-(C8-Pad1)*%
X135178800Y-125577600D02*
X135178800Y-124630400D01*
D72*
%TO.N,+5V*%
X104750000Y-99075000D02*
X104675000Y-99075000D01*
D70*
X102500000Y-99400000D02*
X102800000Y-99100000D01*
D72*
X108217864Y-116100000D02*
X110258932Y-114058932D01*
X105300000Y-95900000D02*
X105300000Y-98525000D01*
D70*
X106500000Y-123475000D02*
X106500000Y-122599294D01*
X96400000Y-98000000D02*
X101400000Y-98000000D01*
D72*
X118099000Y-109866063D02*
X118099000Y-110470867D01*
D70*
X107200000Y-114650000D02*
X107850000Y-114000000D01*
D72*
X118099000Y-110470867D02*
X117269867Y-111300000D01*
X113017864Y-111300000D02*
X110258932Y-114058932D01*
D70*
X106500000Y-122599294D02*
X106400353Y-122499647D01*
D72*
X105300000Y-98525000D02*
X104750000Y-99075000D01*
X104650000Y-103278400D02*
X104675000Y-103253400D01*
D70*
X104900000Y-123525000D02*
X106450000Y-123525000D01*
D72*
X102000000Y-87500000D02*
X103124000Y-88624000D01*
D70*
X101875000Y-98475000D02*
X101875000Y-99400000D01*
D72*
X104650000Y-103278400D02*
X103828400Y-104100000D01*
D70*
X127353300Y-121528800D02*
X125211800Y-121528800D01*
X102800000Y-99100000D02*
X103575000Y-99100000D01*
X109768900Y-120620000D02*
X123474800Y-120620000D01*
X117950000Y-109717063D02*
X118099000Y-109866063D01*
D72*
X103828400Y-104100000D02*
X102000000Y-104100000D01*
D70*
X101400000Y-98000000D02*
X101875000Y-98475000D01*
D72*
X95800000Y-87500000D02*
X102000000Y-87500000D01*
D70*
X96025000Y-99400000D02*
X96025000Y-98375000D01*
D72*
X103124000Y-93724000D02*
X105300000Y-95900000D01*
D70*
X124283000Y-120600000D02*
X125211800Y-121528800D01*
X107200000Y-115000000D02*
X107200000Y-114650000D01*
D72*
X95800000Y-104100000D02*
X102000000Y-104100000D01*
X104675000Y-99075000D02*
X103600000Y-99075000D01*
D70*
X109980000Y-119126000D02*
X109980000Y-120408900D01*
X101875000Y-99400000D02*
X102500000Y-99400000D01*
D72*
X103124000Y-88624000D02*
X103124000Y-93724000D01*
X117269867Y-111300000D02*
X113017864Y-111300000D01*
X104675000Y-103253400D02*
X104675000Y-99075000D01*
D70*
X96025000Y-98375000D02*
X96400000Y-98000000D01*
X117950000Y-106500000D02*
X117950000Y-109717063D01*
D72*
X107850000Y-116100000D02*
X108217864Y-116100000D01*
D70*
X124283000Y-120600000D02*
X123494800Y-120600000D01*
%TO.N,/StackA/C00*%
X111475000Y-98288604D02*
X111475000Y-107540685D01*
X111025000Y-95325000D02*
X112100000Y-96400000D01*
X110600000Y-93725000D02*
X110600000Y-95325000D01*
X112100000Y-97663604D02*
X111475000Y-98288604D01*
X111709315Y-107775000D02*
X112190685Y-107775000D01*
X112450000Y-107515685D02*
X112450000Y-106500000D01*
X110600000Y-95325000D02*
X111025000Y-95325000D01*
X112100000Y-96400000D02*
X112100000Y-97000000D01*
X111475000Y-107540685D02*
X111709315Y-107775000D01*
X112190685Y-107775000D02*
X112450000Y-107515685D01*
X112100000Y-97000000D02*
X112100000Y-97663604D01*
D72*
%TO.N,Net-(C11-Pad1)*%
X123500000Y-99900000D02*
X123500000Y-99500000D01*
X125125000Y-101525000D02*
X123500000Y-99900000D01*
X125800000Y-99512500D02*
X125800000Y-101525000D01*
D70*
%TO.N,Net-(C13-Pad2)*%
X116950000Y-106500000D02*
X116950000Y-110028876D01*
X116950000Y-110028876D02*
X116846334Y-110132542D01*
%TO.N,Net-(C14-Pad2)*%
X116450000Y-106500000D02*
X116450000Y-109410627D01*
X116450000Y-109410627D02*
X116176376Y-109684251D01*
%TO.N,Net-(CN5-Pad5)*%
X99275000Y-90625000D02*
X99275000Y-92200000D01*
X99600000Y-89300000D02*
X99600000Y-90300000D01*
X99300000Y-90600000D02*
X99275000Y-90625000D01*
X99600000Y-90300000D02*
X99300000Y-90600000D01*
%TO.N,Net-(CN7-Pad6)*%
X97523911Y-101023911D02*
X97400000Y-101147822D01*
X97975000Y-100572822D02*
X97975000Y-99400000D01*
X97523911Y-101023911D02*
X97975000Y-100572822D01*
X97400000Y-101147822D02*
X97400000Y-102300000D01*
%TO.N,/StackA/WDT*%
X118950000Y-109232845D02*
X118950000Y-106500000D01*
X119320023Y-109920022D02*
X119320023Y-109602868D01*
X119320023Y-109602868D02*
X118950000Y-109232845D01*
%TO.N,/SWO*%
X139138200Y-120599200D02*
X135585200Y-120599200D01*
X135585200Y-120599200D02*
X135217200Y-120967200D01*
X135217200Y-120967200D02*
X134009500Y-120967200D01*
%TO.N,Net-(C20-Pad1)*%
X100965000Y-121337500D02*
X100965000Y-122835000D01*
X100965000Y-122835000D02*
X100450000Y-123350000D01*
%TO.N,Net-(C26-Pad2)*%
X103505000Y-123270000D02*
X103505000Y-121337500D01*
X106500000Y-125125000D02*
X104950000Y-125125000D01*
X104900000Y-125075000D02*
X103300000Y-123475000D01*
D72*
%TO.N,/StackB/GND*%
X175100000Y-63850000D02*
X173425000Y-63850000D01*
D70*
X160050000Y-82600000D02*
X160050000Y-83850000D01*
D72*
X148199500Y-79451200D02*
X148199500Y-83299500D01*
X168051472Y-63100000D02*
X167600000Y-63551472D01*
X169300000Y-67300000D02*
X172400000Y-70400000D01*
X170524500Y-91575000D02*
X170499500Y-91600000D01*
D70*
X160200000Y-81300000D02*
X160400000Y-81300000D01*
X179100000Y-93900000D02*
X180275000Y-95075000D01*
X160050000Y-82600000D02*
X160050000Y-81450000D01*
X160000000Y-83900000D02*
X160100000Y-83900000D01*
D72*
X167600000Y-63551472D02*
X167600000Y-66554595D01*
X180797200Y-106222800D02*
X178816000Y-104241600D01*
X169075500Y-70400000D02*
X173400000Y-70400000D01*
X149875000Y-83950000D02*
X159950000Y-83950000D01*
X167600000Y-66554595D02*
X168345405Y-67300000D01*
D70*
X180275000Y-95525000D02*
X180275000Y-96900000D01*
D72*
X171400000Y-91575000D02*
X170524500Y-91575000D01*
X168475500Y-69800000D02*
X169075500Y-70400000D01*
D70*
X172200000Y-93900000D02*
X179100000Y-93900000D01*
X164400000Y-91347822D02*
X164400000Y-92225000D01*
D72*
X171675000Y-63975000D02*
X170800000Y-63100000D01*
D70*
X160100000Y-83900000D02*
X160200000Y-84000000D01*
D72*
X160300000Y-81200000D02*
X160300000Y-80447483D01*
X160300000Y-80447483D02*
X160321686Y-80425797D01*
X149200000Y-84625000D02*
X149875000Y-83950000D01*
X170800000Y-63100000D02*
X168051472Y-63100000D01*
D70*
X160200000Y-84000000D02*
X160300000Y-84000000D01*
X180275000Y-95075000D02*
X180275000Y-95525000D01*
X162200000Y-65000000D02*
X162200000Y-65174500D01*
X171400000Y-91575000D02*
X171400000Y-93100000D01*
X145385534Y-64031504D02*
X147254030Y-65900000D01*
X147254030Y-65900000D02*
X149700000Y-65900000D01*
X171400000Y-93100000D02*
X172200000Y-93900000D01*
X160050000Y-83850000D02*
X160000000Y-83900000D01*
D72*
X148199500Y-83299500D02*
X149200000Y-84300000D01*
X168345405Y-67300000D02*
X169300000Y-67300000D01*
X178816000Y-104241600D02*
X174699300Y-104241600D01*
D70*
X149700000Y-65900000D02*
X162925500Y-65900000D01*
D72*
X184477200Y-106222800D02*
X180797200Y-106222800D01*
D70*
X160050000Y-81450000D02*
X160200000Y-81300000D01*
D72*
X174035000Y-73037500D02*
X174035000Y-71035000D01*
X159950000Y-83950000D02*
X160000000Y-83900000D01*
X186100000Y-104600000D02*
X184477200Y-106222800D01*
X173300000Y-63975000D02*
X171700000Y-63975000D01*
D70*
X160400000Y-81300000D02*
X160550000Y-81450000D01*
X160550000Y-81450000D02*
X160550000Y-82600000D01*
X164376089Y-91323911D02*
X164400000Y-91347822D01*
X162200000Y-65174500D02*
X162925500Y-65900000D01*
%TO.N,/StackB/C00*%
X163290685Y-81325000D02*
X162809315Y-81325000D01*
X163525000Y-90811396D02*
X163525000Y-81559315D01*
X164400000Y-93775000D02*
X163975000Y-93775000D01*
X164400000Y-95375000D02*
X164400000Y-93775000D01*
X162900000Y-92700000D02*
X162900000Y-92100000D01*
X163525000Y-81559315D02*
X163290685Y-81325000D01*
X163975000Y-93775000D02*
X162900000Y-92700000D01*
X162809315Y-81325000D02*
X162550000Y-81584315D01*
X162900000Y-92100000D02*
X162900000Y-91436396D01*
X162900000Y-91436396D02*
X163525000Y-90811396D01*
X162550000Y-81584315D02*
X162550000Y-82600000D01*
D72*
%TO.N,Net-(C31-Pad1)*%
X149875000Y-87575000D02*
X150400000Y-88100000D01*
X150400000Y-88100000D02*
X150400000Y-88900000D01*
X151100000Y-89600000D02*
X151500000Y-89600000D01*
X150400000Y-88900000D02*
X151100000Y-89600000D01*
X149200000Y-89587500D02*
X149200000Y-87575000D01*
D70*
%TO.N,Net-(C33-Pad2)*%
X158050000Y-82600000D02*
X158050000Y-79071124D01*
X158050000Y-79071124D02*
X158153666Y-78967458D01*
%TO.N,Net-(C34-Pad2)*%
X158550000Y-82600000D02*
X158550000Y-79689373D01*
X158550000Y-79689373D02*
X158823624Y-79415749D01*
%TO.N,/StackB/WDT*%
X156050000Y-79867155D02*
X156050000Y-82600000D01*
X155679977Y-79497132D02*
X156050000Y-79867155D01*
X155679977Y-79179978D02*
X155679977Y-79497132D01*
%TO.N,Net-(C40-Pad1)*%
X174035000Y-66265000D02*
X174550000Y-65750000D01*
X174035000Y-67762500D02*
X174035000Y-66265000D01*
%TO.N,Net-(C46-Pad2)*%
X168500000Y-63975000D02*
X170050000Y-63975000D01*
X170100000Y-64025000D02*
X171700000Y-65625000D01*
X171495000Y-65830000D02*
X171495000Y-67762500D01*
D72*
%TO.N,/StackA/PSU_INPUT*%
X96400000Y-111335200D02*
X96535200Y-111200000D01*
X96400000Y-111335200D02*
X96400000Y-116987500D01*
X96535200Y-111200000D02*
X98025000Y-111200000D01*
D70*
%TO.N,/StackA/C08*%
X118300000Y-93800000D02*
X118300000Y-95200000D01*
X119700000Y-97000000D02*
X119700000Y-97500000D01*
X118950000Y-98250000D02*
X118950000Y-99500000D01*
X119700000Y-96500000D02*
X119700000Y-97000000D01*
X118700000Y-96100000D02*
X119300000Y-96100000D01*
X118300000Y-95700000D02*
X118700000Y-96100000D01*
X118300000Y-95200000D02*
X118300000Y-95700000D01*
X119700000Y-97500000D02*
X118950000Y-98250000D01*
X119300000Y-96100000D02*
X119700000Y-96500000D01*
%TO.N,/StackA/C09*%
X119700000Y-93800000D02*
X119700000Y-95200000D01*
X120500000Y-96500000D02*
X120500000Y-97000000D01*
X119700000Y-95700000D02*
X120500000Y-96500000D01*
X119950000Y-98150000D02*
X119950000Y-99500000D01*
X120500000Y-97600000D02*
X119950000Y-98150000D01*
X119700000Y-95200000D02*
X119700000Y-95700000D01*
X120500000Y-97000000D02*
X120500000Y-97600000D01*
%TO.N,/StackA/C10*%
X120500000Y-95700000D02*
X121300000Y-96500000D01*
X121300000Y-97000000D02*
X121300000Y-97700000D01*
X121300000Y-96500000D02*
X121300000Y-97000000D01*
X121300000Y-97700000D02*
X120950000Y-98050000D01*
X120500000Y-95200000D02*
X120500000Y-95700000D01*
X120500000Y-93800000D02*
X120500000Y-95200000D01*
X120950000Y-98050000D02*
X120950000Y-99500000D01*
%TO.N,/StackA/C11*%
X122100000Y-96500000D02*
X122100000Y-97000000D01*
X121950000Y-98050000D02*
X121950000Y-99500000D01*
X122100000Y-97000000D02*
X122100000Y-97900000D01*
X121300000Y-95200000D02*
X121300000Y-95700000D01*
X121300000Y-93800000D02*
X121300000Y-95200000D01*
X121300000Y-95700000D02*
X122100000Y-96500000D01*
X122100000Y-97900000D02*
X121950000Y-98050000D01*
%TO.N,/StackA/C12*%
X122100000Y-95700000D02*
X122950000Y-96550000D01*
X122100000Y-93800000D02*
X122100000Y-95200000D01*
X122950000Y-96550000D02*
X122950000Y-99500000D01*
X122100000Y-95200000D02*
X122100000Y-95700000D01*
%TO.N,/StackA/C04*%
X114500000Y-95700000D02*
X114900000Y-96100000D01*
X114500000Y-95200000D02*
X114500000Y-95700000D01*
X114950000Y-98450000D02*
X114950000Y-99500000D01*
X114900000Y-96100000D02*
X115500000Y-96100000D01*
X115900000Y-97500000D02*
X114950000Y-98450000D01*
X115900000Y-97000000D02*
X115900000Y-97500000D01*
X115900000Y-96500000D02*
X115900000Y-97000000D01*
X114500000Y-93800000D02*
X114500000Y-95200000D01*
X115500000Y-96100000D02*
X115900000Y-96500000D01*
%TO.N,/StackA/C05*%
X115900000Y-95700000D02*
X116700000Y-96500000D01*
X116700000Y-96500000D02*
X116700000Y-97000000D01*
X115900000Y-95200000D02*
X115900000Y-95700000D01*
X115950000Y-98331802D02*
X115950000Y-99500000D01*
X116700000Y-97000000D02*
X116700000Y-97581802D01*
X115900000Y-93800000D02*
X115900000Y-95200000D01*
X116700000Y-97581802D02*
X115950000Y-98331802D01*
%TO.N,/StackA/C06*%
X116950000Y-98150000D02*
X116950000Y-99500000D01*
X116700000Y-95700000D02*
X117500000Y-96500000D01*
X117500000Y-96500000D02*
X117500000Y-97000000D01*
X117500000Y-97000000D02*
X117500000Y-97600000D01*
X116700000Y-95200000D02*
X116700000Y-95700000D01*
X116700000Y-93800000D02*
X116700000Y-95200000D01*
X117500000Y-97600000D02*
X116950000Y-98150000D01*
%TO.N,/StackA/C07*%
X118300000Y-97600000D02*
X117950000Y-97950000D01*
X117500000Y-93800000D02*
X117500000Y-95200000D01*
X117500000Y-95700000D02*
X118300000Y-96500000D01*
X118300000Y-96500000D02*
X118300000Y-97000000D01*
X118300000Y-97000000D02*
X118300000Y-97600000D01*
X117950000Y-97950000D02*
X117950000Y-99500000D01*
X117500000Y-95200000D02*
X117500000Y-95700000D01*
%TO.N,/StackA/C01*%
X112100000Y-95200000D02*
X112100000Y-95700000D01*
X112100000Y-93800000D02*
X112100000Y-95200000D01*
X111950000Y-98450000D02*
X111950000Y-99500000D01*
X112100000Y-95700000D02*
X112900000Y-96500000D01*
X112900000Y-97500000D02*
X111950000Y-98450000D01*
X112900000Y-97000000D02*
X112900000Y-97500000D01*
X112900000Y-96500000D02*
X112900000Y-97000000D01*
%TO.N,/StackA/C02*%
X112900000Y-95200000D02*
X112900000Y-95700000D01*
X112900000Y-93800000D02*
X112900000Y-95200000D01*
X113700000Y-97600000D02*
X112950000Y-98350000D01*
X113700000Y-96500000D02*
X113700000Y-97000000D01*
X112900000Y-95700000D02*
X113700000Y-96500000D01*
X112950000Y-98350000D02*
X112950000Y-99500000D01*
X113700000Y-97000000D02*
X113700000Y-97600000D01*
%TO.N,/StackA/C03*%
X114500000Y-97000000D02*
X114500000Y-97600000D01*
X113700000Y-95700000D02*
X114500000Y-96500000D01*
X113950000Y-98150000D02*
X113950000Y-99500000D01*
X114500000Y-96500000D02*
X114500000Y-97000000D01*
X114500000Y-97600000D02*
X113950000Y-98150000D01*
X113700000Y-95200000D02*
X113700000Y-95700000D01*
X113700000Y-93800000D02*
X113700000Y-95200000D01*
%TO.N,/StackB/C08*%
X156300000Y-93000000D02*
X155700000Y-93000000D01*
X155300000Y-92600000D02*
X155300000Y-92100000D01*
X155700000Y-93000000D02*
X155300000Y-92600000D01*
X156700000Y-95300000D02*
X156700000Y-93900000D01*
X156050000Y-90850000D02*
X156050000Y-89600000D01*
X155300000Y-92100000D02*
X155300000Y-91600000D01*
X156700000Y-93900000D02*
X156700000Y-93400000D01*
X155300000Y-91600000D02*
X156050000Y-90850000D01*
X156700000Y-93400000D02*
X156300000Y-93000000D01*
%TO.N,/StackB/C09*%
X154500000Y-91500000D02*
X155050000Y-90950000D01*
X155300000Y-95300000D02*
X155300000Y-93900000D01*
X155300000Y-93900000D02*
X155300000Y-93400000D01*
X155300000Y-93400000D02*
X154500000Y-92600000D01*
X155050000Y-90950000D02*
X155050000Y-89600000D01*
X154500000Y-92100000D02*
X154500000Y-91500000D01*
X154500000Y-92600000D02*
X154500000Y-92100000D01*
%TO.N,/StackB/C10*%
X154500000Y-93900000D02*
X154500000Y-93400000D01*
X153700000Y-91400000D02*
X154050000Y-91050000D01*
X154500000Y-93400000D02*
X153700000Y-92600000D01*
X154050000Y-91050000D02*
X154050000Y-89600000D01*
X154500000Y-95300000D02*
X154500000Y-93900000D01*
X153700000Y-92600000D02*
X153700000Y-92100000D01*
X153700000Y-92100000D02*
X153700000Y-91400000D01*
%TO.N,/StackB/C11*%
X152900000Y-92600000D02*
X152900000Y-92100000D01*
X152900000Y-92100000D02*
X152900000Y-91200000D01*
X153700000Y-95300000D02*
X153700000Y-93900000D01*
X153700000Y-93400000D02*
X152900000Y-92600000D01*
X153050000Y-91050000D02*
X153050000Y-89600000D01*
X153700000Y-93900000D02*
X153700000Y-93400000D01*
X152900000Y-91200000D02*
X153050000Y-91050000D01*
%TO.N,/StackB/C12*%
X152050000Y-92550000D02*
X152050000Y-89600000D01*
X152900000Y-95300000D02*
X152900000Y-93900000D01*
X152900000Y-93400000D02*
X152050000Y-92550000D01*
X152900000Y-93900000D02*
X152900000Y-93400000D01*
%TO.N,/StackB/C04*%
X160050000Y-90650000D02*
X160050000Y-89600000D01*
X159500000Y-93000000D02*
X159100000Y-92600000D01*
X160500000Y-93900000D02*
X160500000Y-93400000D01*
X159100000Y-92600000D02*
X159100000Y-92100000D01*
X160500000Y-95300000D02*
X160500000Y-93900000D01*
X160100000Y-93000000D02*
X159500000Y-93000000D01*
X159100000Y-92100000D02*
X159100000Y-91600000D01*
X159100000Y-91600000D02*
X160050000Y-90650000D01*
X160500000Y-93400000D02*
X160100000Y-93000000D01*
%TO.N,/StackB/C05*%
X158300000Y-91518198D02*
X159050000Y-90768198D01*
X159100000Y-93400000D02*
X158300000Y-92600000D01*
X159100000Y-93900000D02*
X159100000Y-93400000D01*
X158300000Y-92600000D02*
X158300000Y-92100000D01*
X159050000Y-90768198D02*
X159050000Y-89600000D01*
X158300000Y-92100000D02*
X158300000Y-91518198D01*
X159100000Y-95300000D02*
X159100000Y-93900000D01*
%TO.N,/StackB/C06*%
X158300000Y-93400000D02*
X157500000Y-92600000D01*
X158300000Y-93900000D02*
X158300000Y-93400000D01*
X157500000Y-92100000D02*
X157500000Y-91500000D01*
X157500000Y-92600000D02*
X157500000Y-92100000D01*
X158300000Y-95300000D02*
X158300000Y-93900000D01*
X157500000Y-91500000D02*
X158050000Y-90950000D01*
X158050000Y-90950000D02*
X158050000Y-89600000D01*
%TO.N,/StackB/C07*%
X156700000Y-91500000D02*
X157050000Y-91150000D01*
X157500000Y-95300000D02*
X157500000Y-93900000D01*
X156700000Y-92100000D02*
X156700000Y-91500000D01*
X156700000Y-92600000D02*
X156700000Y-92100000D01*
X157050000Y-91150000D02*
X157050000Y-89600000D01*
X157500000Y-93900000D02*
X157500000Y-93400000D01*
X157500000Y-93400000D02*
X156700000Y-92600000D01*
%TO.N,/StackB/C01*%
X163050000Y-90650000D02*
X163050000Y-89600000D01*
X162900000Y-93900000D02*
X162900000Y-93400000D01*
X162900000Y-93400000D02*
X162100000Y-92600000D01*
X162900000Y-95300000D02*
X162900000Y-93900000D01*
X162100000Y-91600000D02*
X163050000Y-90650000D01*
X162100000Y-92100000D02*
X162100000Y-91600000D01*
X162100000Y-92600000D02*
X162100000Y-92100000D01*
%TO.N,/StackB/C02*%
X161300000Y-92600000D02*
X161300000Y-92100000D01*
X162050000Y-90750000D02*
X162050000Y-89600000D01*
X162100000Y-95300000D02*
X162100000Y-93900000D01*
X161300000Y-92100000D02*
X161300000Y-91500000D01*
X162100000Y-93400000D02*
X161300000Y-92600000D01*
X162100000Y-93900000D02*
X162100000Y-93400000D01*
X161300000Y-91500000D02*
X162050000Y-90750000D01*
%TO.N,/StackB/C03*%
X161300000Y-95300000D02*
X161300000Y-93900000D01*
X161300000Y-93400000D02*
X160500000Y-92600000D01*
X160500000Y-92100000D02*
X160500000Y-91500000D01*
X160500000Y-91500000D02*
X161050000Y-90950000D01*
X160500000Y-92600000D02*
X160500000Y-92100000D01*
X161300000Y-93900000D02*
X161300000Y-93400000D01*
X161050000Y-90950000D02*
X161050000Y-89600000D01*
D72*
%TO.N,Net-(F13-Pad2)*%
X177376361Y-125374400D02*
X175778650Y-125374400D01*
X182320600Y-125379400D02*
X177381361Y-125379400D01*
X175778650Y-125374400D02*
X175773650Y-125369400D01*
X183600000Y-124100000D02*
X180937500Y-124100000D01*
X183600000Y-124100000D02*
X182320600Y-125379400D01*
X177381361Y-125379400D02*
X177376361Y-125374400D01*
%TO.N,Net-(F14-Pad2)*%
X183600000Y-121600000D02*
X180937500Y-121600000D01*
%TO.N,Net-(F15-Pad2)*%
X183600000Y-119100000D02*
X180937500Y-119100000D01*
%TO.N,Net-(F16-Pad2)*%
X183600000Y-116600000D02*
X180937500Y-116600000D01*
%TO.N,Net-(F17-Pad2)*%
X183600000Y-114100000D02*
X180937500Y-114100000D01*
%TO.N,Net-(F18-Pad2)*%
X183600000Y-111600000D02*
X180937500Y-111600000D01*
%TO.N,Net-(F19-Pad2)*%
X182658400Y-109100000D02*
X182067200Y-108508800D01*
X178844400Y-106527600D02*
X180825600Y-108508800D01*
X182067200Y-108508800D02*
X180825600Y-108508800D01*
X175796400Y-106527600D02*
X178844400Y-106527600D01*
X183600000Y-109100000D02*
X182658400Y-109100000D01*
%TO.N,Net-(F20-Pad2)*%
X186100000Y-121600000D02*
X184850000Y-122850000D01*
X181469839Y-122829400D02*
X176327450Y-122829400D01*
X176327450Y-122829400D02*
X175773650Y-122275600D01*
X184850000Y-122850000D02*
X181490439Y-122850000D01*
X181490439Y-122850000D02*
X181469839Y-122829400D01*
%TO.N,Net-(F21-Pad2)*%
X184850000Y-120350000D02*
X181581239Y-120350000D01*
X181469839Y-120238600D02*
X176372600Y-120238600D01*
X176372600Y-120238600D02*
X175768000Y-119634000D01*
X186100000Y-119100000D02*
X184850000Y-120350000D01*
X181581239Y-120350000D02*
X181469839Y-120238600D01*
%TO.N,Net-(F22-Pad2)*%
X181908800Y-117850000D02*
X181706600Y-117647800D01*
X184850000Y-117850000D02*
X181908800Y-117850000D01*
X186100000Y-116600000D02*
X184850000Y-117850000D01*
X181706600Y-117647800D02*
X176451800Y-117647800D01*
X176451800Y-117647800D02*
X175796400Y-116992400D01*
%TO.N,Net-(F23-Pad2)*%
X184850000Y-115350000D02*
X182253600Y-115350000D01*
X182253600Y-115350000D02*
X181919800Y-115016200D01*
X176411000Y-115016200D02*
X175796400Y-114401600D01*
X181919800Y-115016200D02*
X176411000Y-115016200D01*
X186100000Y-114100000D02*
X184850000Y-115350000D01*
%TO.N,Net-(F24-Pad2)*%
X182192000Y-112850000D02*
X181767400Y-112425400D01*
X181767400Y-112425400D02*
X176411000Y-112425400D01*
X176411000Y-112425400D02*
X175796400Y-111810800D01*
X184850000Y-112850000D02*
X182192000Y-112850000D01*
X186100000Y-111600000D02*
X184850000Y-112850000D01*
%TO.N,Net-(F25-Pad2)*%
X181716600Y-109783800D02*
X176411000Y-109783800D01*
X186100000Y-109100000D02*
X184850000Y-110350000D01*
X176411000Y-109783800D02*
X175796400Y-109169200D01*
X184850000Y-110350000D02*
X182282800Y-110350000D01*
X182282800Y-110350000D02*
X181716600Y-109783800D01*
D70*
%TO.N,/StackA/A2*%
X119278400Y-122072400D02*
X119430800Y-121920000D01*
X126547404Y-116895769D02*
X126925000Y-116518173D01*
X122631200Y-117983000D02*
X122639200Y-117975000D01*
X131900400Y-93448400D02*
X131900400Y-91516200D01*
X126740965Y-117975000D02*
X127825000Y-116890965D01*
X130200000Y-100557200D02*
X130200000Y-99450000D01*
X126925000Y-112116677D02*
X122950000Y-108141677D01*
X131170000Y-98480000D02*
X131170000Y-94178800D01*
X131170000Y-94178800D02*
X131900400Y-93448400D01*
X122950000Y-108141677D02*
X122950000Y-106500000D01*
X127825000Y-116890965D02*
X127825000Y-108699800D01*
X130200000Y-106324800D02*
X130200000Y-100557200D01*
X119430800Y-121920000D02*
X120597000Y-121920000D01*
X122639200Y-117975000D02*
X126740965Y-117975000D01*
X126925000Y-116518173D02*
X126925000Y-112116677D01*
X127825000Y-108699800D02*
X130200000Y-106324800D01*
X130200000Y-99450000D02*
X130210000Y-99440000D01*
X124741171Y-116895769D02*
X126547404Y-116895769D01*
X124591171Y-116745769D02*
X124741171Y-116895769D01*
X122631200Y-117983000D02*
X123868431Y-116745769D01*
X130210000Y-99440000D02*
X131170000Y-98480000D01*
X123868431Y-116745769D02*
X124591171Y-116745769D01*
%TO.N,/StackA/A3*%
X129750000Y-105962000D02*
X129750000Y-100955729D01*
X132205200Y-88851000D02*
X132205200Y-87350600D01*
X127375000Y-114075000D02*
X127375000Y-108337000D01*
X130210000Y-93710000D02*
X130210000Y-91760600D01*
X126733800Y-117345769D02*
X127375000Y-116704569D01*
X129750000Y-100955729D02*
X129250000Y-100455729D01*
X130886200Y-91084400D02*
X130886200Y-90170000D01*
X129250000Y-100455729D02*
X129250000Y-95320000D01*
X123450000Y-108005281D02*
X123450000Y-106500000D01*
X130210000Y-91760600D02*
X130886200Y-91084400D01*
X127375000Y-108337000D02*
X129750000Y-105962000D01*
X123117000Y-121900000D02*
X121615200Y-121900000D01*
X130886200Y-90170000D02*
X132205200Y-88851000D01*
X130210000Y-94360000D02*
X130210000Y-93710000D01*
X124342642Y-117345769D02*
X126733800Y-117345769D01*
X127375000Y-114075000D02*
X127375000Y-111930281D01*
X127375000Y-116704569D02*
X127375000Y-114075000D01*
X129250000Y-95320000D02*
X130210000Y-94360000D01*
X127375000Y-111930281D02*
X123450000Y-108005281D01*
%TO.N,/CS*%
X126107305Y-120507051D02*
X126147156Y-120467200D01*
X119950000Y-106500000D02*
X119950000Y-108960053D01*
X126147156Y-120467200D02*
X129134500Y-120467200D01*
X120416872Y-109426925D02*
X120416872Y-110307391D01*
X131216400Y-113334800D02*
X131131600Y-113250000D01*
X115904000Y-112776000D02*
X113250000Y-115430000D01*
X120416872Y-110307391D02*
X117948263Y-112776000D01*
X113233200Y-117957600D02*
X113250000Y-117940800D01*
X125234254Y-119634000D02*
X114909600Y-119634000D01*
X113250000Y-117940800D02*
X113250000Y-115430000D01*
X126107305Y-120507051D02*
X125234254Y-119634000D01*
X114909600Y-119634000D02*
X113233200Y-117957600D01*
X119950000Y-108960053D02*
X120416872Y-109426925D01*
X131131600Y-113250000D02*
X130200000Y-113250000D01*
X117948263Y-112776000D02*
X115904000Y-112776000D01*
%TO.N,/MOSI*%
X120950000Y-108687261D02*
X120950000Y-106500000D01*
X118821200Y-117500400D02*
X118250000Y-116929200D01*
X126368000Y-119967200D02*
X125584800Y-119184000D01*
X118250000Y-113747055D02*
X118250000Y-115430000D01*
X120504800Y-119184000D02*
X118821200Y-117500400D01*
X125584800Y-119184000D02*
X120504800Y-119184000D01*
X118250000Y-113747055D02*
X121316872Y-110680183D01*
X121316872Y-109054133D02*
X120950000Y-108687261D01*
X118250000Y-116929200D02*
X118250000Y-115430000D01*
X129134500Y-119967200D02*
X126368000Y-119967200D01*
X121316872Y-110680183D02*
X121316872Y-109054133D01*
%TO.N,/MISO*%
X121450000Y-108550865D02*
X121766872Y-108867737D01*
X125621696Y-118584500D02*
X120954800Y-118584500D01*
X120750000Y-118379700D02*
X120750000Y-115430000D01*
X120750000Y-111883451D02*
X120750000Y-115430000D01*
X126504396Y-119467200D02*
X125621696Y-118584500D01*
X121766872Y-110866579D02*
X120750000Y-111883451D01*
X129134500Y-119467200D02*
X126504396Y-119467200D01*
X120954800Y-118584500D02*
X120750000Y-118379700D01*
X121450000Y-106500000D02*
X121450000Y-108550865D01*
X121766872Y-108867737D02*
X121766872Y-110866579D01*
%TO.N,/StackB/ICMP_2*%
X154050000Y-80412739D02*
X154050000Y-82600000D01*
X156750000Y-75352945D02*
X153683128Y-78419817D01*
X156750000Y-75352945D02*
X156750000Y-73670000D01*
X153683128Y-80045867D02*
X154050000Y-80412739D01*
X153683128Y-78419817D02*
X153683128Y-80045867D01*
%TO.N,/StackB/IBIAS_2*%
X153550000Y-82600000D02*
X153550000Y-80549135D01*
X153550000Y-80549135D02*
X153233128Y-80232263D01*
X154250000Y-72614400D02*
X154250000Y-73670000D01*
X153233128Y-78233421D02*
X154250000Y-77216549D01*
X153287000Y-71651400D02*
X154250000Y-72614400D01*
X153233128Y-80232263D02*
X153233128Y-78233421D01*
X154250000Y-77216549D02*
X154250000Y-73670000D01*
%TO.N,/StackA/A0*%
X121700000Y-111768440D02*
X121700000Y-113069500D01*
X113741200Y-121412000D02*
X114229200Y-121900000D01*
X121950000Y-108414469D02*
X121950000Y-106500000D01*
X122257841Y-111210599D02*
X122257841Y-108722310D01*
X122257841Y-108722310D02*
X121950000Y-108414469D01*
X114229200Y-121900000D02*
X115617000Y-121900000D01*
X122257841Y-111210599D02*
X121700000Y-111768440D01*
%TO.N,/StackA/A1*%
X116382800Y-121920000D02*
X116402800Y-121900000D01*
X121925000Y-116327000D02*
X121925000Y-114447400D01*
X122450000Y-113922400D02*
X122450000Y-111866969D01*
X122857841Y-108685914D02*
X122450000Y-108278073D01*
X122450000Y-111866969D02*
X122857841Y-111459128D01*
X116402800Y-121900000D02*
X118117000Y-121900000D01*
X122450000Y-108278073D02*
X122450000Y-106500000D01*
X121361200Y-116890800D02*
X121925000Y-116327000D01*
X121925000Y-114447400D02*
X122450000Y-113922400D01*
X122857841Y-111459128D02*
X122857841Y-108685914D01*
%TO.N,/StackA/DTEN*%
X108356400Y-121158000D02*
X109118400Y-121920000D01*
X113504947Y-112473911D02*
X110395600Y-115583258D01*
X108356400Y-118593996D02*
X108356400Y-121158000D01*
X115677042Y-110732542D02*
X117094863Y-110732542D01*
X113743911Y-112473911D02*
X113504947Y-112473911D01*
X115570000Y-110625500D02*
X115677042Y-110732542D01*
X117450000Y-110377405D02*
X117450000Y-106500000D01*
X117094863Y-110732542D02*
X117450000Y-110377405D01*
X110395600Y-115583258D02*
X110395600Y-116554796D01*
X110395600Y-116554796D02*
X108356400Y-118593996D01*
%TO.N,/StackA/ISOMD*%
X119450000Y-109096449D02*
X119450000Y-106500000D01*
X111099600Y-121920000D02*
X112410500Y-121920000D01*
X110845600Y-115769654D02*
X113541343Y-113073911D01*
X119920023Y-109566472D02*
X119450000Y-109096449D01*
X119920023Y-110167844D02*
X119920023Y-109566472D01*
X115621351Y-112275000D02*
X117812867Y-112275000D01*
X117812867Y-112275000D02*
X119920023Y-110167844D01*
X113541343Y-113073911D02*
X114822440Y-113073911D01*
X109380500Y-118461505D02*
X109380500Y-118206292D01*
X109380500Y-118206292D02*
X110845600Y-116741192D01*
X110845600Y-116741192D02*
X110845600Y-115769654D01*
X114822440Y-113073911D02*
X115621351Y-112275000D01*
%TO.N,/StackB/A0*%
X153050000Y-80685531D02*
X153050000Y-82600000D01*
X157642300Y-67200000D02*
X158950497Y-67200000D01*
X152742159Y-80377690D02*
X153050000Y-80685531D01*
X153619200Y-76592300D02*
X152742159Y-77469341D01*
X152742159Y-77469341D02*
X152742159Y-80377690D01*
%TO.N,/StackB/A1*%
X150286100Y-78558027D02*
X152550000Y-80821927D01*
X150575000Y-75789571D02*
X150286100Y-76078471D01*
X153593800Y-67767200D02*
X154178000Y-67183000D01*
X150286100Y-76078471D02*
X150286100Y-78558027D01*
X154178000Y-67183000D02*
X154965400Y-67183000D01*
X150575000Y-72933299D02*
X150575000Y-75789571D01*
X152550000Y-80821927D02*
X152550000Y-82600000D01*
X151689994Y-71818305D02*
X150575000Y-72933299D01*
%TO.N,/StackB/DTEN*%
X158895627Y-78600000D02*
X158663085Y-78367458D01*
X158663085Y-78367458D02*
X157905137Y-78367458D01*
X157550000Y-78722595D02*
X157550000Y-82600000D01*
X161188400Y-76675500D02*
X161445642Y-76675500D01*
X157905137Y-78367458D02*
X157550000Y-78722595D01*
X164736000Y-67200000D02*
X162925500Y-67200000D01*
X165450000Y-67914000D02*
X164736000Y-67200000D01*
X161445642Y-76675500D02*
X165450000Y-72671142D01*
X165450000Y-72671142D02*
X165450000Y-67914000D01*
%TO.N,/StackB/ISOMD*%
X159378649Y-76825000D02*
X157187133Y-76825000D01*
X161458657Y-76026089D02*
X160177560Y-76026089D01*
X160283900Y-67200000D02*
X161535600Y-67200000D01*
X164846000Y-69443600D02*
X164846000Y-72638746D01*
X155079977Y-79533528D02*
X155550000Y-80003551D01*
X155550000Y-80003551D02*
X155550000Y-82600000D01*
X160177560Y-76026089D02*
X159378649Y-76825000D01*
X157187133Y-76825000D02*
X155079977Y-78932156D01*
X155079977Y-78932156D02*
X155079977Y-79533528D01*
X164846000Y-72638746D02*
X161458657Y-76026089D01*
%TO.N,/StackA/CC02*%
X113850000Y-85965075D02*
X113850000Y-86834925D01*
X112874161Y-87810764D02*
X112874161Y-89448529D01*
D72*
X97840800Y-77978000D02*
X96954800Y-77978000D01*
X98450400Y-78587600D02*
X97840800Y-77978000D01*
D70*
X112900000Y-89474368D02*
X112900000Y-92000000D01*
D72*
X106525200Y-82400000D02*
X106525200Y-82344400D01*
X106525200Y-82344400D02*
X102768400Y-78587600D01*
D70*
X106525200Y-82400000D02*
X110284925Y-82400000D01*
X113850000Y-86834925D02*
X112874161Y-87810764D01*
D72*
X102768400Y-78587600D02*
X98450400Y-78587600D01*
D70*
X112874161Y-89448529D02*
X112900000Y-89474368D01*
X110284925Y-82400000D02*
X113850000Y-85965075D01*
%TO.N,/StackA/CC00*%
X106503899Y-86637701D02*
X107537701Y-86637701D01*
X107537701Y-86637701D02*
X110600000Y-89700000D01*
D72*
X102666800Y-81229200D02*
X98450400Y-81229200D01*
D70*
X110600000Y-89700000D02*
X110600000Y-92075000D01*
D72*
X97790000Y-80568800D02*
X96954800Y-80568800D01*
X106503899Y-85066299D02*
X102666800Y-81229200D01*
X98450400Y-81229200D02*
X97790000Y-80568800D01*
X106503899Y-86637701D02*
X106503899Y-85066299D01*
D70*
%TO.N,/StackA/CC03*%
X114050000Y-90600000D02*
X113700000Y-90950000D01*
X110200000Y-81200000D02*
X112648529Y-81200000D01*
X114073661Y-87912735D02*
X114073661Y-89449029D01*
D72*
X103276400Y-77266800D02*
X107209600Y-81200000D01*
D70*
X112648529Y-81200000D02*
X114750000Y-83301471D01*
X114050000Y-89472690D02*
X114050000Y-90600000D01*
X114750000Y-83301471D02*
X114750000Y-87236396D01*
X114750000Y-87236396D02*
X114073661Y-87912735D01*
X113700000Y-90950000D02*
X113700000Y-92000000D01*
D72*
X107209600Y-81200000D02*
X110200000Y-81200000D01*
X101984000Y-77266800D02*
X103276400Y-77266800D01*
D70*
X114073661Y-89449029D02*
X114050000Y-89472690D01*
%TO.N,/StackA/CC01*%
X113400000Y-86151471D02*
X113400000Y-86648529D01*
D72*
X101984000Y-79908400D02*
X102565200Y-79908400D01*
D70*
X112648529Y-85400000D02*
X113400000Y-86151471D01*
X113400000Y-86648529D02*
X112100000Y-87948529D01*
D72*
X102565200Y-79908400D02*
X108056800Y-85400000D01*
D70*
X112100000Y-87948529D02*
X112100000Y-92000000D01*
X110200000Y-85400000D02*
X112648529Y-85400000D01*
D72*
X108056800Y-85400000D02*
X110200000Y-85400000D01*
D70*
%TO.N,/StackB/CC02*%
X161150000Y-103134925D02*
X161150000Y-102265075D01*
X161150000Y-102265075D02*
X162125839Y-101289236D01*
D72*
X177319400Y-110444200D02*
X178025600Y-111150400D01*
D70*
X162125839Y-101289236D02*
X162125839Y-99651471D01*
X162100000Y-99625632D02*
X162100000Y-97100000D01*
D72*
X168676000Y-106768039D02*
X172352161Y-110444200D01*
D70*
X168676000Y-106700000D02*
X164715075Y-106700000D01*
D72*
X168676000Y-106700000D02*
X168676000Y-106768039D01*
D70*
X164715075Y-106700000D02*
X161150000Y-103134925D01*
D72*
X172352161Y-110444200D02*
X177319400Y-110444200D01*
D70*
X162125839Y-99651471D02*
X162100000Y-99625632D01*
D72*
%TO.N,/StackB/CC00*%
X168656000Y-102462299D02*
X168706800Y-102513099D01*
X177319400Y-107802600D02*
X178025600Y-108508800D01*
X168706800Y-104394000D02*
X172115400Y-107802600D01*
D70*
X164400000Y-99400000D02*
X164400000Y-97025000D01*
X167462299Y-102462299D02*
X164400000Y-99400000D01*
X168656000Y-102462299D02*
X167462299Y-102462299D01*
D72*
X168706800Y-102513099D02*
X168706800Y-104394000D01*
X172115400Y-107802600D02*
X177319400Y-107802600D01*
%TO.N,/StackB/CC03*%
X172313600Y-111810800D02*
X168402800Y-107900000D01*
D70*
X160950000Y-98500000D02*
X161300000Y-98150000D01*
X160250000Y-105798529D02*
X160250000Y-101863604D01*
X162351471Y-107900000D02*
X160250000Y-105798529D01*
X160950000Y-99627310D02*
X160950000Y-98500000D01*
X164800000Y-107900000D02*
X162351471Y-107900000D01*
X161300000Y-98150000D02*
X161300000Y-97100000D01*
X160250000Y-101863604D02*
X160926339Y-101187265D01*
D72*
X172996400Y-111810800D02*
X172313600Y-111810800D01*
D70*
X160926339Y-99650971D02*
X160950000Y-99627310D01*
X160926339Y-101187265D02*
X160926339Y-99650971D01*
D72*
X168402800Y-107900000D02*
X164800000Y-107900000D01*
%TO.N,/StackB/CC01*%
X166800000Y-105700000D02*
X164800000Y-103700000D01*
D70*
X162900000Y-101151471D02*
X162900000Y-97100000D01*
X161600000Y-102948529D02*
X161600000Y-102451471D01*
D72*
X168946000Y-105700000D02*
X166800000Y-105700000D01*
D70*
X162351471Y-103700000D02*
X161600000Y-102948529D01*
D72*
X172415200Y-109169200D02*
X168946000Y-105700000D01*
X172996400Y-109169200D02*
X172415200Y-109169200D01*
D70*
X161600000Y-102451471D02*
X162900000Y-101151471D01*
X164800000Y-103700000D02*
X162351471Y-103700000D01*
%TO.N,Net-(Qda0-Pad1)*%
X111450500Y-89400000D02*
X111450500Y-87749500D01*
X111450500Y-87749500D02*
X112800000Y-86400000D01*
%TO.N,Net-(Qda2-Pad1)*%
X114300000Y-87050000D02*
X114300000Y-83700000D01*
X113474161Y-89200000D02*
X113474161Y-87875839D01*
X113474161Y-87875839D02*
X114300000Y-87050000D01*
X114300000Y-83700000D02*
X112800000Y-82200000D01*
%TO.N,Net-(Qda4-Pad1)*%
X115000000Y-88259188D02*
X115650000Y-87609188D01*
X115650000Y-87609188D02*
X115650000Y-80850000D01*
X115123026Y-89650490D02*
X115000000Y-89527464D01*
X115650000Y-80850000D02*
X112800000Y-78000000D01*
X115000000Y-89527464D02*
X115000000Y-88259188D01*
%TO.N,Net-(Qda6-Pad1)*%
X117010322Y-78010322D02*
X112800000Y-73800000D01*
X117073661Y-90099500D02*
X117010322Y-90036161D01*
X117010322Y-90036161D02*
X117010322Y-78010322D01*
%TO.N,Net-(Qda8-Pad1)*%
X118973911Y-75773911D02*
X112800000Y-69600000D01*
X118973911Y-90549500D02*
X118973911Y-75773911D01*
%TO.N,Net-(Qda10-Pad1)*%
X121000000Y-73600000D02*
X112800000Y-65400000D01*
X121089562Y-90999500D02*
X121000000Y-90909938D01*
X121000000Y-90909938D02*
X121000000Y-73600000D01*
%TO.N,Net-(Qdb0-Pad1)*%
X163549500Y-101350500D02*
X162200000Y-102700000D01*
X163549500Y-99700000D02*
X163549500Y-101350500D01*
%TO.N,Net-(Qdb2-Pad1)*%
X160700000Y-102050000D02*
X160700000Y-105400000D01*
X160700000Y-105400000D02*
X162200000Y-106900000D01*
X161525839Y-101224161D02*
X160700000Y-102050000D01*
X161525839Y-99900000D02*
X161525839Y-101224161D01*
%TO.N,Net-(Qdb4-Pad1)*%
X159350000Y-108250000D02*
X162200000Y-111100000D01*
X159876974Y-99449510D02*
X160000000Y-99572536D01*
X159350000Y-101490812D02*
X159350000Y-108250000D01*
X160000000Y-100840812D02*
X159350000Y-101490812D01*
X160000000Y-99572536D02*
X160000000Y-100840812D01*
%TO.N,Net-(Qdb6-Pad1)*%
X157926339Y-99000500D02*
X157989678Y-99063839D01*
X157989678Y-111089678D02*
X162200000Y-115300000D01*
X157989678Y-99063839D02*
X157989678Y-111089678D01*
%TO.N,Net-(Qdb8-Pad1)*%
X156026089Y-113326089D02*
X162200000Y-119500000D01*
X156026089Y-98550500D02*
X156026089Y-113326089D01*
%TO.N,Net-(Qdb10-Pad1)*%
X154000000Y-98190062D02*
X154000000Y-115500000D01*
X154000000Y-115500000D02*
X162200000Y-123700000D01*
X153910438Y-98100500D02*
X154000000Y-98190062D01*
%TO.N,Net-(R1-Pad1)*%
X129590421Y-125120021D02*
X129844042Y-124866400D01*
X129844042Y-124866400D02*
X130132000Y-124866400D01*
X130132000Y-124866400D02*
X130398400Y-124600000D01*
%TO.N,Net-(R8-Pad2)*%
X102235000Y-122365000D02*
X102235000Y-121337500D01*
X101700000Y-122900000D02*
X102235000Y-122365000D01*
X101700000Y-123475000D02*
X101700000Y-122900000D01*
%TO.N,Net-(R21-Pad2)*%
X173300000Y-65625000D02*
X173300000Y-66200000D01*
X172765000Y-66735000D02*
X172765000Y-67762500D01*
X173300000Y-66200000D02*
X172765000Y-66735000D01*
%TO.N,/StackA/S09*%
X120450000Y-103750000D02*
X120500000Y-103800000D01*
X120450000Y-99500000D02*
X120450000Y-103750000D01*
%TO.N,/StackA/S10*%
X121450000Y-99500000D02*
X121450000Y-103650000D01*
X121450000Y-103650000D02*
X121300000Y-103800000D01*
%TO.N,/StackA/S11*%
X122450000Y-99500000D02*
X122450000Y-103450000D01*
X122450000Y-103450000D02*
X122100000Y-103800000D01*
%TO.N,/StackA/S04*%
X115450000Y-103350000D02*
X115900000Y-103800000D01*
X115450000Y-99500000D02*
X115450000Y-103350000D01*
%TO.N,/StackA/S05*%
X116450000Y-99500000D02*
X116450000Y-103550000D01*
X116450000Y-103550000D02*
X116700000Y-103800000D01*
%TO.N,/StackA/S06*%
X117450000Y-103750000D02*
X117500000Y-103800000D01*
X117450000Y-99500000D02*
X117450000Y-103750000D01*
%TO.N,/StackA/S07*%
X118450000Y-103650000D02*
X118300000Y-103800000D01*
X118450000Y-99500000D02*
X118450000Y-103650000D01*
%TO.N,/StackA/S00*%
X111950000Y-103955159D02*
X112078668Y-103826491D01*
X111950000Y-106500000D02*
X111950000Y-103955159D01*
%TO.N,/StackA/S01*%
X112450000Y-99500000D02*
X112450000Y-103350000D01*
X112450000Y-103350000D02*
X112900000Y-103800000D01*
%TO.N,/StackA/S02*%
X113450000Y-99500000D02*
X113450000Y-103550000D01*
X113450000Y-103550000D02*
X113700000Y-103800000D01*
%TO.N,/StackA/S03*%
X114450000Y-99500000D02*
X114450000Y-103750000D01*
X114450000Y-103750000D02*
X114500000Y-103800000D01*
D72*
%TO.N,/StackA/CC12*%
X97406600Y-65425000D02*
X96954800Y-64973200D01*
X104552800Y-63900000D02*
X104552800Y-64001600D01*
D70*
X122300000Y-90463604D02*
X122300000Y-91400000D01*
X112886396Y-63900000D02*
X121900000Y-72913604D01*
D72*
X104552800Y-64001600D02*
X103129400Y-65425000D01*
D70*
X122300000Y-91400000D02*
X122100000Y-91600000D01*
X104552800Y-63900000D02*
X112886396Y-63900000D01*
D72*
X103129400Y-65425000D02*
X97406600Y-65425000D01*
D70*
X121900000Y-72913604D02*
X121900000Y-90063604D01*
X122100000Y-91600000D02*
X122100000Y-92000000D01*
X121900000Y-90063604D02*
X122300000Y-90463604D01*
%TO.N,/StackA/CC11*%
X121450000Y-90250000D02*
X121689562Y-90489562D01*
X121300000Y-92000000D02*
X121300000Y-91637591D01*
X113025498Y-64675498D02*
X121450000Y-73100000D01*
D72*
X104851200Y-64668400D02*
X110192902Y-64668400D01*
D70*
X121450000Y-73100000D02*
X121450000Y-90250000D01*
D72*
X102057900Y-66250000D02*
X103269600Y-66250000D01*
X110192902Y-64668400D02*
X110200000Y-64675498D01*
X103269600Y-66250000D02*
X104851200Y-64668400D01*
D70*
X110200000Y-64675498D02*
X113025498Y-64675498D01*
X121689562Y-90489562D02*
X121689562Y-91248029D01*
X121300000Y-91637591D02*
X121689562Y-91248029D01*
%TO.N,/StackA/CC10*%
X105274800Y-65600000D02*
X111800000Y-65600000D01*
X120489562Y-90750971D02*
X120489562Y-91248029D01*
D72*
X96954800Y-67564000D02*
X97739200Y-67564000D01*
D70*
X120500000Y-91258467D02*
X120500000Y-92000000D01*
X111800000Y-65600000D02*
X120500000Y-74300000D01*
D72*
X98298000Y-68122800D02*
X102666800Y-68122800D01*
D70*
X120500000Y-90740533D02*
X120489562Y-90750971D01*
D72*
X102666800Y-68122800D02*
X105189600Y-65600000D01*
D70*
X120489562Y-91248029D02*
X120500000Y-91258467D01*
D72*
X97739200Y-67564000D02*
X98298000Y-68122800D01*
X105189600Y-65600000D02*
X105274800Y-65600000D01*
D70*
X120500000Y-74300000D02*
X120500000Y-90740533D01*
%TO.N,/StackA/CC09*%
X110200000Y-68600000D02*
X112900000Y-68600000D01*
X119700000Y-75400000D02*
X119700000Y-92000000D01*
X112900000Y-68600000D02*
X119700000Y-75400000D01*
D72*
X102825029Y-69443600D02*
X103668629Y-68600000D01*
X102012400Y-69443600D02*
X102825029Y-69443600D01*
X103668629Y-68600000D02*
X110200000Y-68600000D01*
%TO.N,/StackA/CC08*%
X103327200Y-70713600D02*
X103322200Y-70718600D01*
X101363161Y-70713600D02*
X99861639Y-70713600D01*
D70*
X110750000Y-69800000D02*
X118300000Y-77350000D01*
X118300000Y-77350000D02*
X118300000Y-92000000D01*
D72*
X99861639Y-70713600D02*
X99856639Y-70718600D01*
D70*
X104292400Y-70713600D02*
X105206000Y-69800000D01*
D72*
X101368161Y-70718600D02*
X101363161Y-70713600D01*
X104292400Y-70713600D02*
X103327200Y-70713600D01*
X103322200Y-70718600D02*
X101368161Y-70718600D01*
X99856639Y-70718600D02*
X97518600Y-70718600D01*
D70*
X105206000Y-69800000D02*
X110750000Y-69800000D01*
D72*
X97518600Y-70718600D02*
X96954800Y-70154800D01*
D70*
%TO.N,/StackA/CC07*%
X117673661Y-91348029D02*
X117450000Y-91571690D01*
X117460322Y-89637632D02*
X117673661Y-89850971D01*
D72*
X101984000Y-72085200D02*
X109485200Y-72085200D01*
X109485200Y-72085200D02*
X110200000Y-72800000D01*
D70*
X113050000Y-72800000D02*
X117460322Y-77210322D01*
X117673661Y-89850971D02*
X117673661Y-91348029D01*
X110200000Y-72800000D02*
X113050000Y-72800000D01*
X117460322Y-77210322D02*
X117460322Y-89637632D01*
X117500000Y-91571690D02*
X117500000Y-92000000D01*
%TO.N,/StackA/CC06*%
X116650000Y-90524368D02*
X116650000Y-91800000D01*
D72*
X99828239Y-73360200D02*
X99833239Y-73355200D01*
D70*
X116300000Y-90174368D02*
X116650000Y-90524368D01*
X116550000Y-87981980D02*
X116300000Y-88231980D01*
D72*
X101339761Y-73360200D02*
X102628239Y-73360200D01*
X97795000Y-72745600D02*
X98409600Y-73360200D01*
X96954800Y-72745600D02*
X97795000Y-72745600D01*
X98409600Y-73360200D02*
X99828239Y-73360200D01*
D70*
X116300000Y-88231980D02*
X116300000Y-90174368D01*
X110336396Y-74000000D02*
X116550000Y-80213604D01*
X103600000Y-74000000D02*
X110336396Y-74000000D01*
D72*
X99833239Y-73355200D02*
X101334761Y-73355200D01*
X102633239Y-73355200D02*
X102955200Y-73355200D01*
X102628239Y-73360200D02*
X102633239Y-73355200D01*
X101334761Y-73355200D02*
X101339761Y-73360200D01*
X102955200Y-73355200D02*
X103600000Y-74000000D01*
D70*
X116550000Y-80213604D02*
X116550000Y-87981980D01*
D72*
%TO.N,/StackA/CC05*%
X103144629Y-74676000D02*
X101984000Y-74676000D01*
D70*
X115800000Y-90500000D02*
X115900000Y-90600000D01*
X116100000Y-87795584D02*
X115800000Y-88095584D01*
X112700000Y-77000000D02*
X116100000Y-80400000D01*
D72*
X109067600Y-75438000D02*
X103906629Y-75438000D01*
X110660000Y-77000000D02*
X110629600Y-77000000D01*
D70*
X116100000Y-80400000D02*
X116100000Y-87795584D01*
X115900000Y-90600000D02*
X115900000Y-92000000D01*
X110660000Y-77000000D02*
X112700000Y-77000000D01*
D72*
X110629600Y-77000000D02*
X109067600Y-75438000D01*
X103906629Y-75438000D02*
X103144629Y-74676000D01*
D70*
X115800000Y-88095584D02*
X115800000Y-90500000D01*
%TO.N,/StackA/CC04*%
X115200000Y-87422792D02*
X114523661Y-88099131D01*
D72*
X105511600Y-78333600D02*
X105511600Y-78232000D01*
X105511600Y-78232000D02*
X103230600Y-75951000D01*
X98404600Y-75951000D02*
X97790000Y-75336400D01*
D70*
X105511600Y-78333600D02*
X106828000Y-79650000D01*
X106828000Y-79650000D02*
X111734925Y-79650000D01*
X114523661Y-88099131D02*
X114523661Y-89637735D01*
X115200000Y-83115075D02*
X115200000Y-87422792D01*
D72*
X97790000Y-75336400D02*
X96954800Y-75336400D01*
X103230600Y-75951000D02*
X98404600Y-75951000D01*
D70*
X114523661Y-89637735D02*
X114500000Y-89661396D01*
X111734925Y-79650000D02*
X115200000Y-83115075D01*
X114500000Y-89661396D02*
X114500000Y-92000000D01*
%TO.N,/StackB/S09*%
X154550000Y-89600000D02*
X154550000Y-85350000D01*
X154550000Y-85350000D02*
X154500000Y-85300000D01*
%TO.N,/StackB/S10*%
X153550000Y-85450000D02*
X153700000Y-85300000D01*
X153550000Y-89600000D02*
X153550000Y-85450000D01*
%TO.N,/StackB/S11*%
X152550000Y-85650000D02*
X152900000Y-85300000D01*
X152550000Y-89600000D02*
X152550000Y-85650000D01*
%TO.N,/StackB/S04*%
X159550000Y-89600000D02*
X159550000Y-85750000D01*
X159550000Y-85750000D02*
X159100000Y-85300000D01*
%TO.N,/StackB/S05*%
X158550000Y-85550000D02*
X158300000Y-85300000D01*
X158550000Y-89600000D02*
X158550000Y-85550000D01*
%TO.N,/StackB/S06*%
X157550000Y-85350000D02*
X157500000Y-85300000D01*
X157550000Y-89600000D02*
X157550000Y-85350000D01*
%TO.N,/StackB/S07*%
X156550000Y-89600000D02*
X156550000Y-85450000D01*
X156550000Y-85450000D02*
X156700000Y-85300000D01*
%TO.N,/StackB/S00*%
X163050000Y-82600000D02*
X163050000Y-85144841D01*
X163050000Y-85144841D02*
X162921332Y-85273509D01*
%TO.N,/StackB/S01*%
X162550000Y-89600000D02*
X162550000Y-85750000D01*
X162550000Y-85750000D02*
X162100000Y-85300000D01*
%TO.N,/StackB/S02*%
X161550000Y-85550000D02*
X161300000Y-85300000D01*
X161550000Y-89600000D02*
X161550000Y-85550000D01*
%TO.N,/StackB/S03*%
X160550000Y-85350000D02*
X160500000Y-85300000D01*
X160550000Y-89600000D02*
X160550000Y-85350000D01*
%TO.N,/StackB/CC12*%
X170811500Y-125200000D02*
X162113604Y-125200000D01*
X162113604Y-125200000D02*
X153100000Y-116186396D01*
X153100000Y-116186396D02*
X153100000Y-99036396D01*
D72*
X172163726Y-123694400D02*
X177615600Y-123694400D01*
D70*
X170812000Y-125200500D02*
X170811500Y-125200000D01*
X152700000Y-98636396D02*
X152700000Y-97700000D01*
X153100000Y-99036396D02*
X152700000Y-98636396D01*
D72*
X177615600Y-123694400D02*
X178025600Y-124104400D01*
X170812000Y-125046126D02*
X172163726Y-123694400D01*
D70*
X152700000Y-97700000D02*
X152900000Y-97500000D01*
D72*
X170812000Y-125200500D02*
X170812000Y-125046126D01*
D70*
X152900000Y-97500000D02*
X152900000Y-97100000D01*
%TO.N,/StackB/CC11*%
X153550000Y-98850000D02*
X153310438Y-98610438D01*
X161974502Y-124424502D02*
X153550000Y-116000000D01*
X153310438Y-98610438D02*
X153310438Y-97801971D01*
D72*
X171856400Y-122275600D02*
X169707498Y-124424502D01*
D70*
X153550000Y-116000000D02*
X153550000Y-98850000D01*
X153310438Y-97801971D02*
X153700000Y-97412409D01*
D72*
X172973650Y-122275600D02*
X171856400Y-122275600D01*
X169707498Y-124424502D02*
X164800000Y-124424502D01*
D70*
X164800000Y-124424502D02*
X161974502Y-124424502D01*
X153700000Y-97412409D02*
X153700000Y-97100000D01*
D72*
%TO.N,/StackB/CC10*%
X176631600Y-120954800D02*
X177190400Y-121513600D01*
D70*
X168600000Y-123500000D02*
X163200000Y-123500000D01*
D72*
X171145200Y-120954800D02*
X176631600Y-120954800D01*
D70*
X154510438Y-98349029D02*
X154510438Y-97851971D01*
X154500000Y-98359467D02*
X154510438Y-98349029D01*
X169875200Y-122224800D02*
X168600000Y-123500000D01*
D72*
X169875200Y-122224800D02*
X171145200Y-120954800D01*
D70*
X154510438Y-97851971D02*
X154500000Y-97841533D01*
X163200000Y-123500000D02*
X154500000Y-114800000D01*
D72*
X177190400Y-121513600D02*
X178025600Y-121513600D01*
D70*
X154500000Y-114800000D02*
X154500000Y-98359467D01*
X154500000Y-97841533D02*
X154500000Y-97100000D01*
%TO.N,/StackB/CC09*%
X164800000Y-120500000D02*
X162100000Y-120500000D01*
D72*
X172968000Y-119634000D02*
X172502000Y-120100000D01*
D70*
X162100000Y-120500000D02*
X155300000Y-113700000D01*
X155300000Y-113700000D02*
X155300000Y-97100000D01*
D72*
X172502000Y-120100000D02*
X165200000Y-120100000D01*
X165200000Y-120100000D02*
X164800000Y-120500000D01*
%TO.N,/StackB/CC08*%
X177373850Y-118267400D02*
X170987800Y-118267400D01*
D70*
X156700000Y-111750000D02*
X156700000Y-97100000D01*
D72*
X178029250Y-118922800D02*
X177373850Y-118267400D01*
X170987800Y-118267400D02*
X169955200Y-119300000D01*
D70*
X164250000Y-119300000D02*
X156700000Y-111750000D01*
X169955200Y-119300000D02*
X164250000Y-119300000D01*
%TO.N,/StackB/CC07*%
X157500000Y-97528310D02*
X157500000Y-97100000D01*
D72*
X172996400Y-116992400D02*
X165492400Y-116992400D01*
D70*
X157539678Y-111889678D02*
X157539678Y-99462368D01*
X164800000Y-116300000D02*
X161950000Y-116300000D01*
X157326339Y-97751971D02*
X157550000Y-97528310D01*
X157326339Y-99249029D02*
X157326339Y-97751971D01*
X157539678Y-99462368D02*
X157326339Y-99249029D01*
X161950000Y-116300000D02*
X157539678Y-111889678D01*
D72*
X165492400Y-116992400D02*
X164800000Y-116300000D01*
D70*
%TO.N,/StackB/CC06*%
X158700000Y-98925632D02*
X158350000Y-98575632D01*
X163831404Y-114267800D02*
X158450000Y-108886396D01*
X158450000Y-108886396D02*
X158450000Y-101118020D01*
D72*
X170489800Y-115676600D02*
X169926000Y-115112800D01*
X178025600Y-116332000D02*
X177370200Y-115676600D01*
D70*
X158350000Y-98575632D02*
X158350000Y-97300000D01*
X169081000Y-114267800D02*
X163831404Y-114267800D01*
D72*
X177370200Y-115676600D02*
X170489800Y-115676600D01*
D70*
X158700000Y-100868020D02*
X158700000Y-98925632D01*
X169926000Y-115112800D02*
X169081000Y-114267800D01*
X158450000Y-101118020D02*
X158700000Y-100868020D01*
%TO.N,/StackB/CC05*%
X159200000Y-98600000D02*
X159200000Y-101004416D01*
X159100000Y-97100000D02*
X159100000Y-98500000D01*
X159200000Y-101004416D02*
X158900000Y-101304416D01*
X159100000Y-98500000D02*
X159200000Y-98600000D01*
D72*
X165400000Y-112700000D02*
X164800000Y-112100000D01*
X172996400Y-114401600D02*
X170891200Y-114401600D01*
X169189600Y-112700000D02*
X165400000Y-112700000D01*
D70*
X158900000Y-108700000D02*
X162300000Y-112100000D01*
D72*
X170891200Y-114401600D02*
X169189600Y-112700000D01*
D70*
X158900000Y-101304416D02*
X158900000Y-108700000D01*
X162300000Y-112100000D02*
X164800000Y-112100000D01*
%TO.N,/StackB/CC04*%
X169926000Y-110896400D02*
X168479600Y-109450000D01*
D72*
X169926000Y-110896400D02*
X172115400Y-113085800D01*
D70*
X160476339Y-101000869D02*
X160476339Y-99462265D01*
X160476339Y-99462265D02*
X160500000Y-99438604D01*
X159800000Y-105984925D02*
X159800000Y-101677208D01*
D72*
X177370200Y-113085800D02*
X178025600Y-113741200D01*
D70*
X160500000Y-99438604D02*
X160500000Y-97100000D01*
D72*
X172115400Y-113085800D02*
X177370200Y-113085800D01*
D70*
X159800000Y-101677208D02*
X160476339Y-101000869D01*
X163265075Y-109450000D02*
X159800000Y-105984925D01*
X168479600Y-109450000D02*
X163265075Y-109450000D01*
%TO.N,/CLK*%
X130674179Y-116233980D02*
X130822000Y-116381801D01*
X130822000Y-116381801D02*
X130822000Y-117279700D01*
%TO.N,Net-(U1-Pad7)*%
X131352771Y-114969771D02*
X130438933Y-114969771D01*
X132624151Y-115693619D02*
X132076619Y-115693619D01*
X130034500Y-115374204D02*
X130034500Y-116442830D01*
X130438933Y-114969771D02*
X130034500Y-115374204D01*
X130034500Y-116442830D02*
X130322000Y-116730330D01*
X130322000Y-116730330D02*
X130322000Y-117279700D01*
X132076619Y-115693619D02*
X131352771Y-114969771D01*
%TO.N,Net-(CN7-Pad7)*%
X96623911Y-101223911D02*
X96623911Y-101076089D01*
X97325000Y-100375000D02*
X97325000Y-99400000D01*
X96623911Y-101223911D02*
X96600000Y-101247822D01*
X96623911Y-101076089D02*
X97325000Y-100375000D01*
X96600000Y-101247822D02*
X96600000Y-102300000D01*
%TO.N,Net-(CN7-Pad8)*%
X95800000Y-101200000D02*
X95800000Y-102300000D01*
X96675000Y-100325000D02*
X96675000Y-99400000D01*
X95800000Y-101200000D02*
X96675000Y-100325000D01*
%TO.N,/SWDIO*%
X132822000Y-122865200D02*
X132822000Y-122154700D01*
X133096000Y-123139200D02*
X132822000Y-122865200D01*
X139138200Y-123139200D02*
X133096000Y-123139200D01*
%TO.N,/SWCLK*%
X133502400Y-122689200D02*
X133322000Y-122508800D01*
X136898800Y-122689200D02*
X133502400Y-122689200D01*
X133322000Y-122508800D02*
X133322000Y-122154700D01*
X137718800Y-121869200D02*
X136898800Y-122689200D01*
X137871200Y-121869200D02*
X137718800Y-121869200D01*
%TO.N,/StackA/S08*%
X119450000Y-103550000D02*
X119700000Y-103800000D01*
X119450000Y-99500000D02*
X119450000Y-103550000D01*
%TO.N,/StackA/DRIVE*%
X107004298Y-121180868D02*
X107004298Y-120579702D01*
X107391200Y-118922800D02*
X109945600Y-116368400D01*
X113517462Y-111825000D02*
X117626471Y-111825000D01*
X118450000Y-109369241D02*
X118450000Y-106500000D01*
X118698500Y-109617741D02*
X118450000Y-109369241D01*
X99200000Y-120000000D02*
X99200000Y-120842500D01*
X109945600Y-116368400D02*
X109945600Y-115396862D01*
X99200000Y-120842500D02*
X99695000Y-121337500D01*
X107004298Y-120579702D02*
X107391200Y-120192800D01*
X107391200Y-120192800D02*
X107391200Y-118922800D01*
X117626471Y-111825000D02*
X118698500Y-110752971D01*
X118698500Y-110752971D02*
X118698500Y-109617741D01*
X109945600Y-115396862D02*
X113517462Y-111825000D01*
%TO.N,/StackA/MUX_OUT*%
X112950000Y-107814066D02*
X112950000Y-106500000D01*
X112447231Y-108316835D02*
X112950000Y-107814066D01*
X102249500Y-90835425D02*
X101875000Y-91209925D01*
X102449500Y-90634100D02*
X102249500Y-90834100D01*
X101875000Y-91209925D02*
X101875000Y-92200000D01*
X102249500Y-90834100D02*
X102249500Y-90835425D01*
%TO.N,/StackA/MUX_A0*%
X94665812Y-106175000D02*
X106222379Y-106175000D01*
X110370579Y-110323200D02*
X114689605Y-110323200D01*
X96025000Y-92200000D02*
X96025000Y-91261396D01*
X93275000Y-104784188D02*
X94665812Y-106175000D01*
X93275000Y-91388604D02*
X93275000Y-104784188D01*
X114689605Y-110323200D02*
X115950000Y-109062805D01*
X95313604Y-90550000D02*
X94113604Y-90550000D01*
X94113604Y-90550000D02*
X93275000Y-91388604D01*
X115950000Y-109062805D02*
X115950000Y-106500000D01*
X96025000Y-91261396D02*
X95313604Y-90550000D01*
X106222379Y-106175000D02*
X110370579Y-110323200D01*
%TO.N,/StackA/MUX_A1*%
X115450000Y-108927115D02*
X115450000Y-106500000D01*
X107055804Y-105948551D02*
X106832253Y-105725000D01*
X94852208Y-105725000D02*
X93725000Y-104597792D01*
X107055804Y-105948551D02*
X110924088Y-109816835D01*
X95100000Y-91000000D02*
X95375000Y-91275000D01*
X94300000Y-91000000D02*
X95100000Y-91000000D01*
X110924088Y-109816835D02*
X114560280Y-109816835D01*
X93725000Y-104597792D02*
X93725000Y-91575000D01*
X106832253Y-105725000D02*
X94852208Y-105725000D01*
X114560280Y-109816835D02*
X115450000Y-108927115D01*
X93725000Y-91575000D02*
X94300000Y-91000000D01*
X95375000Y-91275000D02*
X95375000Y-92200000D01*
%TO.N,/StackA/MUX_A3*%
X95225000Y-104825000D02*
X108042360Y-104825000D01*
X94725000Y-99400000D02*
X94725000Y-104325000D01*
X108042360Y-104825000D02*
X112134195Y-108916835D01*
X112134195Y-108916835D02*
X113028365Y-108916835D01*
X94725000Y-104325000D02*
X95225000Y-104825000D01*
X113028365Y-108916835D02*
X113450000Y-108495200D01*
X113450000Y-108495200D02*
X113450000Y-106500000D01*
%TO.N,/StackA/MUX_A2*%
X107438604Y-105275000D02*
X95038604Y-105275000D01*
X113950000Y-108986396D02*
X113950000Y-106500000D01*
X94175000Y-104411396D02*
X94175000Y-98325000D01*
X95375000Y-98375000D02*
X95375000Y-99400000D01*
X95000000Y-98000000D02*
X95375000Y-98375000D01*
X107634802Y-105471198D02*
X111530439Y-109366835D01*
X94175000Y-98325000D02*
X94500000Y-98000000D01*
X111530439Y-109366835D02*
X113569561Y-109366835D01*
X95038604Y-105275000D02*
X94175000Y-104411396D01*
X113569561Y-109366835D02*
X113950000Y-108986396D01*
X107634802Y-105471198D02*
X107438604Y-105275000D01*
X94500000Y-98000000D02*
X95000000Y-98000000D01*
%TO.N,/StackB/S08*%
X155550000Y-85550000D02*
X155300000Y-85300000D01*
X155550000Y-89600000D02*
X155550000Y-85550000D01*
%TO.N,/StackB/DRIVE*%
X156301500Y-78347029D02*
X156301500Y-79482259D01*
X157373529Y-77275000D02*
X156301500Y-78347029D01*
X175800000Y-68257500D02*
X175305000Y-67762500D01*
X165900000Y-72857538D02*
X161482538Y-77275000D01*
X166438000Y-65600000D02*
X165900000Y-66138000D01*
X161482538Y-77275000D02*
X157373529Y-77275000D01*
X156550000Y-79730759D02*
X156550000Y-82600000D01*
X165900000Y-66138000D02*
X165900000Y-72857538D01*
X156301500Y-79482259D02*
X156550000Y-79730759D01*
X175800000Y-69100000D02*
X175800000Y-68257500D01*
%TO.N,/StackB/MUX_OUT*%
X162050000Y-82600000D02*
X162050000Y-81250000D01*
X162050000Y-81250000D02*
X162600000Y-80700000D01*
X172603100Y-98095975D02*
X173125000Y-97574075D01*
%TO.N,/StackB/MUX_A0*%
X179686396Y-98550000D02*
X178975000Y-97838604D01*
X181725000Y-84315812D02*
X181725000Y-97711396D01*
X159050000Y-80037195D02*
X159050000Y-82600000D01*
X160337195Y-78750000D02*
X159050000Y-80037195D01*
X168678028Y-82350550D02*
X169252478Y-82925000D01*
X168678028Y-82350550D02*
X168659750Y-82350550D01*
X169252478Y-82925000D02*
X180334188Y-82925000D01*
X178975000Y-97838604D02*
X178975000Y-96900000D01*
X180886396Y-98550000D02*
X179686396Y-98550000D01*
X168659750Y-82350550D02*
X165059200Y-78750000D01*
X180334188Y-82925000D02*
X181725000Y-84315812D01*
X165059200Y-78750000D02*
X160337195Y-78750000D01*
X181725000Y-97711396D02*
X180886396Y-98550000D01*
%TO.N,/StackB/MUX_A1*%
X159550000Y-80172885D02*
X159550000Y-82600000D01*
X179900000Y-98100000D02*
X180700000Y-98100000D01*
X168617400Y-83375000D02*
X164442400Y-79200000D01*
X181275000Y-97525000D02*
X181275000Y-84502208D01*
X179625000Y-97825000D02*
X179900000Y-98100000D01*
X179625000Y-96900000D02*
X179625000Y-97825000D01*
X160522885Y-79200000D02*
X159550000Y-80172885D01*
X164442400Y-79200000D02*
X160522885Y-79200000D01*
X181275000Y-84502208D02*
X180147792Y-83375000D01*
X180147792Y-83375000D02*
X168617400Y-83375000D01*
X180700000Y-98100000D02*
X181275000Y-97525000D01*
%TO.N,/StackB/MUX_A3*%
X166822800Y-83722800D02*
X163200000Y-80100000D01*
X166822800Y-83722800D02*
X167375000Y-84275000D01*
X162165200Y-80100000D02*
X161550000Y-80715200D01*
X163200000Y-80100000D02*
X162165200Y-80100000D01*
X180275000Y-84775000D02*
X180275000Y-89700000D01*
X179775000Y-84275000D02*
X180275000Y-84775000D01*
X167375000Y-84275000D02*
X179775000Y-84275000D01*
X161550000Y-80715200D02*
X161550000Y-82600000D01*
%TO.N,/StackB/MUX_A2*%
X161050000Y-80578804D02*
X161050000Y-82600000D01*
X179625000Y-90725000D02*
X179625000Y-89700000D01*
X179961396Y-83825000D02*
X180825000Y-84688604D01*
X167487600Y-83261200D02*
X168051400Y-83825000D01*
X180825000Y-84688604D02*
X180825000Y-90775000D01*
X180500000Y-91100000D02*
X180000000Y-91100000D01*
X180825000Y-90775000D02*
X180500000Y-91100000D01*
X163876400Y-79650000D02*
X161978804Y-79650000D01*
X167487600Y-83261200D02*
X163876400Y-79650000D01*
X161978804Y-79650000D02*
X161050000Y-80578804D01*
X180000000Y-91100000D02*
X179625000Y-90725000D01*
X168051400Y-83825000D02*
X179961396Y-83825000D01*
D72*
%TO.N,Net-(Fa0-Pad2)*%
X91400000Y-80000000D02*
X92750800Y-80000000D01*
X99184000Y-82550000D02*
X96113600Y-82550000D01*
X93319600Y-80568800D02*
X94154800Y-80568800D01*
X92750800Y-80000000D02*
X93319600Y-80568800D01*
X96113600Y-82550000D02*
X94154800Y-80591200D01*
%TO.N,Net-(Fa1-Pad2)*%
X93375400Y-79253000D02*
X97643400Y-79253000D01*
X92872400Y-78750000D02*
X93375400Y-79253000D01*
X99184000Y-79908400D02*
X98298800Y-79908400D01*
X88900000Y-80000000D02*
X90150000Y-78750000D01*
X98298800Y-79908400D02*
X97643400Y-79253000D01*
X90150000Y-78750000D02*
X92872400Y-78750000D01*
%TO.N,Net-(Fa2-Pad2)*%
X91400000Y-77500000D02*
X94062500Y-77500000D01*
%TO.N,Net-(Fa3-Pad2)*%
X88900000Y-77500000D02*
X90150000Y-76250000D01*
X93121400Y-76611400D02*
X97795000Y-76611400D01*
X90150000Y-76250000D02*
X92760000Y-76250000D01*
X98450400Y-77266800D02*
X99184000Y-77266800D01*
X97795000Y-76611400D02*
X98450400Y-77266800D01*
X92760000Y-76250000D02*
X93121400Y-76611400D01*
%TO.N,Net-(Fa4-Pad2)*%
X93726100Y-75336400D02*
X94062500Y-75000000D01*
X91736400Y-75336400D02*
X93726100Y-75336400D01*
%TO.N,Net-(Fa5-Pad2)*%
X92952400Y-73750000D02*
X93223000Y-74020600D01*
X90150000Y-73750000D02*
X92952400Y-73750000D01*
X98528600Y-74020600D02*
X99184000Y-74676000D01*
X93223000Y-74020600D02*
X98528600Y-74020600D01*
X88900000Y-75000000D02*
X90150000Y-73750000D01*
%TO.N,Net-(Fa6-Pad2)*%
X91400000Y-72500000D02*
X94062500Y-72500000D01*
%TO.N,Net-(Fa7-Pad2)*%
X92935600Y-71250000D02*
X93115400Y-71429800D01*
X98274600Y-71429800D02*
X99184000Y-72339200D01*
X93115400Y-71429800D02*
X98274600Y-71429800D01*
X88900000Y-72500000D02*
X90150000Y-71250000D01*
X90150000Y-71250000D02*
X92935600Y-71250000D01*
%TO.N,Net-(Fa8-Pad2)*%
X91400000Y-70000000D02*
X94062500Y-70000000D01*
%TO.N,Net-(Fa9-Pad2)*%
X92981600Y-68750000D02*
X93070600Y-68839000D01*
X98607800Y-68839000D02*
X99212400Y-69443600D01*
X90152400Y-68750000D02*
X92981600Y-68750000D01*
X93070600Y-68839000D02*
X98607800Y-68839000D01*
X88902400Y-70000000D02*
X90152400Y-68750000D01*
%TO.N,Net-(Fa10-Pad2)*%
X91400000Y-67500000D02*
X93914000Y-67500000D01*
%TO.N,Net-(Fa11-Pad2)*%
X89472000Y-67500000D02*
X90722000Y-66250000D01*
X98632000Y-66250000D02*
X99285600Y-66903600D01*
X90722000Y-66250000D02*
X98632000Y-66250000D01*
%TO.N,Net-(Fa12-Pad2)*%
X91400000Y-65000000D02*
X94154800Y-65000000D01*
X92506800Y-63550800D02*
X99058700Y-63550800D01*
X99058700Y-63550800D02*
X99257900Y-63750000D01*
X91400000Y-64657600D02*
X92506800Y-63550800D01*
X91400000Y-65000000D02*
X91400000Y-64657600D01*
%TO.N,/StackA/VDD*%
X103052543Y-63703200D02*
X102034800Y-63703200D01*
X96400000Y-119800000D02*
X96400000Y-118812500D01*
X125800000Y-95574000D02*
X125800000Y-97687500D01*
X125800000Y-95574000D02*
X125800000Y-75457200D01*
X125800000Y-75457200D02*
X113042800Y-62700000D01*
X113042800Y-62700000D02*
X104055743Y-62700000D01*
X104055743Y-62700000D02*
X103052543Y-63703200D01*
%TO.N,/StackB/VDD*%
X172973650Y-125369400D02*
X171942550Y-126400500D01*
X178600000Y-69300000D02*
X178600000Y-70287500D01*
X149200000Y-117600000D02*
X149200000Y-91412500D01*
X158000500Y-126400500D02*
X149200000Y-117600000D01*
X149200000Y-92600000D02*
X149200000Y-91412500D01*
X171942550Y-126400500D02*
X158000500Y-126400500D01*
%TO.N,Net-(FB1-Pad1)*%
X102106100Y-84836000D02*
X102106100Y-82672100D01*
%TO.N,Net-(FB2-Pad1)*%
X172996400Y-106527600D02*
X172996400Y-104363700D01*
X172996400Y-104363700D02*
X172874300Y-104241600D01*
%TO.N,/StackB/PSU_INPUT*%
X176975000Y-77900000D02*
X176975000Y-80075000D01*
X176975000Y-80075000D02*
X177000000Y-80100000D01*
X178600000Y-78500000D02*
X177000000Y-80100000D01*
X178600000Y-72112500D02*
X178600000Y-78500000D01*
D70*
%TO.N,Net-(C25-Pad1)*%
X104275000Y-115725000D02*
X104275000Y-113800000D01*
X103505000Y-116062500D02*
X103937500Y-116062500D01*
X103937500Y-116062500D02*
X104275000Y-115725000D01*
%TO.N,Net-(C45-Pad1)*%
X171062500Y-73037500D02*
X170725000Y-73375000D01*
X171495000Y-73037500D02*
X171062500Y-73037500D01*
X170725000Y-73375000D02*
X170725000Y-75300000D01*
%TO.N,Net-(CN11-Pad5)*%
X175400000Y-98800000D02*
X175700000Y-98500000D01*
X175400000Y-99800000D02*
X175400000Y-98800000D01*
X175700000Y-98500000D02*
X175725000Y-98475000D01*
X175725000Y-98475000D02*
X175725000Y-96900000D01*
%TO.N,Net-(CN5-Pad6)*%
X100400000Y-89300000D02*
X100400000Y-90200000D01*
X100400000Y-90400000D02*
X99925000Y-90875000D01*
X99925000Y-90875000D02*
X99925000Y-92200000D01*
X100400000Y-90200000D02*
X100400000Y-90400000D01*
%TO.N,Net-(CN5-Pad7)*%
X101200000Y-89300000D02*
X101200000Y-90400000D01*
X101200000Y-90400000D02*
X101100000Y-90500000D01*
X100575000Y-91025000D02*
X100575000Y-92200000D01*
X101100000Y-90500000D02*
X100575000Y-91025000D01*
%TO.N,Net-(CN5-Pad8)*%
X102000000Y-89780068D02*
X101799500Y-89980568D01*
X102000000Y-89300000D02*
X102000000Y-89780068D01*
X101225000Y-91223529D02*
X101225000Y-92200000D01*
X101799500Y-89980568D02*
X101799500Y-90649029D01*
X101799500Y-90649029D02*
X101225000Y-91223529D01*
%TO.N,Net-(CN6-Pad5)*%
X102000000Y-101200000D02*
X102000000Y-102300000D01*
X101825000Y-101100000D02*
X101225000Y-100500000D01*
X101900000Y-101100000D02*
X101825000Y-101100000D01*
X101225000Y-100500000D02*
X101225000Y-99400000D01*
X101900000Y-101100000D02*
X102000000Y-101200000D01*
%TO.N,Net-(CN6-Pad6)*%
X101200000Y-101400000D02*
X101200000Y-102300000D01*
X100575000Y-100775000D02*
X100575000Y-99400000D01*
X101000000Y-101200000D02*
X101200000Y-101400000D01*
X101000000Y-101200000D02*
X100575000Y-100775000D01*
%TO.N,Net-(CN6-Pad7)*%
X100100000Y-101200000D02*
X99925000Y-101025000D01*
X99925000Y-101025000D02*
X99925000Y-99400000D01*
X100400000Y-101500000D02*
X100400000Y-102300000D01*
X100100000Y-101200000D02*
X100400000Y-101500000D01*
%TO.N,Net-(CN6-Pad8)*%
X99300000Y-101200000D02*
X99275000Y-101175000D01*
X99600000Y-101800000D02*
X99600000Y-102300000D01*
X99300000Y-101200000D02*
X99300000Y-101500000D01*
X99300000Y-101500000D02*
X99600000Y-101800000D01*
X99275000Y-101175000D02*
X99275000Y-99400000D01*
%TO.N,Net-(CN7-Pad5)*%
X98625000Y-100837034D02*
X98625000Y-99400000D01*
X98249216Y-101212818D02*
X98625000Y-100837034D01*
X98200000Y-101262034D02*
X98200000Y-102300000D01*
X98249216Y-101212818D02*
X98200000Y-101262034D01*
%TO.N,Net-(CN13-Pad6)*%
X177476089Y-88076089D02*
X177025000Y-88527178D01*
X177476089Y-88076089D02*
X177600000Y-87952178D01*
X177025000Y-88527178D02*
X177025000Y-89700000D01*
X177600000Y-87952178D02*
X177600000Y-86800000D01*
%TO.N,Net-(CN13-Pad7)*%
X178376089Y-88023911D02*
X177675000Y-88725000D01*
X178376089Y-87876089D02*
X178400000Y-87852178D01*
X177675000Y-88725000D02*
X177675000Y-89700000D01*
X178376089Y-87876089D02*
X178376089Y-88023911D01*
X178400000Y-87852178D02*
X178400000Y-86800000D01*
%TO.N,Net-(CN13-Pad8)*%
X179200000Y-87900000D02*
X179200000Y-86800000D01*
X178325000Y-88775000D02*
X178325000Y-89700000D01*
X179200000Y-87900000D02*
X178325000Y-88775000D01*
%TO.N,Net-(D1-Pad1)*%
X136626500Y-118186100D02*
X135763000Y-118186100D01*
X136956800Y-118516400D02*
X136626500Y-118186100D01*
%TO.N,Net-(CN11-Pad6)*%
X174600000Y-98900000D02*
X174600000Y-98700000D01*
X175075000Y-98225000D02*
X175075000Y-96900000D01*
X174600000Y-98700000D02*
X175075000Y-98225000D01*
X174600000Y-99800000D02*
X174600000Y-98900000D01*
%TO.N,Net-(CN11-Pad7)*%
X173800000Y-98700000D02*
X173900000Y-98600000D01*
X174425000Y-98075000D02*
X174425000Y-96900000D01*
X173900000Y-98600000D02*
X174425000Y-98075000D01*
X173800000Y-99800000D02*
X173800000Y-98700000D01*
%TO.N,Net-(CN11-Pad8)*%
X173200500Y-98450971D02*
X173775000Y-97876471D01*
X173200500Y-98999592D02*
X173200500Y-98450971D01*
X173775000Y-97876471D02*
X173775000Y-96900000D01*
X173000000Y-99800000D02*
X173000000Y-99200092D01*
X173000000Y-99200092D02*
X173200500Y-98999592D01*
%TO.N,Net-(CN12-Pad5)*%
X173000000Y-87900000D02*
X173000000Y-86800000D01*
X173100000Y-88000000D02*
X173175000Y-88000000D01*
X173175000Y-88000000D02*
X173775000Y-88600000D01*
X173100000Y-88000000D02*
X173000000Y-87900000D01*
X173775000Y-88600000D02*
X173775000Y-89700000D01*
%TO.N,Net-(CN12-Pad6)*%
X174000000Y-87900000D02*
X174425000Y-88325000D01*
X173800000Y-87700000D02*
X173800000Y-86800000D01*
X174425000Y-88325000D02*
X174425000Y-89700000D01*
X174000000Y-87900000D02*
X173800000Y-87700000D01*
%TO.N,Net-(CN12-Pad7)*%
X174900000Y-87900000D02*
X174600000Y-87600000D01*
X174600000Y-87600000D02*
X174600000Y-86800000D01*
X174900000Y-87900000D02*
X175075000Y-88075000D01*
X175075000Y-88075000D02*
X175075000Y-89700000D01*
%TO.N,Net-(CN12-Pad8)*%
X175400000Y-87300000D02*
X175400000Y-86800000D01*
X175700000Y-87600000D02*
X175400000Y-87300000D01*
X175700000Y-87900000D02*
X175725000Y-87925000D01*
X175700000Y-87900000D02*
X175700000Y-87600000D01*
X175725000Y-87925000D02*
X175725000Y-89700000D01*
%TO.N,Net-(CN13-Pad5)*%
X176750784Y-87887182D02*
X176800000Y-87837966D01*
X176750784Y-87887182D02*
X176375000Y-88262966D01*
X176800000Y-87837966D02*
X176800000Y-86800000D01*
X176375000Y-88262966D02*
X176375000Y-89700000D01*
%TO.N,Net-(D1-Pad2)*%
X134009500Y-118967200D02*
X134969100Y-118967200D01*
X134969100Y-118967200D02*
X135763000Y-119761100D01*
%TO.N,/UART2_RX*%
X133904400Y-114643619D02*
X132299411Y-114643619D01*
X142513200Y-116094200D02*
X135354981Y-116094200D01*
X129039200Y-115096712D02*
X129039200Y-117871900D01*
X132299411Y-114643619D02*
X131725563Y-114069771D01*
X131725563Y-114069771D02*
X130066141Y-114069771D01*
X135354981Y-116094200D02*
X133904400Y-114643619D01*
X129039200Y-117871900D02*
X129134500Y-117967200D01*
X130066141Y-114069771D02*
X129039200Y-115096712D01*
X143208200Y-116789200D02*
X142513200Y-116094200D01*
%TO.N,/UART2_TX*%
X129489200Y-115283108D02*
X129489200Y-116946900D01*
X131539167Y-114519771D02*
X130252537Y-114519771D01*
X130252537Y-114519771D02*
X129489200Y-115283108D01*
X129489200Y-116946900D02*
X129822000Y-117279700D01*
X132113015Y-115093619D02*
X131539167Y-114519771D01*
X133718004Y-115093619D02*
X132113015Y-115093619D01*
X139138200Y-116789200D02*
X139120000Y-116771000D01*
X135395385Y-116771000D02*
X133718004Y-115093619D01*
X139120000Y-116771000D02*
X135395385Y-116771000D01*
%TO.N,Net-(CN4-Pad5)*%
X96675000Y-91275000D02*
X96675000Y-92200000D01*
X95900000Y-90500000D02*
X96675000Y-91275000D01*
X95800000Y-90100000D02*
X95800000Y-89300000D01*
X95900000Y-90200000D02*
X95800000Y-90100000D01*
X95900000Y-90200000D02*
X95900000Y-90500000D01*
%TO.N,Net-(CN4-Pad6)*%
X96750000Y-90450000D02*
X97325000Y-91025000D01*
X96600000Y-90300000D02*
X96750000Y-90450000D01*
X97325000Y-91025000D02*
X97325000Y-92200000D01*
X96600000Y-89300000D02*
X96600000Y-90300000D01*
%TO.N,Net-(CN4-Pad7)*%
X97975000Y-91038604D02*
X97975000Y-92200000D01*
X97450000Y-90150000D02*
X97450000Y-90513604D01*
X97400000Y-90100000D02*
X97450000Y-90150000D01*
X97400000Y-89300000D02*
X97400000Y-90100000D01*
X97450000Y-90513604D02*
X97975000Y-91038604D01*
%TO.N,Net-(CN4-Pad8)*%
X98550000Y-90650000D02*
X98625000Y-90725000D01*
X98200000Y-89300000D02*
X98200000Y-90300000D01*
X98625000Y-90725000D02*
X98625000Y-92200000D01*
X98200000Y-90300000D02*
X98550000Y-90650000D01*
%TO.N,Net-(CN10-Pad5)*%
X179100000Y-98900000D02*
X179200000Y-99000000D01*
X179200000Y-99000000D02*
X179200000Y-99800000D01*
X178325000Y-97825000D02*
X178325000Y-96900000D01*
X179100000Y-98900000D02*
X179100000Y-98600000D01*
X179100000Y-98600000D02*
X178325000Y-97825000D01*
%TO.N,Net-(CN10-Pad6)*%
X178400000Y-99800000D02*
X178400000Y-98800000D01*
X178400000Y-98800000D02*
X178250000Y-98650000D01*
X178250000Y-98650000D02*
X177675000Y-98075000D01*
X177675000Y-98075000D02*
X177675000Y-96900000D01*
%TO.N,Net-(CN10-Pad7)*%
X177550000Y-98586396D02*
X177025000Y-98061396D01*
X177600000Y-99000000D02*
X177550000Y-98950000D01*
X177025000Y-98061396D02*
X177025000Y-96900000D01*
X177600000Y-99800000D02*
X177600000Y-99000000D01*
X177550000Y-98950000D02*
X177550000Y-98586396D01*
%TO.N,Net-(CN10-Pad8)*%
X176450000Y-98450000D02*
X176375000Y-98375000D01*
X176375000Y-98375000D02*
X176375000Y-96900000D01*
X176800000Y-99800000D02*
X176800000Y-98800000D01*
X176800000Y-98800000D02*
X176450000Y-98450000D01*
%TO.N,/StackB/IA+*%
X144790000Y-84690000D02*
X144790000Y-84040000D01*
X154133128Y-78606213D02*
X157101473Y-75637868D01*
X159250000Y-71213600D02*
X159250000Y-73670000D01*
X151358600Y-71018400D02*
X151699129Y-71018400D01*
X154133128Y-79859471D02*
X154133128Y-78606213D01*
X144800000Y-84700000D02*
X144790000Y-84690000D01*
X143230500Y-87769500D02*
X142750000Y-88250000D01*
X144830000Y-84000000D02*
X144790000Y-84040000D01*
X154550000Y-80276343D02*
X154133128Y-79859471D01*
X158488800Y-70452400D02*
X159250000Y-71213600D01*
X146200000Y-73100000D02*
X146200000Y-73063604D01*
X146200000Y-73063604D02*
X148213104Y-71050500D01*
X159250000Y-73670000D02*
X159250000Y-74750000D01*
X152265129Y-70452400D02*
X158488800Y-70452400D01*
X148213104Y-71050500D02*
X148818339Y-71050500D01*
X157101473Y-75637868D02*
X158362132Y-75637868D01*
X145500000Y-84000000D02*
X144830000Y-84000000D01*
X151699129Y-71018400D02*
X152265129Y-70452400D01*
X158362132Y-75637868D02*
X159250000Y-74750000D01*
X146200000Y-73100000D02*
X146200000Y-83300000D01*
X142750000Y-88250000D02*
X141475000Y-88250000D01*
X154550000Y-82600000D02*
X154550000Y-80276343D01*
X143230500Y-87769500D02*
X143230500Y-85800000D01*
X146200000Y-83300000D02*
X145500000Y-84000000D01*
%TO.N,/IAC_A*%
X130896371Y-112217200D02*
X130210000Y-111530829D01*
X130210000Y-111530829D02*
X130210000Y-110794800D01*
%TO.N,/StackA/IBC*%
X130210000Y-96900000D02*
X130210000Y-95310000D01*
%TO.N,/StackB/IAC*%
X144800000Y-80700000D02*
X144800000Y-79900000D01*
X144800000Y-81490000D02*
X144790000Y-81500000D01*
X144800000Y-80700000D02*
X144800000Y-81490000D01*
%TO.N,/IBC_B*%
X144800000Y-69300000D02*
X144800000Y-67710000D01*
X144800000Y-67710000D02*
X144790000Y-67700000D01*
%TO.N,/STACK_B_IA-*%
X133100000Y-78864200D02*
X136314200Y-78864200D01*
%TO.N,/STACK_B_IA+*%
X135370000Y-83000000D02*
X136410000Y-84040000D01*
X134234200Y-81864200D02*
X133100000Y-81864200D01*
X135370000Y-83000000D02*
X134234200Y-81864200D01*
%TO.N,/STACK_B_IB-*%
X135370000Y-66200000D02*
X136410000Y-65160000D01*
X133100000Y-66200000D02*
X135370000Y-66200000D01*
%TO.N,/STACK_B_IB+*%
X135370000Y-69200000D02*
X136410000Y-70240000D01*
X133100000Y-69200000D02*
X135370000Y-69200000D01*
%TO.N,/STACK_A_IA-*%
X138590000Y-113240000D02*
X140727600Y-111102400D01*
X140727600Y-111102400D02*
X141900000Y-111102400D01*
%TO.N,/STACK_A_IA+*%
X138590000Y-108254800D02*
X141747600Y-108254800D01*
%TO.N,/STACK_A_IB-*%
X138590000Y-99440000D02*
X139630000Y-98400000D01*
X139630000Y-98400000D02*
X141900000Y-98400000D01*
%TO.N,/STACK_A_IB+*%
X139630000Y-95400000D02*
X141900000Y-95400000D01*
X138590000Y-94360000D02*
X139630000Y-95400000D01*
%TO.N,/IA+_A*%
X129288100Y-108356400D02*
X130108400Y-108356400D01*
X116637868Y-113462132D02*
X115750000Y-114350000D01*
X129134500Y-118967200D02*
X128619200Y-118967200D01*
X120450000Y-108823657D02*
X120866872Y-109240529D01*
X120866872Y-110493787D02*
X117898527Y-113462132D01*
X128371600Y-118719600D02*
X128371600Y-109272900D01*
X128234978Y-106629200D02*
X125094885Y-106629200D01*
X128371600Y-109272900D02*
X128424500Y-109220000D01*
X115750000Y-115430000D02*
X115750000Y-114350000D01*
X128328689Y-106535489D02*
X128234978Y-106629200D01*
X120450000Y-106500000D02*
X120450000Y-108823657D01*
X120866872Y-109240529D02*
X120866872Y-110493787D01*
X128424500Y-109220000D02*
X129288100Y-108356400D01*
X120727515Y-105206800D02*
X120450000Y-105484315D01*
X132283200Y-108305600D02*
X130260800Y-108305600D01*
X117898527Y-113462132D02*
X116637868Y-113462132D01*
X128619200Y-118967200D02*
X128371600Y-118719600D01*
X120450000Y-105484315D02*
X120450000Y-106500000D01*
X125094885Y-106629200D02*
X123672485Y-105206800D01*
X123672485Y-105206800D02*
X120727515Y-105206800D01*
%TO.N,/IB-_B*%
X151189080Y-66499500D02*
X151897980Y-67208400D01*
X151897980Y-67208400D02*
X152357600Y-67208400D01*
X148436396Y-72100000D02*
X148075000Y-72461396D01*
X150761260Y-69893979D02*
X150761260Y-69825331D01*
X150761260Y-69825331D02*
X150260929Y-69325000D01*
X150260929Y-69325000D02*
X148955000Y-69325000D01*
X148075000Y-76983323D02*
X152050000Y-80958323D01*
X150761260Y-69893979D02*
X150761260Y-70955340D01*
X150761260Y-70955340D02*
X149616600Y-72100000D01*
X148075000Y-72461396D02*
X148075000Y-76983323D01*
X152050000Y-80958323D02*
X152050000Y-82600000D01*
X149616600Y-72100000D02*
X148436396Y-72100000D01*
X143611600Y-65074800D02*
X144790000Y-65074800D01*
X148955000Y-69325000D02*
X144790000Y-65160000D01*
X151124700Y-66499500D02*
X151189080Y-66499500D01*
%TO.N,/IB+_B*%
X150012400Y-69925000D02*
X149938400Y-69851000D01*
X144800000Y-70250000D02*
X144790000Y-70240000D01*
X151550000Y-81192000D02*
X151550000Y-82600000D01*
X143706800Y-70250000D02*
X144800000Y-70250000D01*
X150905717Y-67259200D02*
X149759200Y-67259200D01*
X147625000Y-72275000D02*
X147625000Y-77267000D01*
X149330000Y-71650000D02*
X148250000Y-71650000D01*
X148081000Y-69851000D02*
X147624800Y-70307200D01*
X147625000Y-77267000D02*
X151550000Y-81192000D01*
X147624800Y-70307200D02*
X144917200Y-70307200D01*
X150012400Y-69925000D02*
X150012400Y-70196532D01*
X149938400Y-69851000D02*
X148081000Y-69851000D01*
X143662400Y-70205600D02*
X143706800Y-70250000D01*
X150018339Y-70961661D02*
X149330000Y-71650000D01*
X150018339Y-70202471D02*
X150018339Y-70961661D01*
X148250000Y-71650000D02*
X147625000Y-72275000D01*
X150910808Y-67264291D02*
X150905717Y-67259200D01*
X150012400Y-70196532D02*
X150018339Y-70202471D01*
D72*
%TO.N,/StackB/VCC*%
X169700000Y-90650000D02*
X170325000Y-90025000D01*
D70*
X178975000Y-90725000D02*
X178600000Y-91100000D01*
D72*
X171928100Y-95428100D02*
X169700000Y-93200000D01*
X170332400Y-86614000D02*
X171946400Y-85000000D01*
D70*
X167800000Y-74450000D02*
X167150000Y-75100000D01*
X173125000Y-89700000D02*
X172500000Y-89700000D01*
D72*
X171946400Y-85000000D02*
X173000000Y-85000000D01*
X173000000Y-101600000D02*
X171928100Y-100528100D01*
D70*
X178975000Y-89700000D02*
X178975000Y-90725000D01*
D72*
X170325000Y-90025000D02*
X171400000Y-90025000D01*
D70*
X173600000Y-91100000D02*
X173125000Y-90625000D01*
D72*
X171928100Y-100528100D02*
X171928100Y-95428100D01*
X161982136Y-77800000D02*
X164741068Y-75041068D01*
D70*
X157050000Y-79382937D02*
X156901000Y-79233937D01*
D72*
X167150000Y-73000000D02*
X166782136Y-73000000D01*
X166782136Y-73000000D02*
X164741068Y-75041068D01*
D70*
X167800000Y-74100000D02*
X167800000Y-74450000D01*
D72*
X156901000Y-78629133D02*
X157730133Y-77800000D01*
X156901000Y-79233937D02*
X156901000Y-78629133D01*
D70*
X172500000Y-89700000D02*
X172200000Y-90000000D01*
X157050000Y-82600000D02*
X157050000Y-79382937D01*
D72*
X157730133Y-77800000D02*
X161982136Y-77800000D01*
X170332400Y-86614000D02*
X170325000Y-86621400D01*
D70*
X163100000Y-68500000D02*
X149700000Y-68500000D01*
D72*
X169700000Y-93200000D02*
X169700000Y-90650000D01*
D70*
X168500000Y-66500706D02*
X168599647Y-66600353D01*
X170100000Y-65575000D02*
X168550000Y-65575000D01*
D72*
X179200000Y-85000000D02*
X173000000Y-85000000D01*
X170325000Y-86621400D02*
X170325000Y-90025000D01*
D70*
X168500000Y-65625000D02*
X168500000Y-66500706D01*
X173125000Y-90625000D02*
X173125000Y-89700000D01*
D72*
X179200000Y-101600000D02*
X173000000Y-101600000D01*
D70*
X163550000Y-73086924D02*
X163550000Y-68950000D01*
X172200000Y-90000000D02*
X171425000Y-90000000D01*
X163550000Y-68950000D02*
X163100000Y-68500000D01*
X178600000Y-91100000D02*
X173600000Y-91100000D01*
%TO.N,/TDI*%
X135622096Y-121198700D02*
X135353596Y-121467200D01*
X135353596Y-121467200D02*
X134009500Y-121467200D01*
X140726900Y-119329200D02*
X139138200Y-119329200D01*
X136956800Y-121198700D02*
X135622096Y-121198700D01*
%TO.N,Net-(U1-Pad18)*%
X129351871Y-125730000D02*
X128990421Y-125368550D01*
X133248400Y-124600000D02*
X133248400Y-125476000D01*
X133248400Y-125476000D02*
X132994400Y-125730000D01*
X130322000Y-122154700D02*
X130322000Y-122799329D01*
X128990421Y-124145979D02*
X129032000Y-124104400D01*
X129032000Y-124089329D02*
X129032000Y-124104400D01*
X128990421Y-125368550D02*
X128990421Y-124145979D01*
X132994400Y-125730000D02*
X129351871Y-125730000D01*
X130322000Y-122799329D02*
X129032000Y-124089329D01*
%TO.N,Net-(U1-Pad19)*%
X130822000Y-123330400D02*
X130822000Y-122154700D01*
X132298400Y-123516577D02*
X132298400Y-124600000D01*
%TO.N,Net-(U1-Pad20)*%
X131422000Y-124526400D02*
X131422000Y-123081871D01*
X131422000Y-123081871D02*
X131322000Y-122981871D01*
X131322000Y-122981871D02*
X131322000Y-122154700D01*
%TO.N,Net-(JP13-Pad2)*%
X123456706Y-112624994D02*
X123494800Y-112586900D01*
X123494800Y-112586900D02*
X123494800Y-111150400D01*
%TO.N,Net-(JP14-Pad2)*%
X123494800Y-109880400D02*
X124094800Y-110480400D01*
X124094800Y-113293600D02*
X124053600Y-113334800D01*
X124094800Y-110480400D02*
X124094800Y-113293600D01*
%TO.N,Net-(JP15-Pad2)*%
X153075000Y-74331200D02*
X151485600Y-75920600D01*
X152400000Y-71297800D02*
X152400000Y-72339200D01*
X157375878Y-71051400D02*
X152646400Y-71051400D01*
X157376378Y-71051900D02*
X157375878Y-71051400D01*
X153075000Y-73014200D02*
X153075000Y-74331200D01*
X151485600Y-75920600D02*
X151485600Y-78079600D01*
X152400000Y-72339200D02*
X153075000Y-73014200D01*
X152646400Y-71051400D02*
X152400000Y-71297800D01*
%TO.N,Net-(JP16-Pad2)*%
X153543971Y-75819000D02*
X152292159Y-77070812D01*
X153619200Y-75819000D02*
X153543971Y-75819000D01*
X152292159Y-77070812D02*
X152292159Y-78720840D01*
X152292159Y-78720840D02*
X151794447Y-79218552D01*
%TD*%
%TA.AperFunction,Conductor*%
%TO.N,/StackB/VCC*%
G36*
X167692121Y-72020002D02*
G01*
X167738614Y-72073658D01*
X167750000Y-72126000D01*
X167750000Y-75558579D01*
X167757612Y-75596847D01*
X167764507Y-75607166D01*
X167775850Y-75624143D01*
X167775853Y-75624147D01*
X167779289Y-75629289D01*
X168370711Y-76220711D01*
X168375853Y-76224147D01*
X168375857Y-76224150D01*
X168390692Y-76234062D01*
X168403153Y-76242388D01*
X168441421Y-76250000D01*
X170024000Y-76250000D01*
X170092121Y-76270002D01*
X170138614Y-76323658D01*
X170150000Y-76376000D01*
X170150000Y-79474000D01*
X170129998Y-79542121D01*
X170076342Y-79588614D01*
X170024000Y-79600000D01*
X166426000Y-79600000D01*
X166357879Y-79579998D01*
X166311386Y-79526342D01*
X166300000Y-79474000D01*
X166300000Y-72126000D01*
X166320002Y-72057879D01*
X166373658Y-72011386D01*
X166426000Y-72000000D01*
X167624000Y-72000000D01*
X167692121Y-72020002D01*
G37*
%TD.AperFunction*%
%TD*%
%TA.AperFunction,Conductor*%
%TO.N,/StackB/GND*%
G36*
X175270857Y-68920002D02*
G01*
X175317350Y-68973658D01*
X175327236Y-69045385D01*
X175319646Y-69094131D01*
X175320810Y-69103033D01*
X175320810Y-69103036D01*
X175321948Y-69111737D01*
X175337306Y-69229186D01*
X175392162Y-69353856D01*
X175397939Y-69360729D01*
X175397940Y-69360730D01*
X175409219Y-69374148D01*
X175479804Y-69458119D01*
X175593187Y-69533593D01*
X175723195Y-69574210D01*
X175859377Y-69576706D01*
X175905711Y-69564074D01*
X175982124Y-69543242D01*
X175982127Y-69543241D01*
X175990786Y-69540880D01*
X175998436Y-69536183D01*
X175998438Y-69536182D01*
X176099206Y-69474311D01*
X176099209Y-69474308D01*
X176106858Y-69469612D01*
X176198261Y-69368631D01*
X176205420Y-69353856D01*
X176253734Y-69254135D01*
X176253734Y-69254134D01*
X176257649Y-69246054D01*
X176280247Y-69111737D01*
X176280390Y-69100000D01*
X176272350Y-69043861D01*
X176282492Y-68973595D01*
X176329014Y-68919965D01*
X176397077Y-68900000D01*
X176774000Y-68900000D01*
X176842121Y-68920002D01*
X176888614Y-68973658D01*
X176900000Y-69026000D01*
X176900000Y-71474000D01*
X176879998Y-71542121D01*
X176826342Y-71588614D01*
X176774000Y-71600000D01*
X168126000Y-71600000D01*
X168057879Y-71579998D01*
X168011386Y-71526342D01*
X168000000Y-71474000D01*
X168000000Y-69026000D01*
X168020002Y-68957879D01*
X168073658Y-68911386D01*
X168126000Y-68900000D01*
X175202736Y-68900000D01*
X175270857Y-68920002D01*
G37*
%TD.AperFunction*%
%TD*%
%TA.AperFunction,Conductor*%
%TO.N,/StackB/GND*%
G36*
X172100000Y-71600000D02*
G01*
X170767703Y-71600000D01*
X170764215Y-71601070D01*
X170764213Y-71601070D01*
X170746589Y-71606475D01*
X170711640Y-71617193D01*
X170674856Y-71662861D01*
X169707152Y-74082119D01*
X169701804Y-74100347D01*
X169701584Y-74102658D01*
X169701583Y-74102661D01*
X169700898Y-74109847D01*
X169700000Y-74119258D01*
X169700000Y-75990254D01*
X169696270Y-76009006D01*
X169694097Y-76014252D01*
X169667578Y-76040770D01*
X169648827Y-76044500D01*
X168505416Y-76044500D01*
X168470768Y-76030148D01*
X168214352Y-75773732D01*
X168200000Y-75739084D01*
X168200000Y-74376287D01*
X168204903Y-74354922D01*
X168256128Y-74249193D01*
X168257649Y-74246054D01*
X168280247Y-74111737D01*
X168280390Y-74100000D01*
X168261081Y-73965171D01*
X168204706Y-73841180D01*
X168205911Y-73840632D01*
X168200000Y-73820411D01*
X168200000Y-69200000D01*
X172100000Y-69200000D01*
X172100000Y-71600000D01*
G37*
%TD.AperFunction*%
%TD*%
%TA.AperFunction,Conductor*%
%TO.N,/StackB/GND*%
G36*
X174400000Y-74158579D02*
G01*
X174407612Y-74196847D01*
X174410293Y-74200859D01*
X174410294Y-74200862D01*
X174426375Y-74224928D01*
X174429289Y-74229289D01*
X174767297Y-74567297D01*
X174773391Y-74574722D01*
X174786974Y-74595050D01*
X174794289Y-74612708D01*
X174799060Y-74636695D01*
X174800000Y-74646244D01*
X174800000Y-78990254D01*
X174796270Y-79009005D01*
X174778478Y-79051959D01*
X174751959Y-79078478D01*
X174709005Y-79096270D01*
X174690254Y-79100000D01*
X173509746Y-79100000D01*
X173490995Y-79096270D01*
X173448041Y-79078478D01*
X173421522Y-79051959D01*
X173403730Y-79009005D01*
X173400000Y-78990254D01*
X173400000Y-74637283D01*
X173400633Y-74629434D01*
X173403858Y-74609560D01*
X173408821Y-74594670D01*
X173418168Y-74576830D01*
X173422371Y-74570172D01*
X173505392Y-74459478D01*
X173678034Y-74229289D01*
X173680001Y-74226666D01*
X173694868Y-74198289D01*
X173700000Y-74166667D01*
X173700000Y-71300000D01*
X174400000Y-71300000D01*
X174400000Y-74158579D01*
G37*
%TD.AperFunction*%
%TD*%
%TA.AperFunction,Conductor*%
%TO.N,GND*%
G36*
X106529232Y-113069852D02*
G01*
X106785648Y-113326268D01*
X106800000Y-113360916D01*
X106800000Y-114722101D01*
X106795355Y-114742926D01*
X106740601Y-114859548D01*
X106740065Y-114862991D01*
X106740064Y-114862994D01*
X106720182Y-114990686D01*
X106719646Y-114994131D01*
X106720098Y-114997588D01*
X106720098Y-114997591D01*
X106734937Y-115111068D01*
X106737306Y-115129186D01*
X106738712Y-115132381D01*
X106765449Y-115193145D01*
X106792162Y-115253856D01*
X106792927Y-115254766D01*
X106800000Y-115279516D01*
X106800000Y-119900000D01*
X102900000Y-119900000D01*
X102900000Y-117500000D01*
X104232297Y-117500000D01*
X104235785Y-117498930D01*
X104235787Y-117498930D01*
X104253411Y-117493525D01*
X104288360Y-117482807D01*
X104325144Y-117437139D01*
X105292848Y-115017881D01*
X105298196Y-114999653D01*
X105298417Y-114997339D01*
X105299890Y-114981899D01*
X105299890Y-114981891D01*
X105300000Y-114980742D01*
X105300000Y-113109746D01*
X105303730Y-113090994D01*
X105305903Y-113085748D01*
X105332422Y-113059230D01*
X105351173Y-113055500D01*
X106494584Y-113055500D01*
X106529232Y-113069852D01*
G37*
%TD.AperFunction*%
%TD*%
%TA.AperFunction,Conductor*%
%TO.N,Net-(C25-Pad2)*%
G36*
X103709005Y-109703730D02*
G01*
X103751959Y-109721522D01*
X103778478Y-109748041D01*
X103796270Y-109790995D01*
X103800000Y-109809746D01*
X103800000Y-112650643D01*
X103798941Y-112660773D01*
X103793592Y-112686087D01*
X103785397Y-112704614D01*
X103770262Y-112725604D01*
X103763480Y-112733200D01*
X103282733Y-113170243D01*
X103258549Y-113203782D01*
X103250000Y-113244237D01*
X103250000Y-114363826D01*
X103249402Y-114371458D01*
X103246352Y-114390802D01*
X103241657Y-114405321D01*
X103234641Y-114419164D01*
X103232803Y-114422791D01*
X103228819Y-114429328D01*
X102618932Y-115273786D01*
X102604851Y-115301568D01*
X102600000Y-115332335D01*
X102600000Y-116790254D01*
X102596270Y-116809005D01*
X102578478Y-116851959D01*
X102551959Y-116878478D01*
X102509005Y-116896270D01*
X102490254Y-116900000D01*
X102009746Y-116900000D01*
X101990995Y-116896270D01*
X101948041Y-116878478D01*
X101921522Y-116851959D01*
X101903730Y-116809005D01*
X101900000Y-116790254D01*
X101900000Y-115223450D01*
X101900260Y-115218407D01*
X101901597Y-115205484D01*
X101903661Y-115195618D01*
X101907615Y-115183243D01*
X101909396Y-115178523D01*
X102241110Y-114420321D01*
X102241111Y-114420318D01*
X102241616Y-114419164D01*
X102247881Y-114399557D01*
X102250000Y-114379082D01*
X102250000Y-109809746D01*
X102253730Y-109790995D01*
X102271522Y-109748041D01*
X102298041Y-109721522D01*
X102340995Y-109703730D01*
X102359746Y-109700000D01*
X103690254Y-109700000D01*
X103709005Y-109703730D01*
G37*
%TD.AperFunction*%
%TD*%
%TA.AperFunction,Conductor*%
%TO.N,+5V*%
G36*
X108642121Y-109520002D02*
G01*
X108688614Y-109573658D01*
X108700000Y-109626000D01*
X108700000Y-116974000D01*
X108679998Y-117042121D01*
X108626342Y-117088614D01*
X108574000Y-117100000D01*
X107376000Y-117100000D01*
X107307879Y-117079998D01*
X107261386Y-117026342D01*
X107250000Y-116974000D01*
X107250000Y-113541421D01*
X107242388Y-113503153D01*
X107234062Y-113490692D01*
X107224150Y-113475857D01*
X107224147Y-113475853D01*
X107220711Y-113470711D01*
X106629289Y-112879289D01*
X106624147Y-112875853D01*
X106624143Y-112875850D01*
X106607166Y-112864507D01*
X106596847Y-112857612D01*
X106558579Y-112850000D01*
X104976000Y-112850000D01*
X104907879Y-112829998D01*
X104861386Y-112776342D01*
X104850000Y-112724000D01*
X104850000Y-109626000D01*
X104870002Y-109557879D01*
X104923658Y-109511386D01*
X104976000Y-109500000D01*
X108574000Y-109500000D01*
X108642121Y-109520002D01*
G37*
%TD.AperFunction*%
%TD*%
%TA.AperFunction,Conductor*%
%TO.N,/StackB/GND*%
G36*
X175909005Y-62503730D02*
G01*
X175951959Y-62521522D01*
X175978478Y-62548041D01*
X175996270Y-62590995D01*
X176000000Y-62609746D01*
X176000000Y-64390254D01*
X175996270Y-64409005D01*
X175978478Y-64451959D01*
X175951959Y-64478478D01*
X175909005Y-64496270D01*
X175890254Y-64500000D01*
X171109746Y-64500000D01*
X171090995Y-64496270D01*
X171048041Y-64478478D01*
X171021522Y-64451959D01*
X171003730Y-64409005D01*
X171000000Y-64390254D01*
X171000000Y-62609746D01*
X171003730Y-62590995D01*
X171021522Y-62548041D01*
X171048041Y-62521522D01*
X171090995Y-62503730D01*
X171109746Y-62500000D01*
X175890254Y-62500000D01*
X175909005Y-62503730D01*
G37*
%TD.AperFunction*%
%TD*%
%TA.AperFunction,Conductor*%
%TO.N,/StackB/PSU_INPUT*%
G36*
X177709005Y-72203730D02*
G01*
X177751959Y-72221522D01*
X177778478Y-72248041D01*
X177796270Y-72290995D01*
X177800000Y-72309746D01*
X177800000Y-78940254D01*
X177796270Y-78959005D01*
X177778478Y-79001959D01*
X177751959Y-79028478D01*
X177709005Y-79046270D01*
X177690254Y-79050000D01*
X176459746Y-79050000D01*
X176440995Y-79046270D01*
X176398041Y-79028478D01*
X176371522Y-79001959D01*
X176353730Y-78959005D01*
X176350000Y-78940254D01*
X176350000Y-74710792D01*
X176335449Y-74658846D01*
X176296032Y-74622016D01*
X175059943Y-73981082D01*
X175049046Y-73973385D01*
X175024580Y-73950525D01*
X175010849Y-73927939D01*
X175001816Y-73895691D01*
X175000000Y-73882474D01*
X175000000Y-72309746D01*
X175003730Y-72290995D01*
X175021522Y-72248041D01*
X175048041Y-72221522D01*
X175090995Y-72203730D01*
X175109746Y-72200000D01*
X177690254Y-72200000D01*
X177709005Y-72203730D01*
G37*
%TD.AperFunction*%
%TD*%
%TA.AperFunction,Conductor*%
%TO.N,GND*%
G36*
X103909005Y-124603730D02*
G01*
X103951959Y-124621522D01*
X103978478Y-124648041D01*
X103996270Y-124690995D01*
X104000000Y-124709746D01*
X104000000Y-126490254D01*
X103996270Y-126509005D01*
X103978478Y-126551959D01*
X103951959Y-126578478D01*
X103909005Y-126596270D01*
X103890254Y-126600000D01*
X99109746Y-126600000D01*
X99090995Y-126596270D01*
X99048041Y-126578478D01*
X99021522Y-126551959D01*
X99003730Y-126509005D01*
X99000000Y-126490254D01*
X99000000Y-124709746D01*
X99003730Y-124690995D01*
X99021522Y-124648041D01*
X99048041Y-124621522D01*
X99090995Y-124603730D01*
X99109746Y-124600000D01*
X103890254Y-124600000D01*
X103909005Y-124603730D01*
G37*
%TD.AperFunction*%
%TD*%
%TA.AperFunction,Conductor*%
%TO.N,Net-(C45-Pad2)*%
G36*
X173009005Y-72203730D02*
G01*
X173051959Y-72221522D01*
X173078478Y-72248041D01*
X173096270Y-72290995D01*
X173100000Y-72309746D01*
X173100000Y-73876550D01*
X173099740Y-73881593D01*
X173098403Y-73894516D01*
X173096339Y-73904382D01*
X173092387Y-73916752D01*
X173090604Y-73921477D01*
X172758384Y-74680836D01*
X172752119Y-74700443D01*
X172750000Y-74720918D01*
X172750000Y-79290254D01*
X172746270Y-79309005D01*
X172728478Y-79351959D01*
X172701959Y-79378478D01*
X172659005Y-79396270D01*
X172640254Y-79400000D01*
X171309746Y-79400000D01*
X171290995Y-79396270D01*
X171248041Y-79378478D01*
X171221522Y-79351959D01*
X171203730Y-79309005D01*
X171200000Y-79290254D01*
X171200000Y-76449357D01*
X171201059Y-76439227D01*
X171206408Y-76413913D01*
X171214603Y-76395386D01*
X171229740Y-76374394D01*
X171236522Y-76366798D01*
X171715376Y-75931476D01*
X171717267Y-75929757D01*
X171741451Y-75896218D01*
X171750000Y-75855763D01*
X171750000Y-74736174D01*
X171750598Y-74728542D01*
X171753648Y-74709198D01*
X171758343Y-74694678D01*
X171764748Y-74682042D01*
X171767198Y-74677208D01*
X171771181Y-74670672D01*
X172381068Y-73826214D01*
X172395149Y-73798432D01*
X172400000Y-73767665D01*
X172400000Y-72309746D01*
X172403730Y-72290995D01*
X172421522Y-72248041D01*
X172448041Y-72221522D01*
X172490995Y-72203730D01*
X172509746Y-72200000D01*
X172990254Y-72200000D01*
X173009005Y-72203730D01*
G37*
%TD.AperFunction*%
%TD*%
%TA.AperFunction,Conductor*%
%TO.N,/StackA/PSU_INPUT*%
G36*
X98559005Y-110053730D02*
G01*
X98601959Y-110071522D01*
X98628478Y-110098041D01*
X98646270Y-110140995D01*
X98650000Y-110159746D01*
X98650000Y-114389208D01*
X98664551Y-114441154D01*
X98703968Y-114477984D01*
X98706945Y-114479527D01*
X98706944Y-114479527D01*
X99940057Y-115118918D01*
X99950954Y-115126615D01*
X99975420Y-115149475D01*
X99989151Y-115172061D01*
X99998184Y-115204309D01*
X100000000Y-115217526D01*
X100000000Y-116790254D01*
X99996271Y-116809002D01*
X99994477Y-116813334D01*
X99967960Y-116839853D01*
X99955602Y-116843164D01*
X99846419Y-116857537D01*
X99846417Y-116857537D01*
X99843238Y-116857956D01*
X99793694Y-116878478D01*
X99750740Y-116896270D01*
X99731988Y-116900000D01*
X97309746Y-116900000D01*
X97290995Y-116896270D01*
X97248041Y-116878478D01*
X97221522Y-116851959D01*
X97203730Y-116809005D01*
X97200000Y-116790254D01*
X97200000Y-110159746D01*
X97203730Y-110140995D01*
X97221522Y-110098041D01*
X97248041Y-110071522D01*
X97290995Y-110053730D01*
X97309746Y-110050000D01*
X98540254Y-110050000D01*
X98559005Y-110053730D01*
G37*
%TD.AperFunction*%
%TD*%
%TA.AperFunction,Conductor*%
%TO.N,GND*%
G36*
X106942121Y-117520002D02*
G01*
X106988614Y-117573658D01*
X107000000Y-117626000D01*
X107000000Y-120071484D01*
X106979998Y-120139605D01*
X106963095Y-120160579D01*
X106960579Y-120163095D01*
X106898267Y-120197121D01*
X106871484Y-120200000D01*
X99797543Y-120200000D01*
X99729422Y-120179998D01*
X99682929Y-120126342D01*
X99673289Y-120053096D01*
X99679440Y-120016532D01*
X99680247Y-120011737D01*
X99680390Y-120000000D01*
X99661081Y-119865171D01*
X99604706Y-119741180D01*
X99591349Y-119725678D01*
X99521657Y-119644798D01*
X99515796Y-119637996D01*
X99502494Y-119629374D01*
X99409032Y-119568794D01*
X99409030Y-119568793D01*
X99401501Y-119563913D01*
X99392904Y-119561342D01*
X99392902Y-119561341D01*
X99307918Y-119535926D01*
X99271006Y-119524887D01*
X99262030Y-119524832D01*
X99262029Y-119524832D01*
X99205036Y-119524484D01*
X99134804Y-119524055D01*
X99126172Y-119526522D01*
X99012473Y-119559017D01*
X99012471Y-119559018D01*
X99003842Y-119561484D01*
X98888650Y-119634165D01*
X98798487Y-119736255D01*
X98740601Y-119859548D01*
X98719646Y-119994131D01*
X98727954Y-120057664D01*
X98716954Y-120127801D01*
X98669780Y-120180859D01*
X98603018Y-120200000D01*
X98226000Y-120200000D01*
X98157879Y-120179998D01*
X98111386Y-120126342D01*
X98100000Y-120074000D01*
X98100000Y-117631500D01*
X98120002Y-117563379D01*
X98173658Y-117516886D01*
X98226000Y-117505500D01*
X99731988Y-117505500D01*
X99735060Y-117505197D01*
X99735069Y-117505197D01*
X99781670Y-117500607D01*
X99794020Y-117500000D01*
X106874000Y-117500000D01*
X106942121Y-117520002D01*
G37*
%TD.AperFunction*%
%TD*%
%TA.AperFunction,Conductor*%
%TO.N,GND*%
G36*
X101509005Y-110003730D02*
G01*
X101551959Y-110021522D01*
X101578478Y-110048041D01*
X101596270Y-110090995D01*
X101600000Y-110109746D01*
X101600000Y-114462717D01*
X101599367Y-114470566D01*
X101596142Y-114490440D01*
X101591178Y-114505333D01*
X101581832Y-114523170D01*
X101577629Y-114529828D01*
X101320000Y-114873333D01*
X101305132Y-114901711D01*
X101300000Y-114933333D01*
X101300000Y-117800000D01*
X100600000Y-117800000D01*
X100600000Y-116848507D01*
X100600236Y-116843705D01*
X100605382Y-116791454D01*
X100605382Y-116791450D01*
X100605500Y-116790254D01*
X100605500Y-115217526D01*
X100600114Y-115138761D01*
X100600000Y-115135418D01*
X100600000Y-114941421D01*
X100592388Y-114903153D01*
X100589707Y-114899141D01*
X100589706Y-114899138D01*
X100572048Y-114872712D01*
X100570711Y-114870711D01*
X100232703Y-114532703D01*
X100226609Y-114525278D01*
X100213026Y-114504950D01*
X100205711Y-114487292D01*
X100200940Y-114463305D01*
X100200000Y-114453756D01*
X100200000Y-110109746D01*
X100203730Y-110090995D01*
X100221522Y-110048041D01*
X100248041Y-110021522D01*
X100290995Y-110003730D01*
X100309746Y-110000000D01*
X101490254Y-110000000D01*
X101509005Y-110003730D01*
G37*
%TD.AperFunction*%
%TD*%
M02*
