%TF.GenerationSoftware,KiCad,Pcbnew,(6.0.9)*%
%TF.CreationDate,2023-03-24T14:57:48+01:00*%
%TF.ProjectId,bms_monitor,626d735f-6d6f-46e6-9974-6f722e6b6963,rev?*%
%TF.SameCoordinates,Original*%
%TF.FileFunction,Drillmap*%
%TF.FilePolarity,Positive*%
%FSLAX45Y45*%
G04 Gerber Fmt 4.5, Leading zero omitted, Abs format (unit mm)*
G04 Created by KiCad (PCBNEW (6.0.9)) date 2023-03-24 14:57:48*
%MOMM*%
%LPD*%
G01*
G04 APERTURE LIST*
%ADD10C,0.050000*%
%ADD11C,0.200000*%
%ADD12C,0.025000*%
%ADD13C,0.040000*%
%ADD14C,0.100000*%
%ADD15C,0.102000*%
%ADD16C,0.120000*%
G04 APERTURE END LIST*
D10*
X8000000Y-8700000D02*
X8000000Y-7750000D01*
X8000000Y-6750000D02*
G75*
G03*
X8050000Y-6800000I50000J0D01*
G01*
X8600000Y-6850000D02*
X8600000Y-7650000D01*
X14600000Y-10580000D02*
G75*
G03*
X14500000Y-10580000I-50000J0D01*
G01*
X18950000Y-11200000D02*
G75*
G03*
X18900000Y-11250000I0J-50000D01*
G01*
X8550000Y-9900000D02*
G75*
G03*
X8600000Y-9850000I0J50000D01*
G01*
X13000000Y-6400000D02*
G75*
G03*
X12900000Y-6400000I-50000J0D01*
G01*
X8600000Y-6850000D02*
G75*
G03*
X8550000Y-6800000I-50000J0D01*
G01*
X19450000Y-10150000D02*
X18950000Y-10150000D01*
X8600000Y-8800000D02*
G75*
G03*
X8550000Y-8750000I-50000J0D01*
G01*
X8000000Y-12650000D02*
X8000000Y-12150000D01*
X13564000Y-11570000D02*
X14222500Y-11570000D01*
X14100000Y-8995000D02*
X13620000Y-8995000D01*
X19450000Y-9000000D02*
G75*
G03*
X19500000Y-8950000I0J50000D01*
G01*
X13564000Y-11470000D02*
G75*
G03*
X13564000Y-11570000I0J-50000D01*
G01*
X8000000Y-6750000D02*
X8000000Y-6250000D01*
X18950000Y-6800000D02*
G75*
G03*
X18900000Y-6850000I0J-50000D01*
G01*
X19450000Y-6800000D02*
G75*
G03*
X19500000Y-6750000I0J50000D01*
G01*
X13000000Y-8895000D02*
X13040000Y-8895000D01*
X8600000Y-11000000D02*
G75*
G03*
X8550000Y-10950000I-50000J0D01*
G01*
X14222500Y-11470000D02*
X13564000Y-11470000D01*
X19500000Y-10200000D02*
G75*
G03*
X19450000Y-10150000I-50000J0D01*
G01*
X13040000Y-8995000D02*
X12950000Y-8995000D01*
X14600000Y-12500000D02*
X14600000Y-10580000D01*
X19450000Y-12700000D02*
X8050000Y-12700000D01*
X14370000Y-8895000D02*
G75*
G03*
X14370000Y-8995000I0J-50000D01*
G01*
X19500000Y-10200000D02*
X19500000Y-11150000D01*
X8050000Y-9900000D02*
G75*
G03*
X8000000Y-9950000I0J-50000D01*
G01*
X19500000Y-6250000D02*
X19500000Y-6750000D01*
X19450000Y-9000000D02*
X18950000Y-9000000D01*
X13040000Y-8995000D02*
G75*
G03*
X13040000Y-8895000I0J50000D01*
G01*
X8050000Y-8750000D02*
X8550000Y-8750000D01*
X8550000Y-7700000D02*
G75*
G03*
X8600000Y-7650000I0J50000D01*
G01*
X13000000Y-7660000D02*
G75*
G03*
X12900000Y-7660000I-50000J0D01*
G01*
X14370000Y-8895000D02*
X14550000Y-8895000D01*
X14600000Y-8945000D02*
G75*
G03*
X14550000Y-8895000I-50000J0D01*
G01*
X12900000Y-8945000D02*
G75*
G03*
X12950000Y-8995000I50000J0D01*
G01*
X8000000Y-12650000D02*
G75*
G03*
X8050000Y-12700000I50000J0D01*
G01*
X8050000Y-7700000D02*
G75*
G03*
X8000000Y-7750000I0J-50000D01*
G01*
X14500000Y-8995000D02*
X14500000Y-10180000D01*
X12900000Y-8945000D02*
X12900000Y-7660000D01*
X18900000Y-12050000D02*
G75*
G03*
X18950000Y-12100000I50000J0D01*
G01*
X19500000Y-12150000D02*
X19500000Y-12650000D01*
X8000000Y-8700000D02*
G75*
G03*
X8050000Y-8750000I50000J0D01*
G01*
X8550000Y-12100000D02*
G75*
G03*
X8600000Y-12050000I0J50000D01*
G01*
X12900000Y-7260000D02*
X12900000Y-6400000D01*
X19500000Y-8000000D02*
G75*
G03*
X19450000Y-7950000I-50000J0D01*
G01*
X14222500Y-11570000D02*
G75*
G03*
X14222500Y-11470000I0J50000D01*
G01*
X18900000Y-10100000D02*
G75*
G03*
X18950000Y-10150000I50000J0D01*
G01*
X13620000Y-8895000D02*
G75*
G03*
X13620000Y-8995000I0J-50000D01*
G01*
X8000000Y-10900000D02*
G75*
G03*
X8050000Y-10950000I50000J0D01*
G01*
X8050000Y-6800000D02*
X8550000Y-6800000D01*
X13000000Y-7660000D02*
X13000000Y-8895000D01*
X19500000Y-6250000D02*
G75*
G03*
X19450000Y-6200000I-50000J0D01*
G01*
X18900000Y-7900000D02*
X18900000Y-6850000D01*
X14600000Y-10180000D02*
X14600000Y-8945000D01*
X14100000Y-8995000D02*
G75*
G03*
X14100000Y-8895000I0J50000D01*
G01*
X14500000Y-12500000D02*
G75*
G03*
X14600000Y-12500000I50000J0D01*
G01*
X12900000Y-7260000D02*
G75*
G03*
X13000000Y-7260000I50000J0D01*
G01*
X19450000Y-12700000D02*
G75*
G03*
X19500000Y-12650000I0J50000D01*
G01*
X14500000Y-8995000D02*
X14370000Y-8995000D01*
X19450000Y-11200000D02*
G75*
G03*
X19500000Y-11150000I0J50000D01*
G01*
X8050000Y-9900000D02*
X8550000Y-9900000D01*
X14500000Y-10180000D02*
G75*
G03*
X14600000Y-10180000I50000J0D01*
G01*
X13000000Y-6400000D02*
X13000000Y-7260000D01*
X19450000Y-12100000D02*
X18950000Y-12100000D01*
X18900000Y-7900000D02*
G75*
G03*
X18950000Y-7950000I50000J0D01*
G01*
X13620000Y-8895000D02*
X14100000Y-8895000D01*
X8050000Y-12100000D02*
G75*
G03*
X8000000Y-12150000I0J-50000D01*
G01*
X14500000Y-10580000D02*
X14500000Y-12500000D01*
X18900000Y-10100000D02*
X18900000Y-9050000D01*
X8000000Y-10900000D02*
X8000000Y-9950000D01*
X8050000Y-7700000D02*
X8550000Y-7700000D01*
X8600000Y-8800000D02*
X8600000Y-9850000D01*
X19500000Y-8000000D02*
X19500000Y-8950000D01*
X18900000Y-12050000D02*
X18900000Y-11250000D01*
X19450000Y-11200000D02*
X18950000Y-11200000D01*
X8550000Y-12100000D02*
X8050000Y-12100000D01*
X18950000Y-6800000D02*
X19450000Y-6800000D01*
X8050000Y-10950000D02*
X8550000Y-10950000D01*
X19500000Y-12150000D02*
G75*
G03*
X19450000Y-12100000I-50000J0D01*
G01*
X8050000Y-6200000D02*
X19450000Y-6200000D01*
X8600000Y-11000000D02*
X8600000Y-12050000D01*
X18950000Y-9000000D02*
G75*
G03*
X18900000Y-9050000I0J-50000D01*
G01*
X19450000Y-7950000D02*
X18950000Y-7950000D01*
X8050000Y-6200000D02*
G75*
G03*
X8000000Y-6250000I0J-50000D01*
G01*
D11*
D12*
X9460000Y-9345000D02*
X9485000Y-9370000D01*
X9485000Y-9345000D02*
X9460000Y-9370000D01*
X9567500Y-10107500D02*
X9592500Y-10132500D01*
X9592500Y-10107500D02*
X9567500Y-10132500D01*
X9577500Y-9007500D02*
X9602500Y-9032500D01*
X9602500Y-9007500D02*
X9577500Y-9032500D01*
X9649891Y-10109891D02*
X9674891Y-10134891D01*
X9674891Y-10109891D02*
X9649891Y-10134891D01*
X9662500Y-9032500D02*
X9687500Y-9057500D01*
X9687500Y-9032500D02*
X9662500Y-9057500D01*
X9732500Y-9002500D02*
X9757500Y-9027500D01*
X9757500Y-9002500D02*
X9732500Y-9027500D01*
X9739891Y-10089891D02*
X9764891Y-10114891D01*
X9764891Y-10089891D02*
X9739891Y-10114891D01*
X9812422Y-10108782D02*
X9837422Y-10133782D01*
X9837422Y-10108782D02*
X9812422Y-10133782D01*
X9842500Y-9052500D02*
X9867500Y-9077500D01*
X9867500Y-9052500D02*
X9842500Y-9077500D01*
X9907500Y-11987500D02*
X9932500Y-12012500D01*
X9932500Y-11987500D02*
X9907500Y-12012500D01*
X9917500Y-9047500D02*
X9942500Y-9072500D01*
X9942500Y-9047500D02*
X9917500Y-9072500D01*
X9917500Y-10107500D02*
X9942500Y-10132500D01*
X9942500Y-10107500D02*
X9917500Y-10132500D01*
X9997500Y-10107500D02*
X10022500Y-10132500D01*
X10022500Y-10107500D02*
X9997500Y-10132500D01*
X10027500Y-9007500D02*
X10052500Y-9032500D01*
X10052500Y-9007500D02*
X10027500Y-9032500D01*
X10087500Y-10107500D02*
X10112500Y-10132500D01*
X10112500Y-10107500D02*
X10087500Y-10132500D01*
X10097500Y-9037500D02*
X10122500Y-9062500D01*
X10122500Y-9037500D02*
X10097500Y-9062500D01*
X10167450Y-8985557D02*
X10192450Y-9010557D01*
X10192450Y-8985557D02*
X10167450Y-9010557D01*
X10177500Y-10097500D02*
X10202500Y-10122500D01*
X10202500Y-10097500D02*
X10177500Y-10122500D01*
X10232450Y-9050910D02*
X10257450Y-9075910D01*
X10257450Y-9050910D02*
X10232450Y-9075910D01*
X10627535Y-12237465D02*
X10652535Y-12262465D01*
X10652535Y-12237465D02*
X10627535Y-12262465D01*
X10640752Y-10636014D02*
X10665752Y-10661014D01*
X10665752Y-10636014D02*
X10640752Y-10661014D01*
X10687930Y-12105587D02*
X10712930Y-12130587D01*
X10712930Y-12105587D02*
X10687930Y-12130587D01*
X10693080Y-10582355D02*
X10718080Y-10607355D01*
X10718080Y-10582355D02*
X10693080Y-10607355D01*
X10707500Y-11487500D02*
X10732500Y-11512500D01*
X10732500Y-11487500D02*
X10707500Y-11512500D01*
X10750980Y-10534620D02*
X10775980Y-10559620D01*
X10775980Y-10534620D02*
X10750980Y-10559620D01*
X10811549Y-10489315D02*
X10836549Y-10514315D01*
X10836549Y-10489315D02*
X10811549Y-10514315D01*
X10925550Y-11833650D02*
X10950550Y-11858650D01*
X10950550Y-11833650D02*
X10925550Y-11858650D01*
X10985500Y-11900100D02*
X11010500Y-11925100D01*
X11010500Y-11900100D02*
X10985500Y-11925100D01*
X11049891Y-9765109D02*
X11074891Y-9790109D01*
X11074891Y-9765109D02*
X11049891Y-9790109D01*
X11097460Y-12179500D02*
X11122460Y-12204500D01*
X11122460Y-12179500D02*
X11097460Y-12204500D01*
X11132550Y-8927500D02*
X11157550Y-8952500D01*
X11157550Y-8927500D02*
X11132550Y-8952500D01*
X11195367Y-10370149D02*
X11220367Y-10395149D01*
X11220367Y-10370149D02*
X11195367Y-10395149D01*
X11232223Y-10819184D02*
X11257223Y-10844184D01*
X11257223Y-10819184D02*
X11232223Y-10844184D01*
X11267500Y-6527500D02*
X11292500Y-6552500D01*
X11292500Y-6527500D02*
X11267500Y-6552500D01*
X11267500Y-6947500D02*
X11292500Y-6972500D01*
X11292500Y-6947500D02*
X11267500Y-6972500D01*
X11267500Y-7367500D02*
X11292500Y-7392500D01*
X11292500Y-7367500D02*
X11267500Y-7392500D01*
X11267500Y-7787500D02*
X11292500Y-7812500D01*
X11292500Y-7787500D02*
X11267500Y-7812500D01*
X11267500Y-8207500D02*
X11292500Y-8232500D01*
X11292500Y-8207500D02*
X11267500Y-8232500D01*
X11267500Y-8627500D02*
X11292500Y-8652500D01*
X11292500Y-8627500D02*
X11267500Y-8652500D01*
X11277500Y-10367500D02*
X11302500Y-10392500D01*
X11302500Y-10367500D02*
X11277500Y-10392500D01*
X11334916Y-8907500D02*
X11359916Y-8932500D01*
X11359916Y-8907500D02*
X11334916Y-8932500D01*
X11357500Y-10367500D02*
X11382500Y-10392500D01*
X11382500Y-10367500D02*
X11357500Y-10392500D01*
X11361620Y-12128700D02*
X11386620Y-12153700D01*
X11386620Y-12128700D02*
X11361620Y-12153700D01*
X11361891Y-11234891D02*
X11386891Y-11259891D01*
X11386891Y-11234891D02*
X11361891Y-11259891D01*
X11437500Y-10367500D02*
X11462500Y-10392500D01*
X11462500Y-10367500D02*
X11437500Y-10392500D01*
X11499803Y-8952549D02*
X11524803Y-8977549D01*
X11524803Y-8952549D02*
X11499803Y-8977549D01*
X11544500Y-11050050D02*
X11569500Y-11075050D01*
X11569500Y-11050050D02*
X11544500Y-11075050D01*
X11577500Y-10367500D02*
X11602500Y-10392500D01*
X11602500Y-10367500D02*
X11577500Y-10392500D01*
X11605138Y-10955925D02*
X11630138Y-10980925D01*
X11630138Y-10955925D02*
X11605138Y-10980925D01*
X11625780Y-12179500D02*
X11650780Y-12204500D01*
X11650780Y-12179500D02*
X11625780Y-12204500D01*
X11657500Y-10367500D02*
X11682500Y-10392500D01*
X11682500Y-10367500D02*
X11657500Y-10392500D01*
X11672133Y-11000754D02*
X11697133Y-11025754D01*
X11697133Y-11000754D02*
X11672133Y-11025754D01*
X11694866Y-8997450D02*
X11719866Y-9022450D01*
X11719866Y-8997450D02*
X11694866Y-9022450D01*
X11737500Y-10367500D02*
X11762500Y-10392500D01*
X11762500Y-10367500D02*
X11737500Y-10392500D01*
X11797400Y-10974106D02*
X11822400Y-10999106D01*
X11822400Y-10974106D02*
X11797400Y-10999106D01*
X11817500Y-10367500D02*
X11842500Y-10392500D01*
X11842500Y-10367500D02*
X11817500Y-10392500D01*
X11869620Y-11737540D02*
X11894620Y-11762540D01*
X11894620Y-11737540D02*
X11869620Y-11762540D01*
X11884891Y-9042450D02*
X11909891Y-9067450D01*
X11909891Y-9042450D02*
X11884891Y-9067450D01*
X11915340Y-12194740D02*
X11940340Y-12219740D01*
X11940340Y-12194740D02*
X11915340Y-12219740D01*
X11919502Y-10979502D02*
X11944502Y-11004502D01*
X11944502Y-10979502D02*
X11919502Y-11004502D01*
X11957500Y-10367500D02*
X11982500Y-10392500D01*
X11982500Y-10367500D02*
X11957500Y-10392500D01*
X12037500Y-10367500D02*
X12062500Y-10392500D01*
X12062500Y-10367500D02*
X12037500Y-10392500D01*
X12082980Y-11845950D02*
X12107980Y-11870950D01*
X12107980Y-11845950D02*
X12082980Y-11870950D01*
X12096456Y-9087450D02*
X12121456Y-9112450D01*
X12121456Y-9087450D02*
X12096456Y-9112450D01*
X12117500Y-10367500D02*
X12142500Y-10392500D01*
X12142500Y-10367500D02*
X12117500Y-10392500D01*
X12123620Y-11676580D02*
X12148620Y-11701580D01*
X12148620Y-11676580D02*
X12123620Y-11701580D01*
X12149020Y-12177500D02*
X12174020Y-12202500D01*
X12174020Y-12177500D02*
X12149020Y-12202500D01*
X12157500Y-11294450D02*
X12182500Y-11319450D01*
X12182500Y-11294450D02*
X12157500Y-11319450D01*
X12197500Y-10367500D02*
X12222500Y-10392500D01*
X12222500Y-10367500D02*
X12197500Y-10392500D01*
X12250620Y-11785800D02*
X12275620Y-11810800D01*
X12275620Y-11785800D02*
X12250620Y-11810800D01*
X12333171Y-11249999D02*
X12358171Y-11274999D01*
X12358171Y-11249999D02*
X12333171Y-11274999D01*
X12336980Y-10975540D02*
X12361980Y-11000540D01*
X12361980Y-10975540D02*
X12336980Y-11000540D01*
X12336980Y-11102540D02*
X12361980Y-11127540D01*
X12361980Y-11102540D02*
X12336980Y-11127540D01*
X12392860Y-11320980D02*
X12417860Y-11345980D01*
X12417860Y-11320980D02*
X12392860Y-11345980D01*
X12421764Y-11722077D02*
X12446764Y-11747077D01*
X12446764Y-11722077D02*
X12421764Y-11747077D01*
X12508680Y-12140380D02*
X12533680Y-12165380D01*
X12533680Y-12140380D02*
X12508680Y-12165380D01*
X12570881Y-12331679D02*
X12595881Y-12356679D01*
X12595881Y-12331679D02*
X12570881Y-12356679D01*
X12598230Y-12038205D02*
X12623230Y-12063205D01*
X12623230Y-12038205D02*
X12598230Y-12063205D01*
X12820369Y-10641049D02*
X12845369Y-10666049D01*
X12845369Y-10641049D02*
X12820369Y-10666049D01*
X12829950Y-10909500D02*
X12854950Y-10934500D01*
X12854950Y-10909500D02*
X12829950Y-10934500D01*
X12892097Y-12179597D02*
X12917097Y-12204597D01*
X12917097Y-12179597D02*
X12892097Y-12204597D01*
X12902550Y-10431440D02*
X12927550Y-10456440D01*
X12927550Y-10431440D02*
X12902550Y-10456440D01*
X12946542Y-12499502D02*
X12971542Y-12524502D01*
X12971542Y-12499502D02*
X12946542Y-12524502D01*
X13007500Y-10043220D02*
X13032500Y-10068220D01*
X13032500Y-10043220D02*
X13007500Y-10068220D01*
X13008500Y-9358500D02*
X13033500Y-9383500D01*
X13033500Y-9358500D02*
X13008500Y-9383500D01*
X13008500Y-9524150D02*
X13033500Y-9549150D01*
X13033500Y-9524150D02*
X13008500Y-9549150D01*
X13054918Y-11610898D02*
X13079918Y-11635898D01*
X13079918Y-11610898D02*
X13054918Y-11635898D01*
X13069700Y-12320540D02*
X13094700Y-12345540D01*
X13094700Y-12320540D02*
X13069700Y-12345540D01*
X13077137Y-11209220D02*
X13102137Y-11234220D01*
X13102137Y-11209220D02*
X13077137Y-11234220D01*
X13089643Y-11544477D02*
X13114643Y-11569477D01*
X13114643Y-11544477D02*
X13089643Y-11569477D01*
X13109140Y-11320980D02*
X13134140Y-11345980D01*
X13134140Y-11320980D02*
X13109140Y-11345980D01*
X13118000Y-12093140D02*
X13143000Y-12118140D01*
X13143000Y-12093140D02*
X13118000Y-12118140D01*
X13144700Y-11959220D02*
X13169700Y-11984220D01*
X13169700Y-11959220D02*
X13144700Y-11984220D01*
X13215820Y-10818060D02*
X13240820Y-10843060D01*
X13240820Y-10818060D02*
X13215820Y-10843060D01*
X13217340Y-12339158D02*
X13242340Y-12364158D01*
X13242340Y-12339158D02*
X13217340Y-12364158D01*
X13249915Y-11556862D02*
X13274915Y-11581862D01*
X13274915Y-11556862D02*
X13249915Y-11581862D01*
X13286940Y-12093140D02*
X13311940Y-12118140D01*
X13311940Y-12093140D02*
X13286940Y-12118140D01*
X13309915Y-11616812D02*
X13334915Y-11641812D01*
X13334915Y-11616812D02*
X13309915Y-11641812D01*
X13374865Y-11662244D02*
X13399865Y-11687244D01*
X13399865Y-11662244D02*
X13374865Y-11687244D01*
X13379650Y-11741162D02*
X13404650Y-11766162D01*
X13404650Y-11741162D02*
X13379650Y-11766162D01*
X13505380Y-12545260D02*
X13530380Y-12570260D01*
X13530380Y-12545260D02*
X13505380Y-12570260D01*
X13683180Y-11839140D02*
X13708180Y-11864140D01*
X13708180Y-11839140D02*
X13683180Y-11864140D01*
X13683180Y-12107370D02*
X13708180Y-12132370D01*
X13708180Y-12107370D02*
X13683180Y-12132370D01*
X13688260Y-12403020D02*
X13713260Y-12428020D01*
X13713260Y-12403020D02*
X13688260Y-12428020D01*
X14060190Y-11920420D02*
X14085190Y-11945420D01*
X14085190Y-11920420D02*
X14060190Y-11945420D01*
X14125140Y-12174420D02*
X14150140Y-12199420D01*
X14150140Y-12174420D02*
X14125140Y-12199420D01*
X14310550Y-8567500D02*
X14335550Y-8592500D01*
X14335550Y-8567500D02*
X14310550Y-8592500D01*
X14348660Y-6494980D02*
X14373660Y-6519980D01*
X14373660Y-6494980D02*
X14348660Y-6519980D01*
X14353740Y-7008060D02*
X14378740Y-7033060D01*
X14378740Y-7008060D02*
X14353740Y-7033060D01*
X14467500Y-6917500D02*
X14492500Y-6942500D01*
X14492500Y-6917500D02*
X14467500Y-6942500D01*
X14467500Y-7817500D02*
X14492500Y-7842500D01*
X14492500Y-7817500D02*
X14467500Y-7842500D01*
X14467500Y-7977500D02*
X14492500Y-8002500D01*
X14492500Y-7977500D02*
X14467500Y-8002500D01*
X14467500Y-8457500D02*
X14492500Y-8482500D01*
X14492500Y-8457500D02*
X14467500Y-8482500D01*
X14526053Y-6390650D02*
X14551053Y-6415650D01*
X14551053Y-6390650D02*
X14526053Y-6415650D01*
X14869334Y-7092550D02*
X14894334Y-7117550D01*
X14894334Y-7092550D02*
X14869334Y-7117550D01*
X14929334Y-7032600D02*
X14954334Y-7057600D01*
X14954334Y-7032600D02*
X14929334Y-7057600D01*
X14988740Y-6980000D02*
X15013740Y-7005000D01*
X15013740Y-6980000D02*
X14988740Y-7005000D01*
X15063626Y-6976898D02*
X15088626Y-7001898D01*
X15088626Y-6976898D02*
X15063626Y-7001898D01*
X15078581Y-6713929D02*
X15103581Y-6738929D01*
X15103581Y-6713929D02*
X15078581Y-6738929D01*
X15099970Y-6637450D02*
X15124970Y-6662450D01*
X15124970Y-6637450D02*
X15099970Y-6662450D01*
X15123360Y-7089340D02*
X15148360Y-7114340D01*
X15148360Y-7089340D02*
X15123360Y-7114340D01*
X15136060Y-7795460D02*
X15161060Y-7820460D01*
X15161060Y-7795460D02*
X15136060Y-7820460D01*
X15142786Y-6982520D02*
X15167786Y-7007520D01*
X15167786Y-6982520D02*
X15142786Y-7007520D01*
X15156499Y-7169330D02*
X15181499Y-7194330D01*
X15181499Y-7169330D02*
X15156499Y-7194330D01*
X15166945Y-7909355D02*
X15191945Y-7934355D01*
X15191945Y-7909355D02*
X15166945Y-7934355D01*
X15277500Y-8517500D02*
X15302500Y-8542500D01*
X15302500Y-8517500D02*
X15277500Y-8542500D01*
X15316200Y-7152640D02*
X15341200Y-7177640D01*
X15341200Y-7152640D02*
X15316200Y-7177640D01*
X15346880Y-6764220D02*
X15371880Y-6789220D01*
X15371880Y-6764220D02*
X15346880Y-6789220D01*
X15349420Y-7569400D02*
X15374420Y-7594400D01*
X15374420Y-7569400D02*
X15349420Y-7594400D01*
X15349420Y-7646730D02*
X15374420Y-7671730D01*
X15374420Y-7646730D02*
X15349420Y-7671730D01*
X15357500Y-8517500D02*
X15382500Y-8542500D01*
X15382500Y-8517500D02*
X15357500Y-8542500D01*
X15378544Y-9797550D02*
X15403544Y-9822550D01*
X15403544Y-9797550D02*
X15378544Y-9822550D01*
X15437500Y-8517500D02*
X15462500Y-8542500D01*
X15462500Y-8517500D02*
X15437500Y-8542500D01*
X15517500Y-8517500D02*
X15542500Y-8542500D01*
X15542500Y-8517500D02*
X15517500Y-8542500D01*
X15555498Y-7905498D02*
X15580498Y-7930498D01*
X15580498Y-7905498D02*
X15555498Y-7930498D01*
X15590109Y-9842550D02*
X15615109Y-9867550D01*
X15615109Y-9842550D02*
X15590109Y-9867550D01*
X15657500Y-8517500D02*
X15682500Y-8542500D01*
X15682500Y-8517500D02*
X15657500Y-8542500D01*
X15677600Y-7910894D02*
X15702600Y-7935894D01*
X15702600Y-7910894D02*
X15677600Y-7935894D01*
X15725138Y-7092690D02*
X15750138Y-7117690D01*
X15750138Y-7092690D02*
X15725138Y-7117690D01*
X15737500Y-8517500D02*
X15762500Y-8542500D01*
X15762500Y-8517500D02*
X15737500Y-8542500D01*
X15780134Y-9887550D02*
X15805134Y-9912550D01*
X15805134Y-9887550D02*
X15780134Y-9912550D01*
X15802867Y-7884246D02*
X15827867Y-7909246D01*
X15827867Y-7884246D02*
X15802867Y-7909246D01*
X15817500Y-8517500D02*
X15842500Y-8542500D01*
X15842500Y-8517500D02*
X15817500Y-8542500D01*
X15869862Y-7929075D02*
X15894862Y-7954075D01*
X15894862Y-7929075D02*
X15869862Y-7954075D01*
X15877063Y-7847500D02*
X15902063Y-7872500D01*
X15902063Y-7847500D02*
X15877063Y-7872500D01*
X15882550Y-6707500D02*
X15907550Y-6732500D01*
X15907550Y-6707500D02*
X15882550Y-6732500D01*
X15897500Y-8517500D02*
X15922500Y-8542500D01*
X15922500Y-8517500D02*
X15897500Y-8542500D01*
X15975197Y-9932451D02*
X16000197Y-9957451D01*
X16000197Y-9932451D02*
X15975197Y-9957451D01*
X16017500Y-8387500D02*
X16042500Y-8412500D01*
X16042500Y-8387500D02*
X16017500Y-8412500D01*
X16037500Y-8517500D02*
X16062500Y-8542500D01*
X16062500Y-8517500D02*
X16037500Y-8542500D01*
X16106340Y-7655050D02*
X16131340Y-7680050D01*
X16131340Y-7655050D02*
X16106340Y-7680050D01*
X16117500Y-8517500D02*
X16142500Y-8542500D01*
X16142500Y-8517500D02*
X16117500Y-8542500D01*
X16140084Y-9977500D02*
X16165084Y-10002500D01*
X16165084Y-9977500D02*
X16140084Y-10002500D01*
X16141060Y-6707500D02*
X16166060Y-6732500D01*
X16166060Y-6707500D02*
X16141060Y-6732500D01*
X16197500Y-8517500D02*
X16222500Y-8542500D01*
X16222500Y-8517500D02*
X16197500Y-8542500D01*
X16207500Y-6487500D02*
X16232500Y-6512500D01*
X16232500Y-6487500D02*
X16207500Y-6512500D01*
X16207500Y-10257500D02*
X16232500Y-10282500D01*
X16232500Y-10257500D02*
X16207500Y-10282500D01*
X16207500Y-10677500D02*
X16232500Y-10702500D01*
X16232500Y-10677500D02*
X16207500Y-10702500D01*
X16207500Y-11097500D02*
X16232500Y-11122500D01*
X16232500Y-11097500D02*
X16207500Y-11122500D01*
X16207500Y-11517500D02*
X16232500Y-11542500D01*
X16232500Y-11517500D02*
X16207500Y-11542500D01*
X16207500Y-11937500D02*
X16232500Y-11962500D01*
X16232500Y-11937500D02*
X16207500Y-11962500D01*
X16207500Y-12357500D02*
X16232500Y-12382500D01*
X16232500Y-12357500D02*
X16207500Y-12382500D01*
X16247500Y-8057500D02*
X16272500Y-8082500D01*
X16272500Y-8057500D02*
X16247500Y-8082500D01*
X16279633Y-8514851D02*
X16304633Y-8539851D01*
X16304633Y-8514851D02*
X16279633Y-8539851D01*
X16342450Y-9957500D02*
X16367450Y-9982500D01*
X16367450Y-9957500D02*
X16342450Y-9982500D01*
X16342500Y-7296192D02*
X16367500Y-7321192D01*
X16367500Y-7296192D02*
X16342500Y-7321192D01*
X16425109Y-9119891D02*
X16450109Y-9144891D01*
X16450109Y-9119891D02*
X16425109Y-9144891D01*
X16472100Y-6931860D02*
X16497100Y-6956860D01*
X16497100Y-6931860D02*
X16472100Y-6956860D01*
X16631300Y-6547500D02*
X16656300Y-6572500D01*
X16656300Y-6547500D02*
X16631300Y-6572500D01*
X16669780Y-8359780D02*
X16694780Y-8384780D01*
X16694780Y-8359780D02*
X16669780Y-8384780D01*
X16736260Y-8313620D02*
X16761260Y-8338620D01*
X16761260Y-8313620D02*
X16736260Y-8338620D01*
X16767500Y-7397500D02*
X16792500Y-7422500D01*
X16792500Y-7397500D02*
X16767500Y-7422500D01*
X16796533Y-8269070D02*
X16821533Y-8294070D01*
X16821533Y-8269070D02*
X16796533Y-8294070D01*
X16847465Y-6647535D02*
X16872465Y-6672535D01*
X16872465Y-6647535D02*
X16847465Y-6672535D01*
X16855303Y-8222555D02*
X16880303Y-8247555D01*
X16880303Y-8222555D02*
X16855303Y-8247555D01*
X17247810Y-9797098D02*
X17272810Y-9822098D01*
X17272810Y-9797098D02*
X17247810Y-9822098D01*
X17297500Y-8787500D02*
X17322500Y-8812500D01*
X17322500Y-8787500D02*
X17297500Y-8812500D01*
X17307550Y-9887459D02*
X17332550Y-9912459D01*
X17332550Y-9887459D02*
X17307550Y-9912459D01*
X17377500Y-9847500D02*
X17402500Y-9872500D01*
X17402500Y-9847500D02*
X17377500Y-9872500D01*
X17387500Y-8777500D02*
X17412500Y-8802500D01*
X17412500Y-8777500D02*
X17387500Y-8802500D01*
X17447500Y-9877500D02*
X17472500Y-9902500D01*
X17472500Y-9877500D02*
X17447500Y-9902500D01*
X17477500Y-8777500D02*
X17502500Y-8802500D01*
X17502500Y-8777500D02*
X17477500Y-8802500D01*
X17557500Y-8777500D02*
X17582500Y-8802500D01*
X17582500Y-8777500D02*
X17557500Y-8802500D01*
X17557500Y-9837500D02*
X17582500Y-9862500D01*
X17582500Y-9837500D02*
X17557500Y-9862500D01*
X17567500Y-6897500D02*
X17592500Y-6922500D01*
X17592500Y-6897500D02*
X17567500Y-6922500D01*
X17632500Y-9832500D02*
X17657500Y-9857500D01*
X17657500Y-9832500D02*
X17632500Y-9857500D01*
X17662578Y-8776218D02*
X17687578Y-8801218D01*
X17687578Y-8776218D02*
X17662578Y-8801218D01*
X17735109Y-8795109D02*
X17760109Y-8820109D01*
X17760109Y-8795109D02*
X17735109Y-8820109D01*
X17742500Y-9882500D02*
X17767500Y-9907500D01*
X17767500Y-9882500D02*
X17742500Y-9907500D01*
X17812500Y-9852500D02*
X17837500Y-9877500D01*
X17837500Y-9852500D02*
X17812500Y-9877500D01*
X17825109Y-8775109D02*
X17850109Y-8800109D01*
X17850109Y-8775109D02*
X17825109Y-8800109D01*
X17897500Y-9877500D02*
X17922500Y-9902500D01*
X17922500Y-9877500D02*
X17897500Y-9902500D01*
X17907500Y-8777500D02*
X17932500Y-8802500D01*
X17932500Y-8777500D02*
X17907500Y-8802500D01*
X18015000Y-9540000D02*
X18040000Y-9565000D01*
X18040000Y-9540000D02*
X18015000Y-9565000D01*
D13*
X9660000Y-11133520D02*
G75*
G03*
X9660000Y-11133520I-20000J0D01*
G01*
X9660000Y-11980000D02*
G75*
G03*
X9660000Y-11980000I-20000J0D01*
G01*
X10080000Y-11870000D02*
G75*
G03*
X10080000Y-11870000I-20000J0D01*
G01*
X10170000Y-11940000D02*
G75*
G03*
X10170000Y-11940000I-20000J0D01*
G01*
X10250000Y-11870000D02*
G75*
G03*
X10250000Y-11870000I-20000J0D01*
G01*
X10380000Y-7400000D02*
G75*
G03*
X10380000Y-7400000I-20000J0D01*
G01*
X10380000Y-11970000D02*
G75*
G03*
X10380000Y-11970000I-20000J0D01*
G01*
X10400000Y-11870000D02*
G75*
G03*
X10400000Y-11870000I-20000J0D01*
G01*
X10449240Y-7071360D02*
G75*
G03*
X10449240Y-7071360I-20000J0D01*
G01*
X10470050Y-9750000D02*
G75*
G03*
X10470050Y-9750000I-20000J0D01*
G01*
X10475280Y-6390000D02*
G75*
G03*
X10475280Y-6390000I-20000J0D01*
G01*
X10485000Y-10327840D02*
G75*
G03*
X10485000Y-10327840I-20000J0D01*
G01*
X10510000Y-11780000D02*
G75*
G03*
X10510000Y-11780000I-20000J0D01*
G01*
X10510000Y-11930000D02*
G75*
G03*
X10510000Y-11930000I-20000J0D01*
G01*
X10547480Y-6560000D02*
G75*
G03*
X10547480Y-6560000I-20000J0D01*
G01*
X10571160Y-7833360D02*
G75*
G03*
X10571160Y-7833360I-20000J0D01*
G01*
X10670390Y-8663770D02*
G75*
G03*
X10670390Y-8663770I-20000J0D01*
G01*
X10672450Y-11930000D02*
G75*
G03*
X10672450Y-11930000I-20000J0D01*
G01*
X10672520Y-8240000D02*
G75*
G03*
X10672520Y-8240000I-20000J0D01*
G01*
X10680000Y-11780000D02*
G75*
G03*
X10680000Y-11780000I-20000J0D01*
G01*
X10830000Y-11010000D02*
G75*
G03*
X10830000Y-11010000I-20000J0D01*
G01*
X10830000Y-11100000D02*
G75*
G03*
X10830000Y-11100000I-20000J0D01*
G01*
X10830000Y-11190000D02*
G75*
G03*
X10830000Y-11190000I-20000J0D01*
G01*
X11040000Y-6467550D02*
G75*
G03*
X11040000Y-6467550I-20000J0D01*
G01*
X11040000Y-6860000D02*
G75*
G03*
X11040000Y-6860000I-20000J0D01*
G01*
X11040000Y-7280000D02*
G75*
G03*
X11040000Y-7280000I-20000J0D01*
G01*
X11040000Y-8120000D02*
G75*
G03*
X11040000Y-8120000I-20000J0D01*
G01*
X11040000Y-8540000D02*
G75*
G03*
X11040000Y-8540000I-20000J0D01*
G01*
X11045893Y-11405893D02*
G75*
G03*
X11045893Y-11405893I-20000J0D01*
G01*
X11086000Y-7700000D02*
G75*
G03*
X11086000Y-7700000I-20000J0D01*
G01*
X11278680Y-12466370D02*
G75*
G03*
X11278680Y-12466370I-20000J0D01*
G01*
X11312927Y-10467401D02*
G75*
G03*
X11312927Y-10467401I-20000J0D01*
G01*
X11487831Y-10867420D02*
G75*
G03*
X11487831Y-10867420I-20000J0D01*
G01*
X12600000Y-9557400D02*
G75*
G03*
X12600000Y-9557400I-20000J0D01*
G01*
X12623480Y-10586720D02*
G75*
G03*
X12623480Y-10586720I-20000J0D01*
G01*
X14137320Y-12369800D02*
G75*
G03*
X14137320Y-12369800I-20000J0D01*
G01*
X14839950Y-7945120D02*
G75*
G03*
X14839950Y-7945120I-20000J0D01*
G01*
X14940000Y-9260000D02*
G75*
G03*
X14940000Y-9260000I-20000J0D01*
G01*
X16052169Y-8042580D02*
G75*
G03*
X16052169Y-8042580I-20000J0D01*
G01*
X16494107Y-7504107D02*
G75*
G03*
X16494107Y-7504107I-20000J0D01*
G01*
X16500000Y-10370000D02*
G75*
G03*
X16500000Y-10370000I-20000J0D01*
G01*
X16500000Y-10790000D02*
G75*
G03*
X16500000Y-10790000I-20000J0D01*
G01*
X16500000Y-11210000D02*
G75*
G03*
X16500000Y-11210000I-20000J0D01*
G01*
X16500000Y-11630000D02*
G75*
G03*
X16500000Y-11630000I-20000J0D01*
G01*
X16500000Y-12050000D02*
G75*
G03*
X16500000Y-12050000I-20000J0D01*
G01*
X16500000Y-12442450D02*
G75*
G03*
X16500000Y-12442450I-20000J0D01*
G01*
X16710000Y-7720000D02*
G75*
G03*
X16710000Y-7720000I-20000J0D01*
G01*
X16710000Y-7810000D02*
G75*
G03*
X16710000Y-7810000I-20000J0D01*
G01*
X16710000Y-7900000D02*
G75*
G03*
X16710000Y-7900000I-20000J0D01*
G01*
X16860000Y-7130000D02*
G75*
G03*
X16860000Y-7130000I-20000J0D01*
G01*
X16867550Y-6980000D02*
G75*
G03*
X16867550Y-6980000I-20000J0D01*
G01*
X16885600Y-10246230D02*
G75*
G03*
X16885600Y-10246230I-20000J0D01*
G01*
X16887600Y-10670000D02*
G75*
G03*
X16887600Y-10670000I-20000J0D01*
G01*
X17007520Y-12222480D02*
G75*
G03*
X17007520Y-12222480I-20000J0D01*
G01*
X17012600Y-11089640D02*
G75*
G03*
X17012600Y-11089640I-20000J0D01*
G01*
X17012600Y-11511280D02*
G75*
G03*
X17012600Y-11511280I-20000J0D01*
G01*
X17015520Y-11930000D02*
G75*
G03*
X17015520Y-11930000I-20000J0D01*
G01*
X17030000Y-6980000D02*
G75*
G03*
X17030000Y-6980000I-20000J0D01*
G01*
X17030000Y-7130000D02*
G75*
G03*
X17030000Y-7130000I-20000J0D01*
G01*
X17053240Y-8661400D02*
G75*
G03*
X17053240Y-8661400I-20000J0D01*
G01*
X17069950Y-9160000D02*
G75*
G03*
X17069950Y-9160000I-20000J0D01*
G01*
X17101200Y-12520050D02*
G75*
G03*
X17101200Y-12520050I-20000J0D01*
G01*
X17140000Y-7040000D02*
G75*
G03*
X17140000Y-7040000I-20000J0D01*
G01*
X17160000Y-6940000D02*
G75*
G03*
X17160000Y-6940000I-20000J0D01*
G01*
X17290000Y-7040000D02*
G75*
G03*
X17290000Y-7040000I-20000J0D01*
G01*
X17370000Y-6970000D02*
G75*
G03*
X17370000Y-6970000I-20000J0D01*
G01*
X17460000Y-7040000D02*
G75*
G03*
X17460000Y-7040000I-20000J0D01*
G01*
X17720000Y-8010000D02*
G75*
G03*
X17720000Y-8010000I-20000J0D01*
G01*
X17880000Y-6930000D02*
G75*
G03*
X17880000Y-6930000I-20000J0D01*
G01*
D14*
X9754100Y-10724680D02*
X9754100Y-10824680D01*
X9704100Y-10774680D02*
X9804100Y-10774680D01*
X10008100Y-10724680D02*
X10008100Y-10824680D01*
X9958100Y-10774680D02*
X10058100Y-10774680D01*
D15*
X13345663Y-7927563D02*
X13345663Y-7855437D01*
X13273537Y-7855437D01*
X13273537Y-7927563D01*
X13345663Y-7927563D01*
X13345663Y-8227563D02*
X13345663Y-8155437D01*
X13273537Y-8155437D01*
X13273537Y-8227563D01*
X13345663Y-8227563D01*
X13346063Y-6656063D02*
X13346063Y-6583937D01*
X13273937Y-6583937D01*
X13273937Y-6656063D01*
X13346063Y-6656063D01*
X13346063Y-6956063D02*
X13346063Y-6883937D01*
X13273937Y-6883937D01*
X13273937Y-6956063D01*
X13346063Y-6956063D01*
X14226063Y-9576063D02*
X14226063Y-9503937D01*
X14153937Y-9503937D01*
X14153937Y-9576063D01*
X14226063Y-9576063D01*
X14226063Y-9876063D02*
X14226063Y-9803937D01*
X14153937Y-9803937D01*
X14153937Y-9876063D01*
X14226063Y-9876063D01*
X14226063Y-10846303D02*
X14226063Y-10774177D01*
X14153937Y-10774177D01*
X14153937Y-10846303D01*
X14226063Y-10846303D01*
X14226063Y-11146303D02*
X14226063Y-11074177D01*
X14153937Y-11074177D01*
X14153937Y-11146303D01*
X14226063Y-11146303D01*
D16*
X8890000Y-6560000D02*
X8950000Y-6500000D01*
X8890000Y-6440000D01*
X8830000Y-6500000D01*
X8890000Y-6560000D01*
X8890000Y-6810000D02*
X8950000Y-6750000D01*
X8890000Y-6690000D01*
X8830000Y-6750000D01*
X8890000Y-6810000D01*
X8890000Y-7060000D02*
X8950000Y-7000000D01*
X8890000Y-6940000D01*
X8830000Y-7000000D01*
X8890000Y-7060000D01*
X8890000Y-7310000D02*
X8950000Y-7250000D01*
X8890000Y-7190000D01*
X8830000Y-7250000D01*
X8890000Y-7310000D01*
X8890000Y-7560000D02*
X8950000Y-7500000D01*
X8890000Y-7440000D01*
X8830000Y-7500000D01*
X8890000Y-7560000D01*
X8890000Y-7810000D02*
X8950000Y-7750000D01*
X8890000Y-7690000D01*
X8830000Y-7750000D01*
X8890000Y-7810000D01*
X8890000Y-8060000D02*
X8950000Y-8000000D01*
X8890000Y-7940000D01*
X8830000Y-8000000D01*
X8890000Y-8060000D01*
X8890000Y-8510000D02*
X8950000Y-8450000D01*
X8890000Y-8390000D01*
X8830000Y-8450000D01*
X8890000Y-8510000D01*
X8890000Y-8760000D02*
X8950000Y-8700000D01*
X8890000Y-8640000D01*
X8830000Y-8700000D01*
X8890000Y-8760000D01*
X8890000Y-9010000D02*
X8950000Y-8950000D01*
X8890000Y-8890000D01*
X8830000Y-8950000D01*
X8890000Y-9010000D01*
X8890000Y-9260000D02*
X8950000Y-9200000D01*
X8890000Y-9140000D01*
X8830000Y-9200000D01*
X8890000Y-9260000D01*
X8890000Y-9510000D02*
X8950000Y-9450000D01*
X8890000Y-9390000D01*
X8830000Y-9450000D01*
X8890000Y-9510000D01*
X8890000Y-9760000D02*
X8950000Y-9700000D01*
X8890000Y-9640000D01*
X8830000Y-9700000D01*
X8890000Y-9760000D01*
X8890000Y-10010000D02*
X8950000Y-9950000D01*
X8890000Y-9890000D01*
X8830000Y-9950000D01*
X8890000Y-10010000D01*
X8890000Y-10260000D02*
X8950000Y-10200000D01*
X8890000Y-10140000D01*
X8830000Y-10200000D01*
X8890000Y-10260000D01*
X8890000Y-10710000D02*
X8950000Y-10650000D01*
X8890000Y-10590000D01*
X8830000Y-10650000D01*
X8890000Y-10710000D01*
X8890000Y-10960000D02*
X8950000Y-10900000D01*
X8890000Y-10840000D01*
X8830000Y-10900000D01*
X8890000Y-10960000D01*
X8890000Y-11210000D02*
X8950000Y-11150000D01*
X8890000Y-11090000D01*
X8830000Y-11150000D01*
X8890000Y-11210000D01*
X8890000Y-11460000D02*
X8950000Y-11400000D01*
X8890000Y-11340000D01*
X8830000Y-11400000D01*
X8890000Y-11460000D01*
X8890000Y-11710000D02*
X8950000Y-11650000D01*
X8890000Y-11590000D01*
X8830000Y-11650000D01*
X8890000Y-11710000D01*
X8890000Y-11960000D02*
X8950000Y-11900000D01*
X8890000Y-11840000D01*
X8830000Y-11900000D01*
X8890000Y-11960000D01*
X8890000Y-12210000D02*
X8950000Y-12150000D01*
X8890000Y-12090000D01*
X8830000Y-12150000D01*
X8890000Y-12210000D01*
X8890000Y-12460000D02*
X8950000Y-12400000D01*
X8890000Y-12340000D01*
X8830000Y-12400000D01*
X8890000Y-12460000D01*
X9140000Y-6560000D02*
X9200000Y-6500000D01*
X9140000Y-6440000D01*
X9080000Y-6500000D01*
X9140000Y-6560000D01*
X9140000Y-6810000D02*
X9200000Y-6750000D01*
X9140000Y-6690000D01*
X9080000Y-6750000D01*
X9140000Y-6810000D01*
X9140000Y-7060000D02*
X9200000Y-7000000D01*
X9140000Y-6940000D01*
X9080000Y-7000000D01*
X9140000Y-7060000D01*
X9140000Y-7310000D02*
X9200000Y-7250000D01*
X9140000Y-7190000D01*
X9080000Y-7250000D01*
X9140000Y-7310000D01*
X9140000Y-7560000D02*
X9200000Y-7500000D01*
X9140000Y-7440000D01*
X9080000Y-7500000D01*
X9140000Y-7560000D01*
X9140000Y-7810000D02*
X9200000Y-7750000D01*
X9140000Y-7690000D01*
X9080000Y-7750000D01*
X9140000Y-7810000D01*
X9140000Y-8060000D02*
X9200000Y-8000000D01*
X9140000Y-7940000D01*
X9080000Y-8000000D01*
X9140000Y-8060000D01*
X9140000Y-8510000D02*
X9200000Y-8450000D01*
X9140000Y-8390000D01*
X9080000Y-8450000D01*
X9140000Y-8510000D01*
X9140000Y-8760000D02*
X9200000Y-8700000D01*
X9140000Y-8640000D01*
X9080000Y-8700000D01*
X9140000Y-8760000D01*
X9140000Y-9010000D02*
X9200000Y-8950000D01*
X9140000Y-8890000D01*
X9080000Y-8950000D01*
X9140000Y-9010000D01*
X9140000Y-9260000D02*
X9200000Y-9200000D01*
X9140000Y-9140000D01*
X9080000Y-9200000D01*
X9140000Y-9260000D01*
X9140000Y-9510000D02*
X9200000Y-9450000D01*
X9140000Y-9390000D01*
X9080000Y-9450000D01*
X9140000Y-9510000D01*
X9140000Y-9760000D02*
X9200000Y-9700000D01*
X9140000Y-9640000D01*
X9080000Y-9700000D01*
X9140000Y-9760000D01*
X9140000Y-10010000D02*
X9200000Y-9950000D01*
X9140000Y-9890000D01*
X9080000Y-9950000D01*
X9140000Y-10010000D01*
X9140000Y-10260000D02*
X9200000Y-10200000D01*
X9140000Y-10140000D01*
X9080000Y-10200000D01*
X9140000Y-10260000D01*
X9140000Y-10710000D02*
X9200000Y-10650000D01*
X9140000Y-10590000D01*
X9080000Y-10650000D01*
X9140000Y-10710000D01*
X9140000Y-10960000D02*
X9200000Y-10900000D01*
X9140000Y-10840000D01*
X9080000Y-10900000D01*
X9140000Y-10960000D01*
X9140000Y-11210000D02*
X9200000Y-11150000D01*
X9140000Y-11090000D01*
X9080000Y-11150000D01*
X9140000Y-11210000D01*
X9140000Y-11460000D02*
X9200000Y-11400000D01*
X9140000Y-11340000D01*
X9080000Y-11400000D01*
X9140000Y-11460000D01*
X9140000Y-11710000D02*
X9200000Y-11650000D01*
X9140000Y-11590000D01*
X9080000Y-11650000D01*
X9140000Y-11710000D01*
X9140000Y-11960000D02*
X9200000Y-11900000D01*
X9140000Y-11840000D01*
X9080000Y-11900000D01*
X9140000Y-11960000D01*
X9140000Y-12210000D02*
X9200000Y-12150000D01*
X9140000Y-12090000D01*
X9080000Y-12150000D01*
X9140000Y-12210000D01*
X9140000Y-12460000D02*
X9200000Y-12400000D01*
X9140000Y-12340000D01*
X9080000Y-12400000D01*
X9140000Y-12460000D01*
X11325000Y-11603000D02*
X11385000Y-11543000D01*
X11325000Y-11483000D01*
X11265000Y-11543000D01*
X11325000Y-11603000D01*
X11575000Y-11603000D02*
X11635000Y-11543000D01*
X11575000Y-11483000D01*
X11515000Y-11543000D01*
X11575000Y-11603000D01*
X11825000Y-11603000D02*
X11885000Y-11543000D01*
X11825000Y-11483000D01*
X11765000Y-11543000D01*
X11825000Y-11603000D01*
X12075000Y-11603000D02*
X12135000Y-11543000D01*
X12075000Y-11483000D01*
X12015000Y-11543000D01*
X12075000Y-11603000D01*
X12325000Y-11603000D02*
X12385000Y-11543000D01*
X12325000Y-11483000D01*
X12265000Y-11543000D01*
X12325000Y-11603000D01*
X12575000Y-11603000D02*
X12635000Y-11543000D01*
X12575000Y-11483000D01*
X12515000Y-11543000D01*
X12575000Y-11603000D01*
X14925000Y-7427000D02*
X14985000Y-7367000D01*
X14925000Y-7307000D01*
X14865000Y-7367000D01*
X14925000Y-7427000D01*
X15175000Y-7427000D02*
X15235000Y-7367000D01*
X15175000Y-7307000D01*
X15115000Y-7367000D01*
X15175000Y-7427000D01*
X15425000Y-7427000D02*
X15485000Y-7367000D01*
X15425000Y-7307000D01*
X15365000Y-7367000D01*
X15425000Y-7427000D01*
X15675000Y-7427000D02*
X15735000Y-7367000D01*
X15675000Y-7307000D01*
X15615000Y-7367000D01*
X15675000Y-7427000D01*
X15925000Y-7427000D02*
X15985000Y-7367000D01*
X15925000Y-7307000D01*
X15865000Y-7367000D01*
X15925000Y-7427000D01*
X16175000Y-7427000D02*
X16235000Y-7367000D01*
X16175000Y-7307000D01*
X16115000Y-7367000D01*
X16175000Y-7427000D01*
X18360000Y-6570000D02*
X18420000Y-6510000D01*
X18360000Y-6450000D01*
X18300000Y-6510000D01*
X18360000Y-6570000D01*
X18360000Y-6820000D02*
X18420000Y-6760000D01*
X18360000Y-6700000D01*
X18300000Y-6760000D01*
X18360000Y-6820000D01*
X18360000Y-7070000D02*
X18420000Y-7010000D01*
X18360000Y-6950000D01*
X18300000Y-7010000D01*
X18360000Y-7070000D01*
X18360000Y-7320000D02*
X18420000Y-7260000D01*
X18360000Y-7200000D01*
X18300000Y-7260000D01*
X18360000Y-7320000D01*
X18360000Y-7570000D02*
X18420000Y-7510000D01*
X18360000Y-7450000D01*
X18300000Y-7510000D01*
X18360000Y-7570000D01*
X18360000Y-7820000D02*
X18420000Y-7760000D01*
X18360000Y-7700000D01*
X18300000Y-7760000D01*
X18360000Y-7820000D01*
X18360000Y-8070000D02*
X18420000Y-8010000D01*
X18360000Y-7950000D01*
X18300000Y-8010000D01*
X18360000Y-8070000D01*
X18360000Y-8320000D02*
X18420000Y-8260000D01*
X18360000Y-8200000D01*
X18300000Y-8260000D01*
X18360000Y-8320000D01*
X18360000Y-8770000D02*
X18420000Y-8710000D01*
X18360000Y-8650000D01*
X18300000Y-8710000D01*
X18360000Y-8770000D01*
X18360000Y-9020000D02*
X18420000Y-8960000D01*
X18360000Y-8900000D01*
X18300000Y-8960000D01*
X18360000Y-9020000D01*
X18360000Y-9270000D02*
X18420000Y-9210000D01*
X18360000Y-9150000D01*
X18300000Y-9210000D01*
X18360000Y-9270000D01*
X18360000Y-9520000D02*
X18420000Y-9460000D01*
X18360000Y-9400000D01*
X18300000Y-9460000D01*
X18360000Y-9520000D01*
X18360000Y-9770000D02*
X18420000Y-9710000D01*
X18360000Y-9650000D01*
X18300000Y-9710000D01*
X18360000Y-9770000D01*
X18360000Y-10020000D02*
X18420000Y-9960000D01*
X18360000Y-9900000D01*
X18300000Y-9960000D01*
X18360000Y-10020000D01*
X18360000Y-10270000D02*
X18420000Y-10210000D01*
X18360000Y-10150000D01*
X18300000Y-10210000D01*
X18360000Y-10270000D01*
X18360000Y-10520000D02*
X18420000Y-10460000D01*
X18360000Y-10400000D01*
X18300000Y-10460000D01*
X18360000Y-10520000D01*
X18360000Y-10970000D02*
X18420000Y-10910000D01*
X18360000Y-10850000D01*
X18300000Y-10910000D01*
X18360000Y-10970000D01*
X18360000Y-11220000D02*
X18420000Y-11160000D01*
X18360000Y-11100000D01*
X18300000Y-11160000D01*
X18360000Y-11220000D01*
X18360000Y-11470000D02*
X18420000Y-11410000D01*
X18360000Y-11350000D01*
X18300000Y-11410000D01*
X18360000Y-11470000D01*
X18360000Y-11720000D02*
X18420000Y-11660000D01*
X18360000Y-11600000D01*
X18300000Y-11660000D01*
X18360000Y-11720000D01*
X18360000Y-11970000D02*
X18420000Y-11910000D01*
X18360000Y-11850000D01*
X18300000Y-11910000D01*
X18360000Y-11970000D01*
X18360000Y-12220000D02*
X18420000Y-12160000D01*
X18360000Y-12100000D01*
X18300000Y-12160000D01*
X18360000Y-12220000D01*
X18360000Y-12470000D02*
X18420000Y-12410000D01*
X18360000Y-12350000D01*
X18300000Y-12410000D01*
X18360000Y-12470000D01*
X18610000Y-6570000D02*
X18670000Y-6510000D01*
X18610000Y-6450000D01*
X18550000Y-6510000D01*
X18610000Y-6570000D01*
X18610000Y-6820000D02*
X18670000Y-6760000D01*
X18610000Y-6700000D01*
X18550000Y-6760000D01*
X18610000Y-6820000D01*
X18610000Y-7070000D02*
X18670000Y-7010000D01*
X18610000Y-6950000D01*
X18550000Y-7010000D01*
X18610000Y-7070000D01*
X18610000Y-7320000D02*
X18670000Y-7260000D01*
X18610000Y-7200000D01*
X18550000Y-7260000D01*
X18610000Y-7320000D01*
X18610000Y-7570000D02*
X18670000Y-7510000D01*
X18610000Y-7450000D01*
X18550000Y-7510000D01*
X18610000Y-7570000D01*
X18610000Y-7820000D02*
X18670000Y-7760000D01*
X18610000Y-7700000D01*
X18550000Y-7760000D01*
X18610000Y-7820000D01*
X18610000Y-8070000D02*
X18670000Y-8010000D01*
X18610000Y-7950000D01*
X18550000Y-8010000D01*
X18610000Y-8070000D01*
X18610000Y-8320000D02*
X18670000Y-8260000D01*
X18610000Y-8200000D01*
X18550000Y-8260000D01*
X18610000Y-8320000D01*
X18610000Y-8770000D02*
X18670000Y-8710000D01*
X18610000Y-8650000D01*
X18550000Y-8710000D01*
X18610000Y-8770000D01*
X18610000Y-9020000D02*
X18670000Y-8960000D01*
X18610000Y-8900000D01*
X18550000Y-8960000D01*
X18610000Y-9020000D01*
X18610000Y-9270000D02*
X18670000Y-9210000D01*
X18610000Y-9150000D01*
X18550000Y-9210000D01*
X18610000Y-9270000D01*
X18610000Y-9520000D02*
X18670000Y-9460000D01*
X18610000Y-9400000D01*
X18550000Y-9460000D01*
X18610000Y-9520000D01*
X18610000Y-9770000D02*
X18670000Y-9710000D01*
X18610000Y-9650000D01*
X18550000Y-9710000D01*
X18610000Y-9770000D01*
X18610000Y-10020000D02*
X18670000Y-9960000D01*
X18610000Y-9900000D01*
X18550000Y-9960000D01*
X18610000Y-10020000D01*
X18610000Y-10270000D02*
X18670000Y-10210000D01*
X18610000Y-10150000D01*
X18550000Y-10210000D01*
X18610000Y-10270000D01*
X18610000Y-10520000D02*
X18670000Y-10460000D01*
X18610000Y-10400000D01*
X18550000Y-10460000D01*
X18610000Y-10520000D01*
X18610000Y-10970000D02*
X18670000Y-10910000D01*
X18610000Y-10850000D01*
X18550000Y-10910000D01*
X18610000Y-10970000D01*
X18610000Y-11220000D02*
X18670000Y-11160000D01*
X18610000Y-11100000D01*
X18550000Y-11160000D01*
X18610000Y-11220000D01*
X18610000Y-11470000D02*
X18670000Y-11410000D01*
X18610000Y-11350000D01*
X18550000Y-11410000D01*
X18610000Y-11470000D01*
X18610000Y-11720000D02*
X18670000Y-11660000D01*
X18610000Y-11600000D01*
X18550000Y-11660000D01*
X18610000Y-11720000D01*
X18610000Y-11970000D02*
X18670000Y-11910000D01*
X18610000Y-11850000D01*
X18550000Y-11910000D01*
X18610000Y-11970000D01*
X18610000Y-12220000D02*
X18670000Y-12160000D01*
X18610000Y-12100000D01*
X18550000Y-12160000D01*
X18610000Y-12220000D01*
X18610000Y-12470000D02*
X18670000Y-12410000D01*
X18610000Y-12350000D01*
X18550000Y-12410000D01*
X18610000Y-12470000D01*
D11*
X8255119Y-13012976D02*
X8255119Y-12812976D01*
X8302738Y-12812976D01*
X8331309Y-12822500D01*
X8350357Y-12841548D01*
X8359881Y-12860595D01*
X8369405Y-12898690D01*
X8369405Y-12927262D01*
X8359881Y-12965357D01*
X8350357Y-12984405D01*
X8331309Y-13003452D01*
X8302738Y-13012976D01*
X8255119Y-13012976D01*
X8455119Y-13012976D02*
X8455119Y-12879643D01*
X8455119Y-12917738D02*
X8464643Y-12898690D01*
X8474167Y-12889167D01*
X8493214Y-12879643D01*
X8512262Y-12879643D01*
X8578929Y-13012976D02*
X8578929Y-12879643D01*
X8578929Y-12812976D02*
X8569405Y-12822500D01*
X8578929Y-12832024D01*
X8588452Y-12822500D01*
X8578929Y-12812976D01*
X8578929Y-12832024D01*
X8702738Y-13012976D02*
X8683690Y-13003452D01*
X8674167Y-12984405D01*
X8674167Y-12812976D01*
X8807500Y-13012976D02*
X8788452Y-13003452D01*
X8778929Y-12984405D01*
X8778929Y-12812976D01*
X9036071Y-13012976D02*
X9036071Y-12812976D01*
X9102738Y-12955833D01*
X9169405Y-12812976D01*
X9169405Y-13012976D01*
X9350357Y-13012976D02*
X9350357Y-12908214D01*
X9340833Y-12889167D01*
X9321786Y-12879643D01*
X9283690Y-12879643D01*
X9264643Y-12889167D01*
X9350357Y-13003452D02*
X9331310Y-13012976D01*
X9283690Y-13012976D01*
X9264643Y-13003452D01*
X9255119Y-12984405D01*
X9255119Y-12965357D01*
X9264643Y-12946309D01*
X9283690Y-12936786D01*
X9331310Y-12936786D01*
X9350357Y-12927262D01*
X9445595Y-12879643D02*
X9445595Y-13079643D01*
X9445595Y-12889167D02*
X9464643Y-12879643D01*
X9502738Y-12879643D01*
X9521786Y-12889167D01*
X9531310Y-12898690D01*
X9540833Y-12917738D01*
X9540833Y-12974881D01*
X9531310Y-12993928D01*
X9521786Y-13003452D01*
X9502738Y-13012976D01*
X9464643Y-13012976D01*
X9445595Y-13003452D01*
X9626548Y-12993928D02*
X9636071Y-13003452D01*
X9626548Y-13012976D01*
X9617024Y-13003452D01*
X9626548Y-12993928D01*
X9626548Y-13012976D01*
X9626548Y-12889167D02*
X9636071Y-12898690D01*
X9626548Y-12908214D01*
X9617024Y-12898690D01*
X9626548Y-12889167D01*
X9626548Y-12908214D01*
D12*
X7972500Y-13330000D02*
X7997500Y-13355000D01*
X7997500Y-13330000D02*
X7972500Y-13355000D01*
D11*
X8293214Y-13232976D02*
X8312262Y-13232976D01*
X8331309Y-13242500D01*
X8340833Y-13252024D01*
X8350357Y-13271071D01*
X8359881Y-13309167D01*
X8359881Y-13356786D01*
X8350357Y-13394881D01*
X8340833Y-13413928D01*
X8331309Y-13423452D01*
X8312262Y-13432976D01*
X8293214Y-13432976D01*
X8274167Y-13423452D01*
X8264643Y-13413928D01*
X8255119Y-13394881D01*
X8245595Y-13356786D01*
X8245595Y-13309167D01*
X8255119Y-13271071D01*
X8264643Y-13252024D01*
X8274167Y-13242500D01*
X8293214Y-13232976D01*
X8445595Y-13413928D02*
X8455119Y-13423452D01*
X8445595Y-13432976D01*
X8436071Y-13423452D01*
X8445595Y-13413928D01*
X8445595Y-13432976D01*
X8531310Y-13252024D02*
X8540833Y-13242500D01*
X8559881Y-13232976D01*
X8607500Y-13232976D01*
X8626548Y-13242500D01*
X8636071Y-13252024D01*
X8645595Y-13271071D01*
X8645595Y-13290119D01*
X8636071Y-13318690D01*
X8521786Y-13432976D01*
X8645595Y-13432976D01*
X8826548Y-13232976D02*
X8731310Y-13232976D01*
X8721786Y-13328214D01*
X8731310Y-13318690D01*
X8750357Y-13309167D01*
X8797976Y-13309167D01*
X8817024Y-13318690D01*
X8826548Y-13328214D01*
X8836071Y-13347262D01*
X8836071Y-13394881D01*
X8826548Y-13413928D01*
X8817024Y-13423452D01*
X8797976Y-13432976D01*
X8750357Y-13432976D01*
X8731310Y-13423452D01*
X8721786Y-13413928D01*
X8959881Y-13232976D02*
X8978929Y-13232976D01*
X8997976Y-13242500D01*
X9007500Y-13252024D01*
X9017024Y-13271071D01*
X9026548Y-13309167D01*
X9026548Y-13356786D01*
X9017024Y-13394881D01*
X9007500Y-13413928D01*
X8997976Y-13423452D01*
X8978929Y-13432976D01*
X8959881Y-13432976D01*
X8940833Y-13423452D01*
X8931310Y-13413928D01*
X8921786Y-13394881D01*
X8912262Y-13356786D01*
X8912262Y-13309167D01*
X8921786Y-13271071D01*
X8931310Y-13252024D01*
X8940833Y-13242500D01*
X8959881Y-13232976D01*
X9112262Y-13432976D02*
X9112262Y-13299643D01*
X9112262Y-13318690D02*
X9121786Y-13309167D01*
X9140833Y-13299643D01*
X9169405Y-13299643D01*
X9188452Y-13309167D01*
X9197976Y-13328214D01*
X9197976Y-13432976D01*
X9197976Y-13328214D02*
X9207500Y-13309167D01*
X9226548Y-13299643D01*
X9255119Y-13299643D01*
X9274167Y-13309167D01*
X9283690Y-13328214D01*
X9283690Y-13432976D01*
X9378929Y-13432976D02*
X9378929Y-13299643D01*
X9378929Y-13318690D02*
X9388452Y-13309167D01*
X9407500Y-13299643D01*
X9436071Y-13299643D01*
X9455119Y-13309167D01*
X9464643Y-13328214D01*
X9464643Y-13432976D01*
X9464643Y-13328214D02*
X9474167Y-13309167D01*
X9493214Y-13299643D01*
X9521786Y-13299643D01*
X9540833Y-13309167D01*
X9550357Y-13328214D01*
X9550357Y-13432976D01*
X9940833Y-13223452D02*
X9769405Y-13480595D01*
X10197976Y-13232976D02*
X10217024Y-13232976D01*
X10236071Y-13242500D01*
X10245595Y-13252024D01*
X10255119Y-13271071D01*
X10264643Y-13309167D01*
X10264643Y-13356786D01*
X10255119Y-13394881D01*
X10245595Y-13413928D01*
X10236071Y-13423452D01*
X10217024Y-13432976D01*
X10197976Y-13432976D01*
X10178929Y-13423452D01*
X10169405Y-13413928D01*
X10159881Y-13394881D01*
X10150357Y-13356786D01*
X10150357Y-13309167D01*
X10159881Y-13271071D01*
X10169405Y-13252024D01*
X10178929Y-13242500D01*
X10197976Y-13232976D01*
X10350357Y-13413928D02*
X10359881Y-13423452D01*
X10350357Y-13432976D01*
X10340833Y-13423452D01*
X10350357Y-13413928D01*
X10350357Y-13432976D01*
X10483690Y-13232976D02*
X10502738Y-13232976D01*
X10521786Y-13242500D01*
X10531310Y-13252024D01*
X10540833Y-13271071D01*
X10550357Y-13309167D01*
X10550357Y-13356786D01*
X10540833Y-13394881D01*
X10531310Y-13413928D01*
X10521786Y-13423452D01*
X10502738Y-13432976D01*
X10483690Y-13432976D01*
X10464643Y-13423452D01*
X10455119Y-13413928D01*
X10445595Y-13394881D01*
X10436071Y-13356786D01*
X10436071Y-13309167D01*
X10445595Y-13271071D01*
X10455119Y-13252024D01*
X10464643Y-13242500D01*
X10483690Y-13232976D01*
X10674167Y-13232976D02*
X10693214Y-13232976D01*
X10712262Y-13242500D01*
X10721786Y-13252024D01*
X10731310Y-13271071D01*
X10740833Y-13309167D01*
X10740833Y-13356786D01*
X10731310Y-13394881D01*
X10721786Y-13413928D01*
X10712262Y-13423452D01*
X10693214Y-13432976D01*
X10674167Y-13432976D01*
X10655119Y-13423452D01*
X10645595Y-13413928D01*
X10636071Y-13394881D01*
X10626548Y-13356786D01*
X10626548Y-13309167D01*
X10636071Y-13271071D01*
X10645595Y-13252024D01*
X10655119Y-13242500D01*
X10674167Y-13232976D01*
X10836071Y-13432976D02*
X10874167Y-13432976D01*
X10893214Y-13423452D01*
X10902738Y-13413928D01*
X10921786Y-13385357D01*
X10931310Y-13347262D01*
X10931310Y-13271071D01*
X10921786Y-13252024D01*
X10912262Y-13242500D01*
X10893214Y-13232976D01*
X10855119Y-13232976D01*
X10836071Y-13242500D01*
X10826548Y-13252024D01*
X10817024Y-13271071D01*
X10817024Y-13318690D01*
X10826548Y-13337738D01*
X10836071Y-13347262D01*
X10855119Y-13356786D01*
X10893214Y-13356786D01*
X10912262Y-13347262D01*
X10921786Y-13337738D01*
X10931310Y-13318690D01*
X11045595Y-13318690D02*
X11026548Y-13309167D01*
X11017024Y-13299643D01*
X11007500Y-13280595D01*
X11007500Y-13271071D01*
X11017024Y-13252024D01*
X11026548Y-13242500D01*
X11045595Y-13232976D01*
X11083690Y-13232976D01*
X11102738Y-13242500D01*
X11112262Y-13252024D01*
X11121786Y-13271071D01*
X11121786Y-13280595D01*
X11112262Y-13299643D01*
X11102738Y-13309167D01*
X11083690Y-13318690D01*
X11045595Y-13318690D01*
X11026548Y-13328214D01*
X11017024Y-13337738D01*
X11007500Y-13356786D01*
X11007500Y-13394881D01*
X11017024Y-13413928D01*
X11026548Y-13423452D01*
X11045595Y-13432976D01*
X11083690Y-13432976D01*
X11102738Y-13423452D01*
X11112262Y-13413928D01*
X11121786Y-13394881D01*
X11121786Y-13356786D01*
X11112262Y-13337738D01*
X11102738Y-13328214D01*
X11083690Y-13318690D01*
X11197976Y-13232976D02*
X11197976Y-13271071D01*
X11274167Y-13232976D02*
X11274167Y-13271071D01*
X11569405Y-13509167D02*
X11559881Y-13499643D01*
X11540833Y-13471071D01*
X11531309Y-13452024D01*
X11521786Y-13423452D01*
X11512262Y-13375833D01*
X11512262Y-13337738D01*
X11521786Y-13290119D01*
X11531309Y-13261548D01*
X11540833Y-13242500D01*
X11559881Y-13213928D01*
X11569405Y-13204405D01*
X11750357Y-13432976D02*
X11636071Y-13432976D01*
X11693214Y-13432976D02*
X11693214Y-13232976D01*
X11674167Y-13261548D01*
X11655119Y-13280595D01*
X11636071Y-13290119D01*
X11845595Y-13432976D02*
X11883690Y-13432976D01*
X11902738Y-13423452D01*
X11912262Y-13413928D01*
X11931309Y-13385357D01*
X11940833Y-13347262D01*
X11940833Y-13271071D01*
X11931309Y-13252024D01*
X11921786Y-13242500D01*
X11902738Y-13232976D01*
X11864643Y-13232976D01*
X11845595Y-13242500D01*
X11836071Y-13252024D01*
X11826548Y-13271071D01*
X11826548Y-13318690D01*
X11836071Y-13337738D01*
X11845595Y-13347262D01*
X11864643Y-13356786D01*
X11902738Y-13356786D01*
X11921786Y-13347262D01*
X11931309Y-13337738D01*
X11940833Y-13318690D01*
X12112262Y-13299643D02*
X12112262Y-13432976D01*
X12064643Y-13223452D02*
X12017024Y-13366309D01*
X12140833Y-13366309D01*
X12369405Y-13432976D02*
X12369405Y-13232976D01*
X12455119Y-13432976D02*
X12455119Y-13328214D01*
X12445595Y-13309167D01*
X12426548Y-13299643D01*
X12397976Y-13299643D01*
X12378928Y-13309167D01*
X12369405Y-13318690D01*
X12578928Y-13432976D02*
X12559881Y-13423452D01*
X12550357Y-13413928D01*
X12540833Y-13394881D01*
X12540833Y-13337738D01*
X12550357Y-13318690D01*
X12559881Y-13309167D01*
X12578928Y-13299643D01*
X12607500Y-13299643D01*
X12626548Y-13309167D01*
X12636071Y-13318690D01*
X12645595Y-13337738D01*
X12645595Y-13394881D01*
X12636071Y-13413928D01*
X12626548Y-13423452D01*
X12607500Y-13432976D01*
X12578928Y-13432976D01*
X12759881Y-13432976D02*
X12740833Y-13423452D01*
X12731309Y-13404405D01*
X12731309Y-13232976D01*
X12912262Y-13423452D02*
X12893214Y-13432976D01*
X12855119Y-13432976D01*
X12836071Y-13423452D01*
X12826548Y-13404405D01*
X12826548Y-13328214D01*
X12836071Y-13309167D01*
X12855119Y-13299643D01*
X12893214Y-13299643D01*
X12912262Y-13309167D01*
X12921786Y-13328214D01*
X12921786Y-13347262D01*
X12826548Y-13366309D01*
X12997976Y-13423452D02*
X13017024Y-13432976D01*
X13055119Y-13432976D01*
X13074167Y-13423452D01*
X13083690Y-13404405D01*
X13083690Y-13394881D01*
X13074167Y-13375833D01*
X13055119Y-13366309D01*
X13026548Y-13366309D01*
X13007500Y-13356786D01*
X12997976Y-13337738D01*
X12997976Y-13328214D01*
X13007500Y-13309167D01*
X13026548Y-13299643D01*
X13055119Y-13299643D01*
X13074167Y-13309167D01*
X13150357Y-13509167D02*
X13159881Y-13499643D01*
X13178928Y-13471071D01*
X13188452Y-13452024D01*
X13197976Y-13423452D01*
X13207500Y-13375833D01*
X13207500Y-13337738D01*
X13197976Y-13290119D01*
X13188452Y-13261548D01*
X13178928Y-13242500D01*
X13159881Y-13213928D01*
X13150357Y-13204405D01*
D13*
X7997500Y-13606500D02*
G75*
G03*
X7997500Y-13606500I-20000J0D01*
G01*
D11*
X8293214Y-13496976D02*
X8312262Y-13496976D01*
X8331309Y-13506500D01*
X8340833Y-13516024D01*
X8350357Y-13535071D01*
X8359881Y-13573167D01*
X8359881Y-13620786D01*
X8350357Y-13658881D01*
X8340833Y-13677928D01*
X8331309Y-13687452D01*
X8312262Y-13696976D01*
X8293214Y-13696976D01*
X8274167Y-13687452D01*
X8264643Y-13677928D01*
X8255119Y-13658881D01*
X8245595Y-13620786D01*
X8245595Y-13573167D01*
X8255119Y-13535071D01*
X8264643Y-13516024D01*
X8274167Y-13506500D01*
X8293214Y-13496976D01*
X8445595Y-13677928D02*
X8455119Y-13687452D01*
X8445595Y-13696976D01*
X8436071Y-13687452D01*
X8445595Y-13677928D01*
X8445595Y-13696976D01*
X8626548Y-13563643D02*
X8626548Y-13696976D01*
X8578929Y-13487452D02*
X8531310Y-13630309D01*
X8655119Y-13630309D01*
X8769405Y-13496976D02*
X8788452Y-13496976D01*
X8807500Y-13506500D01*
X8817024Y-13516024D01*
X8826548Y-13535071D01*
X8836071Y-13573167D01*
X8836071Y-13620786D01*
X8826548Y-13658881D01*
X8817024Y-13677928D01*
X8807500Y-13687452D01*
X8788452Y-13696976D01*
X8769405Y-13696976D01*
X8750357Y-13687452D01*
X8740833Y-13677928D01*
X8731310Y-13658881D01*
X8721786Y-13620786D01*
X8721786Y-13573167D01*
X8731310Y-13535071D01*
X8740833Y-13516024D01*
X8750357Y-13506500D01*
X8769405Y-13496976D01*
X8959881Y-13496976D02*
X8978929Y-13496976D01*
X8997976Y-13506500D01*
X9007500Y-13516024D01*
X9017024Y-13535071D01*
X9026548Y-13573167D01*
X9026548Y-13620786D01*
X9017024Y-13658881D01*
X9007500Y-13677928D01*
X8997976Y-13687452D01*
X8978929Y-13696976D01*
X8959881Y-13696976D01*
X8940833Y-13687452D01*
X8931310Y-13677928D01*
X8921786Y-13658881D01*
X8912262Y-13620786D01*
X8912262Y-13573167D01*
X8921786Y-13535071D01*
X8931310Y-13516024D01*
X8940833Y-13506500D01*
X8959881Y-13496976D01*
X9112262Y-13696976D02*
X9112262Y-13563643D01*
X9112262Y-13582690D02*
X9121786Y-13573167D01*
X9140833Y-13563643D01*
X9169405Y-13563643D01*
X9188452Y-13573167D01*
X9197976Y-13592214D01*
X9197976Y-13696976D01*
X9197976Y-13592214D02*
X9207500Y-13573167D01*
X9226548Y-13563643D01*
X9255119Y-13563643D01*
X9274167Y-13573167D01*
X9283690Y-13592214D01*
X9283690Y-13696976D01*
X9378929Y-13696976D02*
X9378929Y-13563643D01*
X9378929Y-13582690D02*
X9388452Y-13573167D01*
X9407500Y-13563643D01*
X9436071Y-13563643D01*
X9455119Y-13573167D01*
X9464643Y-13592214D01*
X9464643Y-13696976D01*
X9464643Y-13592214D02*
X9474167Y-13573167D01*
X9493214Y-13563643D01*
X9521786Y-13563643D01*
X9540833Y-13573167D01*
X9550357Y-13592214D01*
X9550357Y-13696976D01*
X9940833Y-13487452D02*
X9769405Y-13744595D01*
X10197976Y-13496976D02*
X10217024Y-13496976D01*
X10236071Y-13506500D01*
X10245595Y-13516024D01*
X10255119Y-13535071D01*
X10264643Y-13573167D01*
X10264643Y-13620786D01*
X10255119Y-13658881D01*
X10245595Y-13677928D01*
X10236071Y-13687452D01*
X10217024Y-13696976D01*
X10197976Y-13696976D01*
X10178929Y-13687452D01*
X10169405Y-13677928D01*
X10159881Y-13658881D01*
X10150357Y-13620786D01*
X10150357Y-13573167D01*
X10159881Y-13535071D01*
X10169405Y-13516024D01*
X10178929Y-13506500D01*
X10197976Y-13496976D01*
X10350357Y-13677928D02*
X10359881Y-13687452D01*
X10350357Y-13696976D01*
X10340833Y-13687452D01*
X10350357Y-13677928D01*
X10350357Y-13696976D01*
X10483690Y-13496976D02*
X10502738Y-13496976D01*
X10521786Y-13506500D01*
X10531310Y-13516024D01*
X10540833Y-13535071D01*
X10550357Y-13573167D01*
X10550357Y-13620786D01*
X10540833Y-13658881D01*
X10531310Y-13677928D01*
X10521786Y-13687452D01*
X10502738Y-13696976D01*
X10483690Y-13696976D01*
X10464643Y-13687452D01*
X10455119Y-13677928D01*
X10445595Y-13658881D01*
X10436071Y-13620786D01*
X10436071Y-13573167D01*
X10445595Y-13535071D01*
X10455119Y-13516024D01*
X10464643Y-13506500D01*
X10483690Y-13496976D01*
X10740833Y-13696976D02*
X10626548Y-13696976D01*
X10683690Y-13696976D02*
X10683690Y-13496976D01*
X10664643Y-13525548D01*
X10645595Y-13544595D01*
X10626548Y-13554119D01*
X10921786Y-13496976D02*
X10826548Y-13496976D01*
X10817024Y-13592214D01*
X10826548Y-13582690D01*
X10845595Y-13573167D01*
X10893214Y-13573167D01*
X10912262Y-13582690D01*
X10921786Y-13592214D01*
X10931310Y-13611262D01*
X10931310Y-13658881D01*
X10921786Y-13677928D01*
X10912262Y-13687452D01*
X10893214Y-13696976D01*
X10845595Y-13696976D01*
X10826548Y-13687452D01*
X10817024Y-13677928D01*
X10997976Y-13496976D02*
X11131310Y-13496976D01*
X11045595Y-13696976D01*
X11197976Y-13496976D02*
X11197976Y-13535071D01*
X11274167Y-13496976D02*
X11274167Y-13535071D01*
X11569405Y-13773167D02*
X11559881Y-13763643D01*
X11540833Y-13735071D01*
X11531309Y-13716024D01*
X11521786Y-13687452D01*
X11512262Y-13639833D01*
X11512262Y-13601738D01*
X11521786Y-13554119D01*
X11531309Y-13525548D01*
X11540833Y-13506500D01*
X11559881Y-13477928D01*
X11569405Y-13468405D01*
X11731309Y-13496976D02*
X11693214Y-13496976D01*
X11674167Y-13506500D01*
X11664643Y-13516024D01*
X11645595Y-13544595D01*
X11636071Y-13582690D01*
X11636071Y-13658881D01*
X11645595Y-13677928D01*
X11655119Y-13687452D01*
X11674167Y-13696976D01*
X11712262Y-13696976D01*
X11731309Y-13687452D01*
X11740833Y-13677928D01*
X11750357Y-13658881D01*
X11750357Y-13611262D01*
X11740833Y-13592214D01*
X11731309Y-13582690D01*
X11712262Y-13573167D01*
X11674167Y-13573167D01*
X11655119Y-13582690D01*
X11645595Y-13592214D01*
X11636071Y-13611262D01*
X11845595Y-13696976D02*
X11883690Y-13696976D01*
X11902738Y-13687452D01*
X11912262Y-13677928D01*
X11931309Y-13649357D01*
X11940833Y-13611262D01*
X11940833Y-13535071D01*
X11931309Y-13516024D01*
X11921786Y-13506500D01*
X11902738Y-13496976D01*
X11864643Y-13496976D01*
X11845595Y-13506500D01*
X11836071Y-13516024D01*
X11826548Y-13535071D01*
X11826548Y-13582690D01*
X11836071Y-13601738D01*
X11845595Y-13611262D01*
X11864643Y-13620786D01*
X11902738Y-13620786D01*
X11921786Y-13611262D01*
X11931309Y-13601738D01*
X11940833Y-13582690D01*
X12178928Y-13696976D02*
X12178928Y-13496976D01*
X12264643Y-13696976D02*
X12264643Y-13592214D01*
X12255119Y-13573167D01*
X12236071Y-13563643D01*
X12207500Y-13563643D01*
X12188452Y-13573167D01*
X12178928Y-13582690D01*
X12388452Y-13696976D02*
X12369405Y-13687452D01*
X12359881Y-13677928D01*
X12350357Y-13658881D01*
X12350357Y-13601738D01*
X12359881Y-13582690D01*
X12369405Y-13573167D01*
X12388452Y-13563643D01*
X12417024Y-13563643D01*
X12436071Y-13573167D01*
X12445595Y-13582690D01*
X12455119Y-13601738D01*
X12455119Y-13658881D01*
X12445595Y-13677928D01*
X12436071Y-13687452D01*
X12417024Y-13696976D01*
X12388452Y-13696976D01*
X12569405Y-13696976D02*
X12550357Y-13687452D01*
X12540833Y-13668405D01*
X12540833Y-13496976D01*
X12721786Y-13687452D02*
X12702738Y-13696976D01*
X12664643Y-13696976D01*
X12645595Y-13687452D01*
X12636071Y-13668405D01*
X12636071Y-13592214D01*
X12645595Y-13573167D01*
X12664643Y-13563643D01*
X12702738Y-13563643D01*
X12721786Y-13573167D01*
X12731309Y-13592214D01*
X12731309Y-13611262D01*
X12636071Y-13630309D01*
X12807500Y-13687452D02*
X12826548Y-13696976D01*
X12864643Y-13696976D01*
X12883690Y-13687452D01*
X12893214Y-13668405D01*
X12893214Y-13658881D01*
X12883690Y-13639833D01*
X12864643Y-13630309D01*
X12836071Y-13630309D01*
X12817024Y-13620786D01*
X12807500Y-13601738D01*
X12807500Y-13592214D01*
X12817024Y-13573167D01*
X12836071Y-13563643D01*
X12864643Y-13563643D01*
X12883690Y-13573167D01*
X12959881Y-13773167D02*
X12969405Y-13763643D01*
X12988452Y-13735071D01*
X12997976Y-13716024D01*
X13007500Y-13687452D01*
X13017024Y-13639833D01*
X13017024Y-13601738D01*
X13007500Y-13554119D01*
X12997976Y-13525548D01*
X12988452Y-13506500D01*
X12969405Y-13477928D01*
X12959881Y-13468405D01*
D14*
X7947500Y-13820500D02*
X7947500Y-13920500D01*
X7897500Y-13870500D02*
X7997500Y-13870500D01*
D11*
X8359881Y-13960976D02*
X8245595Y-13960976D01*
X8302738Y-13960976D02*
X8302738Y-13760976D01*
X8283690Y-13789548D01*
X8264643Y-13808595D01*
X8245595Y-13818119D01*
X8445595Y-13941928D02*
X8455119Y-13951452D01*
X8445595Y-13960976D01*
X8436071Y-13951452D01*
X8445595Y-13941928D01*
X8445595Y-13960976D01*
X8578929Y-13760976D02*
X8597976Y-13760976D01*
X8617024Y-13770500D01*
X8626548Y-13780024D01*
X8636071Y-13799071D01*
X8645595Y-13837167D01*
X8645595Y-13884786D01*
X8636071Y-13922881D01*
X8626548Y-13941928D01*
X8617024Y-13951452D01*
X8597976Y-13960976D01*
X8578929Y-13960976D01*
X8559881Y-13951452D01*
X8550357Y-13941928D01*
X8540833Y-13922881D01*
X8531310Y-13884786D01*
X8531310Y-13837167D01*
X8540833Y-13799071D01*
X8550357Y-13780024D01*
X8559881Y-13770500D01*
X8578929Y-13760976D01*
X8769405Y-13760976D02*
X8788452Y-13760976D01*
X8807500Y-13770500D01*
X8817024Y-13780024D01*
X8826548Y-13799071D01*
X8836071Y-13837167D01*
X8836071Y-13884786D01*
X8826548Y-13922881D01*
X8817024Y-13941928D01*
X8807500Y-13951452D01*
X8788452Y-13960976D01*
X8769405Y-13960976D01*
X8750357Y-13951452D01*
X8740833Y-13941928D01*
X8731310Y-13922881D01*
X8721786Y-13884786D01*
X8721786Y-13837167D01*
X8731310Y-13799071D01*
X8740833Y-13780024D01*
X8750357Y-13770500D01*
X8769405Y-13760976D01*
X8959881Y-13760976D02*
X8978929Y-13760976D01*
X8997976Y-13770500D01*
X9007500Y-13780024D01*
X9017024Y-13799071D01*
X9026548Y-13837167D01*
X9026548Y-13884786D01*
X9017024Y-13922881D01*
X9007500Y-13941928D01*
X8997976Y-13951452D01*
X8978929Y-13960976D01*
X8959881Y-13960976D01*
X8940833Y-13951452D01*
X8931310Y-13941928D01*
X8921786Y-13922881D01*
X8912262Y-13884786D01*
X8912262Y-13837167D01*
X8921786Y-13799071D01*
X8931310Y-13780024D01*
X8940833Y-13770500D01*
X8959881Y-13760976D01*
X9112262Y-13960976D02*
X9112262Y-13827643D01*
X9112262Y-13846690D02*
X9121786Y-13837167D01*
X9140833Y-13827643D01*
X9169405Y-13827643D01*
X9188452Y-13837167D01*
X9197976Y-13856214D01*
X9197976Y-13960976D01*
X9197976Y-13856214D02*
X9207500Y-13837167D01*
X9226548Y-13827643D01*
X9255119Y-13827643D01*
X9274167Y-13837167D01*
X9283690Y-13856214D01*
X9283690Y-13960976D01*
X9378929Y-13960976D02*
X9378929Y-13827643D01*
X9378929Y-13846690D02*
X9388452Y-13837167D01*
X9407500Y-13827643D01*
X9436071Y-13827643D01*
X9455119Y-13837167D01*
X9464643Y-13856214D01*
X9464643Y-13960976D01*
X9464643Y-13856214D02*
X9474167Y-13837167D01*
X9493214Y-13827643D01*
X9521786Y-13827643D01*
X9540833Y-13837167D01*
X9550357Y-13856214D01*
X9550357Y-13960976D01*
X9940833Y-13751452D02*
X9769405Y-14008595D01*
X10197976Y-13760976D02*
X10217024Y-13760976D01*
X10236071Y-13770500D01*
X10245595Y-13780024D01*
X10255119Y-13799071D01*
X10264643Y-13837167D01*
X10264643Y-13884786D01*
X10255119Y-13922881D01*
X10245595Y-13941928D01*
X10236071Y-13951452D01*
X10217024Y-13960976D01*
X10197976Y-13960976D01*
X10178929Y-13951452D01*
X10169405Y-13941928D01*
X10159881Y-13922881D01*
X10150357Y-13884786D01*
X10150357Y-13837167D01*
X10159881Y-13799071D01*
X10169405Y-13780024D01*
X10178929Y-13770500D01*
X10197976Y-13760976D01*
X10350357Y-13941928D02*
X10359881Y-13951452D01*
X10350357Y-13960976D01*
X10340833Y-13951452D01*
X10350357Y-13941928D01*
X10350357Y-13960976D01*
X10483690Y-13760976D02*
X10502738Y-13760976D01*
X10521786Y-13770500D01*
X10531310Y-13780024D01*
X10540833Y-13799071D01*
X10550357Y-13837167D01*
X10550357Y-13884786D01*
X10540833Y-13922881D01*
X10531310Y-13941928D01*
X10521786Y-13951452D01*
X10502738Y-13960976D01*
X10483690Y-13960976D01*
X10464643Y-13951452D01*
X10455119Y-13941928D01*
X10445595Y-13922881D01*
X10436071Y-13884786D01*
X10436071Y-13837167D01*
X10445595Y-13799071D01*
X10455119Y-13780024D01*
X10464643Y-13770500D01*
X10483690Y-13760976D01*
X10617024Y-13760976D02*
X10740833Y-13760976D01*
X10674167Y-13837167D01*
X10702738Y-13837167D01*
X10721786Y-13846690D01*
X10731310Y-13856214D01*
X10740833Y-13875262D01*
X10740833Y-13922881D01*
X10731310Y-13941928D01*
X10721786Y-13951452D01*
X10702738Y-13960976D01*
X10645595Y-13960976D01*
X10626548Y-13951452D01*
X10617024Y-13941928D01*
X10836071Y-13960976D02*
X10874167Y-13960976D01*
X10893214Y-13951452D01*
X10902738Y-13941928D01*
X10921786Y-13913357D01*
X10931310Y-13875262D01*
X10931310Y-13799071D01*
X10921786Y-13780024D01*
X10912262Y-13770500D01*
X10893214Y-13760976D01*
X10855119Y-13760976D01*
X10836071Y-13770500D01*
X10826548Y-13780024D01*
X10817024Y-13799071D01*
X10817024Y-13846690D01*
X10826548Y-13865738D01*
X10836071Y-13875262D01*
X10855119Y-13884786D01*
X10893214Y-13884786D01*
X10912262Y-13875262D01*
X10921786Y-13865738D01*
X10931310Y-13846690D01*
X11102738Y-13827643D02*
X11102738Y-13960976D01*
X11055119Y-13751452D02*
X11007500Y-13894309D01*
X11131310Y-13894309D01*
X11197976Y-13760976D02*
X11197976Y-13799071D01*
X11274167Y-13760976D02*
X11274167Y-13799071D01*
X11569405Y-14037167D02*
X11559881Y-14027643D01*
X11540833Y-13999071D01*
X11531309Y-13980024D01*
X11521786Y-13951452D01*
X11512262Y-13903833D01*
X11512262Y-13865738D01*
X11521786Y-13818119D01*
X11531309Y-13789548D01*
X11540833Y-13770500D01*
X11559881Y-13741928D01*
X11569405Y-13732405D01*
X11636071Y-13780024D02*
X11645595Y-13770500D01*
X11664643Y-13760976D01*
X11712262Y-13760976D01*
X11731309Y-13770500D01*
X11740833Y-13780024D01*
X11750357Y-13799071D01*
X11750357Y-13818119D01*
X11740833Y-13846690D01*
X11626548Y-13960976D01*
X11750357Y-13960976D01*
X11988452Y-13960976D02*
X11988452Y-13760976D01*
X12074167Y-13960976D02*
X12074167Y-13856214D01*
X12064643Y-13837167D01*
X12045595Y-13827643D01*
X12017024Y-13827643D01*
X11997976Y-13837167D01*
X11988452Y-13846690D01*
X12197976Y-13960976D02*
X12178928Y-13951452D01*
X12169405Y-13941928D01*
X12159881Y-13922881D01*
X12159881Y-13865738D01*
X12169405Y-13846690D01*
X12178928Y-13837167D01*
X12197976Y-13827643D01*
X12226548Y-13827643D01*
X12245595Y-13837167D01*
X12255119Y-13846690D01*
X12264643Y-13865738D01*
X12264643Y-13922881D01*
X12255119Y-13941928D01*
X12245595Y-13951452D01*
X12226548Y-13960976D01*
X12197976Y-13960976D01*
X12378928Y-13960976D02*
X12359881Y-13951452D01*
X12350357Y-13932405D01*
X12350357Y-13760976D01*
X12531309Y-13951452D02*
X12512262Y-13960976D01*
X12474167Y-13960976D01*
X12455119Y-13951452D01*
X12445595Y-13932405D01*
X12445595Y-13856214D01*
X12455119Y-13837167D01*
X12474167Y-13827643D01*
X12512262Y-13827643D01*
X12531309Y-13837167D01*
X12540833Y-13856214D01*
X12540833Y-13875262D01*
X12445595Y-13894309D01*
X12617024Y-13951452D02*
X12636071Y-13960976D01*
X12674167Y-13960976D01*
X12693214Y-13951452D01*
X12702738Y-13932405D01*
X12702738Y-13922881D01*
X12693214Y-13903833D01*
X12674167Y-13894309D01*
X12645595Y-13894309D01*
X12626548Y-13884786D01*
X12617024Y-13865738D01*
X12617024Y-13856214D01*
X12626548Y-13837167D01*
X12645595Y-13827643D01*
X12674167Y-13827643D01*
X12693214Y-13837167D01*
X12769405Y-14037167D02*
X12778928Y-14027643D01*
X12797976Y-13999071D01*
X12807500Y-13980024D01*
X12817024Y-13951452D01*
X12826548Y-13903833D01*
X12826548Y-13865738D01*
X12817024Y-13818119D01*
X12807500Y-13789548D01*
X12797976Y-13770500D01*
X12778928Y-13741928D01*
X12769405Y-13732405D01*
D15*
X7982563Y-14170563D02*
X7982563Y-14098437D01*
X7910437Y-14098437D01*
X7910437Y-14170563D01*
X7982563Y-14170563D01*
D11*
X8359881Y-14224976D02*
X8245595Y-14224976D01*
X8302738Y-14224976D02*
X8302738Y-14024976D01*
X8283690Y-14053548D01*
X8264643Y-14072595D01*
X8245595Y-14082119D01*
X8445595Y-14205928D02*
X8455119Y-14215452D01*
X8445595Y-14224976D01*
X8436071Y-14215452D01*
X8445595Y-14205928D01*
X8445595Y-14224976D01*
X8578929Y-14024976D02*
X8597976Y-14024976D01*
X8617024Y-14034500D01*
X8626548Y-14044024D01*
X8636071Y-14063071D01*
X8645595Y-14101167D01*
X8645595Y-14148786D01*
X8636071Y-14186881D01*
X8626548Y-14205928D01*
X8617024Y-14215452D01*
X8597976Y-14224976D01*
X8578929Y-14224976D01*
X8559881Y-14215452D01*
X8550357Y-14205928D01*
X8540833Y-14186881D01*
X8531310Y-14148786D01*
X8531310Y-14101167D01*
X8540833Y-14063071D01*
X8550357Y-14044024D01*
X8559881Y-14034500D01*
X8578929Y-14024976D01*
X8721786Y-14044024D02*
X8731310Y-14034500D01*
X8750357Y-14024976D01*
X8797976Y-14024976D01*
X8817024Y-14034500D01*
X8826548Y-14044024D01*
X8836071Y-14063071D01*
X8836071Y-14082119D01*
X8826548Y-14110690D01*
X8712262Y-14224976D01*
X8836071Y-14224976D01*
X8959881Y-14024976D02*
X8978929Y-14024976D01*
X8997976Y-14034500D01*
X9007500Y-14044024D01*
X9017024Y-14063071D01*
X9026548Y-14101167D01*
X9026548Y-14148786D01*
X9017024Y-14186881D01*
X9007500Y-14205928D01*
X8997976Y-14215452D01*
X8978929Y-14224976D01*
X8959881Y-14224976D01*
X8940833Y-14215452D01*
X8931310Y-14205928D01*
X8921786Y-14186881D01*
X8912262Y-14148786D01*
X8912262Y-14101167D01*
X8921786Y-14063071D01*
X8931310Y-14044024D01*
X8940833Y-14034500D01*
X8959881Y-14024976D01*
X9112262Y-14224976D02*
X9112262Y-14091643D01*
X9112262Y-14110690D02*
X9121786Y-14101167D01*
X9140833Y-14091643D01*
X9169405Y-14091643D01*
X9188452Y-14101167D01*
X9197976Y-14120214D01*
X9197976Y-14224976D01*
X9197976Y-14120214D02*
X9207500Y-14101167D01*
X9226548Y-14091643D01*
X9255119Y-14091643D01*
X9274167Y-14101167D01*
X9283690Y-14120214D01*
X9283690Y-14224976D01*
X9378929Y-14224976D02*
X9378929Y-14091643D01*
X9378929Y-14110690D02*
X9388452Y-14101167D01*
X9407500Y-14091643D01*
X9436071Y-14091643D01*
X9455119Y-14101167D01*
X9464643Y-14120214D01*
X9464643Y-14224976D01*
X9464643Y-14120214D02*
X9474167Y-14101167D01*
X9493214Y-14091643D01*
X9521786Y-14091643D01*
X9540833Y-14101167D01*
X9550357Y-14120214D01*
X9550357Y-14224976D01*
X9940833Y-14015452D02*
X9769405Y-14272595D01*
X10197976Y-14024976D02*
X10217024Y-14024976D01*
X10236071Y-14034500D01*
X10245595Y-14044024D01*
X10255119Y-14063071D01*
X10264643Y-14101167D01*
X10264643Y-14148786D01*
X10255119Y-14186881D01*
X10245595Y-14205928D01*
X10236071Y-14215452D01*
X10217024Y-14224976D01*
X10197976Y-14224976D01*
X10178929Y-14215452D01*
X10169405Y-14205928D01*
X10159881Y-14186881D01*
X10150357Y-14148786D01*
X10150357Y-14101167D01*
X10159881Y-14063071D01*
X10169405Y-14044024D01*
X10178929Y-14034500D01*
X10197976Y-14024976D01*
X10350357Y-14205928D02*
X10359881Y-14215452D01*
X10350357Y-14224976D01*
X10340833Y-14215452D01*
X10350357Y-14205928D01*
X10350357Y-14224976D01*
X10483690Y-14024976D02*
X10502738Y-14024976D01*
X10521786Y-14034500D01*
X10531310Y-14044024D01*
X10540833Y-14063071D01*
X10550357Y-14101167D01*
X10550357Y-14148786D01*
X10540833Y-14186881D01*
X10531310Y-14205928D01*
X10521786Y-14215452D01*
X10502738Y-14224976D01*
X10483690Y-14224976D01*
X10464643Y-14215452D01*
X10455119Y-14205928D01*
X10445595Y-14186881D01*
X10436071Y-14148786D01*
X10436071Y-14101167D01*
X10445595Y-14063071D01*
X10455119Y-14044024D01*
X10464643Y-14034500D01*
X10483690Y-14024976D01*
X10721786Y-14091643D02*
X10721786Y-14224976D01*
X10674167Y-14015452D02*
X10626548Y-14158309D01*
X10750357Y-14158309D01*
X10864643Y-14024976D02*
X10883690Y-14024976D01*
X10902738Y-14034500D01*
X10912262Y-14044024D01*
X10921786Y-14063071D01*
X10931310Y-14101167D01*
X10931310Y-14148786D01*
X10921786Y-14186881D01*
X10912262Y-14205928D01*
X10902738Y-14215452D01*
X10883690Y-14224976D01*
X10864643Y-14224976D01*
X10845595Y-14215452D01*
X10836071Y-14205928D01*
X10826548Y-14186881D01*
X10817024Y-14148786D01*
X10817024Y-14101167D01*
X10826548Y-14063071D01*
X10836071Y-14044024D01*
X10845595Y-14034500D01*
X10864643Y-14024976D01*
X11007500Y-14044024D02*
X11017024Y-14034500D01*
X11036071Y-14024976D01*
X11083690Y-14024976D01*
X11102738Y-14034500D01*
X11112262Y-14044024D01*
X11121786Y-14063071D01*
X11121786Y-14082119D01*
X11112262Y-14110690D01*
X10997976Y-14224976D01*
X11121786Y-14224976D01*
X11197976Y-14024976D02*
X11197976Y-14063071D01*
X11274167Y-14024976D02*
X11274167Y-14063071D01*
X11569405Y-14301167D02*
X11559881Y-14291643D01*
X11540833Y-14263071D01*
X11531309Y-14244024D01*
X11521786Y-14215452D01*
X11512262Y-14167833D01*
X11512262Y-14129738D01*
X11521786Y-14082119D01*
X11531309Y-14053548D01*
X11540833Y-14034500D01*
X11559881Y-14005928D01*
X11569405Y-13996405D01*
X11674167Y-14110690D02*
X11655119Y-14101167D01*
X11645595Y-14091643D01*
X11636071Y-14072595D01*
X11636071Y-14063071D01*
X11645595Y-14044024D01*
X11655119Y-14034500D01*
X11674167Y-14024976D01*
X11712262Y-14024976D01*
X11731309Y-14034500D01*
X11740833Y-14044024D01*
X11750357Y-14063071D01*
X11750357Y-14072595D01*
X11740833Y-14091643D01*
X11731309Y-14101167D01*
X11712262Y-14110690D01*
X11674167Y-14110690D01*
X11655119Y-14120214D01*
X11645595Y-14129738D01*
X11636071Y-14148786D01*
X11636071Y-14186881D01*
X11645595Y-14205928D01*
X11655119Y-14215452D01*
X11674167Y-14224976D01*
X11712262Y-14224976D01*
X11731309Y-14215452D01*
X11740833Y-14205928D01*
X11750357Y-14186881D01*
X11750357Y-14148786D01*
X11740833Y-14129738D01*
X11731309Y-14120214D01*
X11712262Y-14110690D01*
X11988452Y-14224976D02*
X11988452Y-14024976D01*
X12074167Y-14224976D02*
X12074167Y-14120214D01*
X12064643Y-14101167D01*
X12045595Y-14091643D01*
X12017024Y-14091643D01*
X11997976Y-14101167D01*
X11988452Y-14110690D01*
X12197976Y-14224976D02*
X12178928Y-14215452D01*
X12169405Y-14205928D01*
X12159881Y-14186881D01*
X12159881Y-14129738D01*
X12169405Y-14110690D01*
X12178928Y-14101167D01*
X12197976Y-14091643D01*
X12226548Y-14091643D01*
X12245595Y-14101167D01*
X12255119Y-14110690D01*
X12264643Y-14129738D01*
X12264643Y-14186881D01*
X12255119Y-14205928D01*
X12245595Y-14215452D01*
X12226548Y-14224976D01*
X12197976Y-14224976D01*
X12378928Y-14224976D02*
X12359881Y-14215452D01*
X12350357Y-14196405D01*
X12350357Y-14024976D01*
X12531309Y-14215452D02*
X12512262Y-14224976D01*
X12474167Y-14224976D01*
X12455119Y-14215452D01*
X12445595Y-14196405D01*
X12445595Y-14120214D01*
X12455119Y-14101167D01*
X12474167Y-14091643D01*
X12512262Y-14091643D01*
X12531309Y-14101167D01*
X12540833Y-14120214D01*
X12540833Y-14139262D01*
X12445595Y-14158309D01*
X12617024Y-14215452D02*
X12636071Y-14224976D01*
X12674167Y-14224976D01*
X12693214Y-14215452D01*
X12702738Y-14196405D01*
X12702738Y-14186881D01*
X12693214Y-14167833D01*
X12674167Y-14158309D01*
X12645595Y-14158309D01*
X12626548Y-14148786D01*
X12617024Y-14129738D01*
X12617024Y-14120214D01*
X12626548Y-14101167D01*
X12645595Y-14091643D01*
X12674167Y-14091643D01*
X12693214Y-14101167D01*
X12769405Y-14301167D02*
X12778928Y-14291643D01*
X12797976Y-14263071D01*
X12807500Y-14244024D01*
X12817024Y-14215452D01*
X12826548Y-14167833D01*
X12826548Y-14129738D01*
X12817024Y-14082119D01*
X12807500Y-14053548D01*
X12797976Y-14034500D01*
X12778928Y-14005928D01*
X12769405Y-13996405D01*
D16*
X7937500Y-14458500D02*
X7997500Y-14398500D01*
X7937500Y-14338500D01*
X7877500Y-14398500D01*
X7937500Y-14458500D01*
D11*
X8359881Y-14488976D02*
X8245595Y-14488976D01*
X8302738Y-14488976D02*
X8302738Y-14288976D01*
X8283690Y-14317548D01*
X8264643Y-14336595D01*
X8245595Y-14346119D01*
X8445595Y-14469928D02*
X8455119Y-14479452D01*
X8445595Y-14488976D01*
X8436071Y-14479452D01*
X8445595Y-14469928D01*
X8445595Y-14488976D01*
X8531310Y-14308024D02*
X8540833Y-14298500D01*
X8559881Y-14288976D01*
X8607500Y-14288976D01*
X8626548Y-14298500D01*
X8636071Y-14308024D01*
X8645595Y-14327071D01*
X8645595Y-14346119D01*
X8636071Y-14374690D01*
X8521786Y-14488976D01*
X8645595Y-14488976D01*
X8769405Y-14288976D02*
X8788452Y-14288976D01*
X8807500Y-14298500D01*
X8817024Y-14308024D01*
X8826548Y-14327071D01*
X8836071Y-14365167D01*
X8836071Y-14412786D01*
X8826548Y-14450881D01*
X8817024Y-14469928D01*
X8807500Y-14479452D01*
X8788452Y-14488976D01*
X8769405Y-14488976D01*
X8750357Y-14479452D01*
X8740833Y-14469928D01*
X8731310Y-14450881D01*
X8721786Y-14412786D01*
X8721786Y-14365167D01*
X8731310Y-14327071D01*
X8740833Y-14308024D01*
X8750357Y-14298500D01*
X8769405Y-14288976D01*
X8959881Y-14288976D02*
X8978929Y-14288976D01*
X8997976Y-14298500D01*
X9007500Y-14308024D01*
X9017024Y-14327071D01*
X9026548Y-14365167D01*
X9026548Y-14412786D01*
X9017024Y-14450881D01*
X9007500Y-14469928D01*
X8997976Y-14479452D01*
X8978929Y-14488976D01*
X8959881Y-14488976D01*
X8940833Y-14479452D01*
X8931310Y-14469928D01*
X8921786Y-14450881D01*
X8912262Y-14412786D01*
X8912262Y-14365167D01*
X8921786Y-14327071D01*
X8931310Y-14308024D01*
X8940833Y-14298500D01*
X8959881Y-14288976D01*
X9112262Y-14488976D02*
X9112262Y-14355643D01*
X9112262Y-14374690D02*
X9121786Y-14365167D01*
X9140833Y-14355643D01*
X9169405Y-14355643D01*
X9188452Y-14365167D01*
X9197976Y-14384214D01*
X9197976Y-14488976D01*
X9197976Y-14384214D02*
X9207500Y-14365167D01*
X9226548Y-14355643D01*
X9255119Y-14355643D01*
X9274167Y-14365167D01*
X9283690Y-14384214D01*
X9283690Y-14488976D01*
X9378929Y-14488976D02*
X9378929Y-14355643D01*
X9378929Y-14374690D02*
X9388452Y-14365167D01*
X9407500Y-14355643D01*
X9436071Y-14355643D01*
X9455119Y-14365167D01*
X9464643Y-14384214D01*
X9464643Y-14488976D01*
X9464643Y-14384214D02*
X9474167Y-14365167D01*
X9493214Y-14355643D01*
X9521786Y-14355643D01*
X9540833Y-14365167D01*
X9550357Y-14384214D01*
X9550357Y-14488976D01*
X9940833Y-14279452D02*
X9769405Y-14536595D01*
X10197976Y-14288976D02*
X10217024Y-14288976D01*
X10236071Y-14298500D01*
X10245595Y-14308024D01*
X10255119Y-14327071D01*
X10264643Y-14365167D01*
X10264643Y-14412786D01*
X10255119Y-14450881D01*
X10245595Y-14469928D01*
X10236071Y-14479452D01*
X10217024Y-14488976D01*
X10197976Y-14488976D01*
X10178929Y-14479452D01*
X10169405Y-14469928D01*
X10159881Y-14450881D01*
X10150357Y-14412786D01*
X10150357Y-14365167D01*
X10159881Y-14327071D01*
X10169405Y-14308024D01*
X10178929Y-14298500D01*
X10197976Y-14288976D01*
X10350357Y-14469928D02*
X10359881Y-14479452D01*
X10350357Y-14488976D01*
X10340833Y-14479452D01*
X10350357Y-14469928D01*
X10350357Y-14488976D01*
X10483690Y-14288976D02*
X10502738Y-14288976D01*
X10521786Y-14298500D01*
X10531310Y-14308024D01*
X10540833Y-14327071D01*
X10550357Y-14365167D01*
X10550357Y-14412786D01*
X10540833Y-14450881D01*
X10531310Y-14469928D01*
X10521786Y-14479452D01*
X10502738Y-14488976D01*
X10483690Y-14488976D01*
X10464643Y-14479452D01*
X10455119Y-14469928D01*
X10445595Y-14450881D01*
X10436071Y-14412786D01*
X10436071Y-14365167D01*
X10445595Y-14327071D01*
X10455119Y-14308024D01*
X10464643Y-14298500D01*
X10483690Y-14288976D01*
X10721786Y-14355643D02*
X10721786Y-14488976D01*
X10674167Y-14279452D02*
X10626548Y-14422309D01*
X10750357Y-14422309D01*
X10807500Y-14288976D02*
X10940833Y-14288976D01*
X10855119Y-14488976D01*
X11007500Y-14308024D02*
X11017024Y-14298500D01*
X11036071Y-14288976D01*
X11083690Y-14288976D01*
X11102738Y-14298500D01*
X11112262Y-14308024D01*
X11121786Y-14327071D01*
X11121786Y-14346119D01*
X11112262Y-14374690D01*
X10997976Y-14488976D01*
X11121786Y-14488976D01*
X11197976Y-14288976D02*
X11197976Y-14327071D01*
X11274167Y-14288976D02*
X11274167Y-14327071D01*
X11569405Y-14565167D02*
X11559881Y-14555643D01*
X11540833Y-14527071D01*
X11531309Y-14508024D01*
X11521786Y-14479452D01*
X11512262Y-14431833D01*
X11512262Y-14393738D01*
X11521786Y-14346119D01*
X11531309Y-14317548D01*
X11540833Y-14298500D01*
X11559881Y-14269928D01*
X11569405Y-14260405D01*
X11750357Y-14488976D02*
X11636071Y-14488976D01*
X11693214Y-14488976D02*
X11693214Y-14288976D01*
X11674167Y-14317548D01*
X11655119Y-14336595D01*
X11636071Y-14346119D01*
X11874167Y-14288976D02*
X11893214Y-14288976D01*
X11912262Y-14298500D01*
X11921786Y-14308024D01*
X11931309Y-14327071D01*
X11940833Y-14365167D01*
X11940833Y-14412786D01*
X11931309Y-14450881D01*
X11921786Y-14469928D01*
X11912262Y-14479452D01*
X11893214Y-14488976D01*
X11874167Y-14488976D01*
X11855119Y-14479452D01*
X11845595Y-14469928D01*
X11836071Y-14450881D01*
X11826548Y-14412786D01*
X11826548Y-14365167D01*
X11836071Y-14327071D01*
X11845595Y-14308024D01*
X11855119Y-14298500D01*
X11874167Y-14288976D01*
X12112262Y-14355643D02*
X12112262Y-14488976D01*
X12064643Y-14279452D02*
X12017024Y-14422309D01*
X12140833Y-14422309D01*
X12369405Y-14488976D02*
X12369405Y-14288976D01*
X12455119Y-14488976D02*
X12455119Y-14384214D01*
X12445595Y-14365167D01*
X12426548Y-14355643D01*
X12397976Y-14355643D01*
X12378928Y-14365167D01*
X12369405Y-14374690D01*
X12578928Y-14488976D02*
X12559881Y-14479452D01*
X12550357Y-14469928D01*
X12540833Y-14450881D01*
X12540833Y-14393738D01*
X12550357Y-14374690D01*
X12559881Y-14365167D01*
X12578928Y-14355643D01*
X12607500Y-14355643D01*
X12626548Y-14365167D01*
X12636071Y-14374690D01*
X12645595Y-14393738D01*
X12645595Y-14450881D01*
X12636071Y-14469928D01*
X12626548Y-14479452D01*
X12607500Y-14488976D01*
X12578928Y-14488976D01*
X12759881Y-14488976D02*
X12740833Y-14479452D01*
X12731309Y-14460405D01*
X12731309Y-14288976D01*
X12912262Y-14479452D02*
X12893214Y-14488976D01*
X12855119Y-14488976D01*
X12836071Y-14479452D01*
X12826548Y-14460405D01*
X12826548Y-14384214D01*
X12836071Y-14365167D01*
X12855119Y-14355643D01*
X12893214Y-14355643D01*
X12912262Y-14365167D01*
X12921786Y-14384214D01*
X12921786Y-14403262D01*
X12826548Y-14422309D01*
X12997976Y-14479452D02*
X13017024Y-14488976D01*
X13055119Y-14488976D01*
X13074167Y-14479452D01*
X13083690Y-14460405D01*
X13083690Y-14450881D01*
X13074167Y-14431833D01*
X13055119Y-14422309D01*
X13026548Y-14422309D01*
X13007500Y-14412786D01*
X12997976Y-14393738D01*
X12997976Y-14384214D01*
X13007500Y-14365167D01*
X13026548Y-14355643D01*
X13055119Y-14355643D01*
X13074167Y-14365167D01*
X13150357Y-14565167D02*
X13159881Y-14555643D01*
X13178928Y-14527071D01*
X13188452Y-14508024D01*
X13197976Y-14479452D01*
X13207500Y-14431833D01*
X13207500Y-14393738D01*
X13197976Y-14346119D01*
X13188452Y-14317548D01*
X13178928Y-14298500D01*
X13159881Y-14269928D01*
X13150357Y-14260405D01*
M02*
