%TF.GenerationSoftware,KiCad,Pcbnew,(6.0.9)*%
%TF.CreationDate,2023-05-23T15:00:07+02:00*%
%TF.ProjectId,bms_monitor,626d735f-6d6f-46e6-9974-6f722e6b6963,rev?*%
%TF.SameCoordinates,Original*%
%TF.FileFunction,Soldermask,Top*%
%TF.FilePolarity,Negative*%
%FSLAX46Y46*%
G04 Gerber Fmt 4.6, Leading zero omitted, Abs format (unit mm)*
G04 Created by KiCad (PCBNEW (6.0.9)) date 2023-05-23 15:00:07*
%MOMM*%
%LPD*%
G01*
G04 APERTURE LIST*
G04 Aperture macros list*
%AMRoundRect*
0 Rectangle with rounded corners*
0 $1 Rounding radius*
0 $2 $3 $4 $5 $6 $7 $8 $9 X,Y pos of 4 corners*
0 Add a 4 corners polygon primitive as box body*
4,1,4,$2,$3,$4,$5,$6,$7,$8,$9,$2,$3,0*
0 Add four circle primitives for the rounded corners*
1,1,$1+$1,$2,$3*
1,1,$1+$1,$4,$5*
1,1,$1+$1,$6,$7*
1,1,$1+$1,$8,$9*
0 Add four rect primitives between the rounded corners*
20,1,$1+$1,$2,$3,$4,$5,0*
20,1,$1+$1,$4,$5,$6,$7,0*
20,1,$1+$1,$6,$7,$8,$9,0*
20,1,$1+$1,$8,$9,$2,$3,0*%
%AMFreePoly0*
4,1,22,0.550000,-0.750000,0.000000,-0.750000,0.000000,-0.745033,-0.079941,-0.743568,-0.215256,-0.701293,-0.333266,-0.622738,-0.424486,-0.514219,-0.481581,-0.384460,-0.499164,-0.250000,-0.500000,-0.250000,-0.500000,0.250000,-0.499164,0.250000,-0.499963,0.256109,-0.478152,0.396186,-0.417904,0.524511,-0.324060,0.630769,-0.204165,0.706417,-0.067858,0.745374,0.000000,0.744959,0.000000,0.750000,
0.550000,0.750000,0.550000,-0.750000,0.550000,-0.750000,$1*%
%AMFreePoly1*
4,1,20,0.000000,0.744959,0.073905,0.744508,0.209726,0.703889,0.328688,0.626782,0.421226,0.519385,0.479903,0.390333,0.500000,0.250000,0.500000,-0.250000,0.499851,-0.262216,0.476331,-0.402017,0.414519,-0.529596,0.319384,-0.634700,0.198574,-0.708877,0.061801,-0.746166,0.000000,-0.745033,0.000000,-0.750000,-0.550000,-0.750000,-0.550000,0.750000,0.000000,0.750000,0.000000,0.744959,
0.000000,0.744959,$1*%
G04 Aperture macros list end*
%ADD10C,0.150000*%
%ADD11C,0.275000*%
%ADD12R,1.270000X0.760000*%
%ADD13RoundRect,0.200000X0.200000X0.275000X-0.200000X0.275000X-0.200000X-0.275000X0.200000X-0.275000X0*%
%ADD14RoundRect,0.200000X-0.200000X-0.275000X0.200000X-0.275000X0.200000X0.275000X-0.200000X0.275000X0*%
%ADD15RoundRect,0.218750X0.218750X0.256250X-0.218750X0.256250X-0.218750X-0.256250X0.218750X-0.256250X0*%
%ADD16RoundRect,0.218750X-0.218750X-0.256250X0.218750X-0.256250X0.218750X0.256250X-0.218750X0.256250X0*%
%ADD17RoundRect,0.062500X-0.062500X0.375000X-0.062500X-0.375000X0.062500X-0.375000X0.062500X0.375000X0*%
%ADD18RoundRect,0.062500X-0.375000X0.062500X-0.375000X-0.062500X0.375000X-0.062500X0.375000X0.062500X0*%
%ADD19R,3.450000X3.450000*%
%ADD20RoundRect,0.250000X-0.450000X0.262500X-0.450000X-0.262500X0.450000X-0.262500X0.450000X0.262500X0*%
%ADD21FreePoly0,270.000000*%
%ADD22R,1.500000X1.000000*%
%ADD23FreePoly1,270.000000*%
%ADD24R,0.500000X0.800000*%
%ADD25R,0.400000X0.800000*%
%ADD26RoundRect,0.250000X-0.375000X-0.625000X0.375000X-0.625000X0.375000X0.625000X-0.375000X0.625000X0*%
%ADD27RoundRect,0.250000X0.450000X-0.262500X0.450000X0.262500X-0.450000X0.262500X-0.450000X-0.262500X0*%
%ADD28RoundRect,0.250000X0.375000X0.625000X-0.375000X0.625000X-0.375000X-0.625000X0.375000X-0.625000X0*%
%ADD29RoundRect,0.225000X0.225000X0.250000X-0.225000X0.250000X-0.225000X-0.250000X0.225000X-0.250000X0*%
%ADD30C,5.600000*%
%ADD31RoundRect,0.250000X0.475000X-0.250000X0.475000X0.250000X-0.475000X0.250000X-0.475000X-0.250000X0*%
%ADD32C,1.700000*%
%ADD33RoundRect,0.250000X-0.600000X-0.600000X0.600000X-0.600000X0.600000X0.600000X-0.600000X0.600000X0*%
%ADD34C,1.270000*%
%ADD35RoundRect,0.250001X0.759999X-0.499999X0.759999X0.499999X-0.759999X0.499999X-0.759999X-0.499999X0*%
%ADD36O,2.020000X1.500000*%
%ADD37RoundRect,0.225000X-0.250000X0.225000X-0.250000X-0.225000X0.250000X-0.225000X0.250000X0.225000X0*%
%ADD38RoundRect,0.250000X-0.325000X-0.650000X0.325000X-0.650000X0.325000X0.650000X-0.325000X0.650000X0*%
%ADD39RoundRect,0.250000X-0.325000X-1.100000X0.325000X-1.100000X0.325000X1.100000X-0.325000X1.100000X0*%
%ADD40RoundRect,0.250000X0.600000X0.600000X-0.600000X0.600000X-0.600000X-0.600000X0.600000X-0.600000X0*%
%ADD41RoundRect,0.150000X-0.150000X0.662500X-0.150000X-0.662500X0.150000X-0.662500X0.150000X0.662500X0*%
%ADD42R,3.200000X2.514000*%
%ADD43RoundRect,0.250000X-0.375000X-1.075000X0.375000X-1.075000X0.375000X1.075000X-0.375000X1.075000X0*%
%ADD44RoundRect,0.150000X0.587500X0.150000X-0.587500X0.150000X-0.587500X-0.150000X0.587500X-0.150000X0*%
%ADD45FreePoly0,90.000000*%
%ADD46FreePoly1,90.000000*%
%ADD47RoundRect,0.250000X-0.250000X-0.475000X0.250000X-0.475000X0.250000X0.475000X-0.250000X0.475000X0*%
%ADD48RoundRect,0.250000X0.262500X0.450000X-0.262500X0.450000X-0.262500X-0.450000X0.262500X-0.450000X0*%
%ADD49RoundRect,0.200000X-0.275000X0.200000X-0.275000X-0.200000X0.275000X-0.200000X0.275000X0.200000X0*%
%ADD50RoundRect,0.150000X0.150000X-0.662500X0.150000X0.662500X-0.150000X0.662500X-0.150000X-0.662500X0*%
%ADD51C,1.300000*%
%ADD52RoundRect,0.250000X-0.600000X0.850000X-0.600000X-0.850000X0.600000X-0.850000X0.600000X0.850000X0*%
%ADD53O,1.700000X2.200000*%
%ADD54RoundRect,0.200000X0.275000X-0.200000X0.275000X0.200000X-0.275000X0.200000X-0.275000X-0.200000X0*%
%ADD55RoundRect,0.250000X0.325000X0.650000X-0.325000X0.650000X-0.325000X-0.650000X0.325000X-0.650000X0*%
%ADD56R,0.450000X1.750000*%
%ADD57RoundRect,0.250000X0.250000X0.475000X-0.250000X0.475000X-0.250000X-0.475000X0.250000X-0.475000X0*%
%ADD58RoundRect,0.225000X0.250000X-0.225000X0.250000X0.225000X-0.250000X0.225000X-0.250000X-0.225000X0*%
%ADD59RoundRect,0.250000X0.375000X1.075000X-0.375000X1.075000X-0.375000X-1.075000X0.375000X-1.075000X0*%
%ADD60RoundRect,0.225000X-0.450000X-0.225000X0.450000X-0.225000X0.450000X0.225000X-0.450000X0.225000X0*%
%ADD61RoundRect,0.075000X0.075000X-0.875000X0.075000X0.875000X-0.075000X0.875000X-0.075000X-0.875000X0*%
%ADD62RoundRect,0.250000X0.600000X-0.850000X0.600000X0.850000X-0.600000X0.850000X-0.600000X-0.850000X0*%
%ADD63RoundRect,0.250000X-0.475000X0.250000X-0.475000X-0.250000X0.475000X-0.250000X0.475000X0.250000X0*%
%ADD64RoundRect,0.225000X-0.225000X-0.250000X0.225000X-0.250000X0.225000X0.250000X-0.225000X0.250000X0*%
%ADD65RoundRect,0.250000X-1.100000X0.325000X-1.100000X-0.325000X1.100000X-0.325000X1.100000X0.325000X0*%
%ADD66RoundRect,0.250001X-0.759999X0.499999X-0.759999X-0.499999X0.759999X-0.499999X0.759999X0.499999X0*%
%ADD67RoundRect,0.075000X-0.075000X0.875000X-0.075000X-0.875000X0.075000X-0.875000X0.075000X0.875000X0*%
%ADD68R,1.700000X1.700000*%
%ADD69O,1.700000X1.700000*%
%ADD70R,2.790000X0.740000*%
%ADD71RoundRect,0.250000X-0.262500X-0.450000X0.262500X-0.450000X0.262500X0.450000X-0.262500X0.450000X0*%
%ADD72RoundRect,0.218750X-0.256250X0.218750X-0.256250X-0.218750X0.256250X-0.218750X0.256250X0.218750X0*%
%ADD73RoundRect,0.250000X1.100000X-0.325000X1.100000X0.325000X-1.100000X0.325000X-1.100000X-0.325000X0*%
%ADD74RoundRect,0.160000X-0.160000X-0.475000X0.160000X-0.475000X0.160000X0.475000X-0.160000X0.475000X0*%
G04 APERTURE END LIST*
D10*
X166900000Y-86700000D02*
X166900000Y-85800000D01*
X167700000Y-89100000D02*
X166100000Y-88700000D01*
D11*
X108237500Y-103300000D02*
G75*
G03*
X108237500Y-103300000I-137500J0D01*
G01*
X167037500Y-91200000D02*
G75*
G03*
X167037500Y-91200000I-137500J0D01*
G01*
D10*
X108100000Y-102400000D02*
X108100000Y-103300000D01*
X108100000Y-97900000D02*
X108100000Y-98800000D01*
X166100000Y-87100000D02*
X166900000Y-86700000D01*
X108900000Y-100400000D02*
X107300000Y-100800000D01*
X166100000Y-89500000D02*
X167700000Y-89100000D01*
X108900000Y-99600000D02*
X107300000Y-100000000D01*
X166100000Y-87900000D02*
X167700000Y-87500000D01*
X107300000Y-100800000D02*
X108900000Y-101200000D01*
X107300000Y-99200000D02*
X108900000Y-99600000D01*
X166900000Y-91200000D02*
X166900000Y-90300000D01*
X166900000Y-90300000D02*
X167700000Y-89900000D01*
X167700000Y-87500000D02*
X166100000Y-87100000D01*
X107300000Y-101600000D02*
X108900000Y-102000000D01*
X108900000Y-101200000D02*
X107300000Y-101600000D01*
X108100000Y-98800000D02*
X107300000Y-99200000D01*
X167700000Y-88300000D02*
X166100000Y-87900000D01*
X108900000Y-102000000D02*
X108100000Y-102400000D01*
X107300000Y-100000000D02*
X108900000Y-100400000D01*
D11*
X167037500Y-85800000D02*
G75*
G03*
X167037500Y-85800000I-137500J0D01*
G01*
X108237500Y-97900000D02*
G75*
G03*
X108237500Y-97900000I-137500J0D01*
G01*
D10*
X167700000Y-89900000D02*
X166100000Y-89500000D01*
X166100000Y-88700000D02*
X167700000Y-88300000D01*
D12*
%TO.C,U8*%
X138590000Y-113334800D03*
X138590000Y-110794800D03*
X138590000Y-108254800D03*
X130210000Y-108254800D03*
X130210000Y-110794800D03*
X130210000Y-113334800D03*
%TD*%
D13*
%TO.C,R35*%
X167449000Y-77089000D03*
X165799000Y-77089000D03*
%TD*%
D14*
%TO.C,R34*%
X109486200Y-112090200D03*
X107836200Y-112090200D03*
%TD*%
D15*
%TO.C,D3*%
X167411500Y-78740000D03*
X165836500Y-78740000D03*
%TD*%
D16*
%TO.C,D2*%
X109448700Y-110312200D03*
X107873700Y-110312200D03*
%TD*%
D17*
%TO.C,U1*%
X133322000Y-117279700D03*
X132822000Y-117279700D03*
X132322000Y-117279700D03*
X131822000Y-117279700D03*
X131322000Y-117279700D03*
X130822000Y-117279700D03*
X130322000Y-117279700D03*
X129822000Y-117279700D03*
D18*
X129134500Y-117967200D03*
X129134500Y-118467200D03*
X129134500Y-118967200D03*
X129134500Y-119467200D03*
X129134500Y-119967200D03*
X129134500Y-120467200D03*
X129134500Y-120967200D03*
X129134500Y-121467200D03*
D17*
X129822000Y-122154700D03*
X130322000Y-122154700D03*
X130822000Y-122154700D03*
X131322000Y-122154700D03*
X131822000Y-122154700D03*
X132322000Y-122154700D03*
X132822000Y-122154700D03*
X133322000Y-122154700D03*
D18*
X134009500Y-121467200D03*
X134009500Y-120967200D03*
X134009500Y-120467200D03*
X134009500Y-119967200D03*
X134009500Y-119467200D03*
X134009500Y-118967200D03*
X134009500Y-118467200D03*
X134009500Y-117967200D03*
D19*
X131572000Y-119717200D03*
%TD*%
D20*
%TO.C,R3*%
X110439200Y-91848300D03*
X110439200Y-93673300D03*
%TD*%
D21*
%TO.C,JP3*%
X120335300Y-120620000D03*
D22*
X120335300Y-121920000D03*
D23*
X120335300Y-123220000D03*
%TD*%
D24*
%TO.C,RN8*%
X102000000Y-87500000D03*
D25*
X101200000Y-87500000D03*
X100400000Y-87500000D03*
D24*
X99600000Y-87500000D03*
X99600000Y-89300000D03*
D25*
X100400000Y-89300000D03*
X101200000Y-89300000D03*
D24*
X102000000Y-89300000D03*
%TD*%
D26*
%TO.C,F21*%
X172968000Y-119634000D03*
X175768000Y-119634000D03*
%TD*%
D27*
%TO.C,R16*%
X164592000Y-97229300D03*
X164592000Y-95404300D03*
%TD*%
D28*
%TO.C,Fa10*%
X96954800Y-67564000D03*
X94154800Y-67564000D03*
%TD*%
D21*
%TO.C,JP5*%
X109768900Y-120620000D03*
D22*
X109768900Y-121920000D03*
D23*
X109768900Y-123220000D03*
%TD*%
D28*
%TO.C,Fa8*%
X96954800Y-70154800D03*
X94154800Y-70154800D03*
%TD*%
%TO.C,Fa3*%
X101984000Y-77266800D03*
X99184000Y-77266800D03*
%TD*%
D29*
%TO.C,C25*%
X104275000Y-113800000D03*
X102725000Y-113800000D03*
%TD*%
D30*
%TO.C,H5*%
X168630600Y-97500000D03*
%TD*%
D20*
%TO.C,R4*%
X125800000Y-97687500D03*
X125800000Y-99512500D03*
%TD*%
D24*
%TO.C,CN3*%
X112100000Y-97000000D03*
D25*
X112900000Y-97000000D03*
X113700000Y-97000000D03*
D24*
X114500000Y-97000000D03*
X114500000Y-95200000D03*
D25*
X113700000Y-95200000D03*
X112900000Y-95200000D03*
D24*
X112100000Y-95200000D03*
%TD*%
D26*
%TO.C,F22*%
X172996400Y-116992400D03*
X175796400Y-116992400D03*
%TD*%
D31*
%TO.C,C40*%
X175100000Y-65750000D03*
X175100000Y-63850000D03*
%TD*%
D24*
%TO.C,RN15*%
X159100000Y-95300000D03*
D25*
X158300000Y-95300000D03*
X157500000Y-95300000D03*
D24*
X156700000Y-95300000D03*
X156700000Y-97100000D03*
D25*
X157500000Y-97100000D03*
X158300000Y-97100000D03*
D24*
X159100000Y-97100000D03*
%TD*%
D32*
%TO.C,J10*%
X193280000Y-82600000D03*
X193280000Y-65100000D03*
D33*
X183600000Y-65100000D03*
D32*
X183600000Y-67600000D03*
X183600000Y-70100000D03*
X183600000Y-72600000D03*
X183600000Y-75100000D03*
X183600000Y-77600000D03*
X183600000Y-80100000D03*
X183600000Y-82600000D03*
X186100000Y-65100000D03*
X186100000Y-67600000D03*
X186100000Y-70100000D03*
X186100000Y-72600000D03*
X186100000Y-75100000D03*
X186100000Y-77600000D03*
X186100000Y-80100000D03*
X186100000Y-82600000D03*
%TD*%
D27*
%TO.C,R17*%
X149200000Y-91412500D03*
X149200000Y-89587500D03*
%TD*%
D34*
%TO.C,J2*%
X131140000Y-72200000D03*
X131140000Y-63200000D03*
D35*
X133100000Y-69200000D03*
D36*
X133100000Y-66200000D03*
%TD*%
D37*
%TO.C,C15*%
X103600000Y-97525000D03*
X103600000Y-99075000D03*
%TD*%
D24*
%TO.C,RN6*%
X112100000Y-93800000D03*
D25*
X112900000Y-93800000D03*
X113700000Y-93800000D03*
D24*
X114500000Y-93800000D03*
X114500000Y-92000000D03*
D25*
X113700000Y-92000000D03*
X112900000Y-92000000D03*
D24*
X112100000Y-92000000D03*
%TD*%
D38*
%TO.C,C21*%
X100975000Y-113538000D03*
X98025000Y-113538000D03*
%TD*%
D27*
%TO.C,R14*%
X96400000Y-118812500D03*
X96400000Y-116987500D03*
%TD*%
D21*
%TO.C,JP6*%
X112410500Y-120620000D03*
D22*
X112410500Y-121920000D03*
D23*
X112410500Y-123220000D03*
%TD*%
D39*
%TO.C,C1*%
X131900400Y-87401400D03*
X134850400Y-87401400D03*
%TD*%
D32*
%TO.C,J6*%
X81720000Y-124000000D03*
X81720000Y-106500000D03*
D40*
X91400000Y-124000000D03*
D32*
X91400000Y-121500000D03*
X91400000Y-119000000D03*
X91400000Y-116500000D03*
X91400000Y-114000000D03*
X91400000Y-111500000D03*
X91400000Y-109000000D03*
X91400000Y-106500000D03*
X88900000Y-124000000D03*
X88900000Y-121500000D03*
X88900000Y-119000000D03*
X88900000Y-116500000D03*
X88900000Y-114000000D03*
X88900000Y-111500000D03*
X88900000Y-109000000D03*
X88900000Y-106500000D03*
%TD*%
D41*
%TO.C,U11*%
X175305000Y-67762500D03*
X174035000Y-67762500D03*
X172765000Y-67762500D03*
X171495000Y-67762500D03*
X171495000Y-73037500D03*
X172765000Y-73037500D03*
X174035000Y-73037500D03*
X175305000Y-73037500D03*
D42*
X173400000Y-70400000D03*
%TD*%
D24*
%TO.C,CN9*%
X159100000Y-92100000D03*
D25*
X158300000Y-92100000D03*
X157500000Y-92100000D03*
D24*
X156700000Y-92100000D03*
X156700000Y-93900000D03*
D25*
X157500000Y-93900000D03*
X158300000Y-93900000D03*
D24*
X159100000Y-93900000D03*
%TD*%
D43*
%TO.C,L2*%
X102900000Y-111200000D03*
X105700000Y-111200000D03*
%TD*%
D12*
%TO.C,U13*%
X136410000Y-78960000D03*
X136410000Y-81500000D03*
X136410000Y-84040000D03*
X144790000Y-84040000D03*
X144790000Y-81500000D03*
X144790000Y-78960000D03*
%TD*%
D44*
%TO.C,U2*%
X127429500Y-123428800D03*
X127429500Y-121528800D03*
X125554500Y-122478800D03*
%TD*%
D32*
%TO.C,J5*%
X81720000Y-65000000D03*
X81720000Y-80000000D03*
D40*
X91400000Y-80000000D03*
D32*
X91400000Y-77500000D03*
X91400000Y-75000000D03*
X91400000Y-72500000D03*
X91400000Y-70000000D03*
X91400000Y-67500000D03*
X91400000Y-65000000D03*
X88900000Y-80000000D03*
X88900000Y-77500000D03*
X88900000Y-75000000D03*
X88900000Y-72500000D03*
X88900000Y-70000000D03*
X88900000Y-67500000D03*
X88900000Y-65000000D03*
%TD*%
D38*
%TO.C,C19*%
X98025000Y-111125000D03*
X100975000Y-111125000D03*
%TD*%
D28*
%TO.C,Fa2*%
X96954800Y-77927200D03*
X94154800Y-77927200D03*
%TD*%
%TO.C,Fa13*%
X102034800Y-63703200D03*
X99234800Y-63703200D03*
%TD*%
%TO.C,Fa7*%
X101984000Y-72085200D03*
X99184000Y-72085200D03*
%TD*%
D45*
%TO.C,JP12*%
X160283900Y-68500000D03*
D22*
X160283900Y-67200000D03*
D46*
X160283900Y-65900000D03*
%TD*%
D28*
%TO.C,Fa11*%
X102034800Y-66802000D03*
X99234800Y-66802000D03*
%TD*%
D24*
%TO.C,RN18*%
X176800000Y-101600000D03*
D25*
X177600000Y-101600000D03*
X178400000Y-101600000D03*
D24*
X179200000Y-101600000D03*
X179200000Y-99800000D03*
D25*
X178400000Y-99800000D03*
X177600000Y-99800000D03*
D24*
X176800000Y-99800000D03*
%TD*%
D47*
%TO.C,C49*%
X167150000Y-73000000D03*
X169050000Y-73000000D03*
%TD*%
D48*
%TO.C,FB1*%
X102106100Y-84836000D03*
X100281100Y-84836000D03*
%TD*%
D32*
%TO.C,J9*%
X193280000Y-109100000D03*
X193280000Y-124100000D03*
D33*
X183600000Y-109100000D03*
D32*
X183600000Y-111600000D03*
X183600000Y-114100000D03*
X183600000Y-116600000D03*
X183600000Y-119100000D03*
X183600000Y-121600000D03*
X183600000Y-124100000D03*
X186100000Y-109100000D03*
X186100000Y-111600000D03*
X186100000Y-114100000D03*
X186100000Y-116600000D03*
X186100000Y-119100000D03*
X186100000Y-121600000D03*
X186100000Y-124100000D03*
%TD*%
D34*
%TO.C,J1*%
X131136000Y-75915000D03*
X131136000Y-84915000D03*
D35*
X133096000Y-81915000D03*
D36*
X133096000Y-78915000D03*
%TD*%
D49*
%TO.C,R21*%
X173300000Y-63975000D03*
X173300000Y-65625000D03*
%TD*%
D50*
%TO.C,U7*%
X99695000Y-121337500D03*
X100965000Y-121337500D03*
X102235000Y-121337500D03*
X103505000Y-121337500D03*
X103505000Y-116062500D03*
X102235000Y-116062500D03*
X100965000Y-116062500D03*
X99695000Y-116062500D03*
D42*
X101600000Y-118700000D03*
%TD*%
D51*
%TO.C,J8*%
X119500000Y-114090000D03*
D52*
X125750000Y-115430000D03*
D53*
X123250000Y-115430000D03*
X120750000Y-115430000D03*
X118250000Y-115430000D03*
X115750000Y-115430000D03*
X113250000Y-115430000D03*
%TD*%
D30*
%TO.C,H2*%
X106400600Y-91600000D03*
%TD*%
D54*
%TO.C,R8*%
X101700000Y-125335800D03*
X101700000Y-123685800D03*
%TD*%
D24*
%TO.C,CN2*%
X115900000Y-97000000D03*
D25*
X116700000Y-97000000D03*
X117500000Y-97000000D03*
D24*
X118300000Y-97000000D03*
X118300000Y-95200000D03*
D25*
X117500000Y-95200000D03*
X116700000Y-95200000D03*
D24*
X115900000Y-95200000D03*
%TD*%
D55*
%TO.C,C41*%
X176975000Y-75500000D03*
X174025000Y-75500000D03*
%TD*%
D26*
%TO.C,F16*%
X178025600Y-116332000D03*
X180825600Y-116332000D03*
%TD*%
D56*
%TO.C,U10*%
X173125000Y-96900000D03*
X173775000Y-96900000D03*
X174425000Y-96900000D03*
X175075000Y-96900000D03*
X175725000Y-96900000D03*
X176375000Y-96900000D03*
X177025000Y-96900000D03*
X177675000Y-96900000D03*
X178325000Y-96900000D03*
X178975000Y-96900000D03*
X179625000Y-96900000D03*
X180275000Y-96900000D03*
X180275000Y-89700000D03*
X179625000Y-89700000D03*
X178975000Y-89700000D03*
X178325000Y-89700000D03*
X177675000Y-89700000D03*
X177025000Y-89700000D03*
X176375000Y-89700000D03*
X175725000Y-89700000D03*
X175075000Y-89700000D03*
X174425000Y-89700000D03*
X173775000Y-89700000D03*
X173125000Y-89700000D03*
%TD*%
D24*
%TO.C,CN1*%
X119700000Y-97000000D03*
D25*
X120500000Y-97000000D03*
X121300000Y-97000000D03*
D24*
X122100000Y-97000000D03*
X122100000Y-95200000D03*
D25*
X121300000Y-95200000D03*
X120500000Y-95200000D03*
D24*
X119700000Y-95200000D03*
%TD*%
D57*
%TO.C,C29*%
X107850000Y-116100000D03*
X105950000Y-116100000D03*
%TD*%
D49*
%TO.C,R26*%
X171700000Y-63975000D03*
X171700000Y-65625000D03*
%TD*%
D58*
%TO.C,C46*%
X170100000Y-65575000D03*
X170100000Y-64025000D03*
%TD*%
D56*
%TO.C,U6*%
X101875000Y-92200000D03*
X101225000Y-92200000D03*
X100575000Y-92200000D03*
X99925000Y-92200000D03*
X99275000Y-92200000D03*
X98625000Y-92200000D03*
X97975000Y-92200000D03*
X97325000Y-92200000D03*
X96675000Y-92200000D03*
X96025000Y-92200000D03*
X95375000Y-92200000D03*
X94725000Y-92200000D03*
X94725000Y-99400000D03*
X95375000Y-99400000D03*
X96025000Y-99400000D03*
X96675000Y-99400000D03*
X97325000Y-99400000D03*
X97975000Y-99400000D03*
X98625000Y-99400000D03*
X99275000Y-99400000D03*
X99925000Y-99400000D03*
X100575000Y-99400000D03*
X101225000Y-99400000D03*
X101875000Y-99400000D03*
%TD*%
D24*
%TO.C,CN14*%
X162900000Y-92100000D03*
D25*
X162100000Y-92100000D03*
X161300000Y-92100000D03*
D24*
X160500000Y-92100000D03*
X160500000Y-93900000D03*
D25*
X161300000Y-93900000D03*
X162100000Y-93900000D03*
D24*
X162900000Y-93900000D03*
%TD*%
%TO.C,RN9*%
X99600000Y-104100000D03*
D25*
X100400000Y-104100000D03*
X101200000Y-104100000D03*
D24*
X102000000Y-104100000D03*
X102000000Y-102300000D03*
D25*
X101200000Y-102300000D03*
X100400000Y-102300000D03*
D24*
X99600000Y-102300000D03*
%TD*%
D59*
%TO.C,L3*%
X172100000Y-77900000D03*
X169300000Y-77900000D03*
%TD*%
D60*
%TO.C,FL1*%
X136925000Y-88250000D03*
X136925000Y-90750000D03*
X141475000Y-90750000D03*
X141475000Y-88250000D03*
%TD*%
D24*
%TO.C,CN8*%
X155300000Y-92100000D03*
D25*
X154500000Y-92100000D03*
X153700000Y-92100000D03*
D24*
X152900000Y-92100000D03*
X152900000Y-93900000D03*
D25*
X153700000Y-93900000D03*
X154500000Y-93900000D03*
D24*
X155300000Y-93900000D03*
%TD*%
D26*
%TO.C,F13*%
X178025600Y-124104400D03*
X180825600Y-124104400D03*
%TD*%
D61*
%TO.C,U9*%
X151550000Y-89600000D03*
X152050000Y-89600000D03*
X152550000Y-89600000D03*
X153050000Y-89600000D03*
X153550000Y-89600000D03*
X154050000Y-89600000D03*
X154550000Y-89600000D03*
X155050000Y-89600000D03*
X155550000Y-89600000D03*
X156050000Y-89600000D03*
X156550000Y-89600000D03*
X157050000Y-89600000D03*
X157550000Y-89600000D03*
X158050000Y-89600000D03*
X158550000Y-89600000D03*
X159050000Y-89600000D03*
X159550000Y-89600000D03*
X160050000Y-89600000D03*
X160550000Y-89600000D03*
X161050000Y-89600000D03*
X161550000Y-89600000D03*
X162050000Y-89600000D03*
X162550000Y-89600000D03*
X163050000Y-89600000D03*
X163050000Y-82600000D03*
X162550000Y-82600000D03*
X162050000Y-82600000D03*
X161550000Y-82600000D03*
X161050000Y-82600000D03*
X160550000Y-82600000D03*
X160050000Y-82600000D03*
X159550000Y-82600000D03*
X159050000Y-82600000D03*
X158550000Y-82600000D03*
X158050000Y-82600000D03*
X157550000Y-82600000D03*
X157050000Y-82600000D03*
X156550000Y-82600000D03*
X156050000Y-82600000D03*
X155550000Y-82600000D03*
X155050000Y-82600000D03*
X154550000Y-82600000D03*
X154050000Y-82600000D03*
X153550000Y-82600000D03*
X153050000Y-82600000D03*
X152550000Y-82600000D03*
X152050000Y-82600000D03*
X151550000Y-82600000D03*
%TD*%
D54*
%TO.C,R13*%
X103276400Y-125335800D03*
X103276400Y-123685800D03*
%TD*%
D55*
%TO.C,C39*%
X176975000Y-77900000D03*
X174025000Y-77900000D03*
%TD*%
D51*
%TO.C,J12*%
X155500000Y-75010000D03*
D62*
X149250000Y-73670000D03*
D53*
X151750000Y-73670000D03*
X154250000Y-73670000D03*
X156750000Y-73670000D03*
X159250000Y-73670000D03*
X161750000Y-73670000D03*
%TD*%
D28*
%TO.C,Fa4*%
X96954800Y-75336400D03*
X94154800Y-75336400D03*
%TD*%
%TO.C,Fa6*%
X96954800Y-72745600D03*
X94154800Y-72745600D03*
%TD*%
D12*
%TO.C,U14*%
X136410000Y-65160000D03*
X136410000Y-67700000D03*
X136410000Y-70240000D03*
X144790000Y-70240000D03*
X144790000Y-67700000D03*
X144790000Y-65160000D03*
%TD*%
D26*
%TO.C,F18*%
X178025600Y-111150400D03*
X180825600Y-111150400D03*
%TD*%
D28*
%TO.C,Fa14*%
X101984000Y-82550000D03*
X99184000Y-82550000D03*
%TD*%
D63*
%TO.C,C20*%
X99900000Y-123350000D03*
X99900000Y-125250000D03*
%TD*%
D30*
%TO.C,H6*%
X179200000Y-65100000D03*
%TD*%
%TO.C,H4*%
X140500000Y-74600000D03*
%TD*%
D24*
%TO.C,RN20*%
X175400000Y-85000000D03*
D25*
X174600000Y-85000000D03*
X173800000Y-85000000D03*
D24*
X173000000Y-85000000D03*
X173000000Y-86800000D03*
D25*
X173800000Y-86800000D03*
X174600000Y-86800000D03*
D24*
X175400000Y-86800000D03*
%TD*%
%TO.C,RN19*%
X173000000Y-101600000D03*
D25*
X173800000Y-101600000D03*
X174600000Y-101600000D03*
D24*
X175400000Y-101600000D03*
X175400000Y-99800000D03*
D25*
X174600000Y-99800000D03*
X173800000Y-99800000D03*
D24*
X173000000Y-99800000D03*
%TD*%
%TO.C,RN21*%
X179200000Y-85000000D03*
D25*
X178400000Y-85000000D03*
X177600000Y-85000000D03*
D24*
X176800000Y-85000000D03*
X176800000Y-86800000D03*
D25*
X177600000Y-86800000D03*
X178400000Y-86800000D03*
D24*
X179200000Y-86800000D03*
%TD*%
D45*
%TO.C,JP10*%
X149700000Y-68500000D03*
D22*
X149700000Y-67200000D03*
D46*
X149700000Y-65900000D03*
%TD*%
D26*
%TO.C,F25*%
X172996400Y-109169200D03*
X175796400Y-109169200D03*
%TD*%
D24*
%TO.C,RN7*%
X98200000Y-87500000D03*
D25*
X97400000Y-87500000D03*
X96600000Y-87500000D03*
D24*
X95800000Y-87500000D03*
X95800000Y-89300000D03*
D25*
X96600000Y-89300000D03*
X97400000Y-89300000D03*
D24*
X98200000Y-89300000D03*
%TD*%
D64*
%TO.C,C45*%
X170725000Y-75300000D03*
X172275000Y-75300000D03*
%TD*%
D26*
%TO.C,F24*%
X172996400Y-111810800D03*
X175796400Y-111810800D03*
%TD*%
D28*
%TO.C,Fa5*%
X101984000Y-74676000D03*
X99184000Y-74676000D03*
%TD*%
D65*
%TO.C,C11*%
X126034800Y-101496600D03*
X126034800Y-104446600D03*
%TD*%
D32*
%TO.C,J11*%
X193280000Y-87100000D03*
X193280000Y-104600000D03*
D33*
X183600000Y-87100000D03*
D32*
X183600000Y-89600000D03*
X183600000Y-92100000D03*
X183600000Y-94600000D03*
X183600000Y-97100000D03*
X183600000Y-99600000D03*
X183600000Y-102100000D03*
X183600000Y-104600000D03*
X186100000Y-87100000D03*
X186100000Y-89600000D03*
X186100000Y-92100000D03*
X186100000Y-94600000D03*
X186100000Y-97100000D03*
X186100000Y-99600000D03*
X186100000Y-102100000D03*
X186100000Y-104600000D03*
%TD*%
D24*
%TO.C,RN14*%
X155300000Y-95300000D03*
D25*
X154500000Y-95300000D03*
X153700000Y-95300000D03*
D24*
X152900000Y-95300000D03*
X152900000Y-97100000D03*
D25*
X153700000Y-97100000D03*
X154500000Y-97100000D03*
D24*
X155300000Y-97100000D03*
%TD*%
D45*
%TO.C,JP11*%
X162925500Y-68500000D03*
D22*
X162925500Y-67200000D03*
D46*
X162925500Y-65900000D03*
%TD*%
D34*
%TO.C,J4*%
X143860000Y-92400000D03*
X143860000Y-101400000D03*
D66*
X141900000Y-95400000D03*
D36*
X141900000Y-98400000D03*
%TD*%
D47*
%TO.C,C47*%
X167150000Y-75100000D03*
X169050000Y-75100000D03*
%TD*%
D67*
%TO.C,U5*%
X123450000Y-99500000D03*
X122950000Y-99500000D03*
X122450000Y-99500000D03*
X121950000Y-99500000D03*
X121450000Y-99500000D03*
X120950000Y-99500000D03*
X120450000Y-99500000D03*
X119950000Y-99500000D03*
X119450000Y-99500000D03*
X118950000Y-99500000D03*
X118450000Y-99500000D03*
X117950000Y-99500000D03*
X117450000Y-99500000D03*
X116950000Y-99500000D03*
X116450000Y-99500000D03*
X115950000Y-99500000D03*
X115450000Y-99500000D03*
X114950000Y-99500000D03*
X114450000Y-99500000D03*
X113950000Y-99500000D03*
X113450000Y-99500000D03*
X112950000Y-99500000D03*
X112450000Y-99500000D03*
X111950000Y-99500000D03*
X111950000Y-106500000D03*
X112450000Y-106500000D03*
X112950000Y-106500000D03*
X113450000Y-106500000D03*
X113950000Y-106500000D03*
X114450000Y-106500000D03*
X114950000Y-106500000D03*
X115450000Y-106500000D03*
X115950000Y-106500000D03*
X116450000Y-106500000D03*
X116950000Y-106500000D03*
X117450000Y-106500000D03*
X117950000Y-106500000D03*
X118450000Y-106500000D03*
X118950000Y-106500000D03*
X119450000Y-106500000D03*
X119950000Y-106500000D03*
X120450000Y-106500000D03*
X120950000Y-106500000D03*
X121450000Y-106500000D03*
X121950000Y-106500000D03*
X122450000Y-106500000D03*
X122950000Y-106500000D03*
X123450000Y-106500000D03*
%TD*%
D37*
%TO.C,C30*%
X164400000Y-92225000D03*
X164400000Y-93775000D03*
%TD*%
D24*
%TO.C,RN5*%
X115900000Y-93800000D03*
D25*
X116700000Y-93800000D03*
X117500000Y-93800000D03*
D24*
X118300000Y-93800000D03*
X118300000Y-92000000D03*
D25*
X117500000Y-92000000D03*
X116700000Y-92000000D03*
D24*
X115900000Y-92000000D03*
%TD*%
D68*
%TO.C,J14*%
X100081000Y-107746800D03*
D69*
X97541000Y-107746800D03*
%TD*%
D58*
%TO.C,C35*%
X171400000Y-91575000D03*
X171400000Y-90025000D03*
%TD*%
D39*
%TO.C,C2*%
X131900400Y-91516200D03*
X134850400Y-91516200D03*
%TD*%
D37*
%TO.C,C26*%
X104900000Y-123735800D03*
X104900000Y-125285800D03*
%TD*%
D28*
%TO.C,Fa9*%
X102012400Y-69443600D03*
X99212400Y-69443600D03*
%TD*%
D49*
%TO.C,R15*%
X106500000Y-123475000D03*
X106500000Y-125125000D03*
%TD*%
D12*
%TO.C,U12*%
X138590000Y-99592000D03*
X138590000Y-97052000D03*
X138590000Y-94512000D03*
X130210000Y-94512000D03*
X130210000Y-97052000D03*
X130210000Y-99592000D03*
%TD*%
D21*
%TO.C,JP1*%
X115052100Y-120620000D03*
D22*
X115052100Y-121920000D03*
D23*
X115052100Y-123220000D03*
%TD*%
D26*
%TO.C,F19*%
X178025600Y-108508800D03*
X180825600Y-108508800D03*
%TD*%
%TO.C,Fb14*%
X172996400Y-106527600D03*
X175796400Y-106527600D03*
%TD*%
D45*
%TO.C,JP7*%
X157642300Y-68500000D03*
D22*
X157642300Y-67200000D03*
D46*
X157642300Y-65900000D03*
%TD*%
D26*
%TO.C,F23*%
X172996400Y-114401600D03*
X175796400Y-114401600D03*
%TD*%
D30*
%TO.C,H3*%
X95800000Y-124000000D03*
%TD*%
D24*
%TO.C,RN16*%
X162900000Y-95300000D03*
D25*
X162100000Y-95300000D03*
X161300000Y-95300000D03*
D24*
X160500000Y-95300000D03*
X160500000Y-97100000D03*
D25*
X161300000Y-97100000D03*
X162100000Y-97100000D03*
D24*
X162900000Y-97100000D03*
%TD*%
D30*
%TO.C,H1*%
X134493000Y-103936800D03*
%TD*%
D21*
%TO.C,JP4*%
X122986800Y-120600000D03*
D22*
X122986800Y-121900000D03*
D23*
X122986800Y-123200000D03*
%TD*%
D26*
%TO.C,F20*%
X172973650Y-122275600D03*
X175773650Y-122275600D03*
%TD*%
D70*
%TO.C,J15*%
X143208200Y-124409200D03*
X139138200Y-124409200D03*
X143208200Y-123139200D03*
X139138200Y-123139200D03*
X143208200Y-121869200D03*
X139138200Y-121869200D03*
X143208200Y-120599200D03*
X139138200Y-120599200D03*
X143208200Y-119329200D03*
X139138200Y-119329200D03*
X143208200Y-118059200D03*
X139138200Y-118059200D03*
X143208200Y-116789200D03*
X139138200Y-116789200D03*
%TD*%
D26*
%TO.C,F15*%
X178029250Y-118922800D03*
X180829250Y-118922800D03*
%TD*%
D34*
%TO.C,J3*%
X143860000Y-105102400D03*
X143860000Y-114102400D03*
D66*
X141900000Y-108102400D03*
D36*
X141900000Y-111102400D03*
%TD*%
D45*
%TO.C,JP8*%
X154990800Y-68483000D03*
D22*
X154990800Y-67183000D03*
D46*
X154990800Y-65883000D03*
%TD*%
D28*
%TO.C,Fa12*%
X96954800Y-64973200D03*
X94154800Y-64973200D03*
%TD*%
D24*
%TO.C,RN10*%
X95800000Y-104100000D03*
D25*
X96600000Y-104100000D03*
X97400000Y-104100000D03*
D24*
X98200000Y-104100000D03*
X98200000Y-102300000D03*
D25*
X97400000Y-102300000D03*
X96600000Y-102300000D03*
D24*
X95800000Y-102300000D03*
%TD*%
D57*
%TO.C,C27*%
X107850000Y-114000000D03*
X105950000Y-114000000D03*
%TD*%
D26*
%TO.C,F17*%
X178025600Y-113741200D03*
X180825600Y-113741200D03*
%TD*%
D28*
%TO.C,Fa1*%
X101984000Y-79908400D03*
X99184000Y-79908400D03*
%TD*%
D20*
%TO.C,R27*%
X178600000Y-70287500D03*
X178600000Y-72112500D03*
%TD*%
D58*
%TO.C,C10*%
X110600000Y-96875000D03*
X110600000Y-95325000D03*
%TD*%
D54*
%TO.C,R28*%
X168500000Y-65625000D03*
X168500000Y-63975000D03*
%TD*%
D71*
%TO.C,FB2*%
X172874300Y-104241600D03*
X174699300Y-104241600D03*
%TD*%
D26*
%TO.C,F14*%
X178025600Y-121513600D03*
X180825600Y-121513600D03*
%TD*%
D32*
%TO.C,J7*%
X81720000Y-102000000D03*
X81720000Y-84500000D03*
D40*
X91400000Y-102000000D03*
D32*
X91400000Y-99500000D03*
X91400000Y-97000000D03*
X91400000Y-94500000D03*
X91400000Y-92000000D03*
X91400000Y-89500000D03*
X91400000Y-87000000D03*
X91400000Y-84500000D03*
X88900000Y-102000000D03*
X88900000Y-99500000D03*
X88900000Y-97000000D03*
X88900000Y-94500000D03*
X88900000Y-92000000D03*
X88900000Y-89500000D03*
X88900000Y-87000000D03*
X88900000Y-84500000D03*
%TD*%
D45*
%TO.C,JP9*%
X152349200Y-68500000D03*
D22*
X152349200Y-67200000D03*
D46*
X152349200Y-65900000D03*
%TD*%
D21*
%TO.C,JP2*%
X117693700Y-120620000D03*
D22*
X117693700Y-121920000D03*
D23*
X117693700Y-123220000D03*
%TD*%
D72*
%TO.C,D1*%
X135763000Y-118186100D03*
X135763000Y-119761100D03*
%TD*%
D28*
%TO.C,Fa0*%
X96954800Y-80568800D03*
X94154800Y-80568800D03*
%TD*%
D73*
%TO.C,C31*%
X149200000Y-87575000D03*
X149200000Y-84625000D03*
%TD*%
D74*
%TO.C,U4*%
X130398400Y-124600000D03*
X131348400Y-124600000D03*
X132298400Y-124600000D03*
X133248400Y-124600000D03*
X134198400Y-124600000D03*
X135148400Y-124600000D03*
X136098400Y-124600000D03*
%TD*%
D24*
%TO.C,RN4*%
X119700000Y-93800000D03*
D25*
X120500000Y-93800000D03*
X121300000Y-93800000D03*
D24*
X122100000Y-93800000D03*
X122100000Y-92000000D03*
D25*
X121300000Y-92000000D03*
X120500000Y-92000000D03*
D24*
X119700000Y-92000000D03*
%TD*%
D26*
%TO.C,Fb3*%
X172973650Y-125369400D03*
X175773650Y-125369400D03*
%TD*%
M02*
