%TF.GenerationSoftware,KiCad,Pcbnew,(6.0.9)*%
%TF.CreationDate,2023-05-23T15:00:24+02:00*%
%TF.ProjectId,bms_monitor,626d735f-6d6f-46e6-9974-6f722e6b6963,rev?*%
%TF.SameCoordinates,Original*%
%TF.FileFunction,Drillmap*%
%TF.FilePolarity,Positive*%
%FSLAX45Y45*%
G04 Gerber Fmt 4.5, Leading zero omitted, Abs format (unit mm)*
G04 Created by KiCad (PCBNEW (6.0.9)) date 2023-05-23 15:00:24*
%MOMM*%
%LPD*%
G01*
G04 APERTURE LIST*
%ADD10C,0.050000*%
%ADD11C,0.200000*%
%ADD12C,0.127000*%
%ADD13C,0.130000*%
%ADD14C,0.170000*%
%ADD15C,0.320000*%
G04 APERTURE END LIST*
D10*
X8000000Y-8700000D02*
X8000000Y-7750000D01*
X19500000Y-6250000D02*
X19500000Y-6750000D01*
X18950000Y-11200000D02*
G75*
G03*
X18900000Y-11250000I0J-50000D01*
G01*
X14600000Y-10180000D02*
X14600000Y-8945000D01*
X8000000Y-6750000D02*
G75*
G03*
X8050000Y-6800000I50000J0D01*
G01*
X19500000Y-12150000D02*
X19500000Y-12650000D01*
X8600000Y-6850000D02*
X8600000Y-7650000D01*
X8550000Y-9900000D02*
G75*
G03*
X8600000Y-9850000I0J50000D01*
G01*
X14600000Y-10580000D02*
G75*
G03*
X14500000Y-10580000I-50000J0D01*
G01*
X13000000Y-6400000D02*
G75*
G03*
X12900000Y-6400000I-50000J0D01*
G01*
X8600000Y-6850000D02*
G75*
G03*
X8550000Y-6800000I-50000J0D01*
G01*
X19500000Y-12150000D02*
G75*
G03*
X19450000Y-12100000I-50000J0D01*
G01*
X19450000Y-10150000D02*
X18950000Y-10150000D01*
X8600000Y-8800000D02*
G75*
G03*
X8550000Y-8750000I-50000J0D01*
G01*
X8000000Y-12650000D02*
X8000000Y-12150000D01*
X13564000Y-11570000D02*
X14222500Y-11570000D01*
X13000000Y-7660000D02*
X13000000Y-8895000D01*
X14100000Y-8995000D02*
X13620000Y-8995000D01*
X8000000Y-10900000D02*
G75*
G03*
X8050000Y-10950000I50000J0D01*
G01*
X19450000Y-9000000D02*
G75*
G03*
X19500000Y-8950000I0J50000D01*
G01*
X13564000Y-11470000D02*
G75*
G03*
X13564000Y-11570000I0J-50000D01*
G01*
X8000000Y-6750000D02*
X8000000Y-6250000D01*
X18950000Y-6800000D02*
G75*
G03*
X18900000Y-6850000I0J-50000D01*
G01*
X14500000Y-8995000D02*
X14370000Y-8995000D01*
X19450000Y-6800000D02*
G75*
G03*
X19500000Y-6750000I0J50000D01*
G01*
X13000000Y-8895000D02*
X13040000Y-8895000D01*
X8600000Y-11000000D02*
G75*
G03*
X8550000Y-10950000I-50000J0D01*
G01*
X14222500Y-11470000D02*
X13564000Y-11470000D01*
X19450000Y-11200000D02*
G75*
G03*
X19500000Y-11150000I0J50000D01*
G01*
X19500000Y-10200000D02*
G75*
G03*
X19450000Y-10150000I-50000J0D01*
G01*
X13040000Y-8995000D02*
X12950000Y-8995000D01*
X8050000Y-6800000D02*
X8550000Y-6800000D01*
X14600000Y-12500000D02*
X14600000Y-10580000D01*
X19450000Y-12700000D02*
X8050000Y-12700000D01*
X18900000Y-10100000D02*
G75*
G03*
X18950000Y-10150000I50000J0D01*
G01*
X14370000Y-8895000D02*
G75*
G03*
X14370000Y-8995000I0J-50000D01*
G01*
X18950000Y-6800000D02*
X19450000Y-6800000D01*
X19500000Y-10200000D02*
X19500000Y-11150000D01*
X14100000Y-8995000D02*
G75*
G03*
X14100000Y-8895000I0J50000D01*
G01*
X8050000Y-9900000D02*
G75*
G03*
X8000000Y-9950000I0J-50000D01*
G01*
X19450000Y-9000000D02*
X18950000Y-9000000D01*
X13040000Y-8995000D02*
G75*
G03*
X13040000Y-8895000I0J50000D01*
G01*
X8050000Y-8750000D02*
X8550000Y-8750000D01*
X8550000Y-7700000D02*
G75*
G03*
X8600000Y-7650000I0J50000D01*
G01*
X13000000Y-7660000D02*
G75*
G03*
X12900000Y-7660000I-50000J0D01*
G01*
X19500000Y-8000000D02*
G75*
G03*
X19450000Y-7950000I-50000J0D01*
G01*
X14370000Y-8895000D02*
X14550000Y-8895000D01*
X14600000Y-8945000D02*
G75*
G03*
X14550000Y-8895000I-50000J0D01*
G01*
X12900000Y-8945000D02*
G75*
G03*
X12950000Y-8995000I50000J0D01*
G01*
X8000000Y-12650000D02*
G75*
G03*
X8050000Y-12700000I50000J0D01*
G01*
X8050000Y-7700000D02*
G75*
G03*
X8000000Y-7750000I0J-50000D01*
G01*
X14222500Y-11570000D02*
G75*
G03*
X14222500Y-11470000I0J50000D01*
G01*
X14500000Y-8995000D02*
X14500000Y-10180000D01*
X12900000Y-8945000D02*
X12900000Y-7660000D01*
X14500000Y-10180000D02*
G75*
G03*
X14600000Y-10180000I50000J0D01*
G01*
X18900000Y-12050000D02*
G75*
G03*
X18950000Y-12100000I50000J0D01*
G01*
X8000000Y-8700000D02*
G75*
G03*
X8050000Y-8750000I50000J0D01*
G01*
X8550000Y-12100000D02*
G75*
G03*
X8600000Y-12050000I0J50000D01*
G01*
X12900000Y-7260000D02*
X12900000Y-6400000D01*
X13620000Y-8895000D02*
G75*
G03*
X13620000Y-8995000I0J-50000D01*
G01*
X19500000Y-6250000D02*
G75*
G03*
X19450000Y-6200000I-50000J0D01*
G01*
X18900000Y-7900000D02*
X18900000Y-6850000D01*
X14500000Y-12500000D02*
G75*
G03*
X14600000Y-12500000I50000J0D01*
G01*
X12900000Y-7260000D02*
G75*
G03*
X13000000Y-7260000I50000J0D01*
G01*
X19450000Y-12700000D02*
G75*
G03*
X19500000Y-12650000I0J50000D01*
G01*
X8050000Y-9900000D02*
X8550000Y-9900000D01*
X13000000Y-6400000D02*
X13000000Y-7260000D01*
X19450000Y-12100000D02*
X18950000Y-12100000D01*
X18900000Y-7900000D02*
G75*
G03*
X18950000Y-7950000I50000J0D01*
G01*
X13620000Y-8895000D02*
X14100000Y-8895000D01*
X8050000Y-12100000D02*
G75*
G03*
X8000000Y-12150000I0J-50000D01*
G01*
X14500000Y-10580000D02*
X14500000Y-12500000D01*
X18900000Y-10100000D02*
X18900000Y-9050000D01*
X8000000Y-10900000D02*
X8000000Y-9950000D01*
X8050000Y-7700000D02*
X8550000Y-7700000D01*
X8600000Y-8800000D02*
X8600000Y-9850000D01*
X19500000Y-8000000D02*
X19500000Y-8950000D01*
X18900000Y-12050000D02*
X18900000Y-11250000D01*
X19450000Y-11200000D02*
X18950000Y-11200000D01*
X8550000Y-12100000D02*
X8050000Y-12100000D01*
X8050000Y-10950000D02*
X8550000Y-10950000D01*
X8050000Y-6200000D02*
X19450000Y-6200000D01*
X8600000Y-11000000D02*
X8600000Y-12050000D01*
X18950000Y-9000000D02*
G75*
G03*
X18900000Y-9050000I0J-50000D01*
G01*
X19450000Y-7950000D02*
X18950000Y-7950000D01*
X8050000Y-6200000D02*
G75*
G03*
X8000000Y-6250000I0J-50000D01*
G01*
D11*
D12*
X13050100Y-7528000D02*
X13177100Y-7655000D01*
X13177100Y-7528000D02*
X13050100Y-7655000D01*
X13050100Y-8428000D02*
X13177100Y-8555000D01*
X13177100Y-8428000D02*
X13050100Y-8555000D01*
X13050500Y-6256500D02*
X13177500Y-6383500D01*
X13177500Y-6256500D02*
X13050500Y-6383500D01*
X13050500Y-7156500D02*
X13177500Y-7283500D01*
X13177500Y-7156500D02*
X13050500Y-7283500D01*
X14322500Y-9176500D02*
X14449500Y-9303500D01*
X14449500Y-9176500D02*
X14322500Y-9303500D01*
X14322500Y-10076500D02*
X14449500Y-10203500D01*
X14449500Y-10076500D02*
X14322500Y-10203500D01*
X14322500Y-10446740D02*
X14449500Y-10573740D01*
X14449500Y-10446740D02*
X14322500Y-10573740D01*
X14322500Y-11346740D02*
X14449500Y-11473740D01*
X14449500Y-11346740D02*
X14322500Y-11473740D01*
D13*
X12015000Y-11409000D02*
G75*
G03*
X12015000Y-11409000I-65000J0D01*
G01*
X15615000Y-7501000D02*
G75*
G03*
X15615000Y-7501000I-65000J0D01*
G01*
D14*
X8172000Y-6415000D02*
X8172000Y-6585000D01*
X8087000Y-6500000D02*
X8257000Y-6500000D01*
X8172000Y-7915000D02*
X8172000Y-8085000D01*
X8087000Y-8000000D02*
X8257000Y-8000000D01*
X8172000Y-8365000D02*
X8172000Y-8535000D01*
X8087000Y-8450000D02*
X8257000Y-8450000D01*
X8172000Y-10115000D02*
X8172000Y-10285000D01*
X8087000Y-10200000D02*
X8257000Y-10200000D01*
X8172000Y-10565000D02*
X8172000Y-10735000D01*
X8087000Y-10650000D02*
X8257000Y-10650000D01*
X8172000Y-12315000D02*
X8172000Y-12485000D01*
X8087000Y-12400000D02*
X8257000Y-12400000D01*
X19328000Y-6425000D02*
X19328000Y-6595000D01*
X19243000Y-6510000D02*
X19413000Y-6510000D01*
X19328000Y-8175000D02*
X19328000Y-8345000D01*
X19243000Y-8260000D02*
X19413000Y-8260000D01*
X19328000Y-8625000D02*
X19328000Y-8795000D01*
X19243000Y-8710000D02*
X19413000Y-8710000D01*
X19328000Y-10375000D02*
X19328000Y-10545000D01*
X19243000Y-10460000D02*
X19413000Y-10460000D01*
X19328000Y-10825000D02*
X19328000Y-10995000D01*
X19243000Y-10910000D02*
X19413000Y-10910000D01*
X19328000Y-12325000D02*
X19328000Y-12495000D01*
X19243000Y-12410000D02*
X19413000Y-12410000D01*
D15*
X9693138Y-12513138D02*
X9693138Y-12286862D01*
X9466862Y-12286862D01*
X9466862Y-12513138D01*
X9693138Y-12513138D01*
X10753198Y-9273138D02*
X10753198Y-9046862D01*
X10526922Y-9046862D01*
X10526922Y-9273138D01*
X10753198Y-9273138D01*
X13562438Y-10506818D02*
X13562438Y-10280542D01*
X13336162Y-10280542D01*
X13336162Y-10506818D01*
X13562438Y-10506818D01*
X14163138Y-7573138D02*
X14163138Y-7346862D01*
X13936862Y-7346862D01*
X13936862Y-7573138D01*
X14163138Y-7573138D01*
X16976198Y-9863138D02*
X16976198Y-9636862D01*
X16749922Y-9636862D01*
X16749922Y-9863138D01*
X16976198Y-9863138D01*
X18033138Y-6623138D02*
X18033138Y-6396862D01*
X17806862Y-6396862D01*
X17806862Y-6623138D01*
X18033138Y-6623138D01*
D11*
X8255119Y-13012976D02*
X8255119Y-12812976D01*
X8302738Y-12812976D01*
X8331309Y-12822500D01*
X8350357Y-12841548D01*
X8359881Y-12860595D01*
X8369405Y-12898690D01*
X8369405Y-12927262D01*
X8359881Y-12965357D01*
X8350357Y-12984405D01*
X8331309Y-13003452D01*
X8302738Y-13012976D01*
X8255119Y-13012976D01*
X8455119Y-13012976D02*
X8455119Y-12879643D01*
X8455119Y-12917738D02*
X8464643Y-12898690D01*
X8474167Y-12889167D01*
X8493214Y-12879643D01*
X8512262Y-12879643D01*
X8578929Y-13012976D02*
X8578929Y-12879643D01*
X8578929Y-12812976D02*
X8569405Y-12822500D01*
X8578929Y-12832024D01*
X8588452Y-12822500D01*
X8578929Y-12812976D01*
X8578929Y-12832024D01*
X8702738Y-13012976D02*
X8683690Y-13003452D01*
X8674167Y-12984405D01*
X8674167Y-12812976D01*
X8807500Y-13012976D02*
X8788452Y-13003452D01*
X8778929Y-12984405D01*
X8778929Y-12812976D01*
X9036071Y-13012976D02*
X9036071Y-12812976D01*
X9102738Y-12955833D01*
X9169405Y-12812976D01*
X9169405Y-13012976D01*
X9350357Y-13012976D02*
X9350357Y-12908214D01*
X9340833Y-12889167D01*
X9321786Y-12879643D01*
X9283690Y-12879643D01*
X9264643Y-12889167D01*
X9350357Y-13003452D02*
X9331310Y-13012976D01*
X9283690Y-13012976D01*
X9264643Y-13003452D01*
X9255119Y-12984405D01*
X9255119Y-12965357D01*
X9264643Y-12946309D01*
X9283690Y-12936786D01*
X9331310Y-12936786D01*
X9350357Y-12927262D01*
X9445595Y-12879643D02*
X9445595Y-13079643D01*
X9445595Y-12889167D02*
X9464643Y-12879643D01*
X9502738Y-12879643D01*
X9521786Y-12889167D01*
X9531310Y-12898690D01*
X9540833Y-12917738D01*
X9540833Y-12974881D01*
X9531310Y-12993928D01*
X9521786Y-13003452D01*
X9502738Y-13012976D01*
X9464643Y-13012976D01*
X9445595Y-13003452D01*
X9626548Y-12993928D02*
X9636071Y-13003452D01*
X9626548Y-13012976D01*
X9617024Y-13003452D01*
X9626548Y-12993928D01*
X9626548Y-13012976D01*
X9626548Y-12889167D02*
X9636071Y-12898690D01*
X9626548Y-12908214D01*
X9617024Y-12898690D01*
X9626548Y-12889167D01*
X9626548Y-12908214D01*
D12*
X7870500Y-13279000D02*
X7997500Y-13406000D01*
X7997500Y-13279000D02*
X7870500Y-13406000D01*
D11*
X8359881Y-13432976D02*
X8245595Y-13432976D01*
X8302738Y-13432976D02*
X8302738Y-13232976D01*
X8283690Y-13261548D01*
X8264643Y-13280595D01*
X8245595Y-13290119D01*
X8445595Y-13413928D02*
X8455119Y-13423452D01*
X8445595Y-13432976D01*
X8436071Y-13423452D01*
X8445595Y-13413928D01*
X8445595Y-13432976D01*
X8531310Y-13252024D02*
X8540833Y-13242500D01*
X8559881Y-13232976D01*
X8607500Y-13232976D01*
X8626548Y-13242500D01*
X8636071Y-13252024D01*
X8645595Y-13271071D01*
X8645595Y-13290119D01*
X8636071Y-13318690D01*
X8521786Y-13432976D01*
X8645595Y-13432976D01*
X8712262Y-13232976D02*
X8845595Y-13232976D01*
X8759881Y-13432976D01*
X8959881Y-13232976D02*
X8978929Y-13232976D01*
X8997976Y-13242500D01*
X9007500Y-13252024D01*
X9017024Y-13271071D01*
X9026548Y-13309167D01*
X9026548Y-13356786D01*
X9017024Y-13394881D01*
X9007500Y-13413928D01*
X8997976Y-13423452D01*
X8978929Y-13432976D01*
X8959881Y-13432976D01*
X8940833Y-13423452D01*
X8931310Y-13413928D01*
X8921786Y-13394881D01*
X8912262Y-13356786D01*
X8912262Y-13309167D01*
X8921786Y-13271071D01*
X8931310Y-13252024D01*
X8940833Y-13242500D01*
X8959881Y-13232976D01*
X9112262Y-13432976D02*
X9112262Y-13299643D01*
X9112262Y-13318690D02*
X9121786Y-13309167D01*
X9140833Y-13299643D01*
X9169405Y-13299643D01*
X9188452Y-13309167D01*
X9197976Y-13328214D01*
X9197976Y-13432976D01*
X9197976Y-13328214D02*
X9207500Y-13309167D01*
X9226548Y-13299643D01*
X9255119Y-13299643D01*
X9274167Y-13309167D01*
X9283690Y-13328214D01*
X9283690Y-13432976D01*
X9378929Y-13432976D02*
X9378929Y-13299643D01*
X9378929Y-13318690D02*
X9388452Y-13309167D01*
X9407500Y-13299643D01*
X9436071Y-13299643D01*
X9455119Y-13309167D01*
X9464643Y-13328214D01*
X9464643Y-13432976D01*
X9464643Y-13328214D02*
X9474167Y-13309167D01*
X9493214Y-13299643D01*
X9521786Y-13299643D01*
X9540833Y-13309167D01*
X9550357Y-13328214D01*
X9550357Y-13432976D01*
X9940833Y-13223452D02*
X9769405Y-13480595D01*
X10197976Y-13232976D02*
X10217024Y-13232976D01*
X10236071Y-13242500D01*
X10245595Y-13252024D01*
X10255119Y-13271071D01*
X10264643Y-13309167D01*
X10264643Y-13356786D01*
X10255119Y-13394881D01*
X10245595Y-13413928D01*
X10236071Y-13423452D01*
X10217024Y-13432976D01*
X10197976Y-13432976D01*
X10178929Y-13423452D01*
X10169405Y-13413928D01*
X10159881Y-13394881D01*
X10150357Y-13356786D01*
X10150357Y-13309167D01*
X10159881Y-13271071D01*
X10169405Y-13252024D01*
X10178929Y-13242500D01*
X10197976Y-13232976D01*
X10350357Y-13413928D02*
X10359881Y-13423452D01*
X10350357Y-13432976D01*
X10340833Y-13423452D01*
X10350357Y-13413928D01*
X10350357Y-13432976D01*
X10483690Y-13232976D02*
X10502738Y-13232976D01*
X10521786Y-13242500D01*
X10531310Y-13252024D01*
X10540833Y-13271071D01*
X10550357Y-13309167D01*
X10550357Y-13356786D01*
X10540833Y-13394881D01*
X10531310Y-13413928D01*
X10521786Y-13423452D01*
X10502738Y-13432976D01*
X10483690Y-13432976D01*
X10464643Y-13423452D01*
X10455119Y-13413928D01*
X10445595Y-13394881D01*
X10436071Y-13356786D01*
X10436071Y-13309167D01*
X10445595Y-13271071D01*
X10455119Y-13252024D01*
X10464643Y-13242500D01*
X10483690Y-13232976D01*
X10731310Y-13232976D02*
X10636071Y-13232976D01*
X10626548Y-13328214D01*
X10636071Y-13318690D01*
X10655119Y-13309167D01*
X10702738Y-13309167D01*
X10721786Y-13318690D01*
X10731310Y-13328214D01*
X10740833Y-13347262D01*
X10740833Y-13394881D01*
X10731310Y-13413928D01*
X10721786Y-13423452D01*
X10702738Y-13432976D01*
X10655119Y-13432976D01*
X10636071Y-13423452D01*
X10626548Y-13413928D01*
X10864643Y-13232976D02*
X10883690Y-13232976D01*
X10902738Y-13242500D01*
X10912262Y-13252024D01*
X10921786Y-13271071D01*
X10931310Y-13309167D01*
X10931310Y-13356786D01*
X10921786Y-13394881D01*
X10912262Y-13413928D01*
X10902738Y-13423452D01*
X10883690Y-13432976D01*
X10864643Y-13432976D01*
X10845595Y-13423452D01*
X10836071Y-13413928D01*
X10826548Y-13394881D01*
X10817024Y-13356786D01*
X10817024Y-13309167D01*
X10826548Y-13271071D01*
X10836071Y-13252024D01*
X10845595Y-13242500D01*
X10864643Y-13232976D01*
X11055119Y-13232976D02*
X11074167Y-13232976D01*
X11093214Y-13242500D01*
X11102738Y-13252024D01*
X11112262Y-13271071D01*
X11121786Y-13309167D01*
X11121786Y-13356786D01*
X11112262Y-13394881D01*
X11102738Y-13413928D01*
X11093214Y-13423452D01*
X11074167Y-13432976D01*
X11055119Y-13432976D01*
X11036071Y-13423452D01*
X11026548Y-13413928D01*
X11017024Y-13394881D01*
X11007500Y-13356786D01*
X11007500Y-13309167D01*
X11017024Y-13271071D01*
X11026548Y-13252024D01*
X11036071Y-13242500D01*
X11055119Y-13232976D01*
X11197976Y-13232976D02*
X11197976Y-13271071D01*
X11274167Y-13232976D02*
X11274167Y-13271071D01*
X11569405Y-13509167D02*
X11559881Y-13499643D01*
X11540833Y-13471071D01*
X11531309Y-13452024D01*
X11521786Y-13423452D01*
X11512262Y-13375833D01*
X11512262Y-13337738D01*
X11521786Y-13290119D01*
X11531309Y-13261548D01*
X11540833Y-13242500D01*
X11559881Y-13213928D01*
X11569405Y-13204405D01*
X11674167Y-13318690D02*
X11655119Y-13309167D01*
X11645595Y-13299643D01*
X11636071Y-13280595D01*
X11636071Y-13271071D01*
X11645595Y-13252024D01*
X11655119Y-13242500D01*
X11674167Y-13232976D01*
X11712262Y-13232976D01*
X11731309Y-13242500D01*
X11740833Y-13252024D01*
X11750357Y-13271071D01*
X11750357Y-13280595D01*
X11740833Y-13299643D01*
X11731309Y-13309167D01*
X11712262Y-13318690D01*
X11674167Y-13318690D01*
X11655119Y-13328214D01*
X11645595Y-13337738D01*
X11636071Y-13356786D01*
X11636071Y-13394881D01*
X11645595Y-13413928D01*
X11655119Y-13423452D01*
X11674167Y-13432976D01*
X11712262Y-13432976D01*
X11731309Y-13423452D01*
X11740833Y-13413928D01*
X11750357Y-13394881D01*
X11750357Y-13356786D01*
X11740833Y-13337738D01*
X11731309Y-13328214D01*
X11712262Y-13318690D01*
X11988452Y-13432976D02*
X11988452Y-13232976D01*
X12074167Y-13432976D02*
X12074167Y-13328214D01*
X12064643Y-13309167D01*
X12045595Y-13299643D01*
X12017024Y-13299643D01*
X11997976Y-13309167D01*
X11988452Y-13318690D01*
X12197976Y-13432976D02*
X12178928Y-13423452D01*
X12169405Y-13413928D01*
X12159881Y-13394881D01*
X12159881Y-13337738D01*
X12169405Y-13318690D01*
X12178928Y-13309167D01*
X12197976Y-13299643D01*
X12226548Y-13299643D01*
X12245595Y-13309167D01*
X12255119Y-13318690D01*
X12264643Y-13337738D01*
X12264643Y-13394881D01*
X12255119Y-13413928D01*
X12245595Y-13423452D01*
X12226548Y-13432976D01*
X12197976Y-13432976D01*
X12378928Y-13432976D02*
X12359881Y-13423452D01*
X12350357Y-13404405D01*
X12350357Y-13232976D01*
X12531309Y-13423452D02*
X12512262Y-13432976D01*
X12474167Y-13432976D01*
X12455119Y-13423452D01*
X12445595Y-13404405D01*
X12445595Y-13328214D01*
X12455119Y-13309167D01*
X12474167Y-13299643D01*
X12512262Y-13299643D01*
X12531309Y-13309167D01*
X12540833Y-13328214D01*
X12540833Y-13347262D01*
X12445595Y-13366309D01*
X12617024Y-13423452D02*
X12636071Y-13432976D01*
X12674167Y-13432976D01*
X12693214Y-13423452D01*
X12702738Y-13404405D01*
X12702738Y-13394881D01*
X12693214Y-13375833D01*
X12674167Y-13366309D01*
X12645595Y-13366309D01*
X12626548Y-13356786D01*
X12617024Y-13337738D01*
X12617024Y-13328214D01*
X12626548Y-13309167D01*
X12645595Y-13299643D01*
X12674167Y-13299643D01*
X12693214Y-13309167D01*
X12769405Y-13509167D02*
X12778928Y-13499643D01*
X12797976Y-13471071D01*
X12807500Y-13452024D01*
X12817024Y-13423452D01*
X12826548Y-13375833D01*
X12826548Y-13337738D01*
X12817024Y-13290119D01*
X12807500Y-13261548D01*
X12797976Y-13242500D01*
X12778928Y-13213928D01*
X12769405Y-13204405D01*
X13131309Y-13509167D02*
X13121786Y-13499643D01*
X13102738Y-13471071D01*
X13093214Y-13452024D01*
X13083690Y-13423452D01*
X13074167Y-13375833D01*
X13074167Y-13337738D01*
X13083690Y-13290119D01*
X13093214Y-13261548D01*
X13102738Y-13242500D01*
X13121786Y-13213928D01*
X13131309Y-13204405D01*
X13207500Y-13299643D02*
X13207500Y-13432976D01*
X13207500Y-13318690D02*
X13217024Y-13309167D01*
X13236071Y-13299643D01*
X13264643Y-13299643D01*
X13283690Y-13309167D01*
X13293214Y-13328214D01*
X13293214Y-13432976D01*
X13417024Y-13432976D02*
X13397976Y-13423452D01*
X13388452Y-13413928D01*
X13378928Y-13394881D01*
X13378928Y-13337738D01*
X13388452Y-13318690D01*
X13397976Y-13309167D01*
X13417024Y-13299643D01*
X13445595Y-13299643D01*
X13464643Y-13309167D01*
X13474167Y-13318690D01*
X13483690Y-13337738D01*
X13483690Y-13394881D01*
X13474167Y-13413928D01*
X13464643Y-13423452D01*
X13445595Y-13432976D01*
X13417024Y-13432976D01*
X13540833Y-13299643D02*
X13617024Y-13299643D01*
X13569405Y-13232976D02*
X13569405Y-13404405D01*
X13578928Y-13423452D01*
X13597976Y-13432976D01*
X13617024Y-13432976D01*
X13836071Y-13299643D02*
X13836071Y-13499643D01*
X13836071Y-13309167D02*
X13855119Y-13299643D01*
X13893214Y-13299643D01*
X13912262Y-13309167D01*
X13921786Y-13318690D01*
X13931309Y-13337738D01*
X13931309Y-13394881D01*
X13921786Y-13413928D01*
X13912262Y-13423452D01*
X13893214Y-13432976D01*
X13855119Y-13432976D01*
X13836071Y-13423452D01*
X14045595Y-13432976D02*
X14026548Y-13423452D01*
X14017024Y-13404405D01*
X14017024Y-13232976D01*
X14207500Y-13432976D02*
X14207500Y-13328214D01*
X14197976Y-13309167D01*
X14178928Y-13299643D01*
X14140833Y-13299643D01*
X14121786Y-13309167D01*
X14207500Y-13423452D02*
X14188452Y-13432976D01*
X14140833Y-13432976D01*
X14121786Y-13423452D01*
X14112262Y-13404405D01*
X14112262Y-13385357D01*
X14121786Y-13366309D01*
X14140833Y-13356786D01*
X14188452Y-13356786D01*
X14207500Y-13347262D01*
X14274167Y-13299643D02*
X14350357Y-13299643D01*
X14302738Y-13232976D02*
X14302738Y-13404405D01*
X14312262Y-13423452D01*
X14331309Y-13432976D01*
X14350357Y-13432976D01*
X14493214Y-13423452D02*
X14474167Y-13432976D01*
X14436071Y-13432976D01*
X14417024Y-13423452D01*
X14407500Y-13404405D01*
X14407500Y-13328214D01*
X14417024Y-13309167D01*
X14436071Y-13299643D01*
X14474167Y-13299643D01*
X14493214Y-13309167D01*
X14502738Y-13328214D01*
X14502738Y-13347262D01*
X14407500Y-13366309D01*
X14674167Y-13432976D02*
X14674167Y-13232976D01*
X14674167Y-13423452D02*
X14655119Y-13432976D01*
X14617024Y-13432976D01*
X14597976Y-13423452D01*
X14588452Y-13413928D01*
X14578928Y-13394881D01*
X14578928Y-13337738D01*
X14588452Y-13318690D01*
X14597976Y-13309167D01*
X14617024Y-13299643D01*
X14655119Y-13299643D01*
X14674167Y-13309167D01*
X14750357Y-13509167D02*
X14759881Y-13499643D01*
X14778928Y-13471071D01*
X14788452Y-13452024D01*
X14797976Y-13423452D01*
X14807500Y-13375833D01*
X14807500Y-13337738D01*
X14797976Y-13290119D01*
X14788452Y-13261548D01*
X14778928Y-13242500D01*
X14759881Y-13213928D01*
X14750357Y-13204405D01*
D13*
X7997500Y-13606500D02*
G75*
G03*
X7997500Y-13606500I-65000J0D01*
G01*
D11*
X8359881Y-13696976D02*
X8245595Y-13696976D01*
X8302738Y-13696976D02*
X8302738Y-13496976D01*
X8283690Y-13525548D01*
X8264643Y-13544595D01*
X8245595Y-13554119D01*
X8445595Y-13677928D02*
X8455119Y-13687452D01*
X8445595Y-13696976D01*
X8436071Y-13687452D01*
X8445595Y-13677928D01*
X8445595Y-13696976D01*
X8521786Y-13496976D02*
X8645595Y-13496976D01*
X8578929Y-13573167D01*
X8607500Y-13573167D01*
X8626548Y-13582690D01*
X8636071Y-13592214D01*
X8645595Y-13611262D01*
X8645595Y-13658881D01*
X8636071Y-13677928D01*
X8626548Y-13687452D01*
X8607500Y-13696976D01*
X8550357Y-13696976D01*
X8531310Y-13687452D01*
X8521786Y-13677928D01*
X8769405Y-13496976D02*
X8788452Y-13496976D01*
X8807500Y-13506500D01*
X8817024Y-13516024D01*
X8826548Y-13535071D01*
X8836071Y-13573167D01*
X8836071Y-13620786D01*
X8826548Y-13658881D01*
X8817024Y-13677928D01*
X8807500Y-13687452D01*
X8788452Y-13696976D01*
X8769405Y-13696976D01*
X8750357Y-13687452D01*
X8740833Y-13677928D01*
X8731310Y-13658881D01*
X8721786Y-13620786D01*
X8721786Y-13573167D01*
X8731310Y-13535071D01*
X8740833Y-13516024D01*
X8750357Y-13506500D01*
X8769405Y-13496976D01*
X8959881Y-13496976D02*
X8978929Y-13496976D01*
X8997976Y-13506500D01*
X9007500Y-13516024D01*
X9017024Y-13535071D01*
X9026548Y-13573167D01*
X9026548Y-13620786D01*
X9017024Y-13658881D01*
X9007500Y-13677928D01*
X8997976Y-13687452D01*
X8978929Y-13696976D01*
X8959881Y-13696976D01*
X8940833Y-13687452D01*
X8931310Y-13677928D01*
X8921786Y-13658881D01*
X8912262Y-13620786D01*
X8912262Y-13573167D01*
X8921786Y-13535071D01*
X8931310Y-13516024D01*
X8940833Y-13506500D01*
X8959881Y-13496976D01*
X9112262Y-13696976D02*
X9112262Y-13563643D01*
X9112262Y-13582690D02*
X9121786Y-13573167D01*
X9140833Y-13563643D01*
X9169405Y-13563643D01*
X9188452Y-13573167D01*
X9197976Y-13592214D01*
X9197976Y-13696976D01*
X9197976Y-13592214D02*
X9207500Y-13573167D01*
X9226548Y-13563643D01*
X9255119Y-13563643D01*
X9274167Y-13573167D01*
X9283690Y-13592214D01*
X9283690Y-13696976D01*
X9378929Y-13696976D02*
X9378929Y-13563643D01*
X9378929Y-13582690D02*
X9388452Y-13573167D01*
X9407500Y-13563643D01*
X9436071Y-13563643D01*
X9455119Y-13573167D01*
X9464643Y-13592214D01*
X9464643Y-13696976D01*
X9464643Y-13592214D02*
X9474167Y-13573167D01*
X9493214Y-13563643D01*
X9521786Y-13563643D01*
X9540833Y-13573167D01*
X9550357Y-13592214D01*
X9550357Y-13696976D01*
X9940833Y-13487452D02*
X9769405Y-13744595D01*
X10197976Y-13496976D02*
X10217024Y-13496976D01*
X10236071Y-13506500D01*
X10245595Y-13516024D01*
X10255119Y-13535071D01*
X10264643Y-13573167D01*
X10264643Y-13620786D01*
X10255119Y-13658881D01*
X10245595Y-13677928D01*
X10236071Y-13687452D01*
X10217024Y-13696976D01*
X10197976Y-13696976D01*
X10178929Y-13687452D01*
X10169405Y-13677928D01*
X10159881Y-13658881D01*
X10150357Y-13620786D01*
X10150357Y-13573167D01*
X10159881Y-13535071D01*
X10169405Y-13516024D01*
X10178929Y-13506500D01*
X10197976Y-13496976D01*
X10350357Y-13677928D02*
X10359881Y-13687452D01*
X10350357Y-13696976D01*
X10340833Y-13687452D01*
X10350357Y-13677928D01*
X10350357Y-13696976D01*
X10483690Y-13496976D02*
X10502738Y-13496976D01*
X10521786Y-13506500D01*
X10531310Y-13516024D01*
X10540833Y-13535071D01*
X10550357Y-13573167D01*
X10550357Y-13620786D01*
X10540833Y-13658881D01*
X10531310Y-13677928D01*
X10521786Y-13687452D01*
X10502738Y-13696976D01*
X10483690Y-13696976D01*
X10464643Y-13687452D01*
X10455119Y-13677928D01*
X10445595Y-13658881D01*
X10436071Y-13620786D01*
X10436071Y-13573167D01*
X10445595Y-13535071D01*
X10455119Y-13516024D01*
X10464643Y-13506500D01*
X10483690Y-13496976D01*
X10731310Y-13496976D02*
X10636071Y-13496976D01*
X10626548Y-13592214D01*
X10636071Y-13582690D01*
X10655119Y-13573167D01*
X10702738Y-13573167D01*
X10721786Y-13582690D01*
X10731310Y-13592214D01*
X10740833Y-13611262D01*
X10740833Y-13658881D01*
X10731310Y-13677928D01*
X10721786Y-13687452D01*
X10702738Y-13696976D01*
X10655119Y-13696976D01*
X10636071Y-13687452D01*
X10626548Y-13677928D01*
X10931310Y-13696976D02*
X10817024Y-13696976D01*
X10874167Y-13696976D02*
X10874167Y-13496976D01*
X10855119Y-13525548D01*
X10836071Y-13544595D01*
X10817024Y-13554119D01*
X11007500Y-13516024D02*
X11017024Y-13506500D01*
X11036071Y-13496976D01*
X11083690Y-13496976D01*
X11102738Y-13506500D01*
X11112262Y-13516024D01*
X11121786Y-13535071D01*
X11121786Y-13554119D01*
X11112262Y-13582690D01*
X10997976Y-13696976D01*
X11121786Y-13696976D01*
X11197976Y-13496976D02*
X11197976Y-13535071D01*
X11274167Y-13496976D02*
X11274167Y-13535071D01*
X11569405Y-13773167D02*
X11559881Y-13763643D01*
X11540833Y-13735071D01*
X11531309Y-13716024D01*
X11521786Y-13687452D01*
X11512262Y-13639833D01*
X11512262Y-13601738D01*
X11521786Y-13554119D01*
X11531309Y-13525548D01*
X11540833Y-13506500D01*
X11559881Y-13477928D01*
X11569405Y-13468405D01*
X11636071Y-13516024D02*
X11645595Y-13506500D01*
X11664643Y-13496976D01*
X11712262Y-13496976D01*
X11731309Y-13506500D01*
X11740833Y-13516024D01*
X11750357Y-13535071D01*
X11750357Y-13554119D01*
X11740833Y-13582690D01*
X11626548Y-13696976D01*
X11750357Y-13696976D01*
X11988452Y-13696976D02*
X11988452Y-13496976D01*
X12074167Y-13696976D02*
X12074167Y-13592214D01*
X12064643Y-13573167D01*
X12045595Y-13563643D01*
X12017024Y-13563643D01*
X11997976Y-13573167D01*
X11988452Y-13582690D01*
X12197976Y-13696976D02*
X12178928Y-13687452D01*
X12169405Y-13677928D01*
X12159881Y-13658881D01*
X12159881Y-13601738D01*
X12169405Y-13582690D01*
X12178928Y-13573167D01*
X12197976Y-13563643D01*
X12226548Y-13563643D01*
X12245595Y-13573167D01*
X12255119Y-13582690D01*
X12264643Y-13601738D01*
X12264643Y-13658881D01*
X12255119Y-13677928D01*
X12245595Y-13687452D01*
X12226548Y-13696976D01*
X12197976Y-13696976D01*
X12378928Y-13696976D02*
X12359881Y-13687452D01*
X12350357Y-13668405D01*
X12350357Y-13496976D01*
X12531309Y-13687452D02*
X12512262Y-13696976D01*
X12474167Y-13696976D01*
X12455119Y-13687452D01*
X12445595Y-13668405D01*
X12445595Y-13592214D01*
X12455119Y-13573167D01*
X12474167Y-13563643D01*
X12512262Y-13563643D01*
X12531309Y-13573167D01*
X12540833Y-13592214D01*
X12540833Y-13611262D01*
X12445595Y-13630309D01*
X12617024Y-13687452D02*
X12636071Y-13696976D01*
X12674167Y-13696976D01*
X12693214Y-13687452D01*
X12702738Y-13668405D01*
X12702738Y-13658881D01*
X12693214Y-13639833D01*
X12674167Y-13630309D01*
X12645595Y-13630309D01*
X12626548Y-13620786D01*
X12617024Y-13601738D01*
X12617024Y-13592214D01*
X12626548Y-13573167D01*
X12645595Y-13563643D01*
X12674167Y-13563643D01*
X12693214Y-13573167D01*
X12769405Y-13773167D02*
X12778928Y-13763643D01*
X12797976Y-13735071D01*
X12807500Y-13716024D01*
X12817024Y-13687452D01*
X12826548Y-13639833D01*
X12826548Y-13601738D01*
X12817024Y-13554119D01*
X12807500Y-13525548D01*
X12797976Y-13506500D01*
X12778928Y-13477928D01*
X12769405Y-13468405D01*
X13131309Y-13773167D02*
X13121786Y-13763643D01*
X13102738Y-13735071D01*
X13093214Y-13716024D01*
X13083690Y-13687452D01*
X13074167Y-13639833D01*
X13074167Y-13601738D01*
X13083690Y-13554119D01*
X13093214Y-13525548D01*
X13102738Y-13506500D01*
X13121786Y-13477928D01*
X13131309Y-13468405D01*
X13207500Y-13563643D02*
X13207500Y-13696976D01*
X13207500Y-13582690D02*
X13217024Y-13573167D01*
X13236071Y-13563643D01*
X13264643Y-13563643D01*
X13283690Y-13573167D01*
X13293214Y-13592214D01*
X13293214Y-13696976D01*
X13417024Y-13696976D02*
X13397976Y-13687452D01*
X13388452Y-13677928D01*
X13378928Y-13658881D01*
X13378928Y-13601738D01*
X13388452Y-13582690D01*
X13397976Y-13573167D01*
X13417024Y-13563643D01*
X13445595Y-13563643D01*
X13464643Y-13573167D01*
X13474167Y-13582690D01*
X13483690Y-13601738D01*
X13483690Y-13658881D01*
X13474167Y-13677928D01*
X13464643Y-13687452D01*
X13445595Y-13696976D01*
X13417024Y-13696976D01*
X13540833Y-13563643D02*
X13617024Y-13563643D01*
X13569405Y-13496976D02*
X13569405Y-13668405D01*
X13578928Y-13687452D01*
X13597976Y-13696976D01*
X13617024Y-13696976D01*
X13836071Y-13563643D02*
X13836071Y-13763643D01*
X13836071Y-13573167D02*
X13855119Y-13563643D01*
X13893214Y-13563643D01*
X13912262Y-13573167D01*
X13921786Y-13582690D01*
X13931309Y-13601738D01*
X13931309Y-13658881D01*
X13921786Y-13677928D01*
X13912262Y-13687452D01*
X13893214Y-13696976D01*
X13855119Y-13696976D01*
X13836071Y-13687452D01*
X14045595Y-13696976D02*
X14026548Y-13687452D01*
X14017024Y-13668405D01*
X14017024Y-13496976D01*
X14207500Y-13696976D02*
X14207500Y-13592214D01*
X14197976Y-13573167D01*
X14178928Y-13563643D01*
X14140833Y-13563643D01*
X14121786Y-13573167D01*
X14207500Y-13687452D02*
X14188452Y-13696976D01*
X14140833Y-13696976D01*
X14121786Y-13687452D01*
X14112262Y-13668405D01*
X14112262Y-13649357D01*
X14121786Y-13630309D01*
X14140833Y-13620786D01*
X14188452Y-13620786D01*
X14207500Y-13611262D01*
X14274167Y-13563643D02*
X14350357Y-13563643D01*
X14302738Y-13496976D02*
X14302738Y-13668405D01*
X14312262Y-13687452D01*
X14331309Y-13696976D01*
X14350357Y-13696976D01*
X14493214Y-13687452D02*
X14474167Y-13696976D01*
X14436071Y-13696976D01*
X14417024Y-13687452D01*
X14407500Y-13668405D01*
X14407500Y-13592214D01*
X14417024Y-13573167D01*
X14436071Y-13563643D01*
X14474167Y-13563643D01*
X14493214Y-13573167D01*
X14502738Y-13592214D01*
X14502738Y-13611262D01*
X14407500Y-13630309D01*
X14674167Y-13696976D02*
X14674167Y-13496976D01*
X14674167Y-13687452D02*
X14655119Y-13696976D01*
X14617024Y-13696976D01*
X14597976Y-13687452D01*
X14588452Y-13677928D01*
X14578928Y-13658881D01*
X14578928Y-13601738D01*
X14588452Y-13582690D01*
X14597976Y-13573167D01*
X14617024Y-13563643D01*
X14655119Y-13563643D01*
X14674167Y-13573167D01*
X14750357Y-13773167D02*
X14759881Y-13763643D01*
X14778928Y-13735071D01*
X14788452Y-13716024D01*
X14797976Y-13687452D01*
X14807500Y-13639833D01*
X14807500Y-13601738D01*
X14797976Y-13554119D01*
X14788452Y-13525548D01*
X14778928Y-13506500D01*
X14759881Y-13477928D01*
X14750357Y-13468405D01*
D14*
X7912500Y-13785500D02*
X7912500Y-13955500D01*
X7827500Y-13870500D02*
X7997500Y-13870500D01*
D11*
X8359881Y-13960976D02*
X8245595Y-13960976D01*
X8302738Y-13960976D02*
X8302738Y-13760976D01*
X8283690Y-13789548D01*
X8264643Y-13808595D01*
X8245595Y-13818119D01*
X8445595Y-13941928D02*
X8455119Y-13951452D01*
X8445595Y-13960976D01*
X8436071Y-13951452D01*
X8445595Y-13941928D01*
X8445595Y-13960976D01*
X8521786Y-13760976D02*
X8655119Y-13760976D01*
X8569405Y-13960976D01*
X8769405Y-13760976D02*
X8788452Y-13760976D01*
X8807500Y-13770500D01*
X8817024Y-13780024D01*
X8826548Y-13799071D01*
X8836071Y-13837167D01*
X8836071Y-13884786D01*
X8826548Y-13922881D01*
X8817024Y-13941928D01*
X8807500Y-13951452D01*
X8788452Y-13960976D01*
X8769405Y-13960976D01*
X8750357Y-13951452D01*
X8740833Y-13941928D01*
X8731310Y-13922881D01*
X8721786Y-13884786D01*
X8721786Y-13837167D01*
X8731310Y-13799071D01*
X8740833Y-13780024D01*
X8750357Y-13770500D01*
X8769405Y-13760976D01*
X8959881Y-13760976D02*
X8978929Y-13760976D01*
X8997976Y-13770500D01*
X9007500Y-13780024D01*
X9017024Y-13799071D01*
X9026548Y-13837167D01*
X9026548Y-13884786D01*
X9017024Y-13922881D01*
X9007500Y-13941928D01*
X8997976Y-13951452D01*
X8978929Y-13960976D01*
X8959881Y-13960976D01*
X8940833Y-13951452D01*
X8931310Y-13941928D01*
X8921786Y-13922881D01*
X8912262Y-13884786D01*
X8912262Y-13837167D01*
X8921786Y-13799071D01*
X8931310Y-13780024D01*
X8940833Y-13770500D01*
X8959881Y-13760976D01*
X9112262Y-13960976D02*
X9112262Y-13827643D01*
X9112262Y-13846690D02*
X9121786Y-13837167D01*
X9140833Y-13827643D01*
X9169405Y-13827643D01*
X9188452Y-13837167D01*
X9197976Y-13856214D01*
X9197976Y-13960976D01*
X9197976Y-13856214D02*
X9207500Y-13837167D01*
X9226548Y-13827643D01*
X9255119Y-13827643D01*
X9274167Y-13837167D01*
X9283690Y-13856214D01*
X9283690Y-13960976D01*
X9378929Y-13960976D02*
X9378929Y-13827643D01*
X9378929Y-13846690D02*
X9388452Y-13837167D01*
X9407500Y-13827643D01*
X9436071Y-13827643D01*
X9455119Y-13837167D01*
X9464643Y-13856214D01*
X9464643Y-13960976D01*
X9464643Y-13856214D02*
X9474167Y-13837167D01*
X9493214Y-13827643D01*
X9521786Y-13827643D01*
X9540833Y-13837167D01*
X9550357Y-13856214D01*
X9550357Y-13960976D01*
X9940833Y-13751452D02*
X9769405Y-14008595D01*
X10197976Y-13760976D02*
X10217024Y-13760976D01*
X10236071Y-13770500D01*
X10245595Y-13780024D01*
X10255119Y-13799071D01*
X10264643Y-13837167D01*
X10264643Y-13884786D01*
X10255119Y-13922881D01*
X10245595Y-13941928D01*
X10236071Y-13951452D01*
X10217024Y-13960976D01*
X10197976Y-13960976D01*
X10178929Y-13951452D01*
X10169405Y-13941928D01*
X10159881Y-13922881D01*
X10150357Y-13884786D01*
X10150357Y-13837167D01*
X10159881Y-13799071D01*
X10169405Y-13780024D01*
X10178929Y-13770500D01*
X10197976Y-13760976D01*
X10350357Y-13941928D02*
X10359881Y-13951452D01*
X10350357Y-13960976D01*
X10340833Y-13951452D01*
X10350357Y-13941928D01*
X10350357Y-13960976D01*
X10483690Y-13760976D02*
X10502738Y-13760976D01*
X10521786Y-13770500D01*
X10531310Y-13780024D01*
X10540833Y-13799071D01*
X10550357Y-13837167D01*
X10550357Y-13884786D01*
X10540833Y-13922881D01*
X10531310Y-13941928D01*
X10521786Y-13951452D01*
X10502738Y-13960976D01*
X10483690Y-13960976D01*
X10464643Y-13951452D01*
X10455119Y-13941928D01*
X10445595Y-13922881D01*
X10436071Y-13884786D01*
X10436071Y-13837167D01*
X10445595Y-13799071D01*
X10455119Y-13780024D01*
X10464643Y-13770500D01*
X10483690Y-13760976D01*
X10721786Y-13760976D02*
X10683690Y-13760976D01*
X10664643Y-13770500D01*
X10655119Y-13780024D01*
X10636071Y-13808595D01*
X10626548Y-13846690D01*
X10626548Y-13922881D01*
X10636071Y-13941928D01*
X10645595Y-13951452D01*
X10664643Y-13960976D01*
X10702738Y-13960976D01*
X10721786Y-13951452D01*
X10731310Y-13941928D01*
X10740833Y-13922881D01*
X10740833Y-13875262D01*
X10731310Y-13856214D01*
X10721786Y-13846690D01*
X10702738Y-13837167D01*
X10664643Y-13837167D01*
X10645595Y-13846690D01*
X10636071Y-13856214D01*
X10626548Y-13875262D01*
X10912262Y-13760976D02*
X10874167Y-13760976D01*
X10855119Y-13770500D01*
X10845595Y-13780024D01*
X10826548Y-13808595D01*
X10817024Y-13846690D01*
X10817024Y-13922881D01*
X10826548Y-13941928D01*
X10836071Y-13951452D01*
X10855119Y-13960976D01*
X10893214Y-13960976D01*
X10912262Y-13951452D01*
X10921786Y-13941928D01*
X10931310Y-13922881D01*
X10931310Y-13875262D01*
X10921786Y-13856214D01*
X10912262Y-13846690D01*
X10893214Y-13837167D01*
X10855119Y-13837167D01*
X10836071Y-13846690D01*
X10826548Y-13856214D01*
X10817024Y-13875262D01*
X11026548Y-13960976D02*
X11064643Y-13960976D01*
X11083690Y-13951452D01*
X11093214Y-13941928D01*
X11112262Y-13913357D01*
X11121786Y-13875262D01*
X11121786Y-13799071D01*
X11112262Y-13780024D01*
X11102738Y-13770500D01*
X11083690Y-13760976D01*
X11045595Y-13760976D01*
X11026548Y-13770500D01*
X11017024Y-13780024D01*
X11007500Y-13799071D01*
X11007500Y-13846690D01*
X11017024Y-13865738D01*
X11026548Y-13875262D01*
X11045595Y-13884786D01*
X11083690Y-13884786D01*
X11102738Y-13875262D01*
X11112262Y-13865738D01*
X11121786Y-13846690D01*
X11197976Y-13760976D02*
X11197976Y-13799071D01*
X11274167Y-13760976D02*
X11274167Y-13799071D01*
X11569405Y-14037167D02*
X11559881Y-14027643D01*
X11540833Y-13999071D01*
X11531309Y-13980024D01*
X11521786Y-13951452D01*
X11512262Y-13903833D01*
X11512262Y-13865738D01*
X11521786Y-13818119D01*
X11531309Y-13789548D01*
X11540833Y-13770500D01*
X11559881Y-13741928D01*
X11569405Y-13732405D01*
X11750357Y-13960976D02*
X11636071Y-13960976D01*
X11693214Y-13960976D02*
X11693214Y-13760976D01*
X11674167Y-13789548D01*
X11655119Y-13808595D01*
X11636071Y-13818119D01*
X11826548Y-13780024D02*
X11836071Y-13770500D01*
X11855119Y-13760976D01*
X11902738Y-13760976D01*
X11921786Y-13770500D01*
X11931309Y-13780024D01*
X11940833Y-13799071D01*
X11940833Y-13818119D01*
X11931309Y-13846690D01*
X11817024Y-13960976D01*
X11940833Y-13960976D01*
X12178928Y-13960976D02*
X12178928Y-13760976D01*
X12264643Y-13960976D02*
X12264643Y-13856214D01*
X12255119Y-13837167D01*
X12236071Y-13827643D01*
X12207500Y-13827643D01*
X12188452Y-13837167D01*
X12178928Y-13846690D01*
X12388452Y-13960976D02*
X12369405Y-13951452D01*
X12359881Y-13941928D01*
X12350357Y-13922881D01*
X12350357Y-13865738D01*
X12359881Y-13846690D01*
X12369405Y-13837167D01*
X12388452Y-13827643D01*
X12417024Y-13827643D01*
X12436071Y-13837167D01*
X12445595Y-13846690D01*
X12455119Y-13865738D01*
X12455119Y-13922881D01*
X12445595Y-13941928D01*
X12436071Y-13951452D01*
X12417024Y-13960976D01*
X12388452Y-13960976D01*
X12569405Y-13960976D02*
X12550357Y-13951452D01*
X12540833Y-13932405D01*
X12540833Y-13760976D01*
X12721786Y-13951452D02*
X12702738Y-13960976D01*
X12664643Y-13960976D01*
X12645595Y-13951452D01*
X12636071Y-13932405D01*
X12636071Y-13856214D01*
X12645595Y-13837167D01*
X12664643Y-13827643D01*
X12702738Y-13827643D01*
X12721786Y-13837167D01*
X12731309Y-13856214D01*
X12731309Y-13875262D01*
X12636071Y-13894309D01*
X12807500Y-13951452D02*
X12826548Y-13960976D01*
X12864643Y-13960976D01*
X12883690Y-13951452D01*
X12893214Y-13932405D01*
X12893214Y-13922881D01*
X12883690Y-13903833D01*
X12864643Y-13894309D01*
X12836071Y-13894309D01*
X12817024Y-13884786D01*
X12807500Y-13865738D01*
X12807500Y-13856214D01*
X12817024Y-13837167D01*
X12836071Y-13827643D01*
X12864643Y-13827643D01*
X12883690Y-13837167D01*
X12959881Y-14037167D02*
X12969405Y-14027643D01*
X12988452Y-13999071D01*
X12997976Y-13980024D01*
X13007500Y-13951452D01*
X13017024Y-13903833D01*
X13017024Y-13865738D01*
X13007500Y-13818119D01*
X12997976Y-13789548D01*
X12988452Y-13770500D01*
X12969405Y-13741928D01*
X12959881Y-13732405D01*
X13321786Y-14037167D02*
X13312262Y-14027643D01*
X13293214Y-13999071D01*
X13283690Y-13980024D01*
X13274167Y-13951452D01*
X13264643Y-13903833D01*
X13264643Y-13865738D01*
X13274167Y-13818119D01*
X13283690Y-13789548D01*
X13293214Y-13770500D01*
X13312262Y-13741928D01*
X13321786Y-13732405D01*
X13397976Y-13827643D02*
X13397976Y-13960976D01*
X13397976Y-13846690D02*
X13407500Y-13837167D01*
X13426548Y-13827643D01*
X13455119Y-13827643D01*
X13474167Y-13837167D01*
X13483690Y-13856214D01*
X13483690Y-13960976D01*
X13607500Y-13960976D02*
X13588452Y-13951452D01*
X13578928Y-13941928D01*
X13569405Y-13922881D01*
X13569405Y-13865738D01*
X13578928Y-13846690D01*
X13588452Y-13837167D01*
X13607500Y-13827643D01*
X13636071Y-13827643D01*
X13655119Y-13837167D01*
X13664643Y-13846690D01*
X13674167Y-13865738D01*
X13674167Y-13922881D01*
X13664643Y-13941928D01*
X13655119Y-13951452D01*
X13636071Y-13960976D01*
X13607500Y-13960976D01*
X13731309Y-13827643D02*
X13807500Y-13827643D01*
X13759881Y-13760976D02*
X13759881Y-13932405D01*
X13769405Y-13951452D01*
X13788452Y-13960976D01*
X13807500Y-13960976D01*
X14026548Y-13827643D02*
X14026548Y-14027643D01*
X14026548Y-13837167D02*
X14045595Y-13827643D01*
X14083690Y-13827643D01*
X14102738Y-13837167D01*
X14112262Y-13846690D01*
X14121786Y-13865738D01*
X14121786Y-13922881D01*
X14112262Y-13941928D01*
X14102738Y-13951452D01*
X14083690Y-13960976D01*
X14045595Y-13960976D01*
X14026548Y-13951452D01*
X14236071Y-13960976D02*
X14217024Y-13951452D01*
X14207500Y-13932405D01*
X14207500Y-13760976D01*
X14397976Y-13960976D02*
X14397976Y-13856214D01*
X14388452Y-13837167D01*
X14369405Y-13827643D01*
X14331309Y-13827643D01*
X14312262Y-13837167D01*
X14397976Y-13951452D02*
X14378928Y-13960976D01*
X14331309Y-13960976D01*
X14312262Y-13951452D01*
X14302738Y-13932405D01*
X14302738Y-13913357D01*
X14312262Y-13894309D01*
X14331309Y-13884786D01*
X14378928Y-13884786D01*
X14397976Y-13875262D01*
X14464643Y-13827643D02*
X14540833Y-13827643D01*
X14493214Y-13760976D02*
X14493214Y-13932405D01*
X14502738Y-13951452D01*
X14521786Y-13960976D01*
X14540833Y-13960976D01*
X14683690Y-13951452D02*
X14664643Y-13960976D01*
X14626548Y-13960976D01*
X14607500Y-13951452D01*
X14597976Y-13932405D01*
X14597976Y-13856214D01*
X14607500Y-13837167D01*
X14626548Y-13827643D01*
X14664643Y-13827643D01*
X14683690Y-13837167D01*
X14693214Y-13856214D01*
X14693214Y-13875262D01*
X14597976Y-13894309D01*
X14864643Y-13960976D02*
X14864643Y-13760976D01*
X14864643Y-13951452D02*
X14845595Y-13960976D01*
X14807500Y-13960976D01*
X14788452Y-13951452D01*
X14778928Y-13941928D01*
X14769405Y-13922881D01*
X14769405Y-13865738D01*
X14778928Y-13846690D01*
X14788452Y-13837167D01*
X14807500Y-13827643D01*
X14845595Y-13827643D01*
X14864643Y-13837167D01*
X14940833Y-14037167D02*
X14950357Y-14027643D01*
X14969405Y-13999071D01*
X14978928Y-13980024D01*
X14988452Y-13951452D01*
X14997976Y-13903833D01*
X14997976Y-13865738D01*
X14988452Y-13818119D01*
X14978928Y-13789548D01*
X14969405Y-13770500D01*
X14950357Y-13741928D01*
X14940833Y-13732405D01*
X7968211Y-14231211D02*
X7968211Y-14089789D01*
X7826789Y-14089789D01*
X7826789Y-14231211D01*
X7968211Y-14231211D01*
X8236071Y-14050976D02*
X8359881Y-14050976D01*
X8293214Y-14127167D01*
X8321786Y-14127167D01*
X8340833Y-14136690D01*
X8350357Y-14146214D01*
X8359881Y-14165262D01*
X8359881Y-14212881D01*
X8350357Y-14231928D01*
X8340833Y-14241452D01*
X8321786Y-14250976D01*
X8264643Y-14250976D01*
X8245595Y-14241452D01*
X8236071Y-14231928D01*
X8445595Y-14231928D02*
X8455119Y-14241452D01*
X8445595Y-14250976D01*
X8436071Y-14241452D01*
X8445595Y-14231928D01*
X8445595Y-14250976D01*
X8531310Y-14070024D02*
X8540833Y-14060500D01*
X8559881Y-14050976D01*
X8607500Y-14050976D01*
X8626548Y-14060500D01*
X8636071Y-14070024D01*
X8645595Y-14089071D01*
X8645595Y-14108119D01*
X8636071Y-14136690D01*
X8521786Y-14250976D01*
X8645595Y-14250976D01*
X8769405Y-14050976D02*
X8788452Y-14050976D01*
X8807500Y-14060500D01*
X8817024Y-14070024D01*
X8826548Y-14089071D01*
X8836071Y-14127167D01*
X8836071Y-14174786D01*
X8826548Y-14212881D01*
X8817024Y-14231928D01*
X8807500Y-14241452D01*
X8788452Y-14250976D01*
X8769405Y-14250976D01*
X8750357Y-14241452D01*
X8740833Y-14231928D01*
X8731310Y-14212881D01*
X8721786Y-14174786D01*
X8721786Y-14127167D01*
X8731310Y-14089071D01*
X8740833Y-14070024D01*
X8750357Y-14060500D01*
X8769405Y-14050976D01*
X8959881Y-14050976D02*
X8978929Y-14050976D01*
X8997976Y-14060500D01*
X9007500Y-14070024D01*
X9017024Y-14089071D01*
X9026548Y-14127167D01*
X9026548Y-14174786D01*
X9017024Y-14212881D01*
X9007500Y-14231928D01*
X8997976Y-14241452D01*
X8978929Y-14250976D01*
X8959881Y-14250976D01*
X8940833Y-14241452D01*
X8931310Y-14231928D01*
X8921786Y-14212881D01*
X8912262Y-14174786D01*
X8912262Y-14127167D01*
X8921786Y-14089071D01*
X8931310Y-14070024D01*
X8940833Y-14060500D01*
X8959881Y-14050976D01*
X9112262Y-14250976D02*
X9112262Y-14117643D01*
X9112262Y-14136690D02*
X9121786Y-14127167D01*
X9140833Y-14117643D01*
X9169405Y-14117643D01*
X9188452Y-14127167D01*
X9197976Y-14146214D01*
X9197976Y-14250976D01*
X9197976Y-14146214D02*
X9207500Y-14127167D01*
X9226548Y-14117643D01*
X9255119Y-14117643D01*
X9274167Y-14127167D01*
X9283690Y-14146214D01*
X9283690Y-14250976D01*
X9378929Y-14250976D02*
X9378929Y-14117643D01*
X9378929Y-14136690D02*
X9388452Y-14127167D01*
X9407500Y-14117643D01*
X9436071Y-14117643D01*
X9455119Y-14127167D01*
X9464643Y-14146214D01*
X9464643Y-14250976D01*
X9464643Y-14146214D02*
X9474167Y-14127167D01*
X9493214Y-14117643D01*
X9521786Y-14117643D01*
X9540833Y-14127167D01*
X9550357Y-14146214D01*
X9550357Y-14250976D01*
X9940833Y-14041452D02*
X9769405Y-14298595D01*
X10197976Y-14050976D02*
X10217024Y-14050976D01*
X10236071Y-14060500D01*
X10245595Y-14070024D01*
X10255119Y-14089071D01*
X10264643Y-14127167D01*
X10264643Y-14174786D01*
X10255119Y-14212881D01*
X10245595Y-14231928D01*
X10236071Y-14241452D01*
X10217024Y-14250976D01*
X10197976Y-14250976D01*
X10178929Y-14241452D01*
X10169405Y-14231928D01*
X10159881Y-14212881D01*
X10150357Y-14174786D01*
X10150357Y-14127167D01*
X10159881Y-14089071D01*
X10169405Y-14070024D01*
X10178929Y-14060500D01*
X10197976Y-14050976D01*
X10350357Y-14231928D02*
X10359881Y-14241452D01*
X10350357Y-14250976D01*
X10340833Y-14241452D01*
X10350357Y-14231928D01*
X10350357Y-14250976D01*
X10550357Y-14250976D02*
X10436071Y-14250976D01*
X10493214Y-14250976D02*
X10493214Y-14050976D01*
X10474167Y-14079548D01*
X10455119Y-14098595D01*
X10436071Y-14108119D01*
X10626548Y-14070024D02*
X10636071Y-14060500D01*
X10655119Y-14050976D01*
X10702738Y-14050976D01*
X10721786Y-14060500D01*
X10731310Y-14070024D01*
X10740833Y-14089071D01*
X10740833Y-14108119D01*
X10731310Y-14136690D01*
X10617024Y-14250976D01*
X10740833Y-14250976D01*
X10912262Y-14050976D02*
X10874167Y-14050976D01*
X10855119Y-14060500D01*
X10845595Y-14070024D01*
X10826548Y-14098595D01*
X10817024Y-14136690D01*
X10817024Y-14212881D01*
X10826548Y-14231928D01*
X10836071Y-14241452D01*
X10855119Y-14250976D01*
X10893214Y-14250976D01*
X10912262Y-14241452D01*
X10921786Y-14231928D01*
X10931310Y-14212881D01*
X10931310Y-14165262D01*
X10921786Y-14146214D01*
X10912262Y-14136690D01*
X10893214Y-14127167D01*
X10855119Y-14127167D01*
X10836071Y-14136690D01*
X10826548Y-14146214D01*
X10817024Y-14165262D01*
X11055119Y-14050976D02*
X11074167Y-14050976D01*
X11093214Y-14060500D01*
X11102738Y-14070024D01*
X11112262Y-14089071D01*
X11121786Y-14127167D01*
X11121786Y-14174786D01*
X11112262Y-14212881D01*
X11102738Y-14231928D01*
X11093214Y-14241452D01*
X11074167Y-14250976D01*
X11055119Y-14250976D01*
X11036071Y-14241452D01*
X11026548Y-14231928D01*
X11017024Y-14212881D01*
X11007500Y-14174786D01*
X11007500Y-14127167D01*
X11017024Y-14089071D01*
X11026548Y-14070024D01*
X11036071Y-14060500D01*
X11055119Y-14050976D01*
X11197976Y-14050976D02*
X11197976Y-14089071D01*
X11274167Y-14050976D02*
X11274167Y-14089071D01*
X11569405Y-14327167D02*
X11559881Y-14317643D01*
X11540833Y-14289071D01*
X11531309Y-14270024D01*
X11521786Y-14241452D01*
X11512262Y-14193833D01*
X11512262Y-14155738D01*
X11521786Y-14108119D01*
X11531309Y-14079548D01*
X11540833Y-14060500D01*
X11559881Y-14031928D01*
X11569405Y-14022405D01*
X11731309Y-14050976D02*
X11693214Y-14050976D01*
X11674167Y-14060500D01*
X11664643Y-14070024D01*
X11645595Y-14098595D01*
X11636071Y-14136690D01*
X11636071Y-14212881D01*
X11645595Y-14231928D01*
X11655119Y-14241452D01*
X11674167Y-14250976D01*
X11712262Y-14250976D01*
X11731309Y-14241452D01*
X11740833Y-14231928D01*
X11750357Y-14212881D01*
X11750357Y-14165262D01*
X11740833Y-14146214D01*
X11731309Y-14136690D01*
X11712262Y-14127167D01*
X11674167Y-14127167D01*
X11655119Y-14136690D01*
X11645595Y-14146214D01*
X11636071Y-14165262D01*
X11988452Y-14250976D02*
X11988452Y-14050976D01*
X12074167Y-14250976D02*
X12074167Y-14146214D01*
X12064643Y-14127167D01*
X12045595Y-14117643D01*
X12017024Y-14117643D01*
X11997976Y-14127167D01*
X11988452Y-14136690D01*
X12197976Y-14250976D02*
X12178928Y-14241452D01*
X12169405Y-14231928D01*
X12159881Y-14212881D01*
X12159881Y-14155738D01*
X12169405Y-14136690D01*
X12178928Y-14127167D01*
X12197976Y-14117643D01*
X12226548Y-14117643D01*
X12245595Y-14127167D01*
X12255119Y-14136690D01*
X12264643Y-14155738D01*
X12264643Y-14212881D01*
X12255119Y-14231928D01*
X12245595Y-14241452D01*
X12226548Y-14250976D01*
X12197976Y-14250976D01*
X12378928Y-14250976D02*
X12359881Y-14241452D01*
X12350357Y-14222405D01*
X12350357Y-14050976D01*
X12531309Y-14241452D02*
X12512262Y-14250976D01*
X12474167Y-14250976D01*
X12455119Y-14241452D01*
X12445595Y-14222405D01*
X12445595Y-14146214D01*
X12455119Y-14127167D01*
X12474167Y-14117643D01*
X12512262Y-14117643D01*
X12531309Y-14127167D01*
X12540833Y-14146214D01*
X12540833Y-14165262D01*
X12445595Y-14184309D01*
X12617024Y-14241452D02*
X12636071Y-14250976D01*
X12674167Y-14250976D01*
X12693214Y-14241452D01*
X12702738Y-14222405D01*
X12702738Y-14212881D01*
X12693214Y-14193833D01*
X12674167Y-14184309D01*
X12645595Y-14184309D01*
X12626548Y-14174786D01*
X12617024Y-14155738D01*
X12617024Y-14146214D01*
X12626548Y-14127167D01*
X12645595Y-14117643D01*
X12674167Y-14117643D01*
X12693214Y-14127167D01*
X12769405Y-14327167D02*
X12778928Y-14317643D01*
X12797976Y-14289071D01*
X12807500Y-14270024D01*
X12817024Y-14241452D01*
X12826548Y-14193833D01*
X12826548Y-14155738D01*
X12817024Y-14108119D01*
X12807500Y-14079548D01*
X12797976Y-14060500D01*
X12778928Y-14031928D01*
X12769405Y-14022405D01*
X13131309Y-14327167D02*
X13121786Y-14317643D01*
X13102738Y-14289071D01*
X13093214Y-14270024D01*
X13083690Y-14241452D01*
X13074167Y-14193833D01*
X13074167Y-14155738D01*
X13083690Y-14108119D01*
X13093214Y-14079548D01*
X13102738Y-14060500D01*
X13121786Y-14031928D01*
X13131309Y-14022405D01*
X13207500Y-14117643D02*
X13207500Y-14250976D01*
X13207500Y-14136690D02*
X13217024Y-14127167D01*
X13236071Y-14117643D01*
X13264643Y-14117643D01*
X13283690Y-14127167D01*
X13293214Y-14146214D01*
X13293214Y-14250976D01*
X13417024Y-14250976D02*
X13397976Y-14241452D01*
X13388452Y-14231928D01*
X13378928Y-14212881D01*
X13378928Y-14155738D01*
X13388452Y-14136690D01*
X13397976Y-14127167D01*
X13417024Y-14117643D01*
X13445595Y-14117643D01*
X13464643Y-14127167D01*
X13474167Y-14136690D01*
X13483690Y-14155738D01*
X13483690Y-14212881D01*
X13474167Y-14231928D01*
X13464643Y-14241452D01*
X13445595Y-14250976D01*
X13417024Y-14250976D01*
X13540833Y-14117643D02*
X13617024Y-14117643D01*
X13569405Y-14050976D02*
X13569405Y-14222405D01*
X13578928Y-14241452D01*
X13597976Y-14250976D01*
X13617024Y-14250976D01*
X13836071Y-14117643D02*
X13836071Y-14317643D01*
X13836071Y-14127167D02*
X13855119Y-14117643D01*
X13893214Y-14117643D01*
X13912262Y-14127167D01*
X13921786Y-14136690D01*
X13931309Y-14155738D01*
X13931309Y-14212881D01*
X13921786Y-14231928D01*
X13912262Y-14241452D01*
X13893214Y-14250976D01*
X13855119Y-14250976D01*
X13836071Y-14241452D01*
X14045595Y-14250976D02*
X14026548Y-14241452D01*
X14017024Y-14222405D01*
X14017024Y-14050976D01*
X14207500Y-14250976D02*
X14207500Y-14146214D01*
X14197976Y-14127167D01*
X14178928Y-14117643D01*
X14140833Y-14117643D01*
X14121786Y-14127167D01*
X14207500Y-14241452D02*
X14188452Y-14250976D01*
X14140833Y-14250976D01*
X14121786Y-14241452D01*
X14112262Y-14222405D01*
X14112262Y-14203357D01*
X14121786Y-14184309D01*
X14140833Y-14174786D01*
X14188452Y-14174786D01*
X14207500Y-14165262D01*
X14274167Y-14117643D02*
X14350357Y-14117643D01*
X14302738Y-14050976D02*
X14302738Y-14222405D01*
X14312262Y-14241452D01*
X14331309Y-14250976D01*
X14350357Y-14250976D01*
X14493214Y-14241452D02*
X14474167Y-14250976D01*
X14436071Y-14250976D01*
X14417024Y-14241452D01*
X14407500Y-14222405D01*
X14407500Y-14146214D01*
X14417024Y-14127167D01*
X14436071Y-14117643D01*
X14474167Y-14117643D01*
X14493214Y-14127167D01*
X14502738Y-14146214D01*
X14502738Y-14165262D01*
X14407500Y-14184309D01*
X14674167Y-14250976D02*
X14674167Y-14050976D01*
X14674167Y-14241452D02*
X14655119Y-14250976D01*
X14617024Y-14250976D01*
X14597976Y-14241452D01*
X14588452Y-14231928D01*
X14578928Y-14212881D01*
X14578928Y-14155738D01*
X14588452Y-14136690D01*
X14597976Y-14127167D01*
X14617024Y-14117643D01*
X14655119Y-14117643D01*
X14674167Y-14127167D01*
X14750357Y-14327167D02*
X14759881Y-14317643D01*
X14778928Y-14289071D01*
X14788452Y-14270024D01*
X14797976Y-14241452D01*
X14807500Y-14193833D01*
X14807500Y-14155738D01*
X14797976Y-14108119D01*
X14788452Y-14079548D01*
X14778928Y-14060500D01*
X14759881Y-14031928D01*
X14750357Y-14022405D01*
M02*
