%TF.GenerationSoftware,KiCad,Pcbnew,(6.0.9)*%
%TF.CreationDate,2023-05-23T15:00:07+02:00*%
%TF.ProjectId,bms_monitor,626d735f-6d6f-46e6-9974-6f722e6b6963,rev?*%
%TF.SameCoordinates,Original*%
%TF.FileFunction,Profile,NP*%
%FSLAX46Y46*%
G04 Gerber Fmt 4.6, Leading zero omitted, Abs format (unit mm)*
G04 Created by KiCad (PCBNEW (6.0.9)) date 2023-05-23 15:00:07*
%MOMM*%
%LPD*%
G01*
G04 APERTURE LIST*
%TA.AperFunction,Profile*%
%ADD10C,0.050000*%
%TD*%
G04 APERTURE END LIST*
D10*
X80000000Y-87000000D02*
X80000000Y-77500000D01*
X195000000Y-62500000D02*
X195000000Y-67500000D01*
X189500000Y-112000000D02*
G75*
G03*
X189000000Y-112500000I0J-500000D01*
G01*
X146000000Y-101800000D02*
X146000000Y-89450000D01*
X80000000Y-67500000D02*
G75*
G03*
X80500000Y-68000000I500000J0D01*
G01*
X195000000Y-121500000D02*
X195000000Y-126500000D01*
X86000000Y-68500000D02*
X86000000Y-76500000D01*
X85500000Y-99000000D02*
G75*
G03*
X86000000Y-98500000I0J500000D01*
G01*
X146000000Y-105800000D02*
G75*
G03*
X145000000Y-105800000I-500000J0D01*
G01*
X130000000Y-64000000D02*
G75*
G03*
X129000000Y-64000000I-500000J0D01*
G01*
X86000000Y-68500000D02*
G75*
G03*
X85500000Y-68000000I-500000J0D01*
G01*
X195000000Y-121500000D02*
G75*
G03*
X194500000Y-121000000I-500000J0D01*
G01*
X194500000Y-101500000D02*
X189500000Y-101500000D01*
X86000000Y-88000000D02*
G75*
G03*
X85500000Y-87500000I-500000J0D01*
G01*
X80000000Y-126500000D02*
X80000000Y-121500000D01*
X135640000Y-115700000D02*
X142225000Y-115700000D01*
X130000000Y-76600000D02*
X130000000Y-88950000D01*
X141000000Y-89950000D02*
X136200000Y-89950000D01*
X80000000Y-109000000D02*
G75*
G03*
X80500000Y-109500000I500000J0D01*
G01*
X194500000Y-90000000D02*
G75*
G03*
X195000000Y-89500000I0J500000D01*
G01*
X135640000Y-114700000D02*
G75*
G03*
X135640000Y-115700000I0J-500000D01*
G01*
X80000000Y-67500000D02*
X80000000Y-62500000D01*
X189500000Y-68000000D02*
G75*
G03*
X189000000Y-68500000I0J-500000D01*
G01*
X145000000Y-89950000D02*
X143700000Y-89950000D01*
X194500000Y-68000000D02*
G75*
G03*
X195000000Y-67500000I0J500000D01*
G01*
X130000000Y-88950000D02*
X130400000Y-88950000D01*
X86000000Y-110000000D02*
G75*
G03*
X85500000Y-109500000I-500000J0D01*
G01*
X142225000Y-114700000D02*
X135640000Y-114700000D01*
X194500000Y-112000000D02*
G75*
G03*
X195000000Y-111500000I0J500000D01*
G01*
X195000000Y-102000000D02*
G75*
G03*
X194500000Y-101500000I-500000J0D01*
G01*
X130400000Y-89950000D02*
X129500000Y-89950000D01*
X80500000Y-68000000D02*
X85500000Y-68000000D01*
X146000000Y-125000000D02*
X146000000Y-105800000D01*
X194500000Y-127000000D02*
X80500000Y-127000000D01*
X189000000Y-101000000D02*
G75*
G03*
X189500000Y-101500000I500000J0D01*
G01*
X143700000Y-88950000D02*
G75*
G03*
X143700000Y-89950000I0J-500000D01*
G01*
X189500000Y-68000000D02*
X194500000Y-68000000D01*
X195000000Y-102000000D02*
X195000000Y-111500000D01*
X141000000Y-89950000D02*
G75*
G03*
X141000000Y-88950000I0J500000D01*
G01*
X80500000Y-99000000D02*
G75*
G03*
X80000000Y-99500000I0J-500000D01*
G01*
X194500000Y-90000000D02*
X189500000Y-90000000D01*
X130400000Y-89950000D02*
G75*
G03*
X130400000Y-88950000I0J500000D01*
G01*
X80500000Y-87500000D02*
X85500000Y-87500000D01*
X85500000Y-77000000D02*
G75*
G03*
X86000000Y-76500000I0J500000D01*
G01*
X130000000Y-76600000D02*
G75*
G03*
X129000000Y-76600000I-500000J0D01*
G01*
X195000000Y-80000000D02*
G75*
G03*
X194500000Y-79500000I-500000J0D01*
G01*
X143700000Y-88950000D02*
X145500000Y-88950000D01*
X146000000Y-89450000D02*
G75*
G03*
X145500000Y-88950000I-500000J0D01*
G01*
X129000000Y-89450000D02*
G75*
G03*
X129500000Y-89950000I500000J0D01*
G01*
X80000000Y-126500000D02*
G75*
G03*
X80500000Y-127000000I500000J0D01*
G01*
X80500000Y-77000000D02*
G75*
G03*
X80000000Y-77500000I0J-500000D01*
G01*
X142225000Y-115700000D02*
G75*
G03*
X142225000Y-114700000I0J500000D01*
G01*
X145000000Y-89950000D02*
X145000000Y-101800000D01*
X129000000Y-89450000D02*
X129000000Y-76600000D01*
X145000000Y-101800000D02*
G75*
G03*
X146000000Y-101800000I500000J0D01*
G01*
X189000000Y-120500000D02*
G75*
G03*
X189500000Y-121000000I500000J0D01*
G01*
X80000000Y-87000000D02*
G75*
G03*
X80500000Y-87500000I500000J0D01*
G01*
X85500000Y-121000000D02*
G75*
G03*
X86000000Y-120500000I0J500000D01*
G01*
X129000000Y-72600000D02*
X129000000Y-64000000D01*
X136200000Y-88950000D02*
G75*
G03*
X136200000Y-89950000I0J-500000D01*
G01*
X195000000Y-62500000D02*
G75*
G03*
X194500000Y-62000000I-500000J0D01*
G01*
X189000000Y-79000000D02*
X189000000Y-68500000D01*
X145000000Y-125000000D02*
G75*
G03*
X146000000Y-125000000I500000J0D01*
G01*
X129000000Y-72600000D02*
G75*
G03*
X130000000Y-72600000I500000J0D01*
G01*
X194500000Y-127000000D02*
G75*
G03*
X195000000Y-126500000I0J500000D01*
G01*
X80500000Y-99000000D02*
X85500000Y-99000000D01*
X130000000Y-64000000D02*
X130000000Y-72600000D01*
X194500000Y-121000000D02*
X189500000Y-121000000D01*
X189000000Y-79000000D02*
G75*
G03*
X189500000Y-79500000I500000J0D01*
G01*
X136200000Y-88950000D02*
X141000000Y-88950000D01*
X80500000Y-121000000D02*
G75*
G03*
X80000000Y-121500000I0J-500000D01*
G01*
X145000000Y-105800000D02*
X145000000Y-125000000D01*
X189000000Y-101000000D02*
X189000000Y-90500000D01*
X80000000Y-109000000D02*
X80000000Y-99500000D01*
X80500000Y-77000000D02*
X85500000Y-77000000D01*
X86000000Y-88000000D02*
X86000000Y-98500000D01*
X195000000Y-80000000D02*
X195000000Y-89500000D01*
X189000000Y-120500000D02*
X189000000Y-112500000D01*
X194500000Y-112000000D02*
X189500000Y-112000000D01*
X85500000Y-121000000D02*
X80500000Y-121000000D01*
X80500000Y-109500000D02*
X85500000Y-109500000D01*
X80500000Y-62000000D02*
X194500000Y-62000000D01*
X86000000Y-110000000D02*
X86000000Y-120500000D01*
X189500000Y-90000000D02*
G75*
G03*
X189000000Y-90500000I0J-500000D01*
G01*
X194500000Y-79500000D02*
X189500000Y-79500000D01*
X80500000Y-62000000D02*
G75*
G03*
X80000000Y-62500000I0J-500000D01*
G01*
M02*
